G04 Layer_Physical_Order=4*
G04 Layer_Color=16711680*
%FSLAX25Y25*%
%MOIN*%
G70*
G01*
G75*
%ADD12C,0.00492*%
%ADD13C,0.01181*%
%ADD14C,0.00591*%
%ADD16O,0.15748X0.17716*%
%ADD17C,0.06693*%
%ADD18C,0.03543*%
%ADD19R,0.03543X0.03543*%
%ADD20C,0.05906*%
%ADD21R,0.05906X0.05906*%
%ADD22O,0.07874X0.03937*%
%ADD23O,0.07874X0.03937*%
%ADD24O,0.04724X0.09843*%
%ADD25R,0.04724X0.09843*%
%ADD26O,0.07087X0.09843*%
%ADD27O,0.13780X0.11811*%
%ADD28O,0.13780X0.09843*%
%ADD29C,0.03150*%
%ADD30C,0.01969*%
%ADD31C,0.11811*%
%ADD62R,0.03937X0.03937*%
%ADD63R,0.02756X0.03150*%
%ADD64R,0.01575X0.01181*%
%ADD65R,0.03150X0.02756*%
%ADD66R,0.02362X0.03150*%
%ADD67R,0.05906X0.05118*%
%ADD68R,0.03150X0.02362*%
%ADD69R,0.04331X0.03937*%
%ADD70R,0.03937X0.04331*%
%ADD71R,0.05906X0.05906*%
%ADD72R,0.01378X0.01378*%
%ADD73R,0.10315X0.10315*%
%ADD74O,0.00984X0.02835*%
%ADD75O,0.02835X0.00984*%
%ADD76R,0.10906X0.11417*%
%ADD77R,0.05512X0.04724*%
%ADD78R,0.03150X0.06299*%
%ADD79R,0.01575X0.02559*%
%ADD80R,0.07480X0.03937*%
%ADD81R,0.04134X0.08661*%
%ADD82R,0.03937X0.04134*%
%ADD83C,0.01969*%
%ADD84C,0.00571*%
%ADD85C,0.00787*%
%ADD86C,0.01575*%
%ADD87C,0.03937*%
%ADD88R,0.15605X0.12586*%
%ADD89R,0.15605X0.65818*%
%ADD90R,0.07441X0.06500*%
%ADD91R,0.07441X0.07000*%
%ADD92R,0.07441X0.05500*%
%ADD93R,0.10630X0.05000*%
%ADD94R,0.07441X0.06000*%
%ADD95R,0.14055X0.06299*%
%ADD96R,0.91339X0.05906*%
%ADD97R,0.91339X0.17323*%
G36*
X-77041Y32451D02*
X-76542Y32352D01*
X-76291Y32101D01*
X-76192Y31602D01*
X-75941Y31117D01*
X-76192Y30632D01*
X-76193Y30625D01*
X-74061D01*
Y29640D01*
X-76193D01*
X-76192Y29633D01*
X-75941Y29148D01*
X-76192Y28663D01*
X-76193Y28656D01*
X-74061D01*
Y27672D01*
X-76193D01*
X-76192Y27665D01*
X-75909Y27242D01*
Y27118D01*
X-76192Y26695D01*
X-76193Y26688D01*
X-74061D01*
Y25703D01*
X-76193D01*
X-76192Y25696D01*
X-75941Y25211D01*
X-76192Y24726D01*
X-76291Y24227D01*
X-76192Y23728D01*
X-75909Y23305D01*
Y23181D01*
X-76192Y22758D01*
X-76291Y22259D01*
X-76192Y21759D01*
X-75909Y21336D01*
Y21213D01*
X-76192Y20789D01*
X-76291Y20290D01*
X-76192Y19791D01*
X-75941Y19306D01*
X-76192Y18821D01*
X-76291Y18322D01*
X-76192Y17822D01*
X-75909Y17399D01*
Y17276D01*
X-76192Y16852D01*
X-76291Y16353D01*
X-76192Y15854D01*
X-75941Y15369D01*
X-76192Y14884D01*
X-76291Y14385D01*
X-76192Y13885D01*
X-75909Y13462D01*
Y13339D01*
X-76192Y12915D01*
X-76291Y12416D01*
X-76192Y11917D01*
X-75941Y11432D01*
X-76192Y10947D01*
X-76291Y10448D01*
X-76192Y9948D01*
X-75941Y9463D01*
X-76192Y8978D01*
X-76291Y8479D01*
X-76192Y7980D01*
X-75909Y7557D01*
Y7433D01*
X-76192Y7010D01*
X-76291Y6511D01*
X-76542Y6260D01*
X-77041Y6161D01*
X-77094Y6125D01*
X-77274Y6208D01*
X-77585Y6904D01*
X-77585Y6904D01*
Y12908D01*
X-90065D01*
Y7012D01*
X-90190Y6646D01*
X-90382Y6248D01*
X-90820Y6161D01*
X-91244Y5878D01*
X-91367D01*
X-91790Y6161D01*
X-92290Y6260D01*
X-92789Y6161D01*
X-93212Y5878D01*
X-93336D01*
X-93759Y6161D01*
X-94258Y6260D01*
X-94757Y6161D01*
X-95181Y5878D01*
X-95304D01*
X-95711Y6150D01*
X-95727Y6161D01*
X-95727Y6161D01*
X-96001Y6224D01*
X-95924Y7003D01*
X-94750D01*
Y9955D01*
X-97703D01*
Y7003D01*
X-96529D01*
X-96452Y6224D01*
X-96726Y6161D01*
X-96726Y6161D01*
X-96742Y6150D01*
X-97149Y5878D01*
X-97273D01*
X-97696Y6161D01*
X-98195Y6260D01*
X-98694Y6161D01*
X-99118Y5878D01*
X-99241D01*
X-99664Y6161D01*
X-99939Y6215D01*
X-99861Y7003D01*
X-98687D01*
Y9955D01*
X-101640D01*
Y8782D01*
X-102427Y8704D01*
X-102482Y8978D01*
X-102733Y9463D01*
X-102482Y9948D01*
X-102383Y10448D01*
X-102482Y10947D01*
X-102765Y11370D01*
Y11494D01*
X-102493Y11901D01*
X-102482Y11917D01*
X-102482Y11917D01*
X-102419Y12190D01*
X-101640Y12114D01*
Y10940D01*
X-98687D01*
Y13892D01*
X-101640D01*
Y12719D01*
X-102419Y12642D01*
X-102482Y12915D01*
X-102482Y12915D01*
X-102493Y12932D01*
X-102765Y13339D01*
Y13462D01*
X-102482Y13885D01*
X-102383Y14385D01*
X-102482Y14884D01*
X-102765Y15307D01*
Y15431D01*
X-102482Y15854D01*
X-102383Y16353D01*
X-102482Y16852D01*
X-102765Y17276D01*
Y17399D01*
X-102482Y17822D01*
X-102383Y18322D01*
X-102482Y18821D01*
X-102733Y19306D01*
X-102482Y19791D01*
X-102481Y19798D01*
X-104613D01*
Y20782D01*
X-102481D01*
X-102482Y20789D01*
X-102733Y21274D01*
X-102482Y21759D01*
X-102383Y22259D01*
X-102404Y22366D01*
X-101967Y22667D01*
X-101187Y22303D01*
Y19266D01*
X-95735D01*
Y25211D01*
Y31156D01*
X-101187D01*
Y30088D01*
X-101967Y29724D01*
X-102404Y30025D01*
X-102383Y30133D01*
X-102482Y30632D01*
X-102733Y31117D01*
X-102482Y31602D01*
X-102383Y32101D01*
X-102132Y32352D01*
X-101633Y32451D01*
X-101210Y32734D01*
X-101086D01*
X-100663Y32451D01*
X-100164Y32352D01*
X-99664Y32451D01*
X-99241Y32734D01*
X-99118D01*
X-98694Y32451D01*
X-98195Y32352D01*
X-97696Y32451D01*
X-97273Y32734D01*
X-97149D01*
X-96726Y32451D01*
X-96227Y32352D01*
X-95727Y32451D01*
X-95304Y32734D01*
X-95181D01*
X-94757Y32451D01*
X-94258Y32352D01*
X-93759Y32451D01*
X-93336Y32734D01*
X-93212D01*
X-92789Y32451D01*
X-92290Y32352D01*
X-91790Y32451D01*
X-91367Y32734D01*
X-91244D01*
X-90820Y32451D01*
X-90321Y32352D01*
X-89822Y32451D01*
X-89399Y32734D01*
X-89275D01*
X-88852Y32451D01*
X-88353Y32352D01*
X-87853Y32451D01*
X-87430Y32734D01*
X-87307D01*
X-86883Y32451D01*
X-86384Y32352D01*
X-85885Y32451D01*
X-85462Y32734D01*
X-85338D01*
X-84915Y32451D01*
X-84416Y32352D01*
X-83916Y32451D01*
X-83493Y32734D01*
X-83370D01*
X-82946Y32451D01*
X-82447Y32352D01*
X-81948Y32451D01*
X-81525Y32734D01*
X-81401D01*
X-80978Y32451D01*
X-80479Y32352D01*
X-79979Y32451D01*
X-79556Y32734D01*
X-79433D01*
X-79009Y32451D01*
X-78510Y32352D01*
X-78011Y32451D01*
X-77588Y32734D01*
X-77464D01*
X-77041Y32451D01*
D02*
G37*
G36*
X219555Y153806D02*
X222603Y153288D01*
X225575Y152432D01*
X228432Y151249D01*
X231138Y149753D01*
X233660Y147964D01*
X235966Y145903D01*
X238026Y143598D01*
X239816Y141076D01*
X241311Y138369D01*
X242495Y135512D01*
X243351Y132541D01*
X243869Y129492D01*
X244038Y126478D01*
X244023Y126405D01*
Y-81832D01*
X244038Y-81905D01*
X243869Y-84920D01*
X243351Y-87968D01*
X242495Y-90940D01*
X241311Y-93797D01*
X239816Y-96503D01*
X238026Y-99025D01*
X235966Y-101331D01*
X233660Y-103391D01*
X231138Y-105181D01*
X228432Y-106676D01*
X225575Y-107860D01*
X222603Y-108716D01*
X219555Y-109234D01*
X216682Y-109395D01*
X216497Y-109359D01*
X-143144Y-109374D01*
X-143701Y-108817D01*
Y-101473D01*
X-142913Y-100963D01*
X-141698Y-101331D01*
X-140000Y-101499D01*
X-138302Y-101331D01*
X-136669Y-100836D01*
X-135165Y-100032D01*
X-133846Y-98949D01*
X-132763Y-97631D01*
X-131959Y-96126D01*
X-131464Y-94493D01*
X-131297Y-92795D01*
Y-91202D01*
X-130527Y-91079D01*
X-130111Y-92085D01*
X-129448Y-92948D01*
X-128585Y-93611D01*
X-127579Y-94027D01*
X-126500Y-94169D01*
X-125421Y-94027D01*
X-124415Y-93611D01*
X-123552Y-92948D01*
X-122889Y-92085D01*
X-122473Y-91079D01*
X-122330Y-90000D01*
X-122473Y-88921D01*
X-122889Y-87915D01*
X-123552Y-87052D01*
X-124415Y-86389D01*
X-125421Y-85973D01*
X-126500Y-85830D01*
X-127579Y-85973D01*
X-128585Y-86389D01*
X-129448Y-87052D01*
X-130111Y-87915D01*
X-130527Y-88921D01*
X-130622Y-89641D01*
X-131415Y-89628D01*
X-131464Y-89129D01*
X-131959Y-87496D01*
X-132763Y-85991D01*
X-133846Y-84673D01*
X-135165Y-83590D01*
X-136669Y-82786D01*
X-138302Y-82291D01*
X-140000Y-82123D01*
X-141698Y-82291D01*
X-142913Y-82659D01*
X-143701Y-82149D01*
Y-77851D01*
X-142913Y-77341D01*
X-141698Y-77709D01*
X-140000Y-77877D01*
X-138302Y-77709D01*
X-136669Y-77214D01*
X-135165Y-76410D01*
X-133846Y-75327D01*
X-132763Y-74009D01*
X-131959Y-72504D01*
X-131464Y-70871D01*
X-131415Y-70372D01*
X-130622Y-70359D01*
X-130527Y-71079D01*
X-130111Y-72085D01*
X-129448Y-72948D01*
X-128585Y-73611D01*
X-127579Y-74027D01*
X-126500Y-74169D01*
X-125421Y-74027D01*
X-124415Y-73611D01*
X-123552Y-72948D01*
X-122889Y-72085D01*
X-122473Y-71079D01*
X-122330Y-70000D01*
X-122473Y-68921D01*
X-122889Y-67915D01*
X-123552Y-67052D01*
X-124415Y-66389D01*
X-125421Y-65973D01*
X-126500Y-65830D01*
X-127579Y-65973D01*
X-128585Y-66389D01*
X-129448Y-67052D01*
X-130111Y-67915D01*
X-130527Y-68921D01*
X-131297Y-68798D01*
Y-67205D01*
X-131464Y-65507D01*
X-131959Y-63874D01*
X-132763Y-62369D01*
X-133846Y-61050D01*
X-135165Y-59968D01*
X-136669Y-59164D01*
X-138302Y-58669D01*
X-140000Y-58501D01*
X-141698Y-58669D01*
X-142913Y-59037D01*
X-143701Y-58527D01*
Y-593D01*
X-137382D01*
X-136634Y-688D01*
Y-3722D01*
X-136831Y-4428D01*
X-137421Y-4428D01*
X-139193D01*
Y-9054D01*
X-136831D01*
Y-7102D01*
X-136634Y-6397D01*
X-136043Y-6397D01*
X-131122D01*
X-130925Y-7102D01*
Y-9054D01*
X-125216D01*
Y-5414D01*
X-119313D01*
Y1870D01*
X-118996D01*
Y4232D01*
X-116634D01*
Y8169D01*
X-118996D01*
Y10531D01*
X-118996Y10531D01*
X-118898Y11024D01*
X-118898Y11024D01*
X-118898Y11278D01*
Y20472D01*
X-121260D01*
Y22469D01*
X-121244Y22845D01*
X-120642Y23243D01*
X-117683D01*
Y20881D01*
X-113353D01*
Y20585D01*
X-111384D01*
Y19601D01*
X-113353D01*
Y17738D01*
X-113411D01*
X-113948Y17631D01*
X-114404Y17326D01*
X-114557Y17174D01*
X-115082Y16823D01*
X-115473Y16237D01*
X-115611Y15546D01*
X-115473Y14855D01*
X-115082Y14269D01*
X-114496Y13877D01*
X-113804Y13739D01*
X-113353Y13369D01*
Y13007D01*
X-111962D01*
X-111542Y12219D01*
X-111615Y12109D01*
X-111753Y11418D01*
X-111615Y10727D01*
X-111224Y10141D01*
X-110638Y9749D01*
X-109946Y9612D01*
X-109255Y9749D01*
X-108669Y10141D01*
X-108639Y10186D01*
X-108196Y10164D01*
X-107886Y9361D01*
X-117860Y-613D01*
X-118088Y-955D01*
X-118169Y-1358D01*
X-118169Y-1358D01*
Y-20433D01*
X-119280D01*
Y-24370D01*
X-119280Y-25157D01*
X-119280Y-25945D01*
Y-29882D01*
X-114950D01*
Y-28573D01*
X-113091D01*
Y-31988D01*
X-105610D01*
Y-25295D01*
X-113091D01*
Y-26466D01*
X-114393D01*
X-114950Y-25909D01*
X-114950Y-25157D01*
X-114950Y-24370D01*
Y-20433D01*
X-116061D01*
Y-1795D01*
X-107613Y6654D01*
X-107289Y6594D01*
X-106809Y6344D01*
X-106743Y6011D01*
X-106460Y5588D01*
X-106037Y5305D01*
X-105666Y5232D01*
Y2250D01*
X-105666Y2250D01*
X-105586Y1847D01*
X-105358Y1505D01*
X-90181Y-13672D01*
X-90482Y-14399D01*
X-103888D01*
X-104038Y-14175D01*
X-104624Y-13784D01*
X-105315Y-13646D01*
X-106006Y-13784D01*
X-106592Y-14175D01*
X-106984Y-14762D01*
X-107121Y-15453D01*
X-106984Y-16144D01*
X-106601Y-16717D01*
X-106592Y-16730D01*
X-106187Y-17332D01*
X-106278Y-17815D01*
X-106341Y-17815D01*
X-108858D01*
Y-20669D01*
X-105610D01*
Y-18170D01*
X-105610Y-18170D01*
X-105610D01*
X-105462Y-17630D01*
X-105462Y-17630D01*
X-105137Y-17224D01*
X-104624Y-17122D01*
X-104038Y-16730D01*
X-103888Y-16507D01*
X-83311D01*
X-82404Y-17413D01*
X-82477Y-17775D01*
X-82722Y-18208D01*
X-83227Y-18274D01*
X-83850Y-18532D01*
X-84384Y-18943D01*
X-84585Y-19204D01*
X-84739Y-19261D01*
X-85379D01*
X-85533Y-19204D01*
X-85734Y-18943D01*
X-86269Y-18532D01*
X-86891Y-18274D01*
X-87559Y-18187D01*
X-88227Y-18274D01*
X-88850Y-18532D01*
X-89384Y-18943D01*
X-89585Y-19204D01*
X-89739Y-19261D01*
X-90379D01*
X-90534Y-19204D01*
X-90734Y-18943D01*
X-91268Y-18532D01*
X-91891Y-18274D01*
X-92559Y-18187D01*
X-93227Y-18274D01*
X-93850Y-18532D01*
X-94384Y-18943D01*
X-94585Y-19204D01*
X-94739Y-19261D01*
X-95379D01*
X-95534Y-19204D01*
X-95734Y-18943D01*
X-96268Y-18532D01*
X-96891Y-18274D01*
X-97559Y-18187D01*
X-98227Y-18274D01*
X-98850Y-18532D01*
X-99384Y-18943D01*
X-99794Y-19477D01*
X-100052Y-20100D01*
X-100140Y-20768D01*
X-100052Y-21436D01*
X-99794Y-22058D01*
X-99516Y-22421D01*
X-99704Y-23000D01*
X-99869Y-23209D01*
X-100118D01*
Y-28327D01*
X-95000D01*
Y-28077D01*
X-94791Y-27913D01*
X-94213Y-27724D01*
X-93850Y-28003D01*
X-93227Y-28261D01*
X-93051Y-28284D01*
Y-25768D01*
X-92067D01*
Y-28284D01*
X-91891Y-28261D01*
X-91268Y-28003D01*
X-90734Y-27593D01*
X-90534Y-27332D01*
X-90379Y-27274D01*
X-89739D01*
X-89585Y-27332D01*
X-89384Y-27593D01*
X-88850Y-28003D01*
X-88227Y-28261D01*
X-88051Y-28284D01*
Y-25768D01*
X-87067D01*
Y-28284D01*
X-86891Y-28261D01*
X-86269Y-28003D01*
X-85734Y-27593D01*
X-85533Y-27332D01*
X-85379Y-27274D01*
X-84739D01*
X-84585Y-27332D01*
X-84384Y-27593D01*
X-83850Y-28003D01*
X-83227Y-28261D01*
X-82559Y-28349D01*
X-81891Y-28261D01*
X-81269Y-28003D01*
X-80734Y-27593D01*
X-80533Y-27332D01*
X-80379Y-27274D01*
X-79739D01*
X-79585Y-27332D01*
X-79384Y-27593D01*
X-78850Y-28003D01*
X-78227Y-28261D01*
X-78051Y-28284D01*
Y-25768D01*
X-77559D01*
Y-25276D01*
X-75043D01*
X-75066Y-25100D01*
X-75324Y-24477D01*
X-75734Y-23943D01*
X-75995Y-23742D01*
X-76052Y-23587D01*
Y-22948D01*
X-75995Y-22793D01*
X-75734Y-22593D01*
X-75324Y-22058D01*
X-75066Y-21436D01*
X-74978Y-20768D01*
X-75066Y-20100D01*
X-75324Y-19477D01*
X-75734Y-18943D01*
X-76269Y-18532D01*
X-76891Y-18274D01*
X-77559Y-18187D01*
X-78227Y-18274D01*
X-78464Y-18373D01*
X-80587Y-16250D01*
X-80286Y-15522D01*
X116634D01*
X116634Y-15522D01*
X117037Y-15442D01*
X117379Y-15214D01*
X127993Y-4599D01*
X127993Y-4599D01*
X128221Y-4258D01*
X128302Y-3854D01*
Y-1067D01*
X129610D01*
Y45D01*
X130496D01*
Y-1067D01*
X134433D01*
Y45D01*
X135811D01*
Y-772D01*
X138961D01*
Y1984D01*
X138220D01*
X138220Y1984D01*
X138502Y2772D01*
X138961D01*
Y3658D01*
X135811D01*
Y2940D01*
X135811Y2772D01*
X135406Y2152D01*
X134433D01*
Y3658D01*
Y5528D01*
X130496D01*
Y3658D01*
Y2152D01*
X129610D01*
Y3264D01*
X125673D01*
X124886Y3264D01*
X124134Y3264D01*
X123577Y3821D01*
Y5841D01*
X124579Y5973D01*
X125585Y6389D01*
X126448Y7052D01*
X127111Y7915D01*
X127527Y8921D01*
X127670Y10000D01*
X127527Y11079D01*
X127111Y12085D01*
X126448Y12948D01*
X125585Y13611D01*
X124579Y14027D01*
X123577Y14159D01*
Y15841D01*
X124579Y15973D01*
X125585Y16389D01*
X126448Y17052D01*
X127111Y17915D01*
X127527Y18921D01*
X127670Y20000D01*
X127527Y21079D01*
X127111Y22085D01*
X126448Y22948D01*
X125585Y23611D01*
X124579Y24027D01*
X123577Y24159D01*
Y25841D01*
X124579Y25973D01*
X125585Y26389D01*
X126448Y27052D01*
X127111Y27915D01*
X127527Y28921D01*
X127670Y30000D01*
X127527Y31079D01*
X127111Y32085D01*
X126448Y32948D01*
X125585Y33611D01*
X124579Y34027D01*
X123500Y34170D01*
X122421Y34027D01*
X121415Y33611D01*
X120552Y32948D01*
X120118Y32920D01*
X118533Y34505D01*
X118041Y36126D01*
X117237Y37631D01*
X116154Y38949D01*
X114835Y40032D01*
X113331Y40836D01*
X111698Y41331D01*
X110000Y41499D01*
X108302Y41331D01*
X106669Y40836D01*
X105165Y40032D01*
X103846Y38949D01*
X102763Y37631D01*
X101959Y36126D01*
X101464Y34493D01*
X101297Y32795D01*
Y30827D01*
X101464Y29129D01*
X101959Y27496D01*
X102763Y25991D01*
X103846Y24673D01*
X105165Y23590D01*
X106669Y22786D01*
X108302Y22291D01*
X110000Y22123D01*
X111698Y22291D01*
X113331Y22786D01*
X114835Y23590D01*
X116154Y24673D01*
X117237Y25991D01*
X118041Y27496D01*
X118536Y29129D01*
X118585Y29628D01*
X119378Y29641D01*
X119473Y28921D01*
X119889Y27915D01*
X120552Y27052D01*
X121415Y26389D01*
X121470Y26366D01*
Y23634D01*
X121415Y23611D01*
X120552Y22948D01*
X119889Y22085D01*
X119473Y21079D01*
X119331Y20000D01*
X119473Y18921D01*
X119889Y17915D01*
X120552Y17052D01*
X121415Y16389D01*
X121470Y16366D01*
Y13634D01*
X121415Y13611D01*
X120552Y12948D01*
X119889Y12085D01*
X119473Y11079D01*
X119378Y10359D01*
X118585Y10372D01*
X118536Y10871D01*
X118041Y12504D01*
X117237Y14008D01*
X116154Y15327D01*
X114835Y16410D01*
X113331Y17214D01*
X111698Y17709D01*
X110000Y17877D01*
X108302Y17709D01*
X106669Y17214D01*
X105165Y16410D01*
X103846Y15327D01*
X102763Y14008D01*
X101959Y12504D01*
X101464Y10871D01*
X101297Y9173D01*
Y7205D01*
X101464Y5507D01*
X101959Y3874D01*
X102763Y2369D01*
X103846Y1051D01*
X105165Y-32D01*
X106669Y-836D01*
X108302Y-1331D01*
X110000Y-1499D01*
X111698Y-1331D01*
X113331Y-836D01*
X114835Y-32D01*
X116154Y1051D01*
X117237Y2369D01*
X118041Y3874D01*
X118433Y5167D01*
X119720D01*
X119720Y5167D01*
X120124Y5247D01*
X120466Y5475D01*
X120683Y5692D01*
X121470Y5366D01*
Y3264D01*
X120161D01*
Y-1067D01*
X124098D01*
X124886Y-1067D01*
X125637Y-1067D01*
X126194Y-1624D01*
Y-3418D01*
X116197Y-13415D01*
X65352D01*
X65051Y-12687D01*
X76671Y-1067D01*
X79709D01*
Y45D01*
X80594D01*
Y-1067D01*
X84531D01*
Y45D01*
X85909D01*
Y-772D01*
X89059D01*
Y1984D01*
X88318D01*
X88318Y1984D01*
X88600Y2772D01*
X89059D01*
Y3658D01*
X85909D01*
Y2940D01*
X85909Y2772D01*
X85504Y2152D01*
X84531D01*
Y3658D01*
Y5528D01*
X80594D01*
Y3658D01*
Y2152D01*
X79709D01*
Y3264D01*
X74984D01*
Y3264D01*
X74984D01*
X74984Y3264D01*
X73676D01*
Y5854D01*
X74579Y5973D01*
X75585Y6389D01*
X76448Y7052D01*
X77111Y7915D01*
X77527Y8921D01*
X77670Y10000D01*
X77527Y11079D01*
X77111Y12085D01*
X76448Y12948D01*
X75585Y13611D01*
X74579Y14027D01*
X73676Y14146D01*
Y15854D01*
X74579Y15973D01*
X75585Y16389D01*
X76448Y17052D01*
X77111Y17915D01*
X77527Y18921D01*
X77670Y20000D01*
X77527Y21079D01*
X77111Y22085D01*
X76448Y22948D01*
X75585Y23611D01*
X74579Y24027D01*
X73676Y24146D01*
Y25854D01*
X74579Y25973D01*
X75585Y26389D01*
X76448Y27052D01*
X77111Y27915D01*
X77527Y28921D01*
X77670Y30000D01*
X77527Y31079D01*
X77111Y32085D01*
X76448Y32948D01*
X75585Y33611D01*
X74579Y34027D01*
X73500Y34170D01*
X72421Y34027D01*
X71415Y33611D01*
X70552Y32948D01*
X70302Y32932D01*
X68710Y34525D01*
X68480Y34678D01*
X68041Y36126D01*
X67237Y37631D01*
X66154Y38949D01*
X64835Y40032D01*
X63331Y40836D01*
X61698Y41331D01*
X60000Y41499D01*
X58302Y41331D01*
X56669Y40836D01*
X55165Y40032D01*
X53846Y38949D01*
X52763Y37631D01*
X51959Y36126D01*
X51464Y34493D01*
X51297Y32795D01*
Y30827D01*
X51464Y29129D01*
X51959Y27496D01*
X52763Y25991D01*
X53846Y24673D01*
X55165Y23590D01*
X56669Y22786D01*
X58302Y22291D01*
X60000Y22123D01*
X61698Y22291D01*
X63331Y22786D01*
X64835Y23590D01*
X66154Y24673D01*
X67237Y25991D01*
X68041Y27496D01*
X68536Y29129D01*
X68585Y29628D01*
X69378Y29641D01*
X69473Y28921D01*
X69889Y27915D01*
X70552Y27052D01*
X71415Y26389D01*
X71568Y26326D01*
Y23674D01*
X71415Y23611D01*
X70552Y22948D01*
X69889Y22085D01*
X69473Y21079D01*
X69331Y20000D01*
X69473Y18921D01*
X69889Y17915D01*
X70552Y17052D01*
X71415Y16389D01*
X71568Y16326D01*
Y13674D01*
X71415Y13611D01*
X70552Y12948D01*
X69889Y12085D01*
X69473Y11079D01*
X69378Y10359D01*
X68585Y10372D01*
X68536Y10871D01*
X68041Y12504D01*
X67237Y14008D01*
X66154Y15327D01*
X64835Y16410D01*
X63331Y17214D01*
X61698Y17709D01*
X60000Y17877D01*
X58302Y17709D01*
X56669Y17214D01*
X55165Y16410D01*
X53846Y15327D01*
X52763Y14008D01*
X51959Y12504D01*
X51464Y10871D01*
X51297Y9173D01*
Y7205D01*
X51464Y5507D01*
X51959Y3874D01*
X52763Y2369D01*
X53846Y1051D01*
X55165Y-32D01*
X56669Y-836D01*
X58302Y-1331D01*
X60000Y-1499D01*
X61698Y-1331D01*
X63331Y-836D01*
X64835Y-32D01*
X66154Y1051D01*
X67237Y2369D01*
X68041Y3874D01*
X68433Y5167D01*
X69720D01*
X69721Y5167D01*
X70124Y5247D01*
X70466Y5475D01*
X70781Y5791D01*
X71568Y5465D01*
Y3264D01*
X70260D01*
Y-1067D01*
X72662D01*
X72964Y-1794D01*
X62327Y-12431D01*
X40091D01*
X39478Y-11643D01*
X39503Y-11516D01*
X39366Y-10825D01*
X38974Y-10238D01*
X38388Y-9847D01*
X37697Y-9709D01*
X37006Y-9847D01*
X36420Y-10238D01*
X36270Y-10462D01*
X32807D01*
X32333Y-9675D01*
X32417Y-9252D01*
X32279Y-8561D01*
X31888Y-7975D01*
X31302Y-7583D01*
X30610Y-7446D01*
X29919Y-7583D01*
X29333Y-7975D01*
X28941Y-8561D01*
X28851Y-9014D01*
X26207Y-10462D01*
X17927D01*
X17626Y-9735D01*
X26671Y-689D01*
X29709D01*
Y423D01*
X30595D01*
Y-689D01*
X34532D01*
Y423D01*
X35909D01*
Y-394D01*
X39059D01*
Y2362D01*
X38318D01*
X38318Y2362D01*
X38600Y3150D01*
X39059D01*
Y4036D01*
X35909D01*
Y3317D01*
X35909Y3150D01*
X35504Y2530D01*
X34532D01*
Y4035D01*
Y5906D01*
X30595D01*
Y4035D01*
Y2530D01*
X29709D01*
Y3642D01*
X25772D01*
X24984Y3642D01*
Y3642D01*
X24984D01*
X24984Y3642D01*
X23676D01*
Y5854D01*
X24579Y5973D01*
X25585Y6389D01*
X26448Y7052D01*
X27111Y7915D01*
X27527Y8921D01*
X27670Y10000D01*
X27527Y11079D01*
X27111Y12085D01*
X26448Y12948D01*
X25585Y13611D01*
X24579Y14027D01*
X23676Y14146D01*
Y15854D01*
X24579Y15973D01*
X25585Y16389D01*
X26448Y17052D01*
X27111Y17915D01*
X27527Y18921D01*
X27670Y20000D01*
X27527Y21079D01*
X27111Y22085D01*
X26448Y22948D01*
X25585Y23611D01*
X24579Y24027D01*
X23676Y24146D01*
Y25854D01*
X24579Y25973D01*
X25585Y26389D01*
X26448Y27052D01*
X27111Y27915D01*
X27527Y28921D01*
X27670Y30000D01*
X27527Y31079D01*
X27111Y32085D01*
X26448Y32948D01*
X25585Y33611D01*
X24579Y34027D01*
X23500Y34170D01*
X22421Y34027D01*
X21415Y33611D01*
X20552Y32948D01*
X20302Y32932D01*
X18710Y34525D01*
X18480Y34678D01*
X18041Y36126D01*
X17236Y37631D01*
X16154Y38949D01*
X14835Y40032D01*
X13331Y40836D01*
X11698Y41331D01*
X10000Y41499D01*
X8302Y41331D01*
X6669Y40836D01*
X5165Y40032D01*
X3846Y38949D01*
X2763Y37631D01*
X1959Y36126D01*
X1464Y34493D01*
X1297Y32795D01*
Y30827D01*
X1464Y29129D01*
X1959Y27496D01*
X2763Y25991D01*
X3846Y24673D01*
X5165Y23590D01*
X6669Y22786D01*
X8302Y22291D01*
X10000Y22123D01*
X11698Y22291D01*
X13331Y22786D01*
X14835Y23590D01*
X16154Y24673D01*
X17236Y25991D01*
X18041Y27496D01*
X18536Y29129D01*
X18585Y29628D01*
X19378Y29641D01*
X19473Y28921D01*
X19889Y27915D01*
X20552Y27052D01*
X21415Y26389D01*
X21568Y26326D01*
Y23674D01*
X21415Y23611D01*
X20552Y22948D01*
X19889Y22085D01*
X19473Y21079D01*
X19331Y20000D01*
X19473Y18921D01*
X19889Y17915D01*
X20552Y17052D01*
X21415Y16389D01*
X21568Y16326D01*
Y13674D01*
X21415Y13611D01*
X20552Y12948D01*
X19889Y12085D01*
X19473Y11079D01*
X19378Y10359D01*
X18585Y10372D01*
X18536Y10871D01*
X18041Y12504D01*
X17236Y14008D01*
X16154Y15327D01*
X14835Y16410D01*
X13331Y17214D01*
X11698Y17709D01*
X10000Y17877D01*
X8302Y17709D01*
X6669Y17214D01*
X5165Y16410D01*
X3846Y15327D01*
X2763Y14008D01*
X1959Y12504D01*
X1464Y10871D01*
X1297Y9173D01*
Y7205D01*
X1464Y5507D01*
X1959Y3874D01*
X2763Y2369D01*
X3846Y1051D01*
X5165Y-32D01*
X6669Y-836D01*
X8302Y-1331D01*
X10000Y-1499D01*
X11698Y-1331D01*
X13331Y-836D01*
X14835Y-32D01*
X16154Y1051D01*
X17236Y2369D01*
X18041Y3874D01*
X18433Y5167D01*
X19720D01*
X19721Y5167D01*
X20124Y5247D01*
X20466Y5475D01*
X20781Y5791D01*
X21568Y5465D01*
Y3642D01*
X20260D01*
Y-689D01*
X22662D01*
X22964Y-1416D01*
X14902Y-9478D01*
X-27431D01*
X-27733Y-8750D01*
X-22286Y-3304D01*
X-22286Y-3304D01*
X-22058Y-2962D01*
X-21978Y-2559D01*
Y-673D01*
X-20669D01*
Y-54D01*
X-19783D01*
Y-673D01*
X-15846D01*
Y-54D01*
X-14469D01*
Y-378D01*
X-11319D01*
Y2378D01*
X-14469D01*
Y2054D01*
X-15846D01*
Y4051D01*
Y5921D01*
X-19783D01*
Y4051D01*
Y2054D01*
X-20669D01*
Y3658D01*
X-24606D01*
X-25394Y3658D01*
X-26145Y3658D01*
X-26702Y4214D01*
Y5045D01*
X-26165Y5516D01*
X-25086Y5658D01*
X-24081Y6074D01*
X-23217Y6737D01*
X-22554Y7600D01*
X-22138Y8606D01*
X-21996Y9685D01*
X-22138Y10764D01*
X-22554Y11770D01*
X-23217Y12633D01*
X-24081Y13296D01*
X-25086Y13713D01*
X-26165Y13855D01*
X-26662Y14290D01*
Y15080D01*
X-26165Y15516D01*
X-25086Y15658D01*
X-24081Y16074D01*
X-23217Y16737D01*
X-22554Y17600D01*
X-22138Y18606D01*
X-21996Y19685D01*
X-22138Y20764D01*
X-22554Y21770D01*
X-23217Y22633D01*
X-24081Y23296D01*
X-25086Y23712D01*
X-26165Y23855D01*
X-26662Y24290D01*
Y25080D01*
X-26165Y25515D01*
X-25086Y25658D01*
X-24081Y26074D01*
X-23217Y26737D01*
X-22554Y27600D01*
X-22138Y28606D01*
X-21996Y29685D01*
X-22138Y30764D01*
X-22554Y31770D01*
X-23217Y32633D01*
X-24081Y33296D01*
X-25086Y33713D01*
X-26165Y33855D01*
X-27244Y33713D01*
X-28250Y33296D01*
X-29114Y32633D01*
X-29364Y32307D01*
X-30405Y32234D01*
X-30996Y32825D01*
X-31129Y34178D01*
X-31624Y35811D01*
X-32429Y37316D01*
X-33511Y38634D01*
X-34830Y39717D01*
X-36335Y40521D01*
X-37967Y41016D01*
X-39665Y41184D01*
X-41363Y41016D01*
X-42996Y40521D01*
X-44501Y39717D01*
X-45820Y38634D01*
X-46902Y37316D01*
X-47706Y35811D01*
X-48201Y34178D01*
X-48369Y32480D01*
Y30512D01*
X-48201Y28814D01*
X-47706Y27181D01*
X-46902Y25677D01*
X-45820Y24358D01*
X-44501Y23275D01*
X-42996Y22471D01*
X-41363Y21976D01*
X-39665Y21809D01*
X-37967Y21976D01*
X-36335Y22471D01*
X-34830Y23275D01*
X-33511Y24358D01*
X-32429Y25677D01*
X-31624Y27181D01*
X-31303Y28241D01*
X-30392Y28690D01*
X-30372Y28686D01*
X-30193Y28606D01*
X-29776Y27600D01*
X-29114Y26737D01*
X-28810Y26503D01*
Y22867D01*
X-29114Y22633D01*
X-29776Y21770D01*
X-30193Y20764D01*
X-30335Y19685D01*
X-30193Y18606D01*
X-29776Y17600D01*
X-29114Y16737D01*
X-28810Y16503D01*
Y12867D01*
X-29114Y12633D01*
X-29776Y11770D01*
X-30193Y10764D01*
X-30288Y10044D01*
X-31080Y10057D01*
X-31129Y10556D01*
X-31624Y12189D01*
X-32429Y13694D01*
X-33511Y15012D01*
X-34830Y16095D01*
X-36335Y16899D01*
X-37967Y17394D01*
X-39665Y17562D01*
X-41363Y17394D01*
X-42996Y16899D01*
X-44501Y16095D01*
X-45820Y15012D01*
X-46902Y13694D01*
X-47706Y12189D01*
X-48201Y10556D01*
X-48369Y8858D01*
Y6890D01*
X-48201Y5192D01*
X-47706Y3559D01*
X-46902Y2054D01*
X-45820Y736D01*
X-44501Y-347D01*
X-42996Y-1151D01*
X-41363Y-1646D01*
X-39665Y-1814D01*
X-37967Y-1646D01*
X-36335Y-1151D01*
X-34830Y-347D01*
X-33511Y736D01*
X-32429Y2054D01*
X-31624Y3559D01*
X-31232Y4852D01*
X-29945D01*
X-29945Y4852D01*
X-29597Y4921D01*
X-29518Y4917D01*
X-28810Y4474D01*
Y3658D01*
X-30118D01*
Y-673D01*
X-26181D01*
X-25394Y-673D01*
X-24642Y-673D01*
X-24085Y-1230D01*
Y-2123D01*
X-30456Y-8494D01*
X-53809D01*
X-54110Y-7766D01*
X-50436Y-4092D01*
X-50436Y-4092D01*
X-50208Y-3750D01*
X-50127Y-3347D01*
X-50127Y-3346D01*
Y43560D01*
X-46627Y47060D01*
X-45630Y46944D01*
X-45569Y46853D01*
X-44983Y46461D01*
X-44291Y46324D01*
X-43600Y46461D01*
X-43014Y46853D01*
X-42623Y47439D01*
X-42485Y48130D01*
X-42537Y48394D01*
X-38835Y52096D01*
X167083D01*
X178474Y40705D01*
Y3435D01*
X177826Y2787D01*
X175098Y2787D01*
X174347Y2787D01*
X173790Y3344D01*
Y5869D01*
X174579Y5973D01*
X175585Y6389D01*
X176448Y7052D01*
X177111Y7915D01*
X177527Y8921D01*
X177670Y10000D01*
X177527Y11079D01*
X177111Y12085D01*
X176448Y12948D01*
X175585Y13611D01*
X174579Y14027D01*
X173790Y14131D01*
Y15869D01*
X174579Y15973D01*
X175585Y16389D01*
X176448Y17052D01*
X177111Y17915D01*
X177527Y18921D01*
X177670Y20000D01*
X177527Y21079D01*
X177111Y22085D01*
X176448Y22948D01*
X175585Y23611D01*
X174579Y24027D01*
X173790Y24131D01*
Y25869D01*
X174579Y25973D01*
X175585Y26389D01*
X176448Y27052D01*
X177111Y27915D01*
X177527Y28921D01*
X177670Y30000D01*
X177527Y31079D01*
X177111Y32085D01*
X176448Y32948D01*
X175585Y33611D01*
X174579Y34027D01*
X173500Y34170D01*
X172421Y34027D01*
X171415Y33611D01*
X170552Y32948D01*
X170517Y32946D01*
X168938Y34525D01*
X168596Y34753D01*
X168448Y34782D01*
X168041Y36126D01*
X167237Y37631D01*
X166154Y38949D01*
X164835Y40032D01*
X163331Y40836D01*
X161698Y41331D01*
X160000Y41499D01*
X158302Y41331D01*
X156669Y40836D01*
X155165Y40032D01*
X153846Y38949D01*
X152763Y37631D01*
X151959Y36126D01*
X151464Y34493D01*
X151297Y32795D01*
Y30827D01*
X151464Y29129D01*
X151959Y27496D01*
X152763Y25991D01*
X153846Y24673D01*
X155165Y23590D01*
X156669Y22786D01*
X158302Y22291D01*
X160000Y22123D01*
X161698Y22291D01*
X163331Y22786D01*
X164835Y23590D01*
X166154Y24673D01*
X167237Y25991D01*
X168041Y27496D01*
X168536Y29129D01*
X168585Y29628D01*
X169378Y29641D01*
X169473Y28921D01*
X169889Y27915D01*
X170552Y27052D01*
X171415Y26389D01*
X171683Y26278D01*
Y23722D01*
X171415Y23611D01*
X170552Y22948D01*
X169889Y22085D01*
X169473Y21079D01*
X169331Y20000D01*
X169473Y18921D01*
X169889Y17915D01*
X170552Y17052D01*
X171415Y16389D01*
X171683Y16278D01*
Y13722D01*
X171415Y13611D01*
X170552Y12948D01*
X169889Y12085D01*
X169473Y11079D01*
X169378Y10359D01*
X168585Y10372D01*
X168536Y10871D01*
X168041Y12504D01*
X167237Y14008D01*
X166154Y15327D01*
X164835Y16410D01*
X163331Y17214D01*
X161698Y17709D01*
X160000Y17877D01*
X158302Y17709D01*
X156669Y17214D01*
X155165Y16410D01*
X153846Y15327D01*
X152763Y14008D01*
X151959Y12504D01*
X151464Y10871D01*
X151297Y9173D01*
Y7205D01*
X151464Y5507D01*
X151959Y3874D01*
X152763Y2369D01*
X153846Y1051D01*
X155165Y-32D01*
X156669Y-836D01*
X158302Y-1331D01*
X160000Y-1499D01*
X161698Y-1331D01*
X163331Y-836D01*
X164835Y-32D01*
X166154Y1051D01*
X167237Y2369D01*
X168041Y3874D01*
X168433Y5167D01*
X169720D01*
X169720Y5167D01*
X170124Y5247D01*
X170466Y5475D01*
X170895Y5905D01*
X171683Y5579D01*
Y2787D01*
X170374D01*
Y-1543D01*
X174311D01*
X175098Y-1543D01*
X175886Y-1543D01*
X179823D01*
Y-432D01*
X180709D01*
Y-1543D01*
X184646D01*
Y-432D01*
X186024D01*
Y-1248D01*
X189173D01*
Y1508D01*
X188432D01*
X188432Y1508D01*
X188714Y2295D01*
X189173D01*
Y3181D01*
X186024D01*
Y2463D01*
X186024Y2295D01*
X185618Y1676D01*
X184646D01*
Y3181D01*
Y5051D01*
X182677D01*
Y5543D01*
X182185D01*
Y7905D01*
X180709D01*
X180581Y8640D01*
Y41142D01*
X180501Y41545D01*
X180273Y41887D01*
X180273Y41887D01*
X168981Y53179D01*
X169307Y53966D01*
X207972D01*
X207972Y53966D01*
X208101Y53992D01*
X228179Y33914D01*
Y31565D01*
X227391Y31408D01*
X227111Y32085D01*
X226448Y32948D01*
X225585Y33611D01*
X224579Y34027D01*
X223500Y34170D01*
X222421Y34027D01*
X221415Y33611D01*
X220753Y33103D01*
X219332Y34525D01*
X218990Y34753D01*
X218587Y34833D01*
X218587Y34833D01*
X218433D01*
X218041Y36126D01*
X217236Y37631D01*
X216154Y38949D01*
X214835Y40032D01*
X213331Y40836D01*
X211698Y41331D01*
X210000Y41499D01*
X208302Y41331D01*
X206669Y40836D01*
X205165Y40032D01*
X203846Y38949D01*
X202763Y37631D01*
X201959Y36126D01*
X201464Y34493D01*
X201297Y32795D01*
Y30827D01*
X201464Y29129D01*
X201959Y27496D01*
X202763Y25991D01*
X203846Y24673D01*
X205165Y23590D01*
X206669Y22786D01*
X208302Y22291D01*
X210000Y22123D01*
X211698Y22291D01*
X213331Y22786D01*
X214835Y23590D01*
X216154Y24673D01*
X217236Y25991D01*
X218041Y27496D01*
X218536Y29129D01*
X218585Y29628D01*
X219378Y29641D01*
X219473Y28921D01*
X219889Y27915D01*
X220552Y27052D01*
X221415Y26389D01*
X221879Y26197D01*
Y23803D01*
X221415Y23611D01*
X220552Y22948D01*
X219889Y22085D01*
X219473Y21079D01*
X219331Y20000D01*
X219473Y18921D01*
X219889Y17915D01*
X220552Y17052D01*
X221415Y16389D01*
X221879Y16197D01*
Y13803D01*
X221415Y13611D01*
X220552Y12948D01*
X219889Y12085D01*
X219473Y11079D01*
X219378Y10359D01*
X218585Y10372D01*
X218536Y10871D01*
X218041Y12504D01*
X217236Y14008D01*
X216154Y15327D01*
X214835Y16410D01*
X213331Y17214D01*
X211698Y17709D01*
X210000Y17877D01*
X208302Y17709D01*
X206669Y17214D01*
X205165Y16410D01*
X203846Y15327D01*
X202763Y14008D01*
X201959Y12504D01*
X201464Y10871D01*
X201297Y9173D01*
Y7205D01*
X201464Y5507D01*
X201959Y3874D01*
X202763Y2369D01*
X203846Y1051D01*
X205165Y-32D01*
X206669Y-836D01*
X208302Y-1331D01*
X210000Y-1499D01*
X211698Y-1331D01*
X213331Y-836D01*
X214835Y-32D01*
X216154Y1051D01*
X217236Y2369D01*
X218041Y3874D01*
X218433Y5167D01*
X219720D01*
X219721Y5167D01*
X220124Y5247D01*
X220466Y5475D01*
X221092Y6102D01*
X221879Y5776D01*
Y2984D01*
X220571D01*
Y-1346D01*
X224508D01*
X225295Y-1346D01*
X226083Y-1346D01*
X230020D01*
Y-235D01*
X230906D01*
Y-1346D01*
X234842D01*
Y-235D01*
X236220D01*
Y-1051D01*
X239370D01*
Y1705D01*
X238629D01*
X238629Y1705D01*
X238911Y2492D01*
X239370D01*
Y3378D01*
X236220D01*
Y2660D01*
X236220Y2492D01*
X235815Y1873D01*
X234842D01*
Y3378D01*
Y5248D01*
X232874D01*
Y5740D01*
X232382D01*
Y8102D01*
X230906D01*
X230286Y8508D01*
Y34350D01*
X230286Y34350D01*
X230206Y34754D01*
X229977Y35096D01*
X229977Y35096D01*
X209013Y56060D01*
X208671Y56288D01*
X208268Y56369D01*
X207864Y56288D01*
X207543Y56073D01*
X-148D01*
X-298Y56297D01*
X-883Y56688D01*
X-1575Y56826D01*
X-2266Y56688D01*
X-2852Y56297D01*
X-3244Y55711D01*
X-3381Y55020D01*
X-3375Y54991D01*
X-4022Y54203D01*
X-38370D01*
X-38696Y54991D01*
X-2910Y90777D01*
X73656D01*
X73923Y89990D01*
X73625Y89761D01*
X62727Y78862D01*
X43701D01*
X42981Y78768D01*
X42311Y78490D01*
X41735Y78048D01*
X41293Y77473D01*
X41016Y76802D01*
X40921Y76083D01*
X41016Y75363D01*
X41293Y74693D01*
X41735Y74117D01*
X42311Y73675D01*
X42981Y73398D01*
X43701Y73303D01*
X63878D01*
X64059Y73327D01*
X68405D01*
Y76679D01*
X76742Y85016D01*
X83563D01*
X84282Y85110D01*
X84953Y85388D01*
X85528Y85830D01*
X85970Y86405D01*
X86248Y87076D01*
X86343Y87795D01*
X86248Y88515D01*
X85970Y89185D01*
X85528Y89761D01*
X85230Y89990D01*
X85498Y90777D01*
X167488D01*
X167488Y90777D01*
X167891Y90857D01*
X168233Y91086D01*
X176195Y99047D01*
X179232D01*
Y100159D01*
X180118D01*
Y99047D01*
X184055D01*
Y100159D01*
X185433D01*
Y99343D01*
X188583D01*
Y102098D01*
X187842D01*
Y102098D01*
X188124Y102886D01*
X188583D01*
Y103772D01*
X185433D01*
Y103054D01*
X185433Y102886D01*
X185028Y102266D01*
X184055D01*
Y103772D01*
Y105642D01*
X180118D01*
Y103772D01*
Y102266D01*
X179232D01*
Y103378D01*
X175295D01*
X174508Y103378D01*
Y103378D01*
X174508D01*
X174508Y103378D01*
X173199D01*
Y105567D01*
X173500Y105831D01*
X174579Y105973D01*
X175585Y106389D01*
X176448Y107052D01*
X177111Y107915D01*
X177527Y108921D01*
X177670Y110000D01*
X177527Y111079D01*
X177111Y112085D01*
X176448Y112948D01*
X175585Y113611D01*
X174579Y114027D01*
X173500Y114170D01*
X173199Y114433D01*
Y115567D01*
X173500Y115831D01*
X174579Y115973D01*
X175585Y116389D01*
X176448Y117052D01*
X177111Y117915D01*
X177527Y118921D01*
X177670Y120000D01*
X177527Y121079D01*
X177111Y122085D01*
X176448Y122948D01*
X175585Y123611D01*
X174579Y124027D01*
X173500Y124170D01*
X173199Y124433D01*
Y125567D01*
X173500Y125830D01*
X174579Y125973D01*
X175585Y126389D01*
X176448Y127052D01*
X177111Y127915D01*
X177527Y128921D01*
X177670Y130000D01*
X177527Y131079D01*
X177111Y132085D01*
X176448Y132948D01*
X175585Y133611D01*
X174579Y134027D01*
X173500Y134169D01*
X172421Y134027D01*
X171415Y133611D01*
X170552Y132948D01*
X170386Y132733D01*
X169600Y132681D01*
X168618Y133664D01*
X168536Y134493D01*
X168041Y136126D01*
X167237Y137631D01*
X166154Y138950D01*
X164835Y140032D01*
X163331Y140836D01*
X161698Y141331D01*
X160000Y141499D01*
X158302Y141331D01*
X156669Y140836D01*
X155165Y140032D01*
X153846Y138950D01*
X152763Y137631D01*
X151959Y136126D01*
X151464Y134493D01*
X151297Y132795D01*
Y130827D01*
X151464Y129129D01*
X151959Y127496D01*
X152763Y125991D01*
X153846Y124673D01*
X155165Y123590D01*
X156669Y122786D01*
X158302Y122291D01*
X160000Y122123D01*
X161698Y122291D01*
X163331Y122786D01*
X164835Y123590D01*
X166154Y124673D01*
X167237Y125991D01*
X168041Y127496D01*
X168536Y129129D01*
X168585Y129628D01*
X169378Y129641D01*
X169473Y128921D01*
X169889Y127915D01*
X170552Y127052D01*
X171092Y126637D01*
Y123363D01*
X170552Y122948D01*
X169889Y122085D01*
X169473Y121079D01*
X169331Y120000D01*
X169473Y118921D01*
X169889Y117915D01*
X170552Y117052D01*
X171092Y116637D01*
Y113363D01*
X170552Y112948D01*
X169889Y112085D01*
X169473Y111079D01*
X169378Y110359D01*
X168585Y110372D01*
X168536Y110871D01*
X168041Y112504D01*
X167237Y114008D01*
X166154Y115327D01*
X164835Y116410D01*
X163331Y117214D01*
X161698Y117709D01*
X160000Y117877D01*
X158302Y117709D01*
X156669Y117214D01*
X155165Y116410D01*
X153846Y115327D01*
X152763Y114008D01*
X151959Y112504D01*
X151464Y110871D01*
X151297Y109173D01*
Y107205D01*
X151464Y105507D01*
X151959Y103874D01*
X152763Y102369D01*
X153846Y101050D01*
X155165Y99968D01*
X156669Y99164D01*
X158302Y98669D01*
X160000Y98501D01*
X161698Y98669D01*
X163331Y99164D01*
X164835Y99968D01*
X166154Y101050D01*
X167237Y102369D01*
X168041Y103874D01*
X168433Y105167D01*
X169720D01*
X169720Y105167D01*
X170124Y105247D01*
X170305Y105368D01*
X171092Y105103D01*
Y103378D01*
X169783D01*
Y99047D01*
X172186D01*
X172487Y98320D01*
X167052Y92884D01*
X73031D01*
X72510Y93672D01*
X72574Y93996D01*
X72522Y94260D01*
X76687Y98425D01*
X79413D01*
Y99537D01*
X80299D01*
Y98425D01*
X84236D01*
Y99537D01*
X85614D01*
Y98721D01*
X88764D01*
Y101476D01*
X88023D01*
X88023Y101476D01*
X88305Y102264D01*
X88764D01*
Y103150D01*
X85614D01*
Y102432D01*
X85614Y102264D01*
X85209Y101644D01*
X84236D01*
Y103150D01*
Y105020D01*
X80299D01*
Y103150D01*
Y101644D01*
X79413D01*
Y102756D01*
X75476D01*
X74689Y102756D01*
Y102756D01*
X74689D01*
X74689Y102756D01*
X73381D01*
Y105726D01*
X73500Y105831D01*
X74579Y105973D01*
X75585Y106389D01*
X76448Y107052D01*
X77111Y107915D01*
X77527Y108921D01*
X77670Y110000D01*
X77527Y111079D01*
X77111Y112085D01*
X76448Y112948D01*
X75585Y113611D01*
X74579Y114027D01*
X73500Y114170D01*
X73381Y114274D01*
Y115726D01*
X73500Y115831D01*
X74579Y115973D01*
X75585Y116389D01*
X76448Y117052D01*
X77111Y117915D01*
X77527Y118921D01*
X77670Y120000D01*
X77527Y121079D01*
X77111Y122085D01*
X76448Y122948D01*
X75585Y123611D01*
X74579Y124027D01*
X73500Y124170D01*
X73381Y124274D01*
Y125726D01*
X73500Y125830D01*
X74579Y125973D01*
X75585Y126389D01*
X76448Y127052D01*
X77111Y127915D01*
X77527Y128921D01*
X77670Y130000D01*
X77527Y131079D01*
X77111Y132085D01*
X76448Y132948D01*
X75585Y133611D01*
X74579Y134027D01*
X73500Y134169D01*
X72421Y134027D01*
X71415Y133611D01*
X70552Y132948D01*
X70543Y132938D01*
X69758Y132886D01*
X68578Y134065D01*
X68536Y134493D01*
X68041Y136126D01*
X67237Y137631D01*
X66154Y138950D01*
X64835Y140032D01*
X63331Y140836D01*
X61698Y141331D01*
X60000Y141499D01*
X58302Y141331D01*
X56669Y140836D01*
X55165Y140032D01*
X53846Y138950D01*
X52763Y137631D01*
X51959Y136126D01*
X51464Y134493D01*
X51297Y132795D01*
Y130827D01*
X51464Y129129D01*
X51959Y127496D01*
X52763Y125991D01*
X53846Y124673D01*
X55165Y123590D01*
X56669Y122786D01*
X58302Y122291D01*
X60000Y122123D01*
X61698Y122291D01*
X63331Y122786D01*
X64835Y123590D01*
X66154Y124673D01*
X67237Y125991D01*
X68041Y127496D01*
X68536Y129129D01*
X68585Y129628D01*
X69378Y129641D01*
X69473Y128921D01*
X69889Y127915D01*
X70552Y127052D01*
X71273Y126498D01*
Y123502D01*
X70552Y122948D01*
X69889Y122085D01*
X69473Y121079D01*
X69331Y120000D01*
X69473Y118921D01*
X69889Y117915D01*
X70552Y117052D01*
X71273Y116498D01*
Y113502D01*
X70552Y112948D01*
X69889Y112085D01*
X69473Y111079D01*
X69378Y110359D01*
X68585Y110372D01*
X68536Y110871D01*
X68041Y112504D01*
X67237Y114008D01*
X66154Y115327D01*
X64835Y116410D01*
X63331Y117214D01*
X61698Y117709D01*
X60000Y117877D01*
X58302Y117709D01*
X56669Y117214D01*
X55165Y116410D01*
X53846Y115327D01*
X52763Y114008D01*
X51959Y112504D01*
X51464Y110871D01*
X51297Y109173D01*
Y107205D01*
X51464Y105507D01*
X51959Y103874D01*
X52763Y102369D01*
X53846Y101050D01*
X55165Y99968D01*
X56669Y99164D01*
X58302Y98669D01*
X60000Y98501D01*
X61698Y98669D01*
X63331Y99164D01*
X64835Y99968D01*
X66154Y101050D01*
X67237Y102369D01*
X68041Y103874D01*
X68433Y105167D01*
X69720D01*
X69721Y105167D01*
X70124Y105247D01*
X70466Y105475D01*
X70546Y105555D01*
X71273Y105254D01*
Y102756D01*
X69964D01*
Y98425D01*
X72678D01*
X72979Y97698D01*
X71031Y95750D01*
X70768Y95802D01*
X70077Y95665D01*
X69490Y95273D01*
X69099Y94687D01*
X68961Y93996D01*
X69026Y93672D01*
X68505Y92884D01*
X21191D01*
X20889Y93612D01*
X25900Y98622D01*
X28937D01*
Y99734D01*
X29807D01*
Y98622D01*
X33744D01*
Y99734D01*
X35122D01*
Y98917D01*
X38272D01*
Y101673D01*
X37531D01*
X37531Y101673D01*
X37813Y102461D01*
X38272D01*
Y103347D01*
X35122D01*
Y102629D01*
X35122Y102461D01*
X34717Y101841D01*
X33744D01*
Y103347D01*
Y105217D01*
X29807D01*
Y103347D01*
Y101841D01*
X28937D01*
Y102953D01*
X24213D01*
Y102953D01*
X24213D01*
X24213Y102953D01*
X22904D01*
Y105312D01*
X23496Y105831D01*
X23500Y105831D01*
X24579Y105973D01*
X25585Y106389D01*
X26448Y107052D01*
X27111Y107915D01*
X27527Y108921D01*
X27670Y110000D01*
X27527Y111079D01*
X27111Y112085D01*
X26448Y112948D01*
X25585Y113611D01*
X24579Y114027D01*
X23500Y114170D01*
X23023Y114736D01*
Y115264D01*
X23500Y115831D01*
X24579Y115973D01*
X25585Y116389D01*
X26448Y117052D01*
X27111Y117915D01*
X27527Y118921D01*
X27670Y120000D01*
X27527Y121079D01*
X27111Y122085D01*
X26448Y122948D01*
X25585Y123611D01*
X24579Y124027D01*
X23500Y124170D01*
X23023Y124736D01*
Y125264D01*
X23500Y125830D01*
X24579Y125973D01*
X25585Y126389D01*
X26448Y127052D01*
X27111Y127915D01*
X27527Y128921D01*
X27670Y130000D01*
X27527Y131079D01*
X27111Y132085D01*
X26448Y132948D01*
X25585Y133611D01*
X24579Y134027D01*
X23500Y134169D01*
X22421Y134027D01*
X21415Y133611D01*
X20552Y132948D01*
X20250Y132555D01*
X19235Y132456D01*
X18682Y133009D01*
X18536Y134493D01*
X18041Y136126D01*
X17236Y137631D01*
X16154Y138950D01*
X14835Y140032D01*
X13331Y140836D01*
X11698Y141331D01*
X10000Y141499D01*
X8302Y141331D01*
X6669Y140836D01*
X5165Y140032D01*
X3846Y138950D01*
X2763Y137631D01*
X1959Y136126D01*
X1464Y134493D01*
X1297Y132795D01*
Y130827D01*
X1464Y129129D01*
X1959Y127496D01*
X2763Y125991D01*
X3846Y124673D01*
X5165Y123590D01*
X6669Y122786D01*
X8302Y122291D01*
X10000Y122123D01*
X11698Y122291D01*
X13331Y122786D01*
X14835Y123590D01*
X16154Y124673D01*
X17236Y125991D01*
X18041Y127496D01*
X18476Y128929D01*
X19262Y128969D01*
X19497Y128863D01*
X19889Y127915D01*
X20552Y127052D01*
X20797Y126864D01*
Y123136D01*
X20552Y122948D01*
X19889Y122085D01*
X19473Y121079D01*
X19331Y120000D01*
X19473Y118921D01*
X19889Y117915D01*
X20552Y117052D01*
X20797Y116864D01*
Y113136D01*
X20552Y112948D01*
X19889Y112085D01*
X19473Y111079D01*
X19378Y110359D01*
X18585Y110372D01*
X18536Y110871D01*
X18041Y112504D01*
X17236Y114008D01*
X16154Y115327D01*
X14835Y116410D01*
X13331Y117214D01*
X11698Y117709D01*
X10000Y117877D01*
X8302Y117709D01*
X6669Y117214D01*
X5165Y116410D01*
X3846Y115327D01*
X2763Y114008D01*
X1959Y112504D01*
X1464Y110871D01*
X1297Y109173D01*
Y107205D01*
X1464Y105507D01*
X1959Y103874D01*
X2763Y102369D01*
X3846Y101050D01*
X5165Y99968D01*
X6669Y99164D01*
X8302Y98669D01*
X10000Y98501D01*
X11698Y98669D01*
X13331Y99164D01*
X14835Y99968D01*
X16154Y101050D01*
X17236Y102369D01*
X18041Y103874D01*
X18433Y105167D01*
X19720D01*
X19721Y105167D01*
X20009Y105224D01*
X20078Y105224D01*
X20273Y105136D01*
X20797Y104750D01*
Y102953D01*
X19488D01*
Y98622D01*
X21891D01*
X22192Y97895D01*
X18166Y93869D01*
X-3754D01*
X-3754Y93869D01*
X-4157Y93788D01*
X-4499Y93560D01*
X-52911Y45149D01*
X-53139Y44807D01*
X-53219Y44404D01*
X-53219Y44404D01*
Y24343D01*
X-54006Y23730D01*
X-54134Y23755D01*
X-54825Y23618D01*
X-55411Y23226D01*
X-55803Y22640D01*
X-55855Y22377D01*
X-64296D01*
X-64335Y22420D01*
X-64645Y23165D01*
X-64411Y23514D01*
X-64274Y24205D01*
X-64318Y24424D01*
X-63747Y25211D01*
X-62664D01*
Y27967D01*
Y30723D01*
X-64038D01*
X-64265Y31117D01*
X-64038Y31511D01*
X-59416D01*
Y31708D01*
X-58628Y32064D01*
X-58506Y31983D01*
X-57815Y31845D01*
X-57123Y31983D01*
X-56537Y32374D01*
X-56146Y32960D01*
X-56008Y33652D01*
X-56146Y34343D01*
X-56537Y34929D01*
X-57123Y35320D01*
X-57815Y35458D01*
X-58506Y35320D01*
X-58628Y35239D01*
X-59416Y35596D01*
Y37022D01*
X-64928D01*
Y36072D01*
X-65321Y35447D01*
X-69258D01*
Y33305D01*
X-72635D01*
X-72637Y33306D01*
X-73136Y33406D01*
X-74484D01*
X-75049Y33594D01*
X-75237Y34159D01*
Y35507D01*
X-75336Y36006D01*
X-75337Y36007D01*
Y39385D01*
X-72506D01*
Y41353D01*
X-72014D01*
Y41845D01*
X-69652D01*
Y43322D01*
X-69028Y43715D01*
X-67290D01*
Y45192D01*
X-69652D01*
Y45684D01*
X-70144D01*
Y47652D01*
X-72469D01*
X-72806Y48440D01*
X-72707Y48587D01*
X-72570Y49278D01*
X-72707Y49969D01*
X-73099Y50555D01*
X-73685Y50947D01*
X-74376Y51084D01*
X-75068Y50947D01*
X-75653Y50555D01*
X-76045Y49969D01*
X-76183Y49278D01*
X-76101Y48870D01*
X-76504Y48179D01*
X-76519Y48165D01*
X-77132Y48770D01*
Y50310D01*
X-79101D01*
Y50802D01*
X-79593D01*
Y53164D01*
X-81034D01*
X-81069Y53164D01*
X-81821Y53250D01*
Y53923D01*
X-84872D01*
Y50773D01*
X-85857D01*
Y53923D01*
X-87946D01*
X-88411Y54710D01*
X-88358Y54807D01*
X-85662D01*
Y56775D01*
Y58744D01*
X-92256D01*
Y54807D01*
X-92256Y54807D01*
X-92441Y54193D01*
X-92495Y53923D01*
X-97569D01*
Y46805D01*
X-98297Y46504D01*
X-100361Y48568D01*
Y51196D01*
X-106955D01*
Y49227D01*
X-107447D01*
Y48735D01*
X-109809D01*
Y47652D01*
X-109809Y47259D01*
X-109809D01*
X-109809Y46865D01*
X-109809Y46865D01*
Y45388D01*
X-107447D01*
Y44404D01*
X-109809D01*
Y43322D01*
X-109809Y42928D01*
X-109809D01*
X-109809Y42534D01*
X-109809Y42534D01*
Y41190D01*
X-110203Y40566D01*
X-110922D01*
X-111639Y40735D01*
Y43983D01*
X-119119D01*
Y41417D01*
X-119119Y40959D01*
X-119559Y40959D01*
X-124376D01*
Y36044D01*
X-124803Y35433D01*
X-125007Y35433D01*
X-128740D01*
X-128740Y35433D01*
X-129101Y35448D01*
Y35448D01*
X-129522Y35448D01*
X-133038D01*
X-133825Y35448D01*
Y35448D01*
X-133825D01*
X-133825Y35448D01*
X-135695D01*
Y33479D01*
X-136187D01*
Y32987D01*
X-138549D01*
Y31511D01*
X-136221D01*
Y29724D01*
X-138583D01*
Y25787D01*
X-137795D01*
Y22321D01*
X-137829Y22241D01*
X-137947Y21344D01*
X-137829Y20447D01*
X-137795Y20367D01*
Y15551D01*
X-139075D01*
Y8069D01*
X-143701D01*
Y98527D01*
X-142913Y99037D01*
X-141698Y98669D01*
X-140000Y98501D01*
X-138302Y98669D01*
X-136669Y99164D01*
X-135165Y99968D01*
X-133846Y101050D01*
X-132763Y102369D01*
X-132191Y103441D01*
X-130280D01*
X-129560Y103535D01*
X-128890Y103813D01*
X-128314Y104255D01*
X-126711Y105858D01*
X-126500Y105831D01*
X-125421Y105973D01*
X-124415Y106389D01*
X-123552Y107052D01*
X-122889Y107915D01*
X-122473Y108921D01*
X-122330Y110000D01*
X-122473Y111079D01*
X-122889Y112085D01*
X-123552Y112948D01*
X-123720Y113078D01*
Y116922D01*
X-123552Y117052D01*
X-122889Y117915D01*
X-122473Y118921D01*
X-122330Y120000D01*
X-122473Y121079D01*
X-122889Y122085D01*
X-123552Y122948D01*
X-123720Y123078D01*
Y126922D01*
X-123552Y127052D01*
X-122889Y127915D01*
X-122473Y128921D01*
X-122330Y130000D01*
X-122473Y131079D01*
X-122889Y132085D01*
X-123552Y132948D01*
X-124415Y133611D01*
X-125421Y134027D01*
X-126500Y134169D01*
X-126711Y134142D01*
X-128314Y135745D01*
X-128890Y136187D01*
X-129560Y136465D01*
X-130280Y136559D01*
X-132191D01*
X-132763Y137631D01*
X-133846Y138950D01*
X-135165Y140032D01*
X-136669Y140836D01*
X-138302Y141331D01*
X-140000Y141499D01*
X-141698Y141331D01*
X-142913Y140963D01*
X-143701Y141473D01*
Y148848D01*
X-125338D01*
X-117786Y141296D01*
Y92815D01*
X-117786Y92815D01*
X-117706Y92412D01*
X-117477Y92070D01*
X-108661Y83254D01*
Y80216D01*
X-105624D01*
X-96654Y71246D01*
Y65847D01*
X-94164D01*
Y62844D01*
X-94388Y62695D01*
X-94779Y62109D01*
X-94917Y61417D01*
X-94779Y60726D01*
X-94388Y60140D01*
X-93801Y59749D01*
X-93110Y59611D01*
X-92419Y59749D01*
X-91833Y60140D01*
X-91441Y60726D01*
X-91304Y61417D01*
X-91441Y62109D01*
X-91833Y62695D01*
X-92057Y62844D01*
Y65847D01*
X-89173D01*
Y68533D01*
X-75000D01*
Y65847D01*
X-67520D01*
Y73327D01*
X-75000D01*
Y70640D01*
X-89173D01*
Y73327D01*
X-95754D01*
X-101916Y79489D01*
X-101615Y80216D01*
X-99114D01*
Y81525D01*
X-96654D01*
Y80413D01*
X-89173D01*
Y83100D01*
X-75000D01*
Y80413D01*
X-67520D01*
Y87894D01*
X-75000D01*
Y85207D01*
X-89173D01*
Y87894D01*
X-96654D01*
Y83632D01*
X-98557D01*
X-99114Y84189D01*
X-99114Y84941D01*
X-99114Y85728D01*
Y86811D01*
X-103445D01*
Y85728D01*
X-103445Y84941D01*
X-103445Y84153D01*
Y82887D01*
X-104232Y82466D01*
X-104331Y82532D01*
Y84941D01*
X-104331D01*
Y84941D01*
X-104331Y84941D01*
Y86811D01*
X-106496D01*
Y87303D01*
X-106988D01*
Y89665D01*
X-108661D01*
Y87263D01*
X-109389Y86962D01*
X-115679Y93251D01*
Y141732D01*
X-115759Y142136D01*
X-115987Y142477D01*
X-115987Y142477D01*
X-124156Y150647D01*
X-124498Y150875D01*
X-124902Y150955D01*
X-124902Y150955D01*
X-143701D01*
Y153961D01*
X216467D01*
X216540Y153976D01*
X219555Y153806D01*
D02*
G37*
%LPC*%
G36*
X-140177Y-4428D02*
X-142539D01*
Y-9054D01*
X-140177D01*
Y-4428D01*
D02*
G37*
G36*
X-13386Y4051D02*
X-14469D01*
Y3165D01*
X-13386D01*
Y4051D01*
D02*
G37*
G36*
X-128563Y-10038D02*
X-130925D01*
Y-14664D01*
X-128563D01*
Y-10038D01*
D02*
G37*
G36*
X-125216D02*
X-127579D01*
Y-14664D01*
X-125216D01*
Y-10038D01*
D02*
G37*
G36*
X-11319Y4051D02*
X-12402D01*
Y3165D01*
X-11319D01*
Y4051D01*
D02*
G37*
G36*
X187106Y5051D02*
X186024D01*
Y4165D01*
X187106D01*
Y5051D01*
D02*
G37*
G36*
X189173D02*
X188091D01*
Y4165D01*
X189173D01*
Y5051D01*
D02*
G37*
G36*
X239370Y5248D02*
X238287D01*
Y4362D01*
X239370D01*
Y5248D01*
D02*
G37*
G36*
X237303D02*
X236220D01*
Y4362D01*
X237303D01*
Y5248D01*
D02*
G37*
G36*
X-56398Y-23720D02*
X-59646D01*
Y-26575D01*
X-56398D01*
Y-23720D01*
D02*
G37*
G36*
X-52165D02*
X-55414D01*
Y-26575D01*
X-52165D01*
Y-23720D01*
D02*
G37*
G36*
Y-27559D02*
X-55414D01*
Y-30413D01*
X-52165D01*
Y-27559D01*
D02*
G37*
G36*
X-75043Y-26260D02*
X-77067D01*
Y-28284D01*
X-76891Y-28261D01*
X-76269Y-28003D01*
X-75734Y-27593D01*
X-75324Y-27058D01*
X-75066Y-26436D01*
X-75043Y-26260D01*
D02*
G37*
G36*
X-109843Y-21654D02*
X-113091D01*
Y-24508D01*
X-109843D01*
Y-21654D01*
D02*
G37*
G36*
X-140177Y-10038D02*
X-142539D01*
Y-14664D01*
X-140177D01*
Y-10038D01*
D02*
G37*
G36*
X-136831D02*
X-139193D01*
Y-14664D01*
X-136831D01*
Y-10038D01*
D02*
G37*
G36*
X-105610Y-21654D02*
X-108858D01*
Y-24508D01*
X-105610D01*
Y-21654D01*
D02*
G37*
G36*
X-109843Y-17815D02*
X-113091D01*
Y-20669D01*
X-109843D01*
Y-17815D01*
D02*
G37*
G36*
X86992Y5528D02*
X85909D01*
Y4642D01*
X86992D01*
Y5528D01*
D02*
G37*
G36*
X134433Y8382D02*
X132957D01*
Y6512D01*
X134433D01*
Y8382D01*
D02*
G37*
G36*
X32071Y8760D02*
X30595D01*
Y6890D01*
X32071D01*
Y8760D01*
D02*
G37*
G36*
X84531Y8382D02*
X83055D01*
Y6512D01*
X84531D01*
Y8382D01*
D02*
G37*
G36*
X131972D02*
X130496D01*
Y6512D01*
X131972D01*
Y8382D01*
D02*
G37*
G36*
X34532Y8760D02*
X33055D01*
Y6890D01*
X34532D01*
Y8760D01*
D02*
G37*
G36*
X-94750Y13892D02*
X-97703D01*
Y10940D01*
X-94750D01*
Y13892D01*
D02*
G37*
G36*
X-89297Y24719D02*
X-94750D01*
Y19266D01*
X-90065D01*
Y13892D01*
X-84317D01*
Y19896D01*
X-89297D01*
Y24719D01*
D02*
G37*
G36*
X-18307Y8776D02*
X-19783D01*
Y6905D01*
X-18307D01*
Y8776D01*
D02*
G37*
G36*
X-15846D02*
X-17323D01*
Y6905D01*
X-15846D01*
Y8776D01*
D02*
G37*
G36*
X82071Y8382D02*
X80594D01*
Y6512D01*
X82071D01*
Y8382D01*
D02*
G37*
G36*
X138961Y5528D02*
X137878D01*
Y4642D01*
X138961D01*
Y5528D01*
D02*
G37*
G36*
X36992Y5906D02*
X35909D01*
Y5020D01*
X36992D01*
Y5906D01*
D02*
G37*
G36*
X89059Y5528D02*
X87976D01*
Y4642D01*
X89059D01*
Y5528D01*
D02*
G37*
G36*
X136894D02*
X135811D01*
Y4642D01*
X136894D01*
Y5528D01*
D02*
G37*
G36*
X39059Y5906D02*
X37976D01*
Y5020D01*
X39059D01*
Y5906D01*
D02*
G37*
G36*
X183169Y7905D02*
Y6035D01*
X184646D01*
Y7905D01*
X183169D01*
D02*
G37*
G36*
X233366Y8102D02*
Y6232D01*
X234842D01*
Y8102D01*
X233366D01*
D02*
G37*
G36*
X-13386Y5921D02*
X-14469D01*
Y5035D01*
X-13386D01*
Y5921D01*
D02*
G37*
G36*
X-11319D02*
X-12402D01*
Y5035D01*
X-11319D01*
Y5921D01*
D02*
G37*
G36*
X-56398Y-27559D02*
X-59646D01*
Y-30413D01*
X-56398D01*
Y-27559D01*
D02*
G37*
G36*
X-12500Y-94555D02*
X-13583D01*
Y-95441D01*
X-12500D01*
Y-94555D01*
D02*
G37*
G36*
X-10433D02*
X-11516D01*
Y-95441D01*
X-10433D01*
Y-94555D01*
D02*
G37*
G36*
X-63090Y-94653D02*
X-64173D01*
Y-95539D01*
X-63090D01*
Y-94653D01*
D02*
G37*
G36*
X-61024D02*
X-62106D01*
Y-95539D01*
X-61024D01*
Y-94653D01*
D02*
G37*
G36*
X182283Y-92378D02*
X180807D01*
Y-94248D01*
X182283D01*
Y-92378D01*
D02*
G37*
G36*
X84744Y-91984D02*
X83268D01*
Y-93854D01*
X84744D01*
Y-91984D01*
D02*
G37*
G36*
X35236Y-91870D02*
X33760D01*
Y-93740D01*
X35236D01*
Y-91870D01*
D02*
G37*
G36*
X184744Y-92378D02*
X183268D01*
Y-94248D01*
X184744D01*
Y-92378D01*
D02*
G37*
G36*
X132988Y-92051D02*
Y-93921D01*
X134465D01*
Y-92051D01*
X132988D01*
D02*
G37*
G36*
X39764Y-94724D02*
X38681D01*
Y-95610D01*
X39764D01*
Y-94724D01*
D02*
G37*
G36*
X187205Y-95232D02*
X186122D01*
Y-96118D01*
X187205D01*
Y-95232D01*
D02*
G37*
G36*
X189272D02*
X188189D01*
Y-96118D01*
X189272D01*
Y-95232D01*
D02*
G37*
G36*
X187205Y-97102D02*
X186122D01*
Y-97988D01*
X187205D01*
Y-97102D01*
D02*
G37*
G36*
X189272D02*
X188189D01*
Y-97988D01*
X189272D01*
Y-97102D01*
D02*
G37*
G36*
X136925Y-94906D02*
X135842D01*
Y-95791D01*
X136925D01*
Y-94906D01*
D02*
G37*
G36*
X89272Y-94839D02*
X88189D01*
Y-95724D01*
X89272D01*
Y-94839D01*
D02*
G37*
G36*
X37697Y-94724D02*
X36614D01*
Y-95610D01*
X37697D01*
Y-94724D01*
D02*
G37*
G36*
X138992Y-94906D02*
X137909D01*
Y-95791D01*
X138992D01*
Y-94906D01*
D02*
G37*
G36*
X87205Y-94839D02*
X86122D01*
Y-95724D01*
X87205D01*
Y-94839D01*
D02*
G37*
G36*
X-67028Y-91799D02*
Y-93669D01*
X-65551D01*
Y-91799D01*
X-67028D01*
D02*
G37*
G36*
X233449Y-35925D02*
X226279D01*
Y-41191D01*
X227756D01*
X229246Y-40995D01*
X230635Y-40420D01*
X231827Y-39505D01*
X232742Y-38312D01*
X233318Y-36923D01*
X233449Y-35925D01*
D02*
G37*
G36*
X-62845Y-22652D02*
X-63536Y-22790D01*
X-64122Y-23181D01*
X-64513Y-23767D01*
X-64651Y-24459D01*
X-64513Y-25150D01*
X-64122Y-25736D01*
X-63898Y-25885D01*
Y-27165D01*
X-65748D01*
Y-31102D01*
X-65748Y-31890D01*
X-65748Y-32677D01*
Y-36614D01*
X-61417D01*
Y-35601D01*
X-59646D01*
Y-37894D01*
X-52165D01*
Y-31201D01*
X-59646D01*
Y-33494D01*
X-60861D01*
X-61417Y-32937D01*
X-61417Y-31890D01*
X-61417Y-31102D01*
Y-27165D01*
X-61791D01*
Y-25885D01*
X-61567Y-25736D01*
X-61176Y-25150D01*
X-61038Y-24459D01*
X-61176Y-23767D01*
X-61567Y-23181D01*
X-62153Y-22790D01*
X-62845Y-22652D01*
D02*
G37*
G36*
X212091Y-35925D02*
X204921D01*
Y-41191D01*
X206398D01*
X207888Y-40995D01*
X209277Y-40420D01*
X210469Y-39505D01*
X211384Y-38312D01*
X211959Y-36923D01*
X212091Y-35925D01*
D02*
G37*
G36*
X225295D02*
X218126D01*
X218257Y-36923D01*
X218832Y-38312D01*
X219747Y-39505D01*
X220940Y-40420D01*
X222329Y-40995D01*
X223819Y-41191D01*
X225295D01*
Y-35925D01*
D02*
G37*
G36*
X203937Y-29675D02*
X202461D01*
X200970Y-29871D01*
X199582Y-30447D01*
X198389Y-31362D01*
X197474Y-32554D01*
X196899Y-33943D01*
X196767Y-34941D01*
X203937D01*
Y-29675D01*
D02*
G37*
G36*
X227756D02*
X226279D01*
Y-34941D01*
X233449D01*
X233318Y-33943D01*
X232742Y-32554D01*
X231827Y-31362D01*
X230635Y-30447D01*
X229246Y-29871D01*
X227756Y-29675D01*
D02*
G37*
G36*
X184252Y-19850D02*
X182940Y-19979D01*
X181678Y-20361D01*
X180516Y-20983D01*
X179497Y-21819D01*
X178660Y-22838D01*
X178039Y-24001D01*
X177656Y-25263D01*
X177527Y-26575D01*
X177656Y-27887D01*
X178039Y-29149D01*
X178660Y-30311D01*
X179497Y-31330D01*
X180516Y-32167D01*
X181678Y-32788D01*
X182940Y-33171D01*
X184252Y-33300D01*
X185564Y-33171D01*
X186826Y-32788D01*
X187988Y-32167D01*
X189007Y-31330D01*
X189844Y-30311D01*
X190465Y-29149D01*
X190848Y-27887D01*
X190977Y-26575D01*
X190848Y-25263D01*
X190465Y-24001D01*
X189844Y-22838D01*
X189007Y-21819D01*
X187988Y-20983D01*
X186826Y-20361D01*
X185564Y-19979D01*
X184252Y-19850D01*
D02*
G37*
G36*
X206398Y-29675D02*
X204921D01*
Y-34941D01*
X212091D01*
X211959Y-33943D01*
X211384Y-32554D01*
X210469Y-31362D01*
X209277Y-30447D01*
X207888Y-29871D01*
X206398Y-29675D01*
D02*
G37*
G36*
X225295D02*
X223819D01*
X222329Y-29871D01*
X220940Y-30447D01*
X219747Y-31362D01*
X218832Y-32554D01*
X218257Y-33943D01*
X218126Y-34941D01*
X225295D01*
Y-29675D01*
D02*
G37*
G36*
X203937Y-35925D02*
X196767D01*
X196899Y-36923D01*
X197474Y-38312D01*
X198389Y-39505D01*
X199582Y-40420D01*
X200970Y-40995D01*
X202461Y-41191D01*
X203937D01*
Y-35925D01*
D02*
G37*
G36*
X60000Y-58501D02*
X58302Y-58669D01*
X56669Y-59164D01*
X55165Y-59968D01*
X53846Y-61050D01*
X52763Y-62369D01*
X51959Y-63874D01*
X51464Y-65507D01*
X51297Y-67205D01*
Y-69173D01*
X51464Y-70871D01*
X51959Y-72504D01*
X52763Y-74009D01*
X53846Y-75327D01*
X55165Y-76410D01*
X56669Y-77214D01*
X58302Y-77709D01*
X60000Y-77877D01*
X61698Y-77709D01*
X63331Y-77214D01*
X64835Y-76410D01*
X66154Y-75327D01*
X67237Y-74009D01*
X68041Y-72504D01*
X68536Y-70871D01*
X68585Y-70372D01*
X69378Y-70359D01*
X69473Y-71079D01*
X69889Y-72085D01*
X70552Y-72948D01*
X71415Y-73611D01*
X71781Y-73762D01*
Y-76238D01*
X71415Y-76389D01*
X70552Y-77052D01*
X69889Y-77915D01*
X69473Y-78921D01*
X69331Y-80000D01*
X69473Y-81079D01*
X69889Y-82085D01*
X70552Y-82948D01*
X71415Y-83611D01*
X71781Y-83762D01*
Y-86238D01*
X71415Y-86389D01*
X70552Y-87052D01*
X69889Y-87915D01*
X69473Y-88921D01*
X69469Y-88946D01*
X68481D01*
X68041Y-87496D01*
X67237Y-85991D01*
X66154Y-84673D01*
X64835Y-83590D01*
X63331Y-82786D01*
X61698Y-82291D01*
X60000Y-82123D01*
X58302Y-82291D01*
X56669Y-82786D01*
X55165Y-83590D01*
X53846Y-84673D01*
X52763Y-85991D01*
X51959Y-87496D01*
X51464Y-89129D01*
X51297Y-90827D01*
Y-92795D01*
X51464Y-94493D01*
X51959Y-96126D01*
X52763Y-97631D01*
X53846Y-98949D01*
X55165Y-100032D01*
X56669Y-100836D01*
X58302Y-101331D01*
X60000Y-101499D01*
X61698Y-101331D01*
X63331Y-100836D01*
X64835Y-100032D01*
X66154Y-98949D01*
X67237Y-97631D01*
X68041Y-96126D01*
X68536Y-94493D01*
X68703Y-92795D01*
Y-91202D01*
X69473Y-91079D01*
X69889Y-92085D01*
X70552Y-92948D01*
X71415Y-93611D01*
X71781Y-93762D01*
Y-97102D01*
X70472D01*
Y-101433D01*
X74409D01*
X75197Y-101433D01*
X75984Y-101433D01*
X79921D01*
Y-100321D01*
X80807D01*
Y-101433D01*
X84744D01*
Y-100321D01*
X86122D01*
Y-101138D01*
X89272D01*
Y-98382D01*
X88531D01*
X88531Y-98382D01*
X88813Y-97594D01*
X89272D01*
Y-96709D01*
X86122D01*
Y-97427D01*
X86122Y-97594D01*
X85717Y-98214D01*
X84744D01*
Y-96709D01*
Y-94839D01*
X82775D01*
Y-94346D01*
X82283D01*
Y-91984D01*
X81300D01*
X81002Y-91538D01*
X80416Y-91146D01*
X79724Y-91009D01*
X79033Y-91146D01*
X78447Y-91538D01*
X78056Y-92124D01*
X77918Y-92815D01*
X78056Y-93506D01*
X78447Y-94092D01*
X78671Y-94242D01*
Y-96496D01*
X78064Y-97102D01*
X75197Y-97102D01*
X74445Y-97102D01*
X73888Y-96546D01*
Y-94118D01*
X74579Y-94027D01*
X75585Y-93611D01*
X76448Y-92948D01*
X77111Y-92085D01*
X77527Y-91079D01*
X77670Y-90000D01*
X77527Y-88921D01*
X77111Y-87915D01*
X76448Y-87052D01*
X75585Y-86389D01*
X74579Y-85973D01*
X73888Y-85882D01*
Y-84118D01*
X74579Y-84027D01*
X75585Y-83611D01*
X76448Y-82948D01*
X77111Y-82085D01*
X77527Y-81079D01*
X77670Y-80000D01*
X77527Y-78921D01*
X77111Y-77915D01*
X76448Y-77052D01*
X75585Y-76389D01*
X74579Y-75973D01*
X73888Y-75882D01*
Y-74118D01*
X74579Y-74027D01*
X75585Y-73611D01*
X76448Y-72948D01*
X77111Y-72085D01*
X77527Y-71079D01*
X77670Y-70000D01*
X77527Y-68921D01*
X77111Y-67915D01*
X76448Y-67052D01*
X75585Y-66389D01*
X74579Y-65973D01*
X73500Y-65830D01*
X72421Y-65973D01*
X71415Y-66389D01*
X70552Y-67052D01*
X70470Y-67158D01*
X70358Y-67135D01*
X70358Y-67135D01*
X68696D01*
X68536Y-65507D01*
X68041Y-63874D01*
X67237Y-62369D01*
X66154Y-61050D01*
X64835Y-59968D01*
X63331Y-59164D01*
X61698Y-58669D01*
X60000Y-58501D01*
D02*
G37*
G36*
X-126500Y-75831D02*
X-127579Y-75973D01*
X-128585Y-76389D01*
X-129448Y-77052D01*
X-130111Y-77915D01*
X-130527Y-78921D01*
X-130669Y-80000D01*
X-130527Y-81079D01*
X-130111Y-82085D01*
X-129448Y-82948D01*
X-128585Y-83611D01*
X-127579Y-84027D01*
X-126500Y-84170D01*
X-125421Y-84027D01*
X-124415Y-83611D01*
X-123552Y-82948D01*
X-122889Y-82085D01*
X-122473Y-81079D01*
X-122330Y-80000D01*
X-122473Y-78921D01*
X-122889Y-77915D01*
X-123552Y-77052D01*
X-124415Y-76389D01*
X-125421Y-75973D01*
X-126500Y-75831D01*
D02*
G37*
G36*
X-16437Y-91701D02*
Y-93571D01*
X-14961D01*
Y-91701D01*
X-16437D01*
D02*
G37*
G36*
X10000Y-58501D02*
X8302Y-58669D01*
X6669Y-59164D01*
X5165Y-59968D01*
X3846Y-61050D01*
X2763Y-62369D01*
X1959Y-63874D01*
X1464Y-65507D01*
X1297Y-67205D01*
Y-69173D01*
X1464Y-70871D01*
X1959Y-72504D01*
X2763Y-74009D01*
X3846Y-75327D01*
X5165Y-76410D01*
X6669Y-77214D01*
X8302Y-77709D01*
X10000Y-77877D01*
X11698Y-77709D01*
X13331Y-77214D01*
X14835Y-76410D01*
X16154Y-75327D01*
X17236Y-74009D01*
X18041Y-72504D01*
X18428Y-71227D01*
X19534D01*
X19889Y-72085D01*
X20552Y-72948D01*
X21415Y-73611D01*
X22273Y-73966D01*
Y-76034D01*
X21415Y-76389D01*
X20552Y-77052D01*
X19889Y-77915D01*
X19473Y-78921D01*
X19331Y-80000D01*
X19473Y-81079D01*
X19889Y-82085D01*
X20552Y-82948D01*
X21415Y-83611D01*
X22273Y-83966D01*
Y-86034D01*
X21415Y-86389D01*
X20552Y-87052D01*
X19889Y-87915D01*
X19473Y-88921D01*
X19469Y-88946D01*
X18481D01*
X18041Y-87496D01*
X17236Y-85991D01*
X16154Y-84673D01*
X14835Y-83590D01*
X13331Y-82786D01*
X11698Y-82291D01*
X10000Y-82123D01*
X8302Y-82291D01*
X6669Y-82786D01*
X5165Y-83590D01*
X3846Y-84673D01*
X2763Y-85991D01*
X1959Y-87496D01*
X1464Y-89129D01*
X1297Y-90827D01*
Y-92795D01*
X1464Y-94493D01*
X1959Y-96126D01*
X2763Y-97631D01*
X3846Y-98949D01*
X5165Y-100032D01*
X6669Y-100836D01*
X8302Y-101331D01*
X10000Y-101499D01*
X11698Y-101331D01*
X13331Y-100836D01*
X14835Y-100032D01*
X16154Y-98949D01*
X17236Y-97631D01*
X18041Y-96126D01*
X18536Y-94493D01*
X18703Y-92795D01*
Y-91202D01*
X19473Y-91079D01*
X19889Y-92085D01*
X20552Y-92948D01*
X21415Y-93611D01*
X22273Y-93966D01*
Y-96988D01*
X20965D01*
Y-101319D01*
X24902D01*
X25689Y-101319D01*
X26476Y-101319D01*
X30413D01*
Y-100207D01*
X31299D01*
Y-101319D01*
X35236D01*
Y-100207D01*
X36614D01*
Y-101024D01*
X39764D01*
Y-98268D01*
X39023D01*
X39023Y-98268D01*
X39305Y-97480D01*
X39764D01*
Y-96595D01*
X36614D01*
Y-97312D01*
X36614Y-97480D01*
X36209Y-98100D01*
X35236D01*
Y-96595D01*
Y-94724D01*
X33268D01*
Y-94232D01*
X32776D01*
Y-91870D01*
X31299D01*
Y-92100D01*
X30691Y-92599D01*
X30610Y-92583D01*
X29919Y-92721D01*
X29333Y-93112D01*
X28941Y-93699D01*
X28804Y-94390D01*
X28941Y-95081D01*
X29055Y-95252D01*
X28258Y-96988D01*
X25689Y-96988D01*
X24937Y-96988D01*
X24381Y-96431D01*
Y-94054D01*
X24579Y-94027D01*
X25585Y-93611D01*
X26448Y-92948D01*
X27111Y-92085D01*
X27527Y-91079D01*
X27670Y-90000D01*
X27527Y-88921D01*
X27111Y-87915D01*
X26448Y-87052D01*
X25585Y-86389D01*
X24579Y-85973D01*
X24381Y-85946D01*
Y-84054D01*
X24579Y-84027D01*
X25585Y-83611D01*
X26448Y-82948D01*
X27111Y-82085D01*
X27527Y-81079D01*
X27670Y-80000D01*
X27527Y-78921D01*
X27111Y-77915D01*
X26448Y-77052D01*
X25585Y-76389D01*
X24579Y-75973D01*
X24381Y-75946D01*
Y-74054D01*
X24579Y-74027D01*
X25585Y-73611D01*
X26448Y-72948D01*
X27111Y-72085D01*
X27527Y-71079D01*
X27670Y-70000D01*
X27527Y-68921D01*
X27111Y-67915D01*
X26448Y-67052D01*
X25585Y-66389D01*
X24579Y-65973D01*
X23500Y-65830D01*
X22421Y-65973D01*
X21415Y-66389D01*
X20552Y-67052D01*
X19889Y-67915D01*
X19473Y-68921D01*
X18703Y-68798D01*
Y-67205D01*
X18536Y-65507D01*
X18041Y-63874D01*
X17236Y-62369D01*
X16154Y-61050D01*
X14835Y-59968D01*
X13331Y-59164D01*
X11698Y-58669D01*
X10000Y-58501D01*
D02*
G37*
G36*
X-70866Y-35792D02*
X-71557Y-35930D01*
X-72143Y-36321D01*
X-72535Y-36907D01*
X-72672Y-37598D01*
X-72535Y-38290D01*
X-72143Y-38876D01*
X-71920Y-39025D01*
Y-68198D01*
X-72707Y-68354D01*
X-72889Y-67915D01*
X-73552Y-67052D01*
X-74415Y-66389D01*
X-75421Y-65973D01*
X-76500Y-65830D01*
X-77579Y-65973D01*
X-78585Y-66389D01*
X-79448Y-67052D01*
X-79853Y-67078D01*
X-81456Y-65475D01*
X-81478Y-65460D01*
X-81959Y-63874D01*
X-82763Y-62369D01*
X-83846Y-61050D01*
X-85165Y-59968D01*
X-86669Y-59164D01*
X-88302Y-58669D01*
X-90000Y-58501D01*
X-91698Y-58669D01*
X-93331Y-59164D01*
X-94835Y-59968D01*
X-96154Y-61050D01*
X-97237Y-62369D01*
X-98041Y-63874D01*
X-98536Y-65507D01*
X-98703Y-67205D01*
Y-69173D01*
X-98536Y-70871D01*
X-98041Y-72504D01*
X-97237Y-74009D01*
X-96154Y-75327D01*
X-94835Y-76410D01*
X-93331Y-77214D01*
X-91698Y-77709D01*
X-90000Y-77877D01*
X-88302Y-77709D01*
X-86669Y-77214D01*
X-85165Y-76410D01*
X-83846Y-75327D01*
X-82763Y-74009D01*
X-81959Y-72504D01*
X-81464Y-70871D01*
X-81415Y-70372D01*
X-80622Y-70359D01*
X-80527Y-71079D01*
X-80111Y-72085D01*
X-79448Y-72948D01*
X-78585Y-73611D01*
X-78514Y-73640D01*
Y-76360D01*
X-78585Y-76389D01*
X-79448Y-77052D01*
X-80111Y-77915D01*
X-80527Y-78921D01*
X-80669Y-80000D01*
X-80527Y-81079D01*
X-80111Y-82085D01*
X-79448Y-82948D01*
X-78585Y-83611D01*
X-78514Y-83640D01*
Y-86360D01*
X-78585Y-86389D01*
X-79448Y-87052D01*
X-80111Y-87915D01*
X-80527Y-88921D01*
X-80622Y-89641D01*
X-81415Y-89628D01*
X-81464Y-89129D01*
X-81959Y-87496D01*
X-82763Y-85991D01*
X-83846Y-84673D01*
X-85165Y-83590D01*
X-86669Y-82786D01*
X-88302Y-82291D01*
X-90000Y-82123D01*
X-91698Y-82291D01*
X-93331Y-82786D01*
X-94835Y-83590D01*
X-96154Y-84673D01*
X-97237Y-85991D01*
X-98041Y-87496D01*
X-98536Y-89129D01*
X-98703Y-90827D01*
Y-92795D01*
X-98536Y-94493D01*
X-98041Y-96126D01*
X-97237Y-97631D01*
X-96154Y-98949D01*
X-94835Y-100032D01*
X-93331Y-100836D01*
X-91698Y-101331D01*
X-90000Y-101499D01*
X-88302Y-101331D01*
X-86669Y-100836D01*
X-85165Y-100032D01*
X-83846Y-98949D01*
X-82763Y-97631D01*
X-81959Y-96126D01*
X-81567Y-94833D01*
X-80280D01*
X-80279Y-94833D01*
X-79876Y-94753D01*
X-79534Y-94525D01*
X-79302Y-94292D01*
X-78514Y-94618D01*
Y-96917D01*
X-79823D01*
Y-101248D01*
X-75886D01*
X-75099Y-101248D01*
X-74311Y-101248D01*
X-70374D01*
Y-100136D01*
X-69488D01*
Y-101248D01*
X-65551D01*
Y-100136D01*
X-64173D01*
Y-100953D01*
X-61024D01*
Y-98197D01*
X-61765D01*
X-61765Y-98197D01*
X-61483Y-97409D01*
X-61024D01*
Y-96524D01*
X-64173D01*
Y-97241D01*
X-64173Y-97409D01*
X-64578Y-98029D01*
X-65551D01*
Y-96524D01*
Y-94653D01*
X-67520D01*
Y-94161D01*
X-68012D01*
Y-91799D01*
X-69488D01*
X-69812Y-91146D01*
Y-39025D01*
X-69589Y-38876D01*
X-69197Y-38290D01*
X-69060Y-37598D01*
X-69197Y-36907D01*
X-69589Y-36321D01*
X-70175Y-35930D01*
X-70866Y-35792D01*
D02*
G37*
G36*
X222736Y-52461D02*
X221063D01*
Y-54331D01*
X222736D01*
Y-52461D01*
D02*
G37*
G36*
X225394D02*
X223720D01*
Y-54331D01*
X225394D01*
Y-52461D01*
D02*
G37*
G36*
X-30315Y-19724D02*
X-31006Y-19861D01*
X-31592Y-20253D01*
X-31984Y-20839D01*
X-32121Y-21530D01*
X-31984Y-22222D01*
X-31592Y-22808D01*
X-31006Y-23199D01*
X-30431Y-23314D01*
X-30262Y-23672D01*
X-30194Y-24103D01*
X-30510Y-24313D01*
X-30901Y-24899D01*
X-31039Y-25591D01*
X-30901Y-26282D01*
X-30510Y-26868D01*
X-29923Y-27259D01*
X-29232Y-27397D01*
X-28969Y-27345D01*
X-21428Y-34885D01*
Y-96049D01*
X-22197Y-96819D01*
X-24890Y-96819D01*
X-25446Y-96262D01*
Y-94031D01*
X-25421Y-94027D01*
X-24415Y-93611D01*
X-23552Y-92948D01*
X-22889Y-92085D01*
X-22473Y-91079D01*
X-22331Y-90000D01*
X-22473Y-88921D01*
X-22889Y-87915D01*
X-23552Y-87052D01*
X-24415Y-86389D01*
X-25421Y-85973D01*
X-25446Y-85969D01*
Y-84031D01*
X-25421Y-84027D01*
X-24415Y-83611D01*
X-23552Y-82948D01*
X-22889Y-82085D01*
X-22473Y-81079D01*
X-22331Y-80000D01*
X-22473Y-78921D01*
X-22889Y-77915D01*
X-23552Y-77052D01*
X-24415Y-76389D01*
X-25421Y-75973D01*
X-25446Y-75969D01*
Y-74031D01*
X-25421Y-74027D01*
X-24415Y-73611D01*
X-23552Y-72948D01*
X-22889Y-72085D01*
X-22473Y-71079D01*
X-22331Y-70000D01*
X-22473Y-68921D01*
X-22889Y-67915D01*
X-23552Y-67052D01*
X-24415Y-66389D01*
X-25421Y-65973D01*
X-26500Y-65830D01*
X-27579Y-65973D01*
X-28585Y-66389D01*
X-29448Y-67052D01*
X-29512Y-67135D01*
X-31304D01*
X-31464Y-65507D01*
X-31959Y-63874D01*
X-32763Y-62369D01*
X-33846Y-61050D01*
X-35165Y-59968D01*
X-36669Y-59164D01*
X-38302Y-58669D01*
X-40000Y-58501D01*
X-41698Y-58669D01*
X-43331Y-59164D01*
X-44835Y-59968D01*
X-46154Y-61050D01*
X-47236Y-62369D01*
X-48041Y-63874D01*
X-48536Y-65507D01*
X-48703Y-67205D01*
Y-69173D01*
X-48536Y-70871D01*
X-48041Y-72504D01*
X-47236Y-74009D01*
X-46154Y-75327D01*
X-44835Y-76410D01*
X-43331Y-77214D01*
X-41698Y-77709D01*
X-40000Y-77877D01*
X-38302Y-77709D01*
X-36669Y-77214D01*
X-35165Y-76410D01*
X-33846Y-75327D01*
X-32763Y-74009D01*
X-31959Y-72504D01*
X-31464Y-70871D01*
X-31415Y-70372D01*
X-30622Y-70359D01*
X-30527Y-71079D01*
X-30111Y-72085D01*
X-29448Y-72948D01*
X-28585Y-73611D01*
X-27579Y-74027D01*
X-27554Y-74031D01*
Y-75969D01*
X-27579Y-75973D01*
X-28585Y-76389D01*
X-29448Y-77052D01*
X-30111Y-77915D01*
X-30527Y-78921D01*
X-30670Y-80000D01*
X-30527Y-81079D01*
X-30111Y-82085D01*
X-29448Y-82948D01*
X-28585Y-83611D01*
X-27579Y-84027D01*
X-27554Y-84031D01*
Y-85969D01*
X-27579Y-85973D01*
X-28585Y-86389D01*
X-29448Y-87052D01*
X-30111Y-87915D01*
X-30527Y-88921D01*
X-30622Y-89641D01*
X-31415Y-89628D01*
X-31464Y-89129D01*
X-31959Y-87496D01*
X-32763Y-85991D01*
X-33846Y-84673D01*
X-35165Y-83590D01*
X-36669Y-82786D01*
X-38302Y-82291D01*
X-40000Y-82123D01*
X-41698Y-82291D01*
X-43331Y-82786D01*
X-44835Y-83590D01*
X-46154Y-84673D01*
X-47236Y-85991D01*
X-48041Y-87496D01*
X-48536Y-89129D01*
X-48703Y-90827D01*
Y-92795D01*
X-48536Y-94493D01*
X-48041Y-96126D01*
X-47236Y-97631D01*
X-46154Y-98949D01*
X-44835Y-100032D01*
X-43331Y-100836D01*
X-41698Y-101331D01*
X-40000Y-101499D01*
X-38302Y-101331D01*
X-36669Y-100836D01*
X-35165Y-100032D01*
X-33846Y-98949D01*
X-32763Y-97631D01*
X-31959Y-96126D01*
X-31464Y-94493D01*
X-31304Y-92865D01*
X-29512D01*
X-29448Y-92948D01*
X-28585Y-93611D01*
X-27579Y-94027D01*
X-27554Y-94031D01*
Y-96819D01*
X-29232D01*
Y-101150D01*
X-25295D01*
X-24508Y-101150D01*
X-23720Y-101150D01*
X-19783D01*
Y-100038D01*
X-18898D01*
Y-101150D01*
X-14961D01*
Y-100038D01*
X-13583D01*
Y-100854D01*
X-10433D01*
Y-98098D01*
X-11174D01*
X-11174Y-98098D01*
X-10892Y-97311D01*
X-10433D01*
Y-96425D01*
X-13583D01*
Y-97143D01*
X-13583Y-97311D01*
X-13988Y-97931D01*
X-14961D01*
Y-96425D01*
Y-94555D01*
X-16929D01*
Y-94063D01*
X-17421D01*
Y-91701D01*
X-18898D01*
X-19320Y-91088D01*
Y-34449D01*
X-19320Y-34449D01*
X-19400Y-34046D01*
X-19629Y-33704D01*
X-19629Y-33704D01*
X-27168Y-26164D01*
X-27130Y-25926D01*
X-26922Y-25788D01*
X-26282Y-25618D01*
X-25888Y-25881D01*
X-25197Y-26019D01*
X-24506Y-25881D01*
X-23920Y-25490D01*
X-23770Y-25266D01*
X93953D01*
X128277Y-59590D01*
Y-68764D01*
X127527Y-68921D01*
X127111Y-67915D01*
X126448Y-67052D01*
X125585Y-66389D01*
X124579Y-65973D01*
X123500Y-65830D01*
X122421Y-65973D01*
X121415Y-66389D01*
X120552Y-67052D01*
X120488Y-67135D01*
X118696D01*
X118536Y-65507D01*
X118041Y-63874D01*
X117237Y-62369D01*
X116154Y-61050D01*
X114835Y-59968D01*
X113331Y-59164D01*
X111698Y-58669D01*
X110000Y-58501D01*
X108302Y-58669D01*
X106669Y-59164D01*
X105165Y-59968D01*
X103846Y-61050D01*
X102763Y-62369D01*
X101959Y-63874D01*
X101464Y-65507D01*
X101297Y-67205D01*
Y-69173D01*
X101464Y-70871D01*
X101959Y-72504D01*
X102763Y-74009D01*
X103846Y-75327D01*
X105165Y-76410D01*
X106669Y-77214D01*
X108302Y-77709D01*
X110000Y-77877D01*
X111698Y-77709D01*
X113331Y-77214D01*
X114835Y-76410D01*
X116154Y-75327D01*
X117237Y-74009D01*
X118041Y-72504D01*
X118536Y-70871D01*
X118585Y-70372D01*
X119378Y-70359D01*
X119473Y-71079D01*
X119889Y-72085D01*
X120552Y-72948D01*
X121415Y-73611D01*
X122421Y-74027D01*
X122446Y-74031D01*
Y-75969D01*
X122421Y-75973D01*
X121415Y-76389D01*
X120552Y-77052D01*
X119889Y-77915D01*
X119473Y-78921D01*
X119331Y-80000D01*
X119473Y-81079D01*
X119889Y-82085D01*
X120552Y-82948D01*
X121415Y-83611D01*
X122421Y-84027D01*
X122446Y-84031D01*
Y-85969D01*
X122421Y-85973D01*
X121415Y-86389D01*
X120552Y-87052D01*
X119889Y-87915D01*
X119473Y-88921D01*
X119378Y-89641D01*
X118585Y-89628D01*
X118536Y-89129D01*
X118041Y-87496D01*
X117237Y-85991D01*
X116154Y-84673D01*
X114835Y-83590D01*
X113331Y-82786D01*
X111698Y-82291D01*
X110000Y-82123D01*
X108302Y-82291D01*
X106669Y-82786D01*
X105165Y-83590D01*
X103846Y-84673D01*
X102763Y-85991D01*
X101959Y-87496D01*
X101464Y-89129D01*
X101297Y-90827D01*
Y-92795D01*
X101464Y-94493D01*
X101959Y-96126D01*
X102763Y-97631D01*
X103846Y-98949D01*
X105165Y-100032D01*
X106669Y-100836D01*
X108302Y-101331D01*
X110000Y-101499D01*
X111698Y-101331D01*
X113331Y-100836D01*
X114835Y-100032D01*
X116154Y-98949D01*
X117237Y-97631D01*
X118041Y-96126D01*
X118536Y-94493D01*
X118696Y-92865D01*
X120488D01*
X120552Y-92948D01*
X121415Y-93611D01*
X121501Y-93647D01*
Y-97169D01*
X120193D01*
Y-101500D01*
X124130D01*
X124917Y-101500D01*
X125705Y-101500D01*
X129642D01*
Y-100388D01*
X130527D01*
Y-101500D01*
X134465D01*
Y-100388D01*
X135842D01*
Y-101205D01*
X138992D01*
Y-98449D01*
X138251D01*
Y-98449D01*
X138533Y-97661D01*
X138992D01*
Y-96776D01*
X135842D01*
Y-97493D01*
X135842Y-97661D01*
X135437Y-98281D01*
X134465D01*
Y-96776D01*
Y-94906D01*
X132496D01*
Y-94413D01*
X132004D01*
Y-92051D01*
X130527D01*
X130384Y-91323D01*
Y-59154D01*
X130384Y-59153D01*
X130304Y-58750D01*
X130076Y-58408D01*
X130076Y-58408D01*
X95135Y-23468D01*
X94991Y-23371D01*
X95229Y-22584D01*
X137137D01*
X177883Y-63330D01*
Y-67722D01*
X177160Y-67903D01*
X177096Y-67896D01*
X176448Y-67052D01*
X175585Y-66389D01*
X174579Y-65973D01*
X173500Y-65830D01*
X172421Y-65973D01*
X171415Y-66389D01*
X170552Y-67052D01*
X169889Y-67915D01*
X169473Y-68921D01*
X168703Y-68798D01*
Y-67205D01*
X168536Y-65507D01*
X168041Y-63874D01*
X167237Y-62369D01*
X166154Y-61050D01*
X164835Y-59968D01*
X163331Y-59164D01*
X161698Y-58669D01*
X160000Y-58501D01*
X158302Y-58669D01*
X156669Y-59164D01*
X155165Y-59968D01*
X153846Y-61050D01*
X152763Y-62369D01*
X151959Y-63874D01*
X151464Y-65507D01*
X151297Y-67205D01*
Y-69173D01*
X151464Y-70871D01*
X151959Y-72504D01*
X152763Y-74009D01*
X153846Y-75327D01*
X155165Y-76410D01*
X156669Y-77214D01*
X158302Y-77709D01*
X160000Y-77877D01*
X161698Y-77709D01*
X163331Y-77214D01*
X164835Y-76410D01*
X166154Y-75327D01*
X167237Y-74009D01*
X168041Y-72504D01*
X168279Y-71719D01*
X169738D01*
X169889Y-72085D01*
X170552Y-72948D01*
X171415Y-73611D01*
X171781Y-73762D01*
Y-76238D01*
X171415Y-76389D01*
X170552Y-77052D01*
X169889Y-77915D01*
X169473Y-78921D01*
X169331Y-80000D01*
X169473Y-81079D01*
X169889Y-82085D01*
X170552Y-82948D01*
X171415Y-83611D01*
X171781Y-83762D01*
Y-86238D01*
X171415Y-86389D01*
X170552Y-87052D01*
X169889Y-87915D01*
X169473Y-88921D01*
X169469Y-88946D01*
X168481D01*
X168041Y-87496D01*
X167237Y-85991D01*
X166154Y-84673D01*
X164835Y-83590D01*
X163331Y-82786D01*
X161698Y-82291D01*
X160000Y-82123D01*
X158302Y-82291D01*
X156669Y-82786D01*
X155165Y-83590D01*
X153846Y-84673D01*
X152763Y-85991D01*
X151959Y-87496D01*
X151464Y-89129D01*
X151297Y-90827D01*
Y-92795D01*
X151464Y-94493D01*
X151959Y-96126D01*
X152763Y-97631D01*
X153846Y-98949D01*
X155165Y-100032D01*
X156669Y-100836D01*
X158302Y-101331D01*
X160000Y-101499D01*
X161698Y-101331D01*
X163331Y-100836D01*
X164835Y-100032D01*
X166154Y-98949D01*
X167237Y-97631D01*
X168041Y-96126D01*
X168536Y-94493D01*
X168703Y-92795D01*
Y-91202D01*
X169473Y-91079D01*
X169889Y-92085D01*
X170552Y-92948D01*
X171415Y-93611D01*
X171781Y-93762D01*
Y-97496D01*
X170472D01*
Y-101827D01*
X174409D01*
X175197Y-101827D01*
X175984Y-101827D01*
X179921D01*
Y-101207D01*
X180807D01*
Y-101827D01*
X184744D01*
Y-101207D01*
X186122D01*
Y-101532D01*
X189272D01*
Y-98776D01*
X186122D01*
Y-99100D01*
X184744D01*
Y-97102D01*
Y-95232D01*
X180807D01*
Y-98139D01*
X180778Y-98147D01*
X179991Y-97556D01*
Y-62894D01*
X179991Y-62894D01*
X179911Y-62490D01*
X179682Y-62149D01*
X138319Y-20785D01*
X137977Y-20557D01*
X137574Y-20477D01*
X137574Y-20477D01*
X-28888D01*
X-29038Y-20253D01*
X-29624Y-19861D01*
X-30315Y-19724D01*
D02*
G37*
G36*
X225394Y-55315D02*
X221063D01*
Y-57185D01*
X221063D01*
X220987Y-57941D01*
X220821Y-58157D01*
X220543Y-58828D01*
X220449Y-59547D01*
Y-62868D01*
X219661Y-63559D01*
X217750D01*
X217178Y-62488D01*
X216095Y-61169D01*
X214776Y-60086D01*
X213272Y-59282D01*
X211639Y-58787D01*
X209941Y-58619D01*
X208243Y-58787D01*
X206610Y-59282D01*
X205106Y-60086D01*
X203787Y-61169D01*
X202704Y-62488D01*
X201900Y-63992D01*
X201405Y-65625D01*
X201238Y-67323D01*
Y-69291D01*
X201405Y-70989D01*
X201900Y-72622D01*
X202704Y-74127D01*
X203787Y-75445D01*
X205106Y-76528D01*
X206610Y-77332D01*
X208243Y-77827D01*
X209941Y-77995D01*
X211639Y-77827D01*
X213272Y-77332D01*
X214776Y-76528D01*
X216095Y-75445D01*
X217178Y-74127D01*
X217982Y-72622D01*
X218477Y-70989D01*
X218526Y-70490D01*
X219319Y-70477D01*
X219413Y-71197D01*
X219830Y-72203D01*
X220493Y-73066D01*
X220661Y-73196D01*
Y-77040D01*
X220493Y-77170D01*
X219830Y-78033D01*
X219413Y-79039D01*
X219271Y-80118D01*
X219413Y-81197D01*
X219830Y-82203D01*
X220493Y-83066D01*
X220661Y-83196D01*
Y-87040D01*
X220493Y-87170D01*
X219830Y-88033D01*
X219413Y-89039D01*
X219319Y-89759D01*
X218526Y-89746D01*
X218477Y-89247D01*
X217982Y-87614D01*
X217178Y-86110D01*
X216095Y-84791D01*
X214776Y-83708D01*
X213272Y-82904D01*
X211639Y-82409D01*
X209941Y-82241D01*
X208243Y-82409D01*
X206610Y-82904D01*
X205106Y-83708D01*
X203787Y-84791D01*
X202704Y-86110D01*
X201900Y-87614D01*
X201405Y-89247D01*
X201238Y-90945D01*
Y-92913D01*
X201405Y-94611D01*
X201900Y-96244D01*
X202704Y-97749D01*
X203787Y-99068D01*
X205106Y-100150D01*
X206610Y-100954D01*
X208243Y-101450D01*
X209941Y-101617D01*
X211639Y-101450D01*
X213272Y-100954D01*
X214776Y-100150D01*
X216095Y-99068D01*
X217178Y-97749D01*
X217750Y-96677D01*
X219661D01*
X220381Y-96583D01*
X221051Y-96305D01*
X221627Y-95863D01*
X223230Y-94260D01*
X223441Y-94288D01*
X224520Y-94146D01*
X225526Y-93729D01*
X226389Y-93066D01*
X227052Y-92203D01*
X227468Y-91197D01*
X227610Y-90118D01*
X227468Y-89039D01*
X227052Y-88033D01*
X226389Y-87170D01*
X226221Y-87040D01*
Y-83196D01*
X226389Y-83066D01*
X227052Y-82203D01*
X227468Y-81197D01*
X227610Y-80118D01*
X227468Y-79039D01*
X227052Y-78033D01*
X226389Y-77170D01*
X226221Y-77040D01*
Y-73196D01*
X226389Y-73066D01*
X227052Y-72203D01*
X227468Y-71197D01*
X227610Y-70118D01*
X227468Y-69039D01*
X227052Y-68033D01*
X226389Y-67170D01*
X226008Y-66877D01*
Y-59547D01*
X225913Y-58828D01*
X225636Y-58157D01*
X225470Y-57941D01*
X225394Y-57185D01*
X225394Y-57185D01*
X225394Y-57185D01*
Y-55315D01*
D02*
G37*
G36*
X-14205Y105331D02*
X-15288D01*
Y104445D01*
X-14205D01*
Y105331D01*
D02*
G37*
G36*
X-12138D02*
X-13221D01*
Y104445D01*
X-12138D01*
Y105331D01*
D02*
G37*
G36*
X36205Y105217D02*
X35122D01*
Y104331D01*
X36205D01*
Y105217D01*
D02*
G37*
G36*
X38272D02*
X37189D01*
Y104331D01*
X38272D01*
Y105217D01*
D02*
G37*
G36*
X136205Y105642D02*
X135122D01*
Y104756D01*
X136205D01*
Y105642D01*
D02*
G37*
G36*
X188583D02*
X187500D01*
Y104756D01*
X188583D01*
Y105642D01*
D02*
G37*
G36*
X-63500Y105988D02*
X-64583D01*
Y105102D01*
X-63500D01*
Y105988D01*
D02*
G37*
G36*
X138272Y105642D02*
X137189D01*
Y104756D01*
X138272D01*
Y105642D01*
D02*
G37*
G36*
X186516D02*
X185433D01*
Y104756D01*
X186516D01*
Y105642D01*
D02*
G37*
G36*
X88764Y105020D02*
X87681D01*
Y104134D01*
X88764D01*
Y105020D01*
D02*
G37*
G36*
X79527Y75886D02*
X77264D01*
Y73622D01*
X79527D01*
Y75886D01*
D02*
G37*
G36*
X82775D02*
X80512D01*
Y73622D01*
X82775D01*
Y75886D01*
D02*
G37*
G36*
X228150Y78772D02*
X227658D01*
X226345Y78643D01*
X225084Y78261D01*
X223921Y77639D01*
X222902Y76803D01*
X222066Y75784D01*
X221444Y74621D01*
X221061Y73359D01*
X220981Y72539D01*
X228150D01*
Y78772D01*
D02*
G37*
G36*
X229626D02*
X229134D01*
Y72539D01*
X236303D01*
X236222Y73359D01*
X235839Y74621D01*
X235218Y75784D01*
X234382Y76803D01*
X233362Y77639D01*
X232200Y78261D01*
X230938Y78643D01*
X229626Y78772D01*
D02*
G37*
G36*
X124705Y81988D02*
X119980D01*
Y80831D01*
X113406D01*
X112686Y80736D01*
X112158Y80518D01*
X112106Y80524D01*
X111130Y80396D01*
X110220Y80019D01*
X109439Y79419D01*
X108996Y78843D01*
X90138D01*
X89418Y78748D01*
X88748Y78470D01*
X88172Y78029D01*
X84944Y74800D01*
X84502Y74225D01*
X84224Y73554D01*
X84130Y72835D01*
X84224Y72115D01*
X84502Y71445D01*
X84944Y70869D01*
X85520Y70427D01*
X86190Y70150D01*
X86910Y70055D01*
X87629Y70150D01*
X88299Y70427D01*
X88875Y70869D01*
X91289Y73283D01*
X92513D01*
X92901Y72496D01*
X92868Y72453D01*
X92591Y71782D01*
X92561Y71555D01*
X101927D01*
X101898Y71782D01*
X101620Y72453D01*
X101587Y72496D01*
X101975Y73283D01*
X110707D01*
X111130Y73108D01*
X112106Y72979D01*
X113083Y73108D01*
X113993Y73485D01*
X114774Y74085D01*
X115373Y74866D01*
X115541Y75271D01*
X119980D01*
Y74114D01*
X124705D01*
Y76603D01*
X124750Y76661D01*
X125028Y77332D01*
X125122Y78051D01*
X125028Y78771D01*
X124750Y79441D01*
X124705Y79500D01*
Y81988D01*
D02*
G37*
G36*
X-99114Y89665D02*
X-100787D01*
Y87795D01*
X-99114D01*
Y89665D01*
D02*
G37*
G36*
X86697Y105020D02*
X85614D01*
Y104134D01*
X86697D01*
Y105020D01*
D02*
G37*
G36*
X-104331Y89665D02*
X-106004D01*
Y87795D01*
X-104331D01*
Y89665D01*
D02*
G37*
G36*
X-101772Y89665D02*
X-103445D01*
Y87795D01*
X-101772D01*
Y89665D01*
D02*
G37*
G36*
X-61433Y105988D02*
X-62516D01*
Y105102D01*
X-61433D01*
Y105988D01*
D02*
G37*
G36*
X-65961Y108843D02*
X-67437D01*
Y106972D01*
X-65961D01*
Y108843D01*
D02*
G37*
G36*
X-90000Y141499D02*
X-91698Y141331D01*
X-93331Y140836D01*
X-94835Y140032D01*
X-96154Y138950D01*
X-97237Y137631D01*
X-98041Y136126D01*
X-98536Y134493D01*
X-98703Y132795D01*
Y130827D01*
X-98536Y129129D01*
X-98041Y127496D01*
X-97237Y125991D01*
X-96154Y124673D01*
X-94835Y123590D01*
X-93331Y122786D01*
X-91698Y122291D01*
X-90000Y122123D01*
X-88302Y122291D01*
X-86669Y122786D01*
X-85165Y123590D01*
X-83846Y124673D01*
X-82763Y125991D01*
X-81959Y127496D01*
X-81464Y129129D01*
X-81415Y129628D01*
X-80622Y129641D01*
X-80527Y128921D01*
X-80111Y127915D01*
X-79448Y127052D01*
X-78908Y126637D01*
Y123363D01*
X-79448Y122948D01*
X-80111Y122085D01*
X-80527Y121079D01*
X-80669Y120000D01*
X-80527Y118921D01*
X-80111Y117915D01*
X-79448Y117052D01*
X-78908Y116637D01*
Y113363D01*
X-79448Y112948D01*
X-80111Y112085D01*
X-80527Y111079D01*
X-80622Y110359D01*
X-81415Y110372D01*
X-81464Y110871D01*
X-81959Y112504D01*
X-82763Y114008D01*
X-83846Y115327D01*
X-85165Y116410D01*
X-86669Y117214D01*
X-88302Y117709D01*
X-90000Y117877D01*
X-91698Y117709D01*
X-93331Y117214D01*
X-94835Y116410D01*
X-96154Y115327D01*
X-97237Y114008D01*
X-98041Y112504D01*
X-98536Y110871D01*
X-98703Y109173D01*
Y107205D01*
X-98536Y105507D01*
X-98041Y103874D01*
X-97237Y102369D01*
X-96154Y101050D01*
X-94835Y99968D01*
X-93331Y99164D01*
X-91698Y98669D01*
X-90000Y98501D01*
X-88302Y98669D01*
X-86669Y99164D01*
X-85165Y99968D01*
X-83846Y101050D01*
X-82763Y102369D01*
X-81959Y103874D01*
X-81567Y105167D01*
X-80280D01*
X-80279Y105167D01*
X-79876Y105247D01*
X-79695Y105368D01*
X-78908Y105103D01*
Y103740D01*
X-80217D01*
Y99410D01*
X-76521D01*
X-76195Y98622D01*
X-78083Y96734D01*
X-78347Y96787D01*
X-79038Y96649D01*
X-79624Y96258D01*
X-80015Y95672D01*
X-80153Y94980D01*
X-80015Y94289D01*
X-79624Y93703D01*
X-79038Y93312D01*
X-78347Y93174D01*
X-77655Y93312D01*
X-77069Y93703D01*
X-76678Y94289D01*
X-76540Y94980D01*
X-76593Y95244D01*
X-72427Y99410D01*
X-70768D01*
Y100521D01*
X-69898D01*
Y99394D01*
X-65961D01*
Y100521D01*
X-64583D01*
Y99689D01*
X-61433D01*
Y102445D01*
X-62159D01*
X-62221Y102518D01*
X-61889Y103232D01*
X-61433D01*
Y104118D01*
X-64583D01*
Y103416D01*
X-64583Y103232D01*
X-65026Y102629D01*
X-65961D01*
Y104118D01*
Y105988D01*
X-69898D01*
Y104118D01*
Y102629D01*
X-70768D01*
Y103740D01*
X-74705D01*
X-75492Y103740D01*
X-76244Y103740D01*
X-76801Y104297D01*
Y105567D01*
X-76500Y105831D01*
X-75421Y105973D01*
X-74415Y106389D01*
X-73552Y107052D01*
X-72889Y107915D01*
X-72473Y108921D01*
X-72330Y110000D01*
X-72473Y111079D01*
X-72889Y112085D01*
X-73552Y112948D01*
X-74415Y113611D01*
X-75421Y114027D01*
X-76500Y114170D01*
X-76801Y114433D01*
Y115567D01*
X-76500Y115831D01*
X-75421Y115973D01*
X-74415Y116389D01*
X-73552Y117052D01*
X-72889Y117915D01*
X-72473Y118921D01*
X-72330Y120000D01*
X-72473Y121079D01*
X-72889Y122085D01*
X-73552Y122948D01*
X-74415Y123611D01*
X-75421Y124027D01*
X-76500Y124170D01*
X-76801Y124433D01*
Y125567D01*
X-76500Y125830D01*
X-75421Y125973D01*
X-74415Y126389D01*
X-73552Y127052D01*
X-72889Y127915D01*
X-72473Y128921D01*
X-72330Y130000D01*
X-72473Y131079D01*
X-72889Y132085D01*
X-73552Y132948D01*
X-74415Y133611D01*
X-75421Y134027D01*
X-76500Y134169D01*
X-77579Y134027D01*
X-78585Y133611D01*
X-79448Y132948D01*
X-79614Y132733D01*
X-80400Y132681D01*
X-81382Y133664D01*
X-81464Y134493D01*
X-81959Y136126D01*
X-82763Y137631D01*
X-83846Y138950D01*
X-85165Y140032D01*
X-86669Y140836D01*
X-88302Y141331D01*
X-90000Y141499D01*
D02*
G37*
G36*
X184055Y108496D02*
X182579D01*
Y106626D01*
X184055D01*
Y108496D01*
D02*
G37*
G36*
X-68421Y108843D02*
X-69898D01*
Y106972D01*
X-68421D01*
Y108843D01*
D02*
G37*
G36*
X-40000Y141499D02*
X-41698Y141331D01*
X-43331Y140836D01*
X-44835Y140032D01*
X-46154Y138950D01*
X-47236Y137631D01*
X-48041Y136126D01*
X-48536Y134493D01*
X-48703Y132795D01*
Y130827D01*
X-48536Y129129D01*
X-48041Y127496D01*
X-47236Y125991D01*
X-46154Y124673D01*
X-44835Y123590D01*
X-43331Y122786D01*
X-41698Y122291D01*
X-40000Y122123D01*
X-38302Y122291D01*
X-36669Y122786D01*
X-35165Y123590D01*
X-33846Y124673D01*
X-32763Y125991D01*
X-31959Y127496D01*
X-31464Y129129D01*
X-31415Y129628D01*
X-30622Y129641D01*
X-30527Y128921D01*
X-30111Y127915D01*
X-29448Y127052D01*
X-28585Y126389D01*
X-27579Y125973D01*
X-27530Y125966D01*
Y124034D01*
X-27579Y124027D01*
X-28585Y123611D01*
X-29448Y122948D01*
X-30111Y122085D01*
X-30527Y121079D01*
X-30670Y120000D01*
X-30527Y118921D01*
X-30111Y117915D01*
X-29448Y117052D01*
X-28585Y116389D01*
X-27579Y115973D01*
X-27530Y115966D01*
Y114034D01*
X-27579Y114027D01*
X-28585Y113611D01*
X-29448Y112948D01*
X-30111Y112085D01*
X-30527Y111079D01*
X-30622Y110359D01*
X-31415Y110372D01*
X-31464Y110871D01*
X-31959Y112504D01*
X-32763Y114008D01*
X-33846Y115327D01*
X-35165Y116410D01*
X-36669Y117214D01*
X-38302Y117709D01*
X-40000Y117877D01*
X-41698Y117709D01*
X-43331Y117214D01*
X-44835Y116410D01*
X-46154Y115327D01*
X-47236Y114008D01*
X-48041Y112504D01*
X-48536Y110871D01*
X-48703Y109173D01*
Y107205D01*
X-48536Y105507D01*
X-48041Y103874D01*
X-47236Y102369D01*
X-46154Y101050D01*
X-44835Y99968D01*
X-43331Y99164D01*
X-41698Y98669D01*
X-40000Y98501D01*
X-38302Y98669D01*
X-36669Y99164D01*
X-35165Y99968D01*
X-33846Y101050D01*
X-32763Y102369D01*
X-31959Y103874D01*
X-31567Y105167D01*
X-30280D01*
X-30279Y105167D01*
X-29876Y105247D01*
X-29534Y105475D01*
X-29439Y105571D01*
X-28711Y105270D01*
Y103067D01*
X-30937D01*
Y98736D01*
X-28535D01*
X-28233Y98009D01*
X-31586Y94656D01*
X-40010D01*
X-40160Y94880D01*
X-40746Y95271D01*
X-41437Y95409D01*
X-42128Y95271D01*
X-42714Y94880D01*
X-43106Y94294D01*
X-43243Y93602D01*
X-43106Y92911D01*
X-42714Y92325D01*
X-42128Y91934D01*
X-41437Y91796D01*
X-40746Y91934D01*
X-40160Y92325D01*
X-40010Y92549D01*
X-31150D01*
X-31150Y92549D01*
X-30746Y92629D01*
X-30404Y92857D01*
X-24526Y98736D01*
X-21488D01*
Y99848D01*
X-20602D01*
Y98736D01*
X-16665D01*
Y99848D01*
X-15288D01*
Y99032D01*
X-12138D01*
Y101787D01*
X-12879D01*
X-12879Y101787D01*
X-12597Y102575D01*
X-12138D01*
Y103461D01*
X-15288D01*
Y102743D01*
X-15288Y102575D01*
X-15693Y101955D01*
X-16665D01*
Y103461D01*
Y105331D01*
X-20602D01*
Y103461D01*
Y101955D01*
X-21488D01*
Y103067D01*
X-26213D01*
X-26604Y103692D01*
Y105739D01*
X-26500Y105831D01*
X-25421Y105973D01*
X-24415Y106389D01*
X-23552Y107052D01*
X-22889Y107915D01*
X-22473Y108921D01*
X-22331Y110000D01*
X-22473Y111079D01*
X-22889Y112085D01*
X-23552Y112948D01*
X-24415Y113611D01*
X-25421Y114027D01*
X-25423Y114028D01*
Y115972D01*
X-25421Y115973D01*
X-24415Y116389D01*
X-23552Y117052D01*
X-22889Y117915D01*
X-22473Y118921D01*
X-22331Y120000D01*
X-22473Y121079D01*
X-22889Y122085D01*
X-23552Y122948D01*
X-24415Y123611D01*
X-25421Y124027D01*
X-25423Y124028D01*
Y125972D01*
X-25421Y125973D01*
X-24415Y126389D01*
X-23552Y127052D01*
X-22889Y127915D01*
X-22473Y128921D01*
X-22331Y130000D01*
X-22473Y131079D01*
X-22889Y132085D01*
X-23552Y132948D01*
X-24415Y133611D01*
X-25421Y134027D01*
X-26500Y134169D01*
X-27579Y134027D01*
X-28585Y133611D01*
X-28605Y133595D01*
X-29534Y134525D01*
X-29876Y134753D01*
X-30279Y134833D01*
X-30280Y134833D01*
X-31567D01*
X-31959Y136126D01*
X-32763Y137631D01*
X-33846Y138950D01*
X-35165Y140032D01*
X-36669Y140836D01*
X-38302Y141331D01*
X-40000Y141499D01*
D02*
G37*
G36*
X210000D02*
X208302Y141331D01*
X206669Y140836D01*
X205165Y140032D01*
X203846Y138950D01*
X202763Y137631D01*
X201959Y136126D01*
X201464Y134493D01*
X201297Y132795D01*
Y130827D01*
X201464Y129129D01*
X201959Y127496D01*
X202763Y125991D01*
X203846Y124673D01*
X205165Y123590D01*
X206669Y122786D01*
X208302Y122291D01*
X210000Y122123D01*
X211698Y122291D01*
X213331Y122786D01*
X214835Y123590D01*
X216154Y124673D01*
X217236Y125991D01*
X218041Y127496D01*
X218536Y129129D01*
X218585Y129628D01*
X219378Y129641D01*
X219473Y128921D01*
X219889Y127915D01*
X220552Y127052D01*
X221415Y126389D01*
X222421Y125973D01*
X223500Y125830D01*
X224579Y125973D01*
X225585Y126389D01*
X226448Y127052D01*
X227111Y127915D01*
X227527Y128921D01*
X227670Y130000D01*
X227527Y131079D01*
X227111Y132085D01*
X226448Y132948D01*
X225585Y133611D01*
X224579Y134027D01*
X223500Y134169D01*
X222421Y134027D01*
X221415Y133611D01*
X220552Y132948D01*
X219889Y132085D01*
X219473Y131079D01*
X218703Y131202D01*
Y132795D01*
X218536Y134493D01*
X218041Y136126D01*
X217236Y137631D01*
X216154Y138950D01*
X214835Y140032D01*
X213331Y140836D01*
X211698Y141331D01*
X210000Y141499D01*
D02*
G37*
G36*
X174603Y149745D02*
Y143508D01*
X174603Y143052D01*
X174932Y142856D01*
X174932Y142856D01*
X175309Y142856D01*
X179524D01*
Y143052D01*
X194682Y143052D01*
Y149745D01*
X174603Y149745D01*
D02*
G37*
G36*
X110000Y141499D02*
X108302Y141331D01*
X106669Y140836D01*
X105165Y140032D01*
X103846Y138950D01*
X102763Y137631D01*
X101959Y136126D01*
X101464Y134493D01*
X101297Y132795D01*
Y130827D01*
X101464Y129129D01*
X101959Y127496D01*
X102763Y125991D01*
X103846Y124673D01*
X105165Y123590D01*
X106669Y122786D01*
X108302Y122291D01*
X110000Y122123D01*
X111698Y122291D01*
X113331Y122786D01*
X114835Y123590D01*
X116154Y124673D01*
X117237Y125991D01*
X118041Y127496D01*
X118409Y128709D01*
X119254Y128951D01*
X119507Y128839D01*
X119889Y127915D01*
X120552Y127052D01*
X120781Y126876D01*
Y123124D01*
X120552Y122948D01*
X119889Y122085D01*
X119473Y121079D01*
X119331Y120000D01*
X119473Y118921D01*
X119889Y117915D01*
X120552Y117052D01*
X120781Y116876D01*
Y113124D01*
X120552Y112948D01*
X119889Y112085D01*
X119473Y111079D01*
X119378Y110359D01*
X118585Y110372D01*
X118536Y110871D01*
X118041Y112504D01*
X117237Y114008D01*
X116154Y115327D01*
X114835Y116410D01*
X113331Y117214D01*
X111698Y117709D01*
X110000Y117877D01*
X108302Y117709D01*
X106669Y117214D01*
X105165Y116410D01*
X103846Y115327D01*
X102763Y114008D01*
X101959Y112504D01*
X101464Y110871D01*
X101297Y109173D01*
Y107205D01*
X101464Y105507D01*
X101959Y103874D01*
X102763Y102369D01*
X103846Y101050D01*
X105165Y99968D01*
X106669Y99164D01*
X108302Y98669D01*
X110000Y98501D01*
X111698Y98669D01*
X113331Y99164D01*
X114835Y99968D01*
X116154Y101050D01*
X117237Y102369D01*
X118041Y103874D01*
X118433Y105167D01*
X119720D01*
X119720Y105167D01*
X119993Y105221D01*
X120096Y105211D01*
X120375Y105053D01*
X120781Y104739D01*
Y103378D01*
X119472D01*
Y99047D01*
X124035Y99047D01*
X124066Y99027D01*
X124448Y98260D01*
X124266Y98018D01*
X123817Y97929D01*
X123231Y97537D01*
X122839Y96951D01*
X122702Y96260D01*
X122839Y95569D01*
X123231Y94983D01*
X123817Y94591D01*
X124508Y94454D01*
X125199Y94591D01*
X125785Y94983D01*
X126177Y95569D01*
X126314Y96260D01*
X126262Y96524D01*
X127304Y97566D01*
X127304Y97566D01*
X127533Y97908D01*
X127613Y98311D01*
X127641Y99047D01*
X128921D01*
Y100159D01*
X129807D01*
Y99047D01*
X133744D01*
Y100159D01*
X135122D01*
Y99343D01*
X138272D01*
Y102098D01*
X137531D01*
Y102098D01*
X137812Y102886D01*
X138272D01*
Y103772D01*
X135122D01*
Y103054D01*
X135122Y102886D01*
X134717Y102266D01*
X133744D01*
Y103772D01*
Y105642D01*
X129807D01*
Y103772D01*
Y102266D01*
X128921D01*
Y103378D01*
X124984D01*
X124197Y103378D01*
X123445Y103378D01*
X122888Y103935D01*
Y105314D01*
X123480Y105833D01*
X123500Y105831D01*
X124579Y105973D01*
X125585Y106389D01*
X126448Y107052D01*
X127111Y107915D01*
X127527Y108921D01*
X127670Y110000D01*
X127527Y111079D01*
X127111Y112085D01*
X126448Y112948D01*
X125585Y113611D01*
X124579Y114027D01*
X123500Y114170D01*
X123004Y114732D01*
Y115268D01*
X123500Y115831D01*
X124579Y115973D01*
X125585Y116389D01*
X126448Y117052D01*
X127111Y117915D01*
X127527Y118921D01*
X127670Y120000D01*
X127527Y121079D01*
X127111Y122085D01*
X126448Y122948D01*
X125585Y123611D01*
X124579Y124027D01*
X123500Y124170D01*
X123004Y124732D01*
Y125268D01*
X123500Y125830D01*
X124579Y125973D01*
X125585Y126389D01*
X126448Y127052D01*
X127111Y127915D01*
X127527Y128921D01*
X127670Y130000D01*
X127527Y131079D01*
X127111Y132085D01*
X126448Y132948D01*
X125585Y133611D01*
X124579Y134027D01*
X123500Y134169D01*
X122421Y134027D01*
X121415Y133611D01*
X120552Y132948D01*
X120236Y132537D01*
X119229Y132431D01*
X118686Y132974D01*
X118536Y134493D01*
X118041Y136126D01*
X117237Y137631D01*
X116154Y138950D01*
X114835Y140032D01*
X113331Y140836D01*
X111698Y141331D01*
X110000Y141499D01*
D02*
G37*
G36*
X223500Y124170D02*
X222421Y124027D01*
X221415Y123611D01*
X220552Y122948D01*
X219889Y122085D01*
X219473Y121079D01*
X219331Y120000D01*
X219473Y118921D01*
X219889Y117915D01*
X220552Y117052D01*
X221415Y116389D01*
X222421Y115973D01*
X223500Y115831D01*
X224579Y115973D01*
X225585Y116389D01*
X226448Y117052D01*
X227111Y117915D01*
X227527Y118921D01*
X227670Y120000D01*
X227527Y121079D01*
X227111Y122085D01*
X226448Y122948D01*
X225585Y123611D01*
X224579Y124027D01*
X223500Y124170D01*
D02*
G37*
G36*
X181595Y108496D02*
X180118D01*
Y106626D01*
X181595D01*
Y108496D01*
D02*
G37*
G36*
X84236Y107874D02*
X82760D01*
Y106004D01*
X84236D01*
Y107874D01*
D02*
G37*
G36*
X31283Y108071D02*
X29807D01*
Y106201D01*
X31283D01*
Y108071D01*
D02*
G37*
G36*
X210000Y117877D02*
X208302Y117709D01*
X206669Y117214D01*
X205165Y116410D01*
X203846Y115327D01*
X202763Y114008D01*
X201959Y112504D01*
X201464Y110871D01*
X201297Y109173D01*
Y107205D01*
X201464Y105507D01*
X201959Y103874D01*
X202763Y102369D01*
X203846Y101050D01*
X205165Y99968D01*
X206669Y99164D01*
X208302Y98669D01*
X210000Y98501D01*
X211698Y98669D01*
X213331Y99164D01*
X214835Y99968D01*
X216154Y101050D01*
X217236Y102369D01*
X218041Y103874D01*
X218536Y105507D01*
X218703Y107205D01*
Y108798D01*
X219473Y108921D01*
X219889Y107915D01*
X220552Y107052D01*
X221415Y106389D01*
X222421Y105973D01*
X223500Y105831D01*
X224579Y105973D01*
X225585Y106389D01*
X226448Y107052D01*
X227111Y107915D01*
X227527Y108921D01*
X227670Y110000D01*
X227527Y111079D01*
X227111Y112085D01*
X226448Y112948D01*
X225585Y113611D01*
X224579Y114027D01*
X223500Y114170D01*
X222421Y114027D01*
X221415Y113611D01*
X220552Y112948D01*
X219889Y112085D01*
X219473Y111079D01*
X219378Y110359D01*
X218585Y110372D01*
X218536Y110871D01*
X218041Y112504D01*
X217236Y114008D01*
X216154Y115327D01*
X214835Y116410D01*
X213331Y117214D01*
X211698Y117709D01*
X210000Y117877D01*
D02*
G37*
G36*
X81776Y107874D02*
X80299D01*
Y106004D01*
X81776D01*
Y107874D01*
D02*
G37*
G36*
X33744Y108071D02*
X32268D01*
Y106201D01*
X33744D01*
Y108071D01*
D02*
G37*
G36*
X131283Y108496D02*
X129807D01*
Y106626D01*
X131283D01*
Y108496D01*
D02*
G37*
G36*
X133744D02*
X132268D01*
Y106626D01*
X133744D01*
Y108496D01*
D02*
G37*
G36*
X-19126Y108185D02*
X-20602D01*
Y106315D01*
X-19126D01*
Y108185D01*
D02*
G37*
G36*
X-16665D02*
X-18142D01*
Y106315D01*
X-16665D01*
Y108185D01*
D02*
G37*
G36*
X-107939Y51196D02*
X-109809D01*
Y49719D01*
X-107939D01*
Y51196D01*
D02*
G37*
G36*
X-78609Y53164D02*
Y51294D01*
X-77132D01*
Y53164D01*
X-78609D01*
D02*
G37*
G36*
X-115871Y48216D02*
X-119119D01*
Y44968D01*
X-115871D01*
Y48216D01*
D02*
G37*
G36*
X-67290Y47652D02*
X-69160D01*
Y46176D01*
X-67290D01*
Y47652D01*
D02*
G37*
G36*
X-82807Y56283D02*
X-84677D01*
Y54807D01*
X-82807D01*
Y56283D01*
D02*
G37*
G36*
X121850Y64173D02*
X119980D01*
Y60728D01*
X121850D01*
Y64173D01*
D02*
G37*
G36*
X124705D02*
X122835D01*
Y60728D01*
X124705D01*
Y64173D01*
D02*
G37*
G36*
X-82807Y58744D02*
X-84677D01*
Y57268D01*
X-82807D01*
Y58744D01*
D02*
G37*
G36*
X-120374Y67913D02*
X-126969D01*
Y65945D01*
Y63976D01*
X-122298D01*
X-119205Y60883D01*
X-119327Y60096D01*
X-133292D01*
Y62783D01*
X-140772D01*
Y55302D01*
X-133292D01*
Y57989D01*
X-119119D01*
Y55302D01*
X-117220D01*
Y54217D01*
X-117220Y54217D01*
X-117139Y53814D01*
X-116911Y53472D01*
X-114181Y50742D01*
X-114233Y50478D01*
X-114096Y49787D01*
X-113704Y49201D01*
X-113408Y49003D01*
X-113647Y48216D01*
X-114887D01*
Y44968D01*
X-111639D01*
Y48025D01*
X-111639Y48216D01*
X-111519Y48954D01*
X-111149Y49201D01*
X-110758Y49787D01*
X-110620Y50478D01*
X-110758Y51169D01*
X-111149Y51755D01*
X-111735Y52147D01*
X-112427Y52284D01*
X-112690Y52232D01*
X-114973Y54515D01*
X-114777Y55302D01*
X-112614D01*
X-112606Y55299D01*
X-112029Y54515D01*
X-112068Y54316D01*
X-111931Y53624D01*
X-111539Y53038D01*
X-110953Y52647D01*
X-110262Y52509D01*
X-109571Y52647D01*
X-108985Y53038D01*
X-108593Y53624D01*
X-108456Y54316D01*
X-108494Y54511D01*
X-107913Y55298D01*
X-107408D01*
Y60023D01*
Y64747D01*
X-111739D01*
Y62783D01*
X-118124D01*
X-120374Y65033D01*
Y67913D01*
D02*
G37*
G36*
X-133292Y48216D02*
X-136540D01*
Y44968D01*
X-133292D01*
Y48216D01*
D02*
G37*
G36*
X-89297Y31156D02*
X-94750D01*
Y25703D01*
X-89297D01*
Y31156D01*
D02*
G37*
G36*
X-59416Y30723D02*
X-61679D01*
Y28459D01*
X-59416D01*
Y30723D01*
D02*
G37*
G36*
X-77585Y19896D02*
X-83333D01*
Y13892D01*
X-77585D01*
Y19896D01*
D02*
G37*
G36*
X-59416Y27475D02*
X-61679D01*
Y25211D01*
X-59416D01*
Y27475D01*
D02*
G37*
G36*
X-136679Y35448D02*
X-138549D01*
Y33971D01*
X-136679D01*
Y35448D01*
D02*
G37*
G36*
X-133292Y43983D02*
X-136540D01*
Y40735D01*
X-133292D01*
Y43983D01*
D02*
G37*
G36*
X-137524Y48216D02*
X-140772D01*
Y44968D01*
X-137524D01*
Y48216D01*
D02*
G37*
G36*
X-69652Y40861D02*
X-71522D01*
Y39385D01*
X-69652D01*
Y40861D01*
D02*
G37*
G36*
X-137524Y43983D02*
X-140772D01*
Y40735D01*
X-137524D01*
Y43983D01*
D02*
G37*
G36*
X75394Y71161D02*
X71457D01*
Y68843D01*
X65669D01*
X64950Y68748D01*
X64279Y68470D01*
X63704Y68028D01*
X62703Y67028D01*
X59350D01*
Y64295D01*
X58268D01*
X57548Y64201D01*
X56878Y63923D01*
X56302Y63481D01*
X55861Y62906D01*
X55583Y62235D01*
X55488Y61516D01*
X55583Y60796D01*
X55861Y60126D01*
X56302Y59550D01*
X56878Y59109D01*
X57548Y58831D01*
X58268Y58736D01*
X60844D01*
X60880Y58649D01*
X61322Y58074D01*
X61898Y57632D01*
X62568Y57354D01*
X63287Y57260D01*
X64007Y57354D01*
X64677Y57632D01*
X65253Y58074D01*
X65945Y58766D01*
X66440Y58271D01*
X67016Y57829D01*
X67686Y57551D01*
X68405Y57456D01*
X69125Y57551D01*
X69795Y57829D01*
X70371Y58271D01*
X70813Y58846D01*
X71091Y59517D01*
X71185Y60236D01*
X71091Y60956D01*
X70813Y61626D01*
X70371Y62202D01*
X70017Y62556D01*
X70318Y63283D01*
X76836D01*
X76973Y62596D01*
X77364Y62010D01*
X77951Y61619D01*
X78642Y61481D01*
X79333Y61619D01*
X79919Y62010D01*
X80311Y62596D01*
X80447Y63283D01*
X99212D01*
X99932Y63378D01*
X100602Y63656D01*
X101178Y64097D01*
X101620Y64673D01*
X101898Y65344D01*
X101992Y66063D01*
X101898Y66782D01*
X101620Y67453D01*
X101178Y68028D01*
X101128Y68067D01*
Y69059D01*
X101178Y69098D01*
X101620Y69673D01*
X101898Y70344D01*
X101927Y70571D01*
X92561D01*
X92591Y70344D01*
X92868Y69673D01*
X92901Y69630D01*
X92513Y68843D01*
X88484D01*
Y68996D01*
X85335D01*
Y68843D01*
X82775D01*
Y69587D01*
X77264D01*
Y68843D01*
X75394D01*
Y71161D01*
D02*
G37*
G36*
X115847Y70492D02*
X112598D01*
Y67244D01*
X115847D01*
Y70492D01*
D02*
G37*
G36*
X79527Y72638D02*
X77264D01*
Y70374D01*
X79527D01*
Y72638D01*
D02*
G37*
G36*
X-127953Y67913D02*
X-129823D01*
Y66437D01*
X-127953D01*
Y67913D01*
D02*
G37*
G36*
X111614Y70492D02*
X108366D01*
Y67244D01*
X111614D01*
Y70492D01*
D02*
G37*
G36*
X82775Y72638D02*
X80512D01*
Y70374D01*
X82775D01*
Y72638D01*
D02*
G37*
G36*
X208268Y78772D02*
X207776D01*
X206464Y78643D01*
X205202Y78261D01*
X204039Y77639D01*
X203020Y76803D01*
X202184Y75784D01*
X201562Y74621D01*
X201180Y73359D01*
X201099Y72539D01*
X208268D01*
Y78772D01*
D02*
G37*
G36*
X209744D02*
X209252D01*
Y72539D01*
X216421D01*
X216340Y73359D01*
X215957Y74621D01*
X215336Y75784D01*
X214500Y76803D01*
X213480Y77639D01*
X212318Y78261D01*
X211056Y78643D01*
X209744Y78772D01*
D02*
G37*
G36*
X72933Y74016D02*
X71457D01*
Y72146D01*
X72933D01*
Y74016D01*
D02*
G37*
G36*
X75394D02*
X73917D01*
Y72146D01*
X75394D01*
Y74016D01*
D02*
G37*
G36*
X236303Y71555D02*
X229134D01*
Y65322D01*
X229626D01*
X230938Y65451D01*
X232200Y65834D01*
X233362Y66455D01*
X234382Y67292D01*
X235218Y68311D01*
X235839Y69474D01*
X236222Y70735D01*
X236303Y71555D01*
D02*
G37*
G36*
X115847Y66260D02*
X112598D01*
Y63012D01*
X115847D01*
Y66260D01*
D02*
G37*
G36*
X-127953Y65453D02*
X-129823D01*
Y63976D01*
X-127953D01*
Y65453D01*
D02*
G37*
G36*
X186516Y75032D02*
X185204Y74903D01*
X183942Y74520D01*
X182779Y73899D01*
X181760Y73063D01*
X180924Y72044D01*
X180302Y70881D01*
X179920Y69619D01*
X179790Y68307D01*
X179920Y66995D01*
X180302Y65733D01*
X180924Y64571D01*
X181760Y63552D01*
X182779Y62715D01*
X183942Y62094D01*
X185204Y61711D01*
X186516Y61582D01*
X187828Y61711D01*
X189089Y62094D01*
X190252Y62715D01*
X191271Y63552D01*
X192108Y64571D01*
X192729Y65733D01*
X193112Y66995D01*
X193241Y68307D01*
X193112Y69619D01*
X192729Y70881D01*
X192108Y72044D01*
X191271Y73063D01*
X190252Y73899D01*
X189089Y74520D01*
X187828Y74903D01*
X186516Y75032D01*
D02*
G37*
G36*
X111614Y66260D02*
X108366D01*
Y63012D01*
X111614D01*
Y66260D01*
D02*
G37*
G36*
X121850Y68602D02*
X119980D01*
Y65158D01*
X121850D01*
Y68602D01*
D02*
G37*
G36*
X216421Y71555D02*
X209252D01*
Y65322D01*
X209744D01*
X211056Y65451D01*
X212318Y65834D01*
X213480Y66455D01*
X214500Y67292D01*
X215336Y68311D01*
X215957Y69474D01*
X216340Y70735D01*
X216421Y71555D01*
D02*
G37*
G36*
X228150D02*
X220981D01*
X221061Y70735D01*
X221444Y69474D01*
X222066Y68311D01*
X222902Y67292D01*
X223921Y66455D01*
X225084Y65834D01*
X226345Y65451D01*
X227658Y65322D01*
X228150D01*
Y71555D01*
D02*
G37*
G36*
X124705Y68602D02*
X122835D01*
Y65158D01*
X124705D01*
Y68602D01*
D02*
G37*
G36*
X208268Y71555D02*
X201099D01*
X201180Y70735D01*
X201562Y69474D01*
X202184Y68311D01*
X203020Y67292D01*
X204039Y66455D01*
X205202Y65834D01*
X206464Y65451D01*
X207776Y65322D01*
X208268D01*
Y71555D01*
D02*
G37*
%LPD*%
D12*
X-1575Y55020D02*
X207972D01*
X208268Y55315D01*
X229232Y34350D01*
X-85400Y44896D02*
X-84219Y46077D01*
X-79101D01*
X-96227Y34581D02*
Y37810D01*
X-131463Y33479D02*
X-131069Y33873D01*
X-80479Y34581D02*
Y37959D01*
X-81595Y39075D02*
X-80479Y37959D01*
X-90321Y35958D02*
X-88681Y37598D01*
X-90321Y34581D02*
Y35958D01*
X-94258Y34581D02*
Y38025D01*
X-92290Y37139D02*
X-91240Y38189D01*
X-92290Y34581D02*
Y37139D01*
X-120079Y27804D02*
X-118274Y25999D01*
X-120079Y27804D02*
Y30560D01*
X-123392Y33873D02*
X-120079Y30560D01*
X-74061Y18322D02*
X-74047Y18307D01*
X-73947Y18407D01*
X-76542Y4030D02*
X-74048D01*
X-72575Y2557D01*
X-91467Y48602D02*
X-89927Y47062D01*
X-96227Y37810D02*
X-92808Y41228D01*
X-94258Y38025D02*
X-92039Y40244D01*
X-86509D01*
X-85400Y41353D01*
X-92808Y41228D02*
X-90680D01*
X-89927Y41981D01*
Y47062D01*
X-113604Y59141D02*
X-110360Y62385D01*
X-116166Y54217D02*
X-112427Y50478D01*
X-131220Y-3542D02*
X-128762Y-1084D01*
X-133878Y-3542D02*
X-131220D01*
X-153722Y3738D02*
X-144211D01*
X-154239Y3220D02*
X-153722Y3738D01*
X-121971Y65140D02*
X-115874Y59042D01*
X-137032Y59042D02*
X-137032Y59042D01*
X-116166D01*
X-115874D01*
X-115379D01*
Y59141D02*
X-113604D01*
X-66102Y24227D02*
X-66080Y24205D01*
X-74061Y24227D02*
X-66102D01*
X-74061Y22259D02*
X-68526D01*
X-107269Y16353D02*
X-104613D01*
X-107972Y15650D02*
X-107269Y16353D01*
X-106802Y14385D02*
X-104613D01*
X-108134Y13131D02*
X-108095Y13092D01*
X-108134Y13131D02*
Y13189D01*
X-105309Y12416D02*
X-104613D01*
X-106308Y11417D02*
X-105309Y12416D01*
X-228445Y123130D02*
Y139469D01*
X-220571Y123228D02*
Y139469D01*
X-196949Y123228D02*
Y139469D01*
X-189075Y123228D02*
Y139469D01*
X-228445Y118405D02*
X-188976D01*
X-168110Y137402D02*
X-155610Y149902D01*
X-124902D01*
X-116732Y141732D01*
Y92815D02*
Y141732D01*
X-168110Y126772D02*
Y137402D01*
X-188976Y118405D02*
X-176476D01*
X-168110Y126772D01*
X-116732Y92815D02*
X-94488Y70571D01*
X-74061Y12416D02*
X-73850Y12205D01*
X-73751Y12304D01*
X-62897D01*
X-12500Y-98984D02*
X-12008Y-99476D01*
X-26870Y-98984D02*
X-26500Y-98614D01*
X-28311Y-68189D02*
X-26500Y-70000D01*
X-40000Y-68189D02*
X-28311D01*
X-26500Y-98614D02*
Y-90000D01*
Y-80000D01*
Y-70000D01*
X-40000Y-91811D02*
X-28311D01*
X37697Y-99154D02*
X38189Y-99646D01*
X11984Y-70173D02*
X23327D01*
X11811Y-90000D02*
X23327D01*
X23500D01*
X60000Y-68189D02*
X70358D01*
X61811Y-90000D02*
X72835D01*
X73500D01*
X87205Y-99268D02*
X87697Y-99760D01*
X122555Y-99335D02*
Y-90945D01*
X121689Y-68189D02*
X123500Y-70000D01*
X110000Y-68189D02*
X121689D01*
X123500Y-90000D02*
Y-80000D01*
Y-70000D01*
X110000Y-91811D02*
X121689D01*
X122555Y-90945D01*
X123500Y-90000D01*
X136925Y-99335D02*
X137417Y-99827D01*
X162476Y-70665D02*
X172835D01*
X161811Y-90000D02*
X172835D01*
X173500D01*
X237303Y819D02*
X237795Y327D01*
X219721Y6221D02*
X222933Y9433D01*
X223500Y10000D01*
X222933Y819D02*
Y9433D01*
X169720Y6221D02*
X172736Y9236D01*
X173500Y10000D01*
X172736Y622D02*
Y9236D01*
X119720Y6221D02*
X122524Y9024D01*
X123500Y10000D01*
X122524Y1098D02*
Y9024D01*
X136894Y1098D02*
X137386Y606D01*
X69721Y6221D02*
X72622Y9122D01*
X73500Y10000D01*
X72622Y1098D02*
Y9122D01*
X36992Y1476D02*
X37484Y984D01*
X22622Y9122D02*
X23500Y10000D01*
X22622Y1476D02*
Y9122D01*
X-29945Y5906D02*
X-27756Y8095D01*
X-26165Y9685D01*
X-27756Y1492D02*
Y8095D01*
X-80279Y-93779D02*
X-77461Y-90961D01*
X-76500Y-90000D01*
X-77461Y-99083D02*
Y-90961D01*
X19721Y6221D02*
X22622Y9122D01*
X185138Y106134D02*
X187008Y104264D01*
X182087Y106134D02*
X185138D01*
X169720Y106220D02*
X172146Y108646D01*
X173500Y110000D01*
X172146Y101213D02*
Y108646D01*
X134827Y106134D02*
X136697Y104264D01*
X131776Y106134D02*
X134827D01*
X119720Y106220D02*
X121835Y108335D01*
X123500Y110000D01*
X121835Y101213D02*
Y108335D01*
X85319Y105512D02*
X87189Y103642D01*
X82268Y105512D02*
X85319D01*
X69721Y106220D02*
X72327Y108827D01*
X73500Y110000D01*
X72327Y100591D02*
Y108827D01*
X34827Y105709D02*
X36697Y103839D01*
X31776Y105709D02*
X34827D01*
X19721Y106220D02*
X21850Y108350D01*
X23500Y110000D01*
X21850Y100787D02*
Y108350D01*
X-15583Y105823D02*
X-13713Y103953D01*
X-18634Y105823D02*
X-15583D01*
X-28575Y100902D02*
X-27657Y101819D01*
Y108843D01*
X-67929Y106480D02*
X-64878D01*
X-80279Y106220D02*
X-77854Y108646D01*
X-76500Y110000D01*
X-77854Y101575D02*
Y108646D01*
X-30279Y133780D02*
X-26500Y130000D01*
X-40000Y133780D02*
X-30279D01*
X-64878Y106480D02*
X-63008Y104610D01*
X-31150Y93602D02*
X-23850Y100902D01*
X-41437Y93602D02*
X-31150D01*
X-78347Y94980D02*
X-73130Y100197D01*
Y101575D01*
X-55905Y-25492D02*
Y-22146D01*
X-53839Y-25000D02*
X-51476D01*
X-55118Y-26280D02*
X-55118D01*
X-63287Y-34547D02*
X-55905D01*
X-63583Y-34252D02*
X-63287Y-34547D01*
X127248Y-3854D02*
Y1098D01*
X-94340Y3948D02*
X-94258Y4030D01*
X-88386Y3997D02*
X-88353Y4030D01*
X124508Y96260D02*
X126559Y98311D01*
Y101213D01*
X-78510Y3334D02*
Y4030D01*
Y3334D02*
X-74783Y-394D01*
X-57185D01*
X116634Y-14469D02*
X127248Y-3854D01*
X15339Y-10531D02*
X27346Y1476D01*
X-23031Y-2559D02*
Y1492D01*
X-30020Y-9547D02*
X-23031Y-2559D01*
X-51181Y43996D02*
X-3347Y91831D01*
X-80479Y3334D02*
Y4030D01*
Y3334D02*
X-79020Y1875D01*
X-78443D01*
X-79360Y246D02*
X-78750D01*
X-80787Y1673D02*
X-79360Y246D01*
X-82447Y2624D02*
X-81496Y1673D01*
X-82447Y2624D02*
Y4030D01*
X-81496Y1673D02*
X-80787D01*
X-62845Y-28789D02*
Y-24459D01*
X-63583Y-29528D02*
X-62845Y-28789D01*
X70768Y93996D02*
X77051Y100279D01*
Y100591D01*
X18602Y92815D02*
X26575Y100787D01*
X-3754Y92815D02*
X18602D01*
X-52165Y44404D02*
X-3754Y92815D01*
X-74061Y10448D02*
X-70487D01*
X-70374Y10335D01*
X-61597Y6511D02*
X-53740Y-1346D01*
X-30315Y-21530D02*
X137574D01*
X-25197Y-24213D02*
X94390D01*
X-44291Y48130D02*
X-39272Y53150D01*
X167520D01*
X-74061Y14385D02*
X-73703Y14026D01*
X28740Y-98465D02*
X30610Y-94390D01*
X28051Y-99154D02*
X28740Y-98465D01*
X-52165Y15945D02*
Y44404D01*
X-74061Y8479D02*
X-59631D01*
X-52165Y15945D01*
X-73947Y18407D02*
X-57874D01*
X-78443Y1875D02*
X-72631Y-3937D01*
X-63583D01*
X-106308Y11418D02*
X-106308Y11417D01*
X-109946Y11418D02*
X-106308D01*
X-105315Y-15453D02*
X-82874D01*
X-77559Y-20768D01*
X-105309Y10448D02*
X-104613D01*
X-117115Y-1358D02*
X-105309Y10448D01*
X-117115Y-22795D02*
Y-1358D01*
Y-27519D02*
X-110473D01*
X-109350Y-28642D01*
X-107776Y-22736D02*
X-104724D01*
X-109350Y-21161D02*
X-107776Y-22736D01*
X-112303Y-18209D02*
Y-16240D01*
Y-18209D02*
X-109350Y-21161D01*
X31594Y-11516D02*
X37697D01*
X26476Y-11516D02*
X30610Y-9252D01*
X-51181Y-3347D02*
Y43996D01*
X-53740Y-2953D02*
Y-1346D01*
X-74061Y6511D02*
X-61597D01*
X-72205Y-6299D02*
X-57579D01*
X-78750Y246D02*
X-72205Y-6299D01*
X-59991Y14026D02*
X-59842Y13878D01*
X-73703Y14026D02*
X-59991D01*
X-74061Y16353D02*
X-67028D01*
X-54759Y21324D02*
X-54134Y21949D01*
X-67591Y21324D02*
X-54759D01*
X-68526Y22259D02*
X-67591Y21324D01*
X227658Y819D02*
X229232Y2394D01*
Y34350D01*
X177461Y622D02*
X179528Y2689D01*
Y41142D01*
X167520Y53150D02*
X179528Y41142D01*
X127279Y-99335D02*
X129331Y-97284D01*
Y-59153D01*
X94390Y-24213D02*
X129331Y-59153D01*
X-22146Y-98984D02*
X-20374Y-97213D01*
Y-34449D01*
X-29232Y-25591D02*
X-20374Y-34449D01*
X-72736Y-99083D02*
X-70866Y-97213D01*
X-56152Y15305D02*
X-55905Y15059D01*
X-56152Y15305D02*
Y19120D01*
X-57161Y20129D02*
X-56152Y19120D01*
X-57319Y20129D02*
X-57161D01*
X-57480Y20290D02*
X-57319Y20129D01*
X-74061Y20290D02*
X-57480D01*
X167488Y91831D02*
X176870Y101213D01*
X-3347Y91831D02*
X167488D01*
X177559Y-99661D02*
X178937Y-98283D01*
Y-62894D01*
X137574Y-21530D02*
X178937Y-62894D01*
X79724Y-97102D02*
Y-92815D01*
X77559Y-99268D02*
X79724Y-97102D01*
X-92913Y84153D02*
X-71260D01*
X-92913Y69587D02*
X-71260D01*
X-71260Y69587D01*
X-94488Y82579D02*
X-92913Y84153D01*
X-101279Y82579D02*
X-94488D01*
X-93110Y69390D02*
X-92913Y69587D01*
X-93110Y61417D02*
Y69390D01*
X-70866Y-97213D02*
Y-37598D01*
X-22146Y-98984D02*
X-12500D01*
X-72736Y-99083D02*
X-63091D01*
X-23850Y100902D02*
X-14205D01*
X-73130Y101575D02*
X-63516D01*
X127248Y1098D02*
X136894D01*
X77346D02*
X86992D01*
X27346Y1476D02*
X36992D01*
X-22539Y1000D02*
X-12894D01*
X77559Y-99268D02*
X87205D01*
X28051Y-99154D02*
X37697D01*
X77051Y100591D02*
X86697D01*
X26575Y100787D02*
X36205D01*
X176870Y101213D02*
X186516D01*
X126559D02*
X136205D01*
X178051Y-100154D02*
X187697D01*
X127279Y-99335D02*
X136925D01*
X177461Y622D02*
X187106D01*
X-55905Y-25492D02*
X-55118Y-26280D01*
X-55905Y-27067D02*
X-55118Y-26280D01*
X-53839Y-25000D01*
X-116166Y54217D02*
Y59042D01*
X-108095Y13092D02*
X-106802Y14385D01*
X-131069Y33873D02*
X-123392D01*
X-91467Y48602D02*
Y53789D01*
X-88990Y56266D01*
X-85400Y41353D02*
Y44896D01*
X227658Y819D02*
X237303D01*
X10000Y106220D02*
X19721D01*
X16421Y133780D02*
X21850Y128350D01*
X10000Y133780D02*
X16421D01*
X21850Y108350D02*
Y128350D01*
X60000Y6221D02*
X69721D01*
X67965Y33779D02*
X72622Y29122D01*
X60000Y33779D02*
X67965D01*
X72622Y9122D02*
Y29122D01*
X160000Y6221D02*
X169720D01*
X168193Y33779D02*
X172736Y29236D01*
X160000Y33779D02*
X168193D01*
X172736Y9236D02*
Y29236D01*
X60000Y106220D02*
X69721D01*
X67374Y133780D02*
X72327Y128827D01*
X60000Y133780D02*
X67374D01*
X72327Y108827D02*
Y128827D01*
X110000Y6221D02*
X119720D01*
X117768Y33779D02*
X122524Y29024D01*
X110000Y33779D02*
X117768D01*
X122524Y9024D02*
Y29024D01*
X210000Y6221D02*
X219721D01*
X218587Y33779D02*
X222933Y29433D01*
X210000Y33779D02*
X218587D01*
X222933Y9433D02*
Y29433D01*
X23327Y-99154D02*
Y-90000D01*
Y-70173D01*
X-90000Y106220D02*
X-80279D01*
X-82988Y133780D02*
X-77854Y128646D01*
X-90000Y133780D02*
X-82988D01*
X-77854Y108646D02*
Y128646D01*
X72835Y-99268D02*
Y-90000D01*
X70358Y-68189D02*
X72835Y-70665D01*
Y-90000D02*
Y-70665D01*
X-40000Y106220D02*
X-30279D01*
X-27657Y108843D01*
X-26500Y110000D01*
X-26476Y110024D01*
Y129232D01*
X172835Y-99661D02*
Y-90000D01*
Y-70665D01*
X-39665Y5906D02*
X-29945D01*
X-33126Y33465D02*
X-27756Y28095D01*
X-39665Y33465D02*
X-33126D01*
X-27756Y8095D02*
Y28095D01*
X-90000Y-93779D02*
X-80279D01*
X-82201Y-66220D02*
X-77461Y-70961D01*
X-90000Y-66220D02*
X-82201D01*
X-77461Y-90961D02*
Y-70961D01*
X110000Y106220D02*
X119720D01*
X116390Y133780D02*
X121835Y128335D01*
X110000Y133780D02*
X116390D01*
X121835Y108335D02*
Y128335D01*
X10000Y6221D02*
X19721D01*
X17965Y33779D02*
X22622Y29122D01*
X10000Y33779D02*
X17965D01*
X22622Y9122D02*
Y29122D01*
X160000Y106220D02*
X169720D01*
X167012Y133780D02*
X172146Y128646D01*
X160000Y133780D02*
X167012D01*
X172146Y108646D02*
Y128646D01*
X-92290Y491D02*
Y4030D01*
X-92618Y819D02*
Y951D01*
X-88386Y1575D02*
Y3997D01*
X-90321Y-2986D02*
Y4030D01*
Y-2986D02*
X-84744Y-8563D01*
X-56398D01*
X-51181Y-3347D01*
X62764Y-13484D02*
X77346Y1098D01*
X30610Y-12500D02*
X31594Y-11516D01*
X-94340Y-935D02*
Y3948D01*
Y-935D02*
X-85728Y-9547D01*
X-30020D01*
X-96227Y-441D02*
Y4030D01*
Y-441D02*
X-86136Y-10531D01*
X15339D01*
X-98195Y136D02*
Y4030D01*
Y136D02*
X-86544Y-11516D01*
X26476D01*
X-100164Y712D02*
Y4030D01*
Y712D02*
X-86952Y-12500D01*
X30610D01*
X-102132Y1289D02*
Y4030D01*
Y1289D02*
X-87359Y-13484D01*
X62764D01*
X-104613Y2250D02*
Y6511D01*
Y2250D02*
X-87894Y-14469D01*
X116634D01*
D13*
X-62172Y34266D02*
X-61557Y33652D01*
X-57815D01*
X-95341Y44896D02*
X-94061D01*
X-79494Y51196D02*
X-79101Y50802D01*
X-86187Y51983D02*
X-85400Y51196D01*
X-100065Y34680D02*
Y42239D01*
X-100164Y34581D02*
X-100065Y34680D01*
X-102723Y44896D02*
X-100065Y42239D01*
X-107447Y44896D02*
Y49227D01*
Y44896D02*
X-107447D01*
X-102723Y40566D02*
X-102132Y39975D01*
X-104711Y18223D02*
X-104613Y18322D01*
X-96227Y24227D02*
X-95242Y25211D01*
X-98195Y28164D02*
X-95242Y25211D01*
X-110990Y38007D02*
X-105085Y32101D01*
X-104613D01*
X-74376Y45684D02*
Y49278D01*
X-84416Y459D02*
Y4030D01*
Y459D02*
X-82874Y-1083D01*
X-79857D02*
X-79463Y-1477D01*
X-82874Y-1083D02*
X-79857D01*
X-110991Y15959D02*
X-108530Y18223D01*
X-113411Y16333D02*
X-111510D01*
X-111089Y44896D02*
X-107447D01*
X-98983Y48538D02*
X-98946Y48575D01*
X-84579Y57101D02*
X-80576D01*
X-78971Y55496D01*
X-110360Y54414D02*
X-110262Y54316D01*
X-119315Y2557D02*
Y5882D01*
X-118996Y6201D01*
Y9618D01*
X-119118Y9740D02*
X-118996Y9618D01*
Y6201D02*
X-115185D01*
X-115182Y6198D01*
X-124922Y-6397D02*
X-124333D01*
X-127382Y-8857D02*
X-124922Y-6397D01*
X-127382Y-8857D02*
X-124333D01*
X-125611Y-12006D02*
X-124333D01*
X-128071Y-9546D02*
X-125611Y-12006D01*
X-122743Y20958D02*
X-120003D01*
X-123228Y20472D02*
X-122743Y20958D01*
X-137032Y40534D02*
Y44475D01*
X-137519Y40047D02*
X-137032Y40534D01*
X-114958Y44896D02*
X-111089D01*
X-115379Y44475D02*
X-114958Y44896D01*
X-111111Y20366D02*
X-109541D01*
X-108530Y18223D02*
X-104711D01*
X-113804Y15939D02*
X-113411Y16333D01*
X-113804Y15546D02*
Y15939D01*
X-109744Y90551D02*
Y90847D01*
Y90551D02*
X-106496Y87303D01*
X-106496Y87303D02*
X-101279D01*
X-14764Y6413D02*
X-12894Y4543D01*
X-17815Y6413D02*
X-14764D01*
X-13878Y-94063D02*
X-12008Y-95933D01*
X-16929Y-94063D02*
X-13878D01*
X36319Y-94232D02*
X38189Y-96102D01*
X33268Y-94232D02*
X36319D01*
X85827Y-94346D02*
X87697Y-96216D01*
X82776Y-94346D02*
X85827D01*
X135547Y-94413D02*
X137417Y-96284D01*
X132496Y-94413D02*
X135547D01*
X185827Y-94740D02*
X187697Y-96610D01*
X182776Y-94740D02*
X185827D01*
X223622Y-51772D02*
X225098Y-50295D01*
X223917Y-54528D02*
X227461D01*
X235925Y5740D02*
X237795Y3870D01*
X232874Y5740D02*
X235925D01*
X182677Y5543D02*
X185728D01*
X135516Y6020D02*
X137386Y4150D01*
X132465Y6020D02*
X135516D01*
X85614D02*
X87484Y4150D01*
X82563Y6020D02*
X85614D01*
X35614Y6398D02*
X37484Y4528D01*
X32563Y6398D02*
X35614D01*
X-64468Y-94161D02*
X-62598Y-96031D01*
X-67520Y-94161D02*
X-64468D01*
X73721Y71949D02*
Y75394D01*
X80315Y73425D02*
Y77559D01*
X223622Y-54528D02*
Y-54331D01*
X219587Y-50295D02*
X223425Y-54134D01*
X223622Y-54331D01*
Y-53937D01*
Y-51772D01*
X74016Y66929D02*
X96378D01*
X78642Y63287D02*
Y65453D01*
X223425Y-55020D02*
X223622Y-54823D01*
X-111384Y20093D02*
X-111111Y20366D01*
X-107250Y24227D01*
X-109541Y20290D02*
X-104613D01*
X-107250Y24227D02*
X-96227D01*
X-109514Y30920D02*
X-106758Y28164D01*
X-98195D01*
X-107447Y38302D02*
Y44896D01*
X-98983Y48538D02*
X-95341Y44896D01*
X-85400Y51196D02*
X-79494D01*
X219390Y-55020D02*
X223425D01*
X223622Y-54823D02*
Y-54528D01*
X185728Y5543D02*
X185858Y5413D01*
X187598Y3673D01*
X-78971Y50970D02*
Y50972D01*
Y55496D01*
X-79101Y50802D02*
X-78971Y50972D01*
X-78457Y51643D01*
X-102132Y34581D02*
Y39975D01*
X-110360Y54414D02*
Y57661D01*
X-121620Y38007D02*
X-110990D01*
D14*
X176769Y146989D02*
Y144234D01*
X178146Y145612D01*
X176310D01*
D16*
X10000Y131811D02*
D03*
Y108189D02*
D03*
X60000Y8189D02*
D03*
Y31811D02*
D03*
X160000D02*
D03*
Y8189D02*
D03*
X60000Y108189D02*
D03*
Y131811D02*
D03*
X110000Y31811D02*
D03*
Y8189D02*
D03*
X210000D02*
D03*
Y31811D02*
D03*
X10000Y-68189D02*
D03*
Y-91811D02*
D03*
X-90000Y108189D02*
D03*
Y131811D02*
D03*
X110000Y-68189D02*
D03*
Y-91811D02*
D03*
X60000D02*
D03*
Y-68189D02*
D03*
X-40000Y131811D02*
D03*
Y108189D02*
D03*
X160000Y-91811D02*
D03*
Y-68189D02*
D03*
X-39665Y31496D02*
D03*
Y7874D02*
D03*
X-90000Y-91811D02*
D03*
Y-68189D02*
D03*
X110000Y131811D02*
D03*
Y108189D02*
D03*
X10000Y8189D02*
D03*
Y31811D02*
D03*
X-40000Y-68189D02*
D03*
Y-91811D02*
D03*
X160000Y108189D02*
D03*
Y131811D02*
D03*
X-140000D02*
D03*
Y108189D02*
D03*
X210000D02*
D03*
Y131811D02*
D03*
X209941Y-68307D02*
D03*
Y-91929D02*
D03*
X-140000Y-91811D02*
D03*
Y-68189D02*
D03*
D17*
X23500Y130000D02*
D03*
Y110000D02*
D03*
Y120000D02*
D03*
X73500Y20000D02*
D03*
Y10000D02*
D03*
Y30000D02*
D03*
X173500D02*
D03*
Y10000D02*
D03*
Y20000D02*
D03*
X73500Y120000D02*
D03*
Y110000D02*
D03*
Y130000D02*
D03*
X123500Y30000D02*
D03*
Y10000D02*
D03*
Y20000D02*
D03*
X223500D02*
D03*
Y10000D02*
D03*
Y30000D02*
D03*
X23500Y-70000D02*
D03*
Y-90000D02*
D03*
Y-80000D02*
D03*
X-76500Y120000D02*
D03*
Y110000D02*
D03*
Y130000D02*
D03*
X123500Y-70000D02*
D03*
Y-90000D02*
D03*
Y-80000D02*
D03*
X73500D02*
D03*
Y-90000D02*
D03*
Y-70000D02*
D03*
X-26500Y130000D02*
D03*
Y110000D02*
D03*
Y120000D02*
D03*
X173500Y-80000D02*
D03*
Y-90000D02*
D03*
Y-70000D02*
D03*
X-26165Y29685D02*
D03*
Y9685D02*
D03*
Y19685D02*
D03*
X-76500Y-80000D02*
D03*
Y-90000D02*
D03*
Y-70000D02*
D03*
X123500Y130000D02*
D03*
Y110000D02*
D03*
Y120000D02*
D03*
X23500Y20000D02*
D03*
Y10000D02*
D03*
Y30000D02*
D03*
X-26500Y-70000D02*
D03*
Y-90000D02*
D03*
Y-80000D02*
D03*
X173500Y120000D02*
D03*
Y110000D02*
D03*
Y130000D02*
D03*
X-126500D02*
D03*
Y110000D02*
D03*
Y120000D02*
D03*
X223500D02*
D03*
Y110000D02*
D03*
Y130000D02*
D03*
X223441Y-70118D02*
D03*
Y-90118D02*
D03*
Y-80118D02*
D03*
X-126500Y-80000D02*
D03*
Y-90000D02*
D03*
Y-70000D02*
D03*
D18*
X-77559Y-25768D02*
D03*
X-82559D02*
D03*
X-87559D02*
D03*
X-92559D02*
D03*
X-97559Y-20768D02*
D03*
X-92559D02*
D03*
X-87559D02*
D03*
X-82559D02*
D03*
X-77559D02*
D03*
D19*
X-97559Y-25768D02*
D03*
D20*
X112106Y76752D02*
D03*
D21*
Y66752D02*
D03*
D22*
X97244Y76063D02*
D03*
D23*
Y71063D02*
D03*
Y66063D02*
D03*
D24*
X-228445Y139469D02*
D03*
X-220571D02*
D03*
X-212697D02*
D03*
X-204823D02*
D03*
X-196949D02*
D03*
D25*
X-189075D02*
D03*
D26*
X-180807D02*
D03*
X-236319D02*
D03*
D27*
X208760Y72047D02*
D03*
X228642D02*
D03*
D28*
X225787Y-35433D02*
D03*
X204429D02*
D03*
D29*
X-145192Y69543D02*
D03*
Y62456D02*
D03*
Y55370D02*
D03*
Y48283D02*
D03*
Y41197D02*
D03*
Y34110D02*
D03*
Y27023D02*
D03*
Y19937D02*
D03*
X-152279Y69543D02*
D03*
Y62456D02*
D03*
Y55370D02*
D03*
Y48283D02*
D03*
Y41197D02*
D03*
Y34110D02*
D03*
Y27023D02*
D03*
Y19937D02*
D03*
Y12850D02*
D03*
X-145192D02*
D03*
Y-12780D02*
D03*
X-152279D02*
D03*
Y-5693D02*
D03*
X-145192D02*
D03*
D30*
X-1575Y55020D02*
D03*
X-57815Y33652D02*
D03*
X-136187Y36432D02*
D03*
X-141732Y33563D02*
D03*
X-102526Y37908D02*
D03*
X-57742Y27967D02*
D03*
X-69455Y48833D02*
D03*
X-107939Y23637D02*
D03*
X-108628Y30034D02*
D03*
X-74376Y49278D02*
D03*
X-81595Y39075D02*
D03*
X-88681Y37598D02*
D03*
X-91240Y38189D02*
D03*
X-141043Y27657D02*
D03*
X-62172Y23046D02*
D03*
X-72575Y2557D02*
D03*
X-79463Y-1477D02*
D03*
X-127187Y69371D02*
D03*
X-116502Y30329D02*
D03*
X-111089Y44896D02*
D03*
X-98946Y48575D02*
D03*
X-78971Y55496D02*
D03*
X-112427Y50478D02*
D03*
X-110262Y54316D02*
D03*
X-119118Y9740D02*
D03*
X-115182Y6198D02*
D03*
X-119315Y2557D02*
D03*
X-124333Y-12006D02*
D03*
Y-8857D02*
D03*
Y-6397D02*
D03*
X-120003Y20958D02*
D03*
X-137519Y40047D02*
D03*
X-66080Y24205D02*
D03*
X-68737Y41524D02*
D03*
X-109541Y20366D02*
D03*
X-113804Y15546D02*
D03*
X-107972Y15650D02*
D03*
X-108134Y13189D02*
D03*
X-107447Y38302D02*
D03*
X-109744Y90847D02*
D03*
X-62897Y12304D02*
D03*
X-14764Y6413D02*
D03*
X148524Y70276D02*
D03*
X-13878Y-94063D02*
D03*
X36319Y-94232D02*
D03*
X85827Y-94346D02*
D03*
X135547Y-94413D02*
D03*
X185827Y-94740D02*
D03*
X227461Y-54528D02*
D03*
X219390Y-55020D02*
D03*
X219587Y-50295D02*
D03*
X225098D02*
D03*
X235925Y5740D02*
D03*
X185858Y5413D02*
D03*
X135516Y6020D02*
D03*
X85614D02*
D03*
X35614Y6398D02*
D03*
X-64468Y-94161D02*
D03*
X78642Y63287D02*
D03*
X80315Y77559D02*
D03*
X73721Y75394D02*
D03*
X185138Y106134D02*
D03*
X134827D02*
D03*
X85319Y105512D02*
D03*
X34827Y105709D02*
D03*
X-15583Y105823D02*
D03*
X-64878Y106480D02*
D03*
X-147835Y117913D02*
D03*
X-154528Y117815D02*
D03*
X-151279Y114272D02*
D03*
X58268Y61516D02*
D03*
X68405Y60236D02*
D03*
X63287Y60039D02*
D03*
X-41437Y93602D02*
D03*
X-78347Y94980D02*
D03*
X75590Y87795D02*
D03*
X83563D02*
D03*
X80807D02*
D03*
X78347D02*
D03*
X45079Y75984D02*
D03*
X55413Y76083D02*
D03*
X52264D02*
D03*
X49114Y76279D02*
D03*
X-51476Y-25000D02*
D03*
X-55905Y-22146D02*
D03*
X30610Y-94390D02*
D03*
X124508Y96260D02*
D03*
X-62845Y-24459D02*
D03*
X-57185Y-394D02*
D03*
X70768Y93996D02*
D03*
X-70374Y10335D02*
D03*
X-25197Y-24213D02*
D03*
X-30315Y-21530D02*
D03*
X-44291Y48130D02*
D03*
X-57874Y18407D02*
D03*
X-62795Y-3937D02*
D03*
X-109946Y11418D02*
D03*
X-105315Y-15453D02*
D03*
X-104724Y-22736D02*
D03*
X-112303Y-16240D02*
D03*
X37697Y-11516D02*
D03*
X30610Y-9252D02*
D03*
X-57579Y-6299D02*
D03*
X-29232Y-25591D02*
D03*
X-53740Y-2953D02*
D03*
X-59842Y13878D02*
D03*
X-67028Y16353D02*
D03*
X-54134Y21949D02*
D03*
X-55905Y15059D02*
D03*
X79724Y-92815D02*
D03*
X-93110Y61417D02*
D03*
X-70866Y-37598D02*
D03*
X-88156Y9070D02*
D03*
X-83825D02*
D03*
X-79494D02*
D03*
X-88156Y13400D02*
D03*
X-83825D02*
D03*
X-79494D02*
D03*
X-88156Y17731D02*
D03*
X-83825D02*
D03*
X-79494D02*
D03*
X-99573Y20881D02*
D03*
X-95242D02*
D03*
X-90912D02*
D03*
X-99573Y25211D02*
D03*
X-95242Y25211D02*
D03*
X-90912D02*
D03*
X-99573Y29542D02*
D03*
X-95242D02*
D03*
X-90912D02*
D03*
X-92618Y951D02*
D03*
X-88386Y1575D02*
D03*
D31*
X184252Y-26575D02*
D03*
X-172933Y-51673D02*
D03*
X-173228Y98425D02*
D03*
X186516Y68307D02*
D03*
D62*
X-148740Y-8780D02*
D03*
Y16720D02*
D03*
X-154239Y3220D02*
D03*
X-62172Y34266D02*
D03*
Y27967D02*
D03*
X80020Y66831D02*
D03*
Y73130D02*
D03*
D63*
X223228Y-59547D02*
D03*
Y-54823D02*
D03*
X-151280Y118307D02*
D03*
Y123031D02*
D03*
X-63583Y-34252D02*
D03*
Y-29528D02*
D03*
X-106496Y82579D02*
D03*
Y87303D02*
D03*
X-101279Y87303D02*
D03*
Y82579D02*
D03*
X-196850Y123130D02*
D03*
Y118405D02*
D03*
X-188976Y123130D02*
D03*
Y118405D02*
D03*
X-228445Y123130D02*
D03*
Y118405D02*
D03*
X-220669Y123130D02*
D03*
Y118405D02*
D03*
X-109573Y57661D02*
D03*
Y62385D02*
D03*
X-117115Y-22795D02*
D03*
Y-27519D02*
D03*
D64*
X-12008Y-95933D02*
D03*
X-12008Y-99476D02*
D03*
X37484Y4528D02*
D03*
X37484Y984D02*
D03*
X136697Y104264D02*
D03*
X136697Y100721D02*
D03*
X-62598Y-96031D02*
D03*
X-62598Y-99575D02*
D03*
X-12894Y4543D02*
D03*
X-12894Y1000D02*
D03*
X187697Y-96610D02*
D03*
X187697Y-100154D02*
D03*
X-13713Y103953D02*
D03*
X-13713Y100409D02*
D03*
X87697Y-96216D02*
D03*
X87697Y-99760D02*
D03*
X137417Y-96284D02*
D03*
X137417Y-99827D02*
D03*
X-63008Y104610D02*
D03*
X-63008Y101067D02*
D03*
X38189Y-96102D02*
D03*
X38189Y-99646D02*
D03*
X237795Y3870D02*
D03*
X237795Y327D02*
D03*
X137386Y4150D02*
D03*
X137386Y606D02*
D03*
X87189Y103642D02*
D03*
X87189Y100098D02*
D03*
X187598Y3673D02*
D03*
X187598Y130D02*
D03*
X87484Y4150D02*
D03*
X87484Y606D02*
D03*
X36697Y103839D02*
D03*
X36697Y100295D02*
D03*
X187008Y104264D02*
D03*
X187008Y100721D02*
D03*
D65*
X176870Y101213D02*
D03*
X172146D02*
D03*
X-26870Y-98984D02*
D03*
X-22146D02*
D03*
X22622Y1476D02*
D03*
X27346D02*
D03*
X126559Y101213D02*
D03*
X121835D02*
D03*
X-77461Y-99083D02*
D03*
X-72736D02*
D03*
X-27756Y1492D02*
D03*
X-23031D02*
D03*
X177559Y-99661D02*
D03*
X172835D02*
D03*
X-28575Y100902D02*
D03*
X-23850D02*
D03*
X72835Y-99268D02*
D03*
X77559D02*
D03*
X127279Y-99335D02*
D03*
X122555D02*
D03*
X-77854Y101575D02*
D03*
X-73130D02*
D03*
X23327Y-99154D02*
D03*
X28051D02*
D03*
X222933Y819D02*
D03*
X227657D02*
D03*
X122524Y1098D02*
D03*
X127248D02*
D03*
X72327Y100591D02*
D03*
X77051D02*
D03*
X172736Y622D02*
D03*
X177461D02*
D03*
X72622Y1098D02*
D03*
X77346D02*
D03*
X21850Y100787D02*
D03*
X26575D02*
D03*
D66*
X-16929Y-94063D02*
D03*
Y-98787D02*
D03*
X32563Y6398D02*
D03*
Y1673D02*
D03*
X73425Y71653D02*
D03*
Y66929D02*
D03*
X131775Y106134D02*
D03*
Y101409D02*
D03*
X-67520Y-94161D02*
D03*
Y-98886D02*
D03*
X-17815Y6413D02*
D03*
Y1689D02*
D03*
X182775Y-94740D02*
D03*
Y-99465D02*
D03*
X-18634Y105823D02*
D03*
Y101098D02*
D03*
X82775Y-94346D02*
D03*
Y-99071D02*
D03*
X132496Y-94413D02*
D03*
Y-99138D02*
D03*
X-67929Y106480D02*
D03*
Y101756D02*
D03*
X33268Y-94232D02*
D03*
Y-98957D02*
D03*
X232874Y5740D02*
D03*
Y1016D02*
D03*
X132465Y6020D02*
D03*
Y1295D02*
D03*
X82268Y105512D02*
D03*
Y100787D02*
D03*
X182677Y5543D02*
D03*
Y819D02*
D03*
X82563Y6020D02*
D03*
Y1295D02*
D03*
X31776Y105709D02*
D03*
Y100984D02*
D03*
X-67290Y28361D02*
D03*
Y33085D02*
D03*
X-79101Y50802D02*
D03*
Y46077D02*
D03*
X-111384Y20093D02*
D03*
Y15369D02*
D03*
X-112172Y33479D02*
D03*
Y38203D02*
D03*
X-116502Y33479D02*
D03*
Y38203D02*
D03*
X-133465Y16634D02*
D03*
Y21358D02*
D03*
X-134744Y6102D02*
D03*
Y10827D02*
D03*
X-126772Y28346D02*
D03*
Y33071D02*
D03*
X-123228Y20472D02*
D03*
Y15748D02*
D03*
X182087Y106134D02*
D03*
Y101409D02*
D03*
D67*
X-55906Y-27067D02*
D03*
Y-34547D02*
D03*
X-109350Y-28642D02*
D03*
Y-21161D02*
D03*
D68*
X-128762Y-1084D02*
D03*
X-124037D02*
D03*
X-122736Y65945D02*
D03*
X-127461D02*
D03*
X-72014Y41353D02*
D03*
X-76738D02*
D03*
X-69652Y45684D02*
D03*
X-74376D02*
D03*
X-85169Y56775D02*
D03*
X-89894D02*
D03*
X-107447Y44896D02*
D03*
X-102723D02*
D03*
X-107447Y49227D02*
D03*
X-102723D02*
D03*
X-139486Y3738D02*
D03*
X-144211D02*
D03*
X-136187Y33479D02*
D03*
X-131463D02*
D03*
X-131496Y27756D02*
D03*
X-136221D02*
D03*
X-118996Y6201D02*
D03*
X-123721D02*
D03*
X-107447Y40566D02*
D03*
X-102723D02*
D03*
X-87599Y-1083D02*
D03*
X-82874D02*
D03*
D69*
X-118274Y25999D02*
D03*
X-112368D02*
D03*
D70*
X-128347Y16535D02*
D03*
Y22441D02*
D03*
X-129364Y4218D02*
D03*
Y10123D02*
D03*
X-121620Y32101D02*
D03*
Y38007D02*
D03*
D71*
X-137032Y59042D02*
D03*
X-137032Y44475D02*
D03*
X-115379Y59042D02*
D03*
Y44475D02*
D03*
X-71260Y69587D02*
D03*
X-71260Y84153D02*
D03*
X-92914Y69587D02*
D03*
Y84153D02*
D03*
D72*
X-100164Y8479D02*
D03*
X-96227D02*
D03*
X-100164Y12416D02*
D03*
X-96227D02*
D03*
D73*
X-95242Y25211D02*
D03*
D74*
X-76542Y34581D02*
D03*
X-78510D02*
D03*
X-80479D02*
D03*
X-82447D02*
D03*
X-84416D02*
D03*
X-86384D02*
D03*
X-88353D02*
D03*
X-90321D02*
D03*
X-92290D02*
D03*
X-94258D02*
D03*
X-96227D02*
D03*
X-98195D02*
D03*
X-100164D02*
D03*
X-102132D02*
D03*
Y4030D02*
D03*
X-100164D02*
D03*
X-98195D02*
D03*
X-96227D02*
D03*
X-94258D02*
D03*
X-92290D02*
D03*
X-90321D02*
D03*
X-88353D02*
D03*
X-86384D02*
D03*
X-84416D02*
D03*
X-82447D02*
D03*
X-80479D02*
D03*
X-78510D02*
D03*
X-76542D02*
D03*
D75*
X-104613Y32101D02*
D03*
Y30133D02*
D03*
Y28164D02*
D03*
Y26196D02*
D03*
Y24227D02*
D03*
Y22259D02*
D03*
Y20290D02*
D03*
Y18322D02*
D03*
Y16353D02*
D03*
Y14385D02*
D03*
Y12416D02*
D03*
Y10448D02*
D03*
Y8479D02*
D03*
Y6511D02*
D03*
X-74061D02*
D03*
Y8479D02*
D03*
Y10448D02*
D03*
Y12416D02*
D03*
Y14385D02*
D03*
Y16353D02*
D03*
Y18322D02*
D03*
Y20290D02*
D03*
Y22259D02*
D03*
Y24227D02*
D03*
Y26196D02*
D03*
Y28164D02*
D03*
Y30133D02*
D03*
Y32101D02*
D03*
D76*
X-83825Y13400D02*
D03*
D77*
X-94026Y50773D02*
D03*
X-85365Y44474D02*
D03*
X-85365Y50773D02*
D03*
X-94026Y44474D02*
D03*
D78*
X122343Y78051D02*
D03*
Y64665D02*
D03*
D79*
X86909Y66929D02*
D03*
Y72835D02*
D03*
D80*
X63878Y76083D02*
D03*
Y64272D02*
D03*
D81*
X-128071Y-9546D02*
D03*
X-139685D02*
D03*
D82*
X-133878Y-3542D02*
D03*
D83*
X-136187Y33479D02*
Y36432D01*
X-116502Y30329D02*
Y33479D01*
X-112073D01*
X-109514Y30920D01*
X-116502Y30329D02*
X-116404Y30231D01*
D84*
X-124424Y5497D02*
X-123721Y6201D01*
X-133582Y10433D02*
X-129674D01*
X-112368Y25999D02*
X-112171Y26196D01*
X-104613D01*
X-129364Y10123D02*
Y16422D01*
X-129674Y10433D02*
X-129364Y10123D01*
X-130905Y28346D02*
X-126772D01*
X-131496Y27756D02*
X-130905Y28346D01*
X-127264Y24428D02*
Y27854D01*
X-126772Y28346D01*
X-138896Y4525D02*
X-136321D01*
X-123721Y-767D02*
Y6201D01*
X-124037Y-1084D02*
X-123721Y-767D01*
X-134482Y21344D02*
X-130348D01*
X-127264Y24428D01*
X-134482Y9533D02*
X-133582Y10433D01*
X-134285Y16422D02*
X-129364D01*
X-128543Y15602D01*
X-128591Y15453D02*
X-123524D01*
X-136321Y4525D02*
X-134817Y6029D01*
X-134744Y6102D01*
X-135182Y6395D02*
X-134817Y6029D01*
X-134482Y5694D01*
X-133990Y5497D02*
X-124424D01*
D85*
X-86384Y10841D02*
X-83825Y13400D01*
X-67487Y28164D02*
X-67290Y28361D01*
X-74061Y28164D02*
X-67487D01*
X-69061Y30133D02*
X-67290Y28361D01*
X-74061Y30133D02*
X-69061D01*
X-67290Y33085D02*
X-63353D01*
X-68274Y32101D02*
X-67290Y33085D01*
X-74061Y32101D02*
X-68274D01*
X-76738Y41353D02*
X-76542Y41156D01*
Y34581D02*
Y41156D01*
X-78510Y39581D02*
X-76738Y41353D01*
X-78510Y34581D02*
Y39581D01*
X-102723Y49227D02*
X-98195Y44699D01*
Y34581D02*
Y44699D01*
X-76738Y41353D02*
X-74376Y43715D01*
Y45684D01*
X-63353Y33085D02*
X-62172Y34266D01*
X-140945Y27756D02*
X-136221D01*
X-141043Y27657D02*
X-140945Y27756D01*
X-74061Y26196D02*
X-69455D01*
X-67487Y28164D01*
X-86384Y33D02*
Y10841D01*
D86*
X-62172Y27967D02*
X-57742D01*
X-62565Y28361D02*
X-62172Y27967D01*
X-67290Y28361D02*
X-62565D01*
X-69455Y45881D02*
Y48833D01*
X-69652Y45684D02*
X-69455Y45881D01*
X-62172Y23046D02*
Y27967D01*
X-71844Y41524D02*
X-68737D01*
X-72014Y41353D02*
X-71844Y41524D01*
X-127461Y65945D02*
Y69097D01*
D87*
X-130280Y106220D02*
X-126500Y110000D01*
Y120000D01*
Y130000D01*
X-151279Y123031D02*
X-150748D01*
X-147963Y125817D02*
X-140000Y117854D01*
X-150748Y123031D02*
X-147963Y125817D01*
X-130280Y133780D02*
X-126500Y130000D01*
X-151279Y114272D02*
Y117913D01*
Y118307D01*
Y117913D02*
X-147835D01*
X219661Y-93898D02*
X223441Y-90118D01*
Y-80118D01*
Y-70118D01*
X219661Y-66339D02*
X223228Y-69906D01*
X223441Y-70118D01*
X223228Y-69906D02*
Y-59547D01*
X223622Y-54528D02*
X223917D01*
X225098Y-52461D02*
Y-50295D01*
X223425Y-54134D02*
X223622Y-53937D01*
X225098Y-52461D01*
X113406Y78051D02*
X122343D01*
X112106Y76752D02*
X113406Y78051D01*
X114193Y64665D02*
X122343D01*
X112106Y66752D02*
X114193Y64665D01*
X107795Y71063D02*
X112106Y66752D01*
X97244Y71063D02*
X107795D01*
X64370Y64764D02*
X65669Y66063D01*
X90138Y76063D02*
X111417D01*
X86910Y72835D02*
X90138Y76063D01*
X80020Y73130D02*
Y77264D01*
X73425Y71653D02*
Y75098D01*
X58268Y61516D02*
X61122D01*
X63287Y60039D02*
X65108Y61860D01*
Y63534D01*
X68405Y60236D01*
X63878Y76083D02*
X75590Y87795D01*
X209941Y-93898D02*
X219661D01*
X209941Y-66339D02*
X219661D01*
X-154429Y117913D02*
X-151279D01*
X219882Y-54528D02*
X223622D01*
X61122Y61516D02*
X63878Y64272D01*
X65669Y66063D02*
X80020D01*
X97244D01*
X43701Y76083D02*
X52264D01*
X55413D01*
X63878D01*
X75590Y87795D02*
X78347D01*
X80807D01*
X83563D01*
X-140000Y106220D02*
Y108189D01*
Y117854D01*
X-147963Y125817D02*
X-140000Y133780D01*
Y106220D02*
X-130280D01*
X-140000Y133780D02*
X-130280D01*
D88*
X-149042Y-7686D02*
D03*
D89*
Y40629D02*
D03*
D90*
X-249472Y43470D02*
D03*
D91*
Y24720D02*
D03*
D92*
X-165574Y33970D02*
D03*
X-249472Y63470D02*
D03*
D93*
X-167169Y15720D02*
D03*
D94*
X-165574Y53720D02*
D03*
D95*
X-158212Y3323D02*
D03*
D96*
X-207523Y58557D02*
D03*
Y68439D02*
D03*
Y38913D02*
D03*
Y29152D02*
D03*
Y19270D02*
D03*
Y48795D02*
D03*
D97*
Y5687D02*
D03*
M02*
