M48
;Layer_Color=9474304
;FILE_FORMAT=2:5
INCH,LZ
;TYPE=PLATED
T1F00S00C0.00787
T2F00S00C0.00984
T3F00S00C0.01575
T4F00S00C0.02756
T5F00S00C0.03150
T6F00S00C0.03543
T7F00S00C0.04921
T8F00S00C0.05197
T11F00S00C0.11811
%
T01
X-0088156Y000907
X-0083825
X-0079494
Y00134
Y0017731
X-0083825
Y00134
X-0088156
X-0088156Y0017731
X-0090912Y0020881
X-0095242
X-0099573
Y0025211
Y0029542
X-0095242
X-0090912
X-0090912Y0025211
X-0095242
T02
X0185827Y-009474
X021939Y-005502
X0219587Y-0050295
X0225098
X0227461Y-0054528
X0235925Y000574
X0185858Y0005413
X0135516Y000602
X0085614
X0035614Y0006398
X0037697Y-0011516
X003061Y-0009252
X-0014764Y0006413
X-0013878Y-0094063
X003061Y-009439
X0036319Y-0094232
X0079724Y-0092815
X0085827Y-0094346
X0135547Y-0094413
X-0064468Y-0094161
X-0070866Y-0037598
X-0062845Y-0024459
X-0055905Y-0022146
X-0051476Y-0025
X-0029232Y-0025591
X-0030315Y-002153
X-0025197Y-0024213
X-005374Y-0002953
X-0057185Y-0000394
X-0057579Y-0006299
X-0062795Y-0003937
X-0072575Y0002557
X-0070374Y0010335
X-0067028Y0016353
X-0062897Y0012304
X-0059842Y0013878
X-0055905Y0015059
X-0079463Y-0001477
X-0088386Y0001575
X-0092618Y0000951
X-0108134Y0013189
X-0107972Y001565
X-0113804Y0015546
X-0109946Y0011418
X-0115182Y0006198
X-0119118Y000974
X-0119315Y0002557
X-0124333Y-0006397
Y-0008857
Y-0012006
X-0112303Y-001624
X-0105315Y-0015453
X-0104724Y-0022736
X-0109541Y0020366
X-0107939Y0023637
X-0108628Y0030034
X-0116502Y0030329
X-0120003Y0020958
X-0141043Y0027657
X-0141732Y0033563
X-0136187Y0036432
X-0137519Y0040047
X-0111089Y0044896
X-0112427Y0050478
X-0110262Y0054316
X-0098946Y0048575
X-0102526Y0037908
X-0107447Y0038302
X-009124Y0038189
X-0088681Y0037598
X-0081595Y0039075
X-0068737Y0041524
X-0069455Y0048833
X-0074376Y0049278
X-0078971Y0055496
X-009311Y0061417
X-0127187Y0069371
X-0109744Y0090847
X-0078347Y009498
X-0064878Y010648
X-0041437Y0093602
X-0015583Y0105823
X-0044291Y004813
X-0057815Y0033652
X-0057742Y0027967
X-0062172Y0023046
X-006608Y0024205
X-0057874Y0018407
X-0054134Y0021949
X-0151279Y0114272
X-0154528Y0117815
X-0147835Y0117913
X0034827Y0105709
X0045079Y0075984
X0049114Y0076279
X0052264Y0076083
X0055413
X0058268Y0061516
X0063287Y0060039
X0068405Y0060236
X0078642Y0063287
X0080315Y0077559
X0073721Y0075394
X007559Y0087795
X0078347
X0080807
X0083563
X0070768Y0093996
X0085319Y0105512
X0124508Y009626
X0134827Y0106134
X-0001575Y005502
X0148524Y0070276
X0185138Y0106134
T03
X-0152279Y-001278
X-0145192
Y-0005693
X-0152279
Y001285
X-0145192
Y0019937
Y0027023
X-0152279
Y0019937
Y003411
X-0145192
Y0041197
X-0152279
Y0048283
X-0145192
Y005537
Y0062456
X-0152279
Y005537
Y0069543
X-0145192
T04
X-0097559Y-0025768
X-0092559
X-0087559
X-0082559
X-0077559
Y-0020768
X-0082559
X-0087559
X-0092559
X-0097559
T05
X-0228445Y0139469
X-0220571
X-0212697
X-0204823
X-0196949
X-0189075
X0097244Y0076063
Y0071063
Y0066063
T06
X0112106Y0066752
Y0076752
T07
X-0236319Y0139469
X-0180807
T08
X01735Y-009
Y-008
Y-007
X0223441Y-0070118
Y-0080118
Y-0090118
X02235Y001
X01735
X01235
X00735
X00235
Y-007
Y-008
Y-009
X00735
Y-008
Y-007
X01235
Y-008
Y-009
X-00265
Y-008
Y-007
X-00765
Y-008
Y-009
X-01265
Y-008
Y-007
X-0026165Y0009685
Y0019685
Y0029685
X-00265Y011
Y012
Y013
X-00765
Y012
Y011
X-01265
Y012
Y013
X00235
Y012
Y011
X00735
Y012
Y013
X01235
Y012
Y011
Y003
Y002
X00735
Y003
X00235
Y002
X01735
Y003
X02235
Y002
Y011
Y012
Y013
X01735
Y012
Y011
T11
X0184252Y-0026575
X-0172933Y-0051673
X-0173228Y0098425
X0186516Y0068307
M30
