G04 Layer_Color=8388736*
%FSLAX25Y25*%
%MOIN*%
G70*
G01*
G75*
%ADD101R,0.20079X0.06693*%
%ADD102C,0.04095*%
%ADD103O,0.16299X0.18268*%
%ADD104C,0.07244*%
%ADD105C,0.04095*%
%ADD106R,0.04095X0.04095*%
%ADD107C,0.06457*%
%ADD108R,0.06457X0.06457*%
%ADD109O,0.08425X0.04488*%
%ADD110O,0.08425X0.04488*%
%ADD111O,0.05276X0.10394*%
%ADD112R,0.05276X0.10394*%
%ADD113O,0.07638X0.10394*%
%ADD114O,0.14331X0.12362*%
%ADD115O,0.14331X0.10394*%
%ADD116C,0.12362*%
%ADD117C,0.02520*%
D101*
X184642Y146399D02*
D03*
D102*
X-108760Y-11909D02*
D03*
X-83169Y-6693D02*
D03*
X-62894Y6102D02*
D03*
X-73228Y53642D02*
D03*
X144193Y69980D02*
D03*
D103*
X10000Y131811D02*
D03*
Y108189D02*
D03*
X60000Y8189D02*
D03*
Y31811D02*
D03*
X160000D02*
D03*
Y8189D02*
D03*
X60000Y108189D02*
D03*
Y131811D02*
D03*
X110000Y31811D02*
D03*
Y8189D02*
D03*
X210000D02*
D03*
Y31811D02*
D03*
X10000Y-68189D02*
D03*
Y-91811D02*
D03*
X-90000Y108189D02*
D03*
Y131811D02*
D03*
X110000Y-68189D02*
D03*
Y-91811D02*
D03*
X60000D02*
D03*
Y-68189D02*
D03*
X-40000Y131811D02*
D03*
Y108189D02*
D03*
X160000Y-91811D02*
D03*
Y-68189D02*
D03*
X-39665Y31496D02*
D03*
Y7874D02*
D03*
X-90000Y-91811D02*
D03*
Y-68189D02*
D03*
X110000Y131811D02*
D03*
Y108189D02*
D03*
X10000Y8189D02*
D03*
Y31811D02*
D03*
X-40000Y-68189D02*
D03*
Y-91811D02*
D03*
X160000Y108189D02*
D03*
Y131811D02*
D03*
X-140000D02*
D03*
Y108189D02*
D03*
X210000D02*
D03*
Y131811D02*
D03*
X209941Y-68307D02*
D03*
Y-91929D02*
D03*
X-140000Y-91811D02*
D03*
Y-68189D02*
D03*
D104*
X23500Y130000D02*
D03*
Y110000D02*
D03*
Y120000D02*
D03*
X73500Y20000D02*
D03*
Y10000D02*
D03*
Y30000D02*
D03*
X173500D02*
D03*
Y10000D02*
D03*
Y20000D02*
D03*
X73500Y120000D02*
D03*
Y110000D02*
D03*
Y130000D02*
D03*
X123500Y30000D02*
D03*
Y10000D02*
D03*
Y20000D02*
D03*
X223500D02*
D03*
Y10000D02*
D03*
Y30000D02*
D03*
X23500Y-70000D02*
D03*
Y-90000D02*
D03*
Y-80000D02*
D03*
X-76500Y120000D02*
D03*
Y110000D02*
D03*
Y130000D02*
D03*
X123500Y-70000D02*
D03*
Y-90000D02*
D03*
Y-80000D02*
D03*
X73500D02*
D03*
Y-90000D02*
D03*
Y-70000D02*
D03*
X-26500Y130000D02*
D03*
Y110000D02*
D03*
Y120000D02*
D03*
X173500Y-80000D02*
D03*
Y-90000D02*
D03*
Y-70000D02*
D03*
X-26165Y29685D02*
D03*
Y9685D02*
D03*
Y19685D02*
D03*
X-76500Y-80000D02*
D03*
Y-90000D02*
D03*
Y-70000D02*
D03*
X123500Y130000D02*
D03*
Y110000D02*
D03*
Y120000D02*
D03*
X23500Y20000D02*
D03*
Y10000D02*
D03*
Y30000D02*
D03*
X-26500Y-70000D02*
D03*
Y-90000D02*
D03*
Y-80000D02*
D03*
X173500Y120000D02*
D03*
Y110000D02*
D03*
Y130000D02*
D03*
X-126500D02*
D03*
Y110000D02*
D03*
Y120000D02*
D03*
X223500D02*
D03*
Y110000D02*
D03*
Y130000D02*
D03*
X223441Y-70118D02*
D03*
Y-90118D02*
D03*
Y-80118D02*
D03*
X-126500Y-80000D02*
D03*
Y-90000D02*
D03*
Y-70000D02*
D03*
D105*
X-77559Y-25768D02*
D03*
X-82559D02*
D03*
X-87559D02*
D03*
X-92559D02*
D03*
X-97559Y-20768D02*
D03*
X-92559D02*
D03*
X-87559D02*
D03*
X-82559D02*
D03*
X-77559D02*
D03*
D106*
X-97559Y-25768D02*
D03*
D107*
X112106Y76752D02*
D03*
D108*
Y66752D02*
D03*
D109*
X97244Y76063D02*
D03*
D110*
Y71063D02*
D03*
Y66063D02*
D03*
D111*
X-228445Y139469D02*
D03*
X-220571D02*
D03*
X-212697D02*
D03*
X-204823D02*
D03*
X-196949D02*
D03*
D112*
X-189075D02*
D03*
D113*
X-180807D02*
D03*
X-236319D02*
D03*
D114*
X208760Y72047D02*
D03*
X228642D02*
D03*
D115*
X225787Y-35433D02*
D03*
X204429D02*
D03*
D116*
X184252Y-26575D02*
D03*
X-172933Y-51673D02*
D03*
X-173228Y98425D02*
D03*
X186516Y68307D02*
D03*
D117*
X-88156Y9070D02*
D03*
X-83825D02*
D03*
X-79494D02*
D03*
X-88156Y13400D02*
D03*
X-83825D02*
D03*
X-79494D02*
D03*
X-88156Y17731D02*
D03*
X-83825D02*
D03*
X-79494D02*
D03*
X-99573Y20881D02*
D03*
X-95242D02*
D03*
X-90912D02*
D03*
X-99573Y25211D02*
D03*
X-95242Y25211D02*
D03*
X-90912D02*
D03*
X-99573Y29542D02*
D03*
X-95242D02*
D03*
X-90912D02*
D03*
M02*
