G04 Layer_Physical_Order=1*
G04 Layer_Color=255*
%FSLAX25Y25*%
%MOIN*%
G70*
G01*
G75*
%ADD10C,0.03543*%
%ADD11R,0.00492X0.00492*%
%ADD12C,0.00492*%
%ADD13C,0.01181*%
%ADD14C,0.00591*%
%ADD15R,0.15714X0.87517*%
%ADD16O,0.15748X0.17716*%
%ADD17C,0.06693*%
%ADD18C,0.03543*%
%ADD19R,0.03543X0.03543*%
%ADD20C,0.05906*%
%ADD21R,0.05906X0.05906*%
%ADD22O,0.07874X0.03937*%
%ADD23O,0.07874X0.03937*%
%ADD24O,0.04724X0.09843*%
%ADD25R,0.04724X0.09843*%
%ADD26O,0.07087X0.09843*%
%ADD27O,0.13780X0.11811*%
%ADD28O,0.13780X0.09843*%
%ADD29C,0.03150*%
%ADD30C,0.01969*%
%ADD31C,0.11811*%
G36*
X219555Y153806D02*
X222603Y153288D01*
X225575Y152432D01*
X228432Y151249D01*
X231138Y149753D01*
X233660Y147964D01*
X235966Y145903D01*
X238026Y143598D01*
X239816Y141076D01*
X241311Y138369D01*
X242495Y135512D01*
X243351Y132541D01*
X243869Y129492D01*
X244038Y126478D01*
X244023Y126405D01*
Y-81832D01*
X244038Y-81905D01*
X243869Y-84920D01*
X243351Y-87968D01*
X242495Y-90940D01*
X241311Y-93797D01*
X239816Y-96503D01*
X238026Y-99025D01*
X235966Y-101331D01*
X233660Y-103391D01*
X231138Y-105181D01*
X228432Y-106676D01*
X225575Y-107860D01*
X222603Y-108716D01*
X219555Y-109234D01*
X216682Y-109395D01*
X216497Y-109359D01*
X-143347Y-109374D01*
X-143701Y-109020D01*
Y-101130D01*
X-143201Y-100875D01*
X-141698Y-101331D01*
X-140000Y-101499D01*
X-138302Y-101331D01*
X-136669Y-100836D01*
X-135165Y-100032D01*
X-133846Y-98949D01*
X-132763Y-97631D01*
X-131959Y-96126D01*
X-131464Y-94493D01*
X-131297Y-92795D01*
Y-90827D01*
X-131464Y-89129D01*
X-131959Y-87496D01*
X-132763Y-85991D01*
X-133846Y-84673D01*
X-135165Y-83590D01*
X-136669Y-82786D01*
X-138302Y-82291D01*
X-140000Y-82123D01*
X-141698Y-82291D01*
X-143201Y-82747D01*
X-143701Y-82492D01*
Y-77508D01*
X-143201Y-77253D01*
X-141698Y-77709D01*
X-140000Y-77877D01*
X-138302Y-77709D01*
X-136669Y-77214D01*
X-135165Y-76410D01*
X-133846Y-75327D01*
X-132763Y-74009D01*
X-131959Y-72504D01*
X-131464Y-70871D01*
X-131297Y-69173D01*
Y-67205D01*
X-131464Y-65507D01*
X-131959Y-63874D01*
X-132763Y-62369D01*
X-133846Y-61050D01*
X-135165Y-59968D01*
X-136669Y-59164D01*
X-138302Y-58669D01*
X-140000Y-58501D01*
X-141698Y-58669D01*
X-143201Y-59124D01*
X-143701Y-58870D01*
Y98870D01*
X-143201Y99124D01*
X-141698Y98669D01*
X-140000Y98501D01*
X-138302Y98669D01*
X-136669Y99164D01*
X-135165Y99968D01*
X-133846Y101050D01*
X-132763Y102369D01*
X-131959Y103874D01*
X-131464Y105507D01*
X-131297Y107205D01*
Y109173D01*
X-131464Y110871D01*
X-131959Y112504D01*
X-132763Y114008D01*
X-133846Y115327D01*
X-135165Y116410D01*
X-136669Y117214D01*
X-138302Y117709D01*
X-140000Y117877D01*
X-141698Y117709D01*
X-143201Y117253D01*
X-143701Y117508D01*
Y122492D01*
X-143201Y122747D01*
X-141698Y122291D01*
X-140000Y122123D01*
X-138302Y122291D01*
X-136669Y122786D01*
X-135165Y123590D01*
X-133846Y124673D01*
X-132763Y125991D01*
X-131959Y127496D01*
X-131464Y129129D01*
X-131297Y130827D01*
Y132795D01*
X-131464Y134493D01*
X-131959Y136126D01*
X-132763Y137631D01*
X-133846Y138950D01*
X-135165Y140032D01*
X-136669Y140836D01*
X-138302Y141331D01*
X-140000Y141499D01*
X-141698Y141331D01*
X-143201Y140875D01*
X-143701Y141130D01*
Y153961D01*
X216467D01*
X216540Y153976D01*
X219555Y153806D01*
D02*
G37*
%LPC*%
G36*
X-75043Y-26260D02*
X-77067D01*
Y-28284D01*
X-76891Y-28261D01*
X-76269Y-28003D01*
X-75734Y-27593D01*
X-75324Y-27058D01*
X-75066Y-26436D01*
X-75043Y-26260D01*
D02*
G37*
G36*
X10000Y17877D02*
X8302Y17709D01*
X6669Y17214D01*
X5165Y16410D01*
X3846Y15327D01*
X2763Y14008D01*
X1959Y12504D01*
X1464Y10871D01*
X1297Y9173D01*
Y7205D01*
X1464Y5507D01*
X1959Y3874D01*
X2763Y2369D01*
X3846Y1051D01*
X5165Y-32D01*
X6669Y-836D01*
X8302Y-1331D01*
X10000Y-1499D01*
X11698Y-1331D01*
X13331Y-836D01*
X14835Y-32D01*
X16154Y1051D01*
X17236Y2369D01*
X18041Y3874D01*
X18536Y5507D01*
X18703Y7205D01*
Y9173D01*
X18536Y10871D01*
X18041Y12504D01*
X17236Y14008D01*
X16154Y15327D01*
X14835Y16410D01*
X13331Y17214D01*
X11698Y17709D01*
X10000Y17877D01*
D02*
G37*
G36*
X184252Y-19850D02*
X182940Y-19979D01*
X181678Y-20361D01*
X180516Y-20983D01*
X179497Y-21819D01*
X178660Y-22838D01*
X178039Y-24001D01*
X177656Y-25263D01*
X177527Y-26575D01*
X177656Y-27887D01*
X178039Y-29149D01*
X178660Y-30311D01*
X179497Y-31330D01*
X180516Y-32167D01*
X181678Y-32788D01*
X182940Y-33171D01*
X184252Y-33300D01*
X185564Y-33171D01*
X186826Y-32788D01*
X187988Y-32167D01*
X189007Y-31330D01*
X189844Y-30311D01*
X190465Y-29149D01*
X190848Y-27887D01*
X190977Y-26575D01*
X190848Y-25263D01*
X190465Y-24001D01*
X189844Y-22838D01*
X189007Y-21819D01*
X187988Y-20983D01*
X186826Y-20361D01*
X185564Y-19979D01*
X184252Y-19850D01*
D02*
G37*
G36*
X227756Y-29675D02*
X226279D01*
Y-34941D01*
X233449D01*
X233318Y-33943D01*
X232742Y-32554D01*
X231827Y-31362D01*
X230635Y-30447D01*
X229246Y-29871D01*
X227756Y-29675D01*
D02*
G37*
G36*
X160000Y17877D02*
X158302Y17709D01*
X156669Y17214D01*
X155165Y16410D01*
X153846Y15327D01*
X152763Y14008D01*
X151959Y12504D01*
X151464Y10871D01*
X151297Y9173D01*
Y7205D01*
X151464Y5507D01*
X151959Y3874D01*
X152763Y2369D01*
X153846Y1051D01*
X155165Y-32D01*
X156669Y-836D01*
X158302Y-1331D01*
X160000Y-1499D01*
X161698Y-1331D01*
X163331Y-836D01*
X164835Y-32D01*
X166154Y1051D01*
X167237Y2369D01*
X168041Y3874D01*
X168536Y5507D01*
X168703Y7205D01*
Y9173D01*
X168536Y10871D01*
X168041Y12504D01*
X167237Y14008D01*
X166154Y15327D01*
X164835Y16410D01*
X163331Y17214D01*
X161698Y17709D01*
X160000Y17877D01*
D02*
G37*
G36*
X210000D02*
X208302Y17709D01*
X206669Y17214D01*
X205165Y16410D01*
X203846Y15327D01*
X202763Y14008D01*
X201959Y12504D01*
X201464Y10871D01*
X201297Y9173D01*
Y7205D01*
X201464Y5507D01*
X201959Y3874D01*
X202763Y2369D01*
X203846Y1051D01*
X205165Y-32D01*
X206669Y-836D01*
X208302Y-1331D01*
X210000Y-1499D01*
X211698Y-1331D01*
X213331Y-836D01*
X214835Y-32D01*
X216154Y1051D01*
X217236Y2369D01*
X218041Y3874D01*
X218536Y5507D01*
X218703Y7205D01*
Y9173D01*
X218536Y10871D01*
X218041Y12504D01*
X217236Y14008D01*
X216154Y15327D01*
X214835Y16410D01*
X213331Y17214D01*
X211698Y17709D01*
X210000Y17877D01*
D02*
G37*
G36*
X60000D02*
X58302Y17709D01*
X56669Y17214D01*
X55165Y16410D01*
X53846Y15327D01*
X52763Y14008D01*
X51959Y12504D01*
X51464Y10871D01*
X51297Y9173D01*
Y7205D01*
X51464Y5507D01*
X51959Y3874D01*
X52763Y2369D01*
X53846Y1051D01*
X55165Y-32D01*
X56669Y-836D01*
X58302Y-1331D01*
X60000Y-1499D01*
X61698Y-1331D01*
X63331Y-836D01*
X64835Y-32D01*
X66154Y1051D01*
X67237Y2369D01*
X68041Y3874D01*
X68536Y5507D01*
X68703Y7205D01*
Y9173D01*
X68536Y10871D01*
X68041Y12504D01*
X67237Y14008D01*
X66154Y15327D01*
X64835Y16410D01*
X63331Y17214D01*
X61698Y17709D01*
X60000Y17877D01*
D02*
G37*
G36*
X110000D02*
X108302Y17709D01*
X106669Y17214D01*
X105165Y16410D01*
X103846Y15327D01*
X102763Y14008D01*
X101959Y12504D01*
X101464Y10871D01*
X101297Y9173D01*
Y7205D01*
X101464Y5507D01*
X101959Y3874D01*
X102763Y2369D01*
X103846Y1051D01*
X105165Y-32D01*
X106669Y-836D01*
X108302Y-1331D01*
X110000Y-1499D01*
X111698Y-1331D01*
X113331Y-836D01*
X114835Y-32D01*
X116154Y1051D01*
X117237Y2369D01*
X118041Y3874D01*
X118536Y5507D01*
X118703Y7205D01*
Y9173D01*
X118536Y10871D01*
X118041Y12504D01*
X117237Y14008D01*
X116154Y15327D01*
X114835Y16410D01*
X113331Y17214D01*
X111698Y17709D01*
X110000Y17877D01*
D02*
G37*
G36*
X225295Y-29675D02*
X223819D01*
X222329Y-29871D01*
X220940Y-30447D01*
X219747Y-31362D01*
X218832Y-32554D01*
X218257Y-33943D01*
X218126Y-34941D01*
X225295D01*
Y-29675D01*
D02*
G37*
G36*
X173500Y-65830D02*
X172421Y-65973D01*
X171415Y-66389D01*
X170552Y-67052D01*
X169889Y-67915D01*
X169473Y-68921D01*
X169331Y-70000D01*
X169473Y-71079D01*
X169889Y-72085D01*
X170552Y-72948D01*
X171415Y-73611D01*
X172421Y-74027D01*
X173500Y-74169D01*
X174579Y-74027D01*
X175585Y-73611D01*
X176448Y-72948D01*
X177111Y-72085D01*
X177527Y-71079D01*
X177670Y-70000D01*
X177527Y-68921D01*
X177111Y-67915D01*
X176448Y-67052D01*
X175585Y-66389D01*
X174579Y-65973D01*
X173500Y-65830D01*
D02*
G37*
G36*
X203937Y-35925D02*
X196767D01*
X196899Y-36923D01*
X197474Y-38312D01*
X198389Y-39505D01*
X199582Y-40420D01*
X200970Y-40995D01*
X202461Y-41191D01*
X203937D01*
Y-35925D01*
D02*
G37*
G36*
X73500Y-65830D02*
X72421Y-65973D01*
X71415Y-66389D01*
X70552Y-67052D01*
X69889Y-67915D01*
X69473Y-68921D01*
X69331Y-70000D01*
X69473Y-71079D01*
X69889Y-72085D01*
X70552Y-72948D01*
X71415Y-73611D01*
X72421Y-74027D01*
X73500Y-74169D01*
X74579Y-74027D01*
X75585Y-73611D01*
X76448Y-72948D01*
X77111Y-72085D01*
X77527Y-71079D01*
X77670Y-70000D01*
X77527Y-68921D01*
X77111Y-67915D01*
X76448Y-67052D01*
X75585Y-66389D01*
X74579Y-65973D01*
X73500Y-65830D01*
D02*
G37*
G36*
X123500D02*
X122421Y-65973D01*
X121415Y-66389D01*
X120552Y-67052D01*
X119889Y-67915D01*
X119473Y-68921D01*
X119331Y-70000D01*
X119473Y-71079D01*
X119889Y-72085D01*
X120552Y-72948D01*
X121415Y-73611D01*
X122421Y-74027D01*
X123500Y-74169D01*
X124579Y-74027D01*
X125585Y-73611D01*
X126448Y-72948D01*
X127111Y-72085D01*
X127527Y-71079D01*
X127670Y-70000D01*
X127527Y-68921D01*
X127111Y-67915D01*
X126448Y-67052D01*
X125585Y-66389D01*
X124579Y-65973D01*
X123500Y-65830D01*
D02*
G37*
G36*
X212091Y-35925D02*
X204921D01*
Y-41191D01*
X206398D01*
X207888Y-40995D01*
X209277Y-40420D01*
X210469Y-39505D01*
X211384Y-38312D01*
X211959Y-36923D01*
X212091Y-35925D01*
D02*
G37*
G36*
X203937Y-29675D02*
X202461D01*
X200970Y-29871D01*
X199582Y-30447D01*
X198389Y-31362D01*
X197474Y-32554D01*
X196899Y-33943D01*
X196767Y-34941D01*
X203937D01*
Y-29675D01*
D02*
G37*
G36*
X206398D02*
X204921D01*
Y-34941D01*
X212091D01*
X211959Y-33943D01*
X211384Y-32554D01*
X210469Y-31362D01*
X209277Y-30447D01*
X207888Y-29871D01*
X206398Y-29675D01*
D02*
G37*
G36*
X225295Y-35925D02*
X218126D01*
X218257Y-36923D01*
X218832Y-38312D01*
X219747Y-39505D01*
X220940Y-40420D01*
X222329Y-40995D01*
X223819Y-41191D01*
X225295D01*
Y-35925D01*
D02*
G37*
G36*
X233449D02*
X226279D01*
Y-41191D01*
X227756D01*
X229246Y-40995D01*
X230635Y-40420D01*
X231827Y-39505D01*
X232742Y-38312D01*
X233318Y-36923D01*
X233449Y-35925D01*
D02*
G37*
G36*
X60000Y41499D02*
X58302Y41331D01*
X56669Y40836D01*
X55165Y40032D01*
X53846Y38949D01*
X52763Y37631D01*
X51959Y36126D01*
X51464Y34493D01*
X51297Y32795D01*
Y30827D01*
X51464Y29129D01*
X51959Y27496D01*
X52763Y25991D01*
X53846Y24673D01*
X55165Y23590D01*
X56669Y22786D01*
X58302Y22291D01*
X60000Y22123D01*
X61698Y22291D01*
X63331Y22786D01*
X64835Y23590D01*
X66154Y24673D01*
X67237Y25991D01*
X68041Y27496D01*
X68536Y29129D01*
X68703Y30827D01*
Y32795D01*
X68536Y34493D01*
X68041Y36126D01*
X67237Y37631D01*
X66154Y38949D01*
X64835Y40032D01*
X63331Y40836D01*
X61698Y41331D01*
X60000Y41499D01*
D02*
G37*
G36*
X110000D02*
X108302Y41331D01*
X106669Y40836D01*
X105165Y40032D01*
X103846Y38949D01*
X102763Y37631D01*
X101959Y36126D01*
X101464Y34493D01*
X101297Y32795D01*
Y30827D01*
X101464Y29129D01*
X101959Y27496D01*
X102763Y25991D01*
X103846Y24673D01*
X105165Y23590D01*
X106669Y22786D01*
X108302Y22291D01*
X110000Y22123D01*
X111698Y22291D01*
X113331Y22786D01*
X114835Y23590D01*
X116154Y24673D01*
X117237Y25991D01*
X118041Y27496D01*
X118536Y29129D01*
X118703Y30827D01*
Y32795D01*
X118536Y34493D01*
X118041Y36126D01*
X117237Y37631D01*
X116154Y38949D01*
X114835Y40032D01*
X113331Y40836D01*
X111698Y41331D01*
X110000Y41499D01*
D02*
G37*
G36*
X223500Y24170D02*
X222421Y24027D01*
X221415Y23611D01*
X220552Y22948D01*
X219889Y22085D01*
X219473Y21079D01*
X219331Y20000D01*
X219473Y18921D01*
X219889Y17915D01*
X220552Y17052D01*
X221415Y16389D01*
X222421Y15973D01*
X223500Y15831D01*
X224579Y15973D01*
X225585Y16389D01*
X226448Y17052D01*
X227111Y17915D01*
X227527Y18921D01*
X227670Y20000D01*
X227527Y21079D01*
X227111Y22085D01*
X226448Y22948D01*
X225585Y23611D01*
X224579Y24027D01*
X223500Y24170D01*
D02*
G37*
G36*
X10000Y41499D02*
X8302Y41331D01*
X6669Y40836D01*
X5165Y40032D01*
X3846Y38949D01*
X2763Y37631D01*
X1959Y36126D01*
X1464Y34493D01*
X1297Y32795D01*
Y30827D01*
X1464Y29129D01*
X1959Y27496D01*
X2763Y25991D01*
X3846Y24673D01*
X5165Y23590D01*
X6669Y22786D01*
X8302Y22291D01*
X10000Y22123D01*
X11698Y22291D01*
X13331Y22786D01*
X14835Y23590D01*
X16154Y24673D01*
X17236Y25991D01*
X18041Y27496D01*
X18536Y29129D01*
X18703Y30827D01*
Y32795D01*
X18536Y34493D01*
X18041Y36126D01*
X17236Y37631D01*
X16154Y38949D01*
X14835Y40032D01*
X13331Y40836D01*
X11698Y41331D01*
X10000Y41499D01*
D02*
G37*
G36*
X160000D02*
X158302Y41331D01*
X156669Y40836D01*
X155165Y40032D01*
X153846Y38949D01*
X152763Y37631D01*
X151959Y36126D01*
X151464Y34493D01*
X151297Y32795D01*
Y30827D01*
X151464Y29129D01*
X151959Y27496D01*
X152763Y25991D01*
X153846Y24673D01*
X155165Y23590D01*
X156669Y22786D01*
X158302Y22291D01*
X160000Y22123D01*
X161698Y22291D01*
X163331Y22786D01*
X164835Y23590D01*
X166154Y24673D01*
X167237Y25991D01*
X168041Y27496D01*
X168536Y29129D01*
X168703Y30827D01*
Y32795D01*
X168536Y34493D01*
X168041Y36126D01*
X167237Y37631D01*
X166154Y38949D01*
X164835Y40032D01*
X163331Y40836D01*
X161698Y41331D01*
X160000Y41499D01*
D02*
G37*
G36*
X73500Y34170D02*
X72421Y34027D01*
X71415Y33611D01*
X70552Y32948D01*
X69889Y32085D01*
X69473Y31079D01*
X69331Y30000D01*
X69473Y28921D01*
X69889Y27915D01*
X70552Y27052D01*
X71415Y26389D01*
X72421Y25973D01*
X73500Y25831D01*
X74579Y25973D01*
X75585Y26389D01*
X76448Y27052D01*
X77111Y27915D01*
X77527Y28921D01*
X77670Y30000D01*
X77527Y31079D01*
X77111Y32085D01*
X76448Y32948D01*
X75585Y33611D01*
X74579Y34027D01*
X73500Y34170D01*
D02*
G37*
G36*
X123500D02*
X122421Y34027D01*
X121415Y33611D01*
X120552Y32948D01*
X119889Y32085D01*
X119473Y31079D01*
X119331Y30000D01*
X119473Y28921D01*
X119889Y27915D01*
X120552Y27052D01*
X121415Y26389D01*
X122421Y25973D01*
X123500Y25831D01*
X124579Y25973D01*
X125585Y26389D01*
X126448Y27052D01*
X127111Y27915D01*
X127527Y28921D01*
X127670Y30000D01*
X127527Y31079D01*
X127111Y32085D01*
X126448Y32948D01*
X125585Y33611D01*
X124579Y34027D01*
X123500Y34170D01*
D02*
G37*
G36*
X210000Y41499D02*
X208302Y41331D01*
X206669Y40836D01*
X205165Y40032D01*
X203846Y38949D01*
X202763Y37631D01*
X201959Y36126D01*
X201464Y34493D01*
X201297Y32795D01*
Y30827D01*
X201464Y29129D01*
X201959Y27496D01*
X202763Y25991D01*
X203846Y24673D01*
X205165Y23590D01*
X206669Y22786D01*
X208302Y22291D01*
X210000Y22123D01*
X211698Y22291D01*
X213331Y22786D01*
X214835Y23590D01*
X216154Y24673D01*
X217236Y25991D01*
X218041Y27496D01*
X218536Y29129D01*
X218703Y30827D01*
Y32795D01*
X218536Y34493D01*
X218041Y36126D01*
X217236Y37631D01*
X216154Y38949D01*
X214835Y40032D01*
X213331Y40836D01*
X211698Y41331D01*
X210000Y41499D01*
D02*
G37*
G36*
X23500Y34170D02*
X22421Y34027D01*
X21415Y33611D01*
X20552Y32948D01*
X19889Y32085D01*
X19473Y31079D01*
X19331Y30000D01*
X19473Y28921D01*
X19889Y27915D01*
X20552Y27052D01*
X21415Y26389D01*
X22421Y25973D01*
X23500Y25831D01*
X24579Y25973D01*
X25585Y26389D01*
X26448Y27052D01*
X27111Y27915D01*
X27527Y28921D01*
X27670Y30000D01*
X27527Y31079D01*
X27111Y32085D01*
X26448Y32948D01*
X25585Y33611D01*
X24579Y34027D01*
X23500Y34170D01*
D02*
G37*
G36*
X123500Y14169D02*
X122421Y14027D01*
X121415Y13611D01*
X120552Y12948D01*
X119889Y12085D01*
X119473Y11079D01*
X119331Y10000D01*
X119473Y8921D01*
X119889Y7915D01*
X120552Y7052D01*
X121415Y6389D01*
X122421Y5973D01*
X123500Y5830D01*
X124579Y5973D01*
X125585Y6389D01*
X126448Y7052D01*
X127111Y7915D01*
X127527Y8921D01*
X127670Y10000D01*
X127527Y11079D01*
X127111Y12085D01*
X126448Y12948D01*
X125585Y13611D01*
X124579Y14027D01*
X123500Y14169D01*
D02*
G37*
G36*
X173500D02*
X172421Y14027D01*
X171415Y13611D01*
X170552Y12948D01*
X169889Y12085D01*
X169473Y11079D01*
X169331Y10000D01*
X169473Y8921D01*
X169889Y7915D01*
X170552Y7052D01*
X171415Y6389D01*
X172421Y5973D01*
X173500Y5830D01*
X174579Y5973D01*
X175585Y6389D01*
X176448Y7052D01*
X177111Y7915D01*
X177527Y8921D01*
X177670Y10000D01*
X177527Y11079D01*
X177111Y12085D01*
X176448Y12948D01*
X175585Y13611D01*
X174579Y14027D01*
X173500Y14169D01*
D02*
G37*
G36*
X23500D02*
X22421Y14027D01*
X21415Y13611D01*
X20552Y12948D01*
X19889Y12085D01*
X19473Y11079D01*
X19331Y10000D01*
X19473Y8921D01*
X19889Y7915D01*
X20552Y7052D01*
X21415Y6389D01*
X22421Y5973D01*
X23500Y5830D01*
X24579Y5973D01*
X25585Y6389D01*
X26448Y7052D01*
X27111Y7915D01*
X27527Y8921D01*
X27670Y10000D01*
X27527Y11079D01*
X27111Y12085D01*
X26448Y12948D01*
X25585Y13611D01*
X24579Y14027D01*
X23500Y14169D01*
D02*
G37*
G36*
X73500D02*
X72421Y14027D01*
X71415Y13611D01*
X70552Y12948D01*
X69889Y12085D01*
X69473Y11079D01*
X69331Y10000D01*
X69473Y8921D01*
X69889Y7915D01*
X70552Y7052D01*
X71415Y6389D01*
X72421Y5973D01*
X73500Y5830D01*
X74579Y5973D01*
X75585Y6389D01*
X76448Y7052D01*
X77111Y7915D01*
X77527Y8921D01*
X77670Y10000D01*
X77527Y11079D01*
X77111Y12085D01*
X76448Y12948D01*
X75585Y13611D01*
X74579Y14027D01*
X73500Y14169D01*
D02*
G37*
G36*
X223500D02*
X222421Y14027D01*
X221415Y13611D01*
X220552Y12948D01*
X219889Y12085D01*
X219473Y11079D01*
X219331Y10000D01*
X219473Y8921D01*
X219889Y7915D01*
X220552Y7052D01*
X221415Y6389D01*
X222421Y5973D01*
X223500Y5830D01*
X224579Y5973D01*
X225585Y6389D01*
X226448Y7052D01*
X227111Y7915D01*
X227527Y8921D01*
X227670Y10000D01*
X227527Y11079D01*
X227111Y12085D01*
X226448Y12948D01*
X225585Y13611D01*
X224579Y14027D01*
X223500Y14169D01*
D02*
G37*
G36*
X123500Y24170D02*
X122421Y24027D01*
X121415Y23611D01*
X120552Y22948D01*
X119889Y22085D01*
X119473Y21079D01*
X119331Y20000D01*
X119473Y18921D01*
X119889Y17915D01*
X120552Y17052D01*
X121415Y16389D01*
X122421Y15973D01*
X123500Y15831D01*
X124579Y15973D01*
X125585Y16389D01*
X126448Y17052D01*
X127111Y17915D01*
X127527Y18921D01*
X127670Y20000D01*
X127527Y21079D01*
X127111Y22085D01*
X126448Y22948D01*
X125585Y23611D01*
X124579Y24027D01*
X123500Y24170D01*
D02*
G37*
G36*
X173500D02*
X172421Y24027D01*
X171415Y23611D01*
X170552Y22948D01*
X169889Y22085D01*
X169473Y21079D01*
X169331Y20000D01*
X169473Y18921D01*
X169889Y17915D01*
X170552Y17052D01*
X171415Y16389D01*
X172421Y15973D01*
X173500Y15831D01*
X174579Y15973D01*
X175585Y16389D01*
X176448Y17052D01*
X177111Y17915D01*
X177527Y18921D01*
X177670Y20000D01*
X177527Y21079D01*
X177111Y22085D01*
X176448Y22948D01*
X175585Y23611D01*
X174579Y24027D01*
X173500Y24170D01*
D02*
G37*
G36*
X23500D02*
X22421Y24027D01*
X21415Y23611D01*
X20552Y22948D01*
X19889Y22085D01*
X19473Y21079D01*
X19331Y20000D01*
X19473Y18921D01*
X19889Y17915D01*
X20552Y17052D01*
X21415Y16389D01*
X22421Y15973D01*
X23500Y15831D01*
X24579Y15973D01*
X25585Y16389D01*
X26448Y17052D01*
X27111Y17915D01*
X27527Y18921D01*
X27670Y20000D01*
X27527Y21079D01*
X27111Y22085D01*
X26448Y22948D01*
X25585Y23611D01*
X24579Y24027D01*
X23500Y24170D01*
D02*
G37*
G36*
X73500D02*
X72421Y24027D01*
X71415Y23611D01*
X70552Y22948D01*
X69889Y22085D01*
X69473Y21079D01*
X69331Y20000D01*
X69473Y18921D01*
X69889Y17915D01*
X70552Y17052D01*
X71415Y16389D01*
X72421Y15973D01*
X73500Y15831D01*
X74579Y15973D01*
X75585Y16389D01*
X76448Y17052D01*
X77111Y17915D01*
X77527Y18921D01*
X77670Y20000D01*
X77527Y21079D01*
X77111Y22085D01*
X76448Y22948D01*
X75585Y23611D01*
X74579Y24027D01*
X73500Y24170D01*
D02*
G37*
G36*
X23500Y-65830D02*
X22421Y-65973D01*
X21415Y-66389D01*
X20552Y-67052D01*
X19889Y-67915D01*
X19473Y-68921D01*
X19331Y-70000D01*
X19473Y-71079D01*
X19889Y-72085D01*
X20552Y-72948D01*
X21415Y-73611D01*
X22421Y-74027D01*
X23500Y-74169D01*
X24579Y-74027D01*
X25585Y-73611D01*
X26448Y-72948D01*
X27111Y-72085D01*
X27527Y-71079D01*
X27670Y-70000D01*
X27527Y-68921D01*
X27111Y-67915D01*
X26448Y-67052D01*
X25585Y-66389D01*
X24579Y-65973D01*
X23500Y-65830D01*
D02*
G37*
G36*
X-76500Y-85830D02*
X-77579Y-85973D01*
X-78585Y-86389D01*
X-79448Y-87052D01*
X-80111Y-87915D01*
X-80527Y-88921D01*
X-80669Y-90000D01*
X-80527Y-91079D01*
X-80111Y-92085D01*
X-79448Y-92948D01*
X-78585Y-93611D01*
X-77579Y-94027D01*
X-76500Y-94169D01*
X-75421Y-94027D01*
X-74415Y-93611D01*
X-73552Y-92948D01*
X-72889Y-92085D01*
X-72473Y-91079D01*
X-72330Y-90000D01*
X-72473Y-88921D01*
X-72889Y-87915D01*
X-73552Y-87052D01*
X-74415Y-86389D01*
X-75421Y-85973D01*
X-76500Y-85830D01*
D02*
G37*
G36*
X-26500D02*
X-27579Y-85973D01*
X-28585Y-86389D01*
X-29448Y-87052D01*
X-30111Y-87915D01*
X-30527Y-88921D01*
X-30670Y-90000D01*
X-30527Y-91079D01*
X-30111Y-92085D01*
X-29448Y-92948D01*
X-28585Y-93611D01*
X-27579Y-94027D01*
X-26500Y-94169D01*
X-25421Y-94027D01*
X-24415Y-93611D01*
X-23552Y-92948D01*
X-22889Y-92085D01*
X-22473Y-91079D01*
X-22331Y-90000D01*
X-22473Y-88921D01*
X-22889Y-87915D01*
X-23552Y-87052D01*
X-24415Y-86389D01*
X-25421Y-85973D01*
X-26500Y-85830D01*
D02*
G37*
G36*
X223441Y-85949D02*
X222362Y-86091D01*
X221356Y-86507D01*
X220493Y-87170D01*
X219830Y-88033D01*
X219413Y-89039D01*
X219271Y-90118D01*
X219413Y-91197D01*
X219830Y-92203D01*
X220493Y-93066D01*
X221356Y-93729D01*
X222362Y-94146D01*
X223441Y-94288D01*
X224520Y-94146D01*
X225526Y-93729D01*
X226389Y-93066D01*
X227052Y-92203D01*
X227468Y-91197D01*
X227610Y-90118D01*
X227468Y-89039D01*
X227052Y-88033D01*
X226389Y-87170D01*
X225526Y-86507D01*
X224520Y-86091D01*
X223441Y-85949D01*
D02*
G37*
G36*
X-126500Y-85830D02*
X-127579Y-85973D01*
X-128585Y-86389D01*
X-129448Y-87052D01*
X-130111Y-87915D01*
X-130527Y-88921D01*
X-130669Y-90000D01*
X-130527Y-91079D01*
X-130111Y-92085D01*
X-129448Y-92948D01*
X-128585Y-93611D01*
X-127579Y-94027D01*
X-126500Y-94169D01*
X-125421Y-94027D01*
X-124415Y-93611D01*
X-123552Y-92948D01*
X-122889Y-92085D01*
X-122473Y-91079D01*
X-122330Y-90000D01*
X-122473Y-88921D01*
X-122889Y-87915D01*
X-123552Y-87052D01*
X-124415Y-86389D01*
X-125421Y-85973D01*
X-126500Y-85830D01*
D02*
G37*
G36*
X23500D02*
X22421Y-85973D01*
X21415Y-86389D01*
X20552Y-87052D01*
X19889Y-87915D01*
X19473Y-88921D01*
X19331Y-90000D01*
X19473Y-91079D01*
X19889Y-92085D01*
X20552Y-92948D01*
X21415Y-93611D01*
X22421Y-94027D01*
X23500Y-94169D01*
X24579Y-94027D01*
X25585Y-93611D01*
X26448Y-92948D01*
X27111Y-92085D01*
X27527Y-91079D01*
X27670Y-90000D01*
X27527Y-88921D01*
X27111Y-87915D01*
X26448Y-87052D01*
X25585Y-86389D01*
X24579Y-85973D01*
X23500Y-85830D01*
D02*
G37*
G36*
X173500D02*
X172421Y-85973D01*
X171415Y-86389D01*
X170552Y-87052D01*
X169889Y-87915D01*
X169473Y-88921D01*
X169331Y-90000D01*
X169473Y-91079D01*
X169889Y-92085D01*
X170552Y-92948D01*
X171415Y-93611D01*
X172421Y-94027D01*
X173500Y-94169D01*
X174579Y-94027D01*
X175585Y-93611D01*
X176448Y-92948D01*
X177111Y-92085D01*
X177527Y-91079D01*
X177670Y-90000D01*
X177527Y-88921D01*
X177111Y-87915D01*
X176448Y-87052D01*
X175585Y-86389D01*
X174579Y-85973D01*
X173500Y-85830D01*
D02*
G37*
G36*
X223441Y-75949D02*
X222362Y-76091D01*
X221356Y-76507D01*
X220493Y-77170D01*
X219830Y-78033D01*
X219413Y-79039D01*
X219271Y-80118D01*
X219413Y-81197D01*
X219830Y-82203D01*
X220493Y-83066D01*
X221356Y-83729D01*
X222362Y-84146D01*
X223441Y-84288D01*
X224520Y-84146D01*
X225526Y-83729D01*
X226389Y-83066D01*
X227052Y-82203D01*
X227468Y-81197D01*
X227610Y-80118D01*
X227468Y-79039D01*
X227052Y-78033D01*
X226389Y-77170D01*
X225526Y-76507D01*
X224520Y-76091D01*
X223441Y-75949D01*
D02*
G37*
G36*
X73500Y-85830D02*
X72421Y-85973D01*
X71415Y-86389D01*
X70552Y-87052D01*
X69889Y-87915D01*
X69473Y-88921D01*
X69331Y-90000D01*
X69473Y-91079D01*
X69889Y-92085D01*
X70552Y-92948D01*
X71415Y-93611D01*
X72421Y-94027D01*
X73500Y-94169D01*
X74579Y-94027D01*
X75585Y-93611D01*
X76448Y-92948D01*
X77111Y-92085D01*
X77527Y-91079D01*
X77670Y-90000D01*
X77527Y-88921D01*
X77111Y-87915D01*
X76448Y-87052D01*
X75585Y-86389D01*
X74579Y-85973D01*
X73500Y-85830D01*
D02*
G37*
G36*
X123500D02*
X122421Y-85973D01*
X121415Y-86389D01*
X120552Y-87052D01*
X119889Y-87915D01*
X119473Y-88921D01*
X119331Y-90000D01*
X119473Y-91079D01*
X119889Y-92085D01*
X120552Y-92948D01*
X121415Y-93611D01*
X122421Y-94027D01*
X123500Y-94169D01*
X124579Y-94027D01*
X125585Y-93611D01*
X126448Y-92948D01*
X127111Y-92085D01*
X127527Y-91079D01*
X127670Y-90000D01*
X127527Y-88921D01*
X127111Y-87915D01*
X126448Y-87052D01*
X125585Y-86389D01*
X124579Y-85973D01*
X123500Y-85830D01*
D02*
G37*
G36*
X-40000Y-82123D02*
X-41698Y-82291D01*
X-43331Y-82786D01*
X-44835Y-83590D01*
X-46154Y-84673D01*
X-47236Y-85991D01*
X-48041Y-87496D01*
X-48536Y-89129D01*
X-48703Y-90827D01*
Y-92795D01*
X-48536Y-94493D01*
X-48041Y-96126D01*
X-47236Y-97631D01*
X-46154Y-98949D01*
X-44835Y-100032D01*
X-43331Y-100836D01*
X-41698Y-101331D01*
X-40000Y-101499D01*
X-38302Y-101331D01*
X-36669Y-100836D01*
X-35165Y-100032D01*
X-33846Y-98949D01*
X-32763Y-97631D01*
X-31959Y-96126D01*
X-31464Y-94493D01*
X-31297Y-92795D01*
Y-90827D01*
X-31464Y-89129D01*
X-31959Y-87496D01*
X-32763Y-85991D01*
X-33846Y-84673D01*
X-35165Y-83590D01*
X-36669Y-82786D01*
X-38302Y-82291D01*
X-40000Y-82123D01*
D02*
G37*
G36*
X10000D02*
X8302Y-82291D01*
X6669Y-82786D01*
X5165Y-83590D01*
X3846Y-84673D01*
X2763Y-85991D01*
X1959Y-87496D01*
X1464Y-89129D01*
X1297Y-90827D01*
Y-92795D01*
X1464Y-94493D01*
X1959Y-96126D01*
X2763Y-97631D01*
X3846Y-98949D01*
X5165Y-100032D01*
X6669Y-100836D01*
X8302Y-101331D01*
X10000Y-101499D01*
X11698Y-101331D01*
X13331Y-100836D01*
X14835Y-100032D01*
X16154Y-98949D01*
X17236Y-97631D01*
X18041Y-96126D01*
X18536Y-94493D01*
X18703Y-92795D01*
Y-90827D01*
X18536Y-89129D01*
X18041Y-87496D01*
X17236Y-85991D01*
X16154Y-84673D01*
X14835Y-83590D01*
X13331Y-82786D01*
X11698Y-82291D01*
X10000Y-82123D01*
D02*
G37*
G36*
X209941Y-82241D02*
X208243Y-82409D01*
X206610Y-82904D01*
X205106Y-83708D01*
X203787Y-84791D01*
X202704Y-86110D01*
X201900Y-87614D01*
X201405Y-89247D01*
X201238Y-90945D01*
Y-92913D01*
X201405Y-94611D01*
X201900Y-96244D01*
X202704Y-97749D01*
X203787Y-99068D01*
X205106Y-100150D01*
X206610Y-100954D01*
X208243Y-101450D01*
X209941Y-101617D01*
X211639Y-101450D01*
X213272Y-100954D01*
X214776Y-100150D01*
X216095Y-99068D01*
X217178Y-97749D01*
X217982Y-96244D01*
X218477Y-94611D01*
X218644Y-92913D01*
Y-90945D01*
X218477Y-89247D01*
X217982Y-87614D01*
X217178Y-86110D01*
X216095Y-84791D01*
X214776Y-83708D01*
X213272Y-82904D01*
X211639Y-82409D01*
X209941Y-82241D01*
D02*
G37*
G36*
X-90000Y-82123D02*
X-91698Y-82291D01*
X-93331Y-82786D01*
X-94835Y-83590D01*
X-96154Y-84673D01*
X-97237Y-85991D01*
X-98041Y-87496D01*
X-98536Y-89129D01*
X-98703Y-90827D01*
Y-92795D01*
X-98536Y-94493D01*
X-98041Y-96126D01*
X-97237Y-97631D01*
X-96154Y-98949D01*
X-94835Y-100032D01*
X-93331Y-100836D01*
X-91698Y-101331D01*
X-90000Y-101499D01*
X-88302Y-101331D01*
X-86669Y-100836D01*
X-85165Y-100032D01*
X-83846Y-98949D01*
X-82763Y-97631D01*
X-81959Y-96126D01*
X-81464Y-94493D01*
X-81297Y-92795D01*
Y-90827D01*
X-81464Y-89129D01*
X-81959Y-87496D01*
X-82763Y-85991D01*
X-83846Y-84673D01*
X-85165Y-83590D01*
X-86669Y-82786D01*
X-88302Y-82291D01*
X-90000Y-82123D01*
D02*
G37*
G36*
X60000D02*
X58302Y-82291D01*
X56669Y-82786D01*
X55165Y-83590D01*
X53846Y-84673D01*
X52763Y-85991D01*
X51959Y-87496D01*
X51464Y-89129D01*
X51297Y-90827D01*
Y-92795D01*
X51464Y-94493D01*
X51959Y-96126D01*
X52763Y-97631D01*
X53846Y-98949D01*
X55165Y-100032D01*
X56669Y-100836D01*
X58302Y-101331D01*
X60000Y-101499D01*
X61698Y-101331D01*
X63331Y-100836D01*
X64835Y-100032D01*
X66154Y-98949D01*
X67237Y-97631D01*
X68041Y-96126D01*
X68536Y-94493D01*
X68703Y-92795D01*
Y-90827D01*
X68536Y-89129D01*
X68041Y-87496D01*
X67237Y-85991D01*
X66154Y-84673D01*
X64835Y-83590D01*
X63331Y-82786D01*
X61698Y-82291D01*
X60000Y-82123D01*
D02*
G37*
G36*
X30610Y-7446D02*
X29919Y-7583D01*
X29333Y-7975D01*
X28941Y-8561D01*
X28804Y-9252D01*
X28941Y-9943D01*
X29333Y-10529D01*
X29557Y-10679D01*
Y-92963D01*
X29333Y-93112D01*
X28941Y-93699D01*
X28804Y-94390D01*
X28941Y-95081D01*
X29333Y-95667D01*
X29919Y-96059D01*
X30610Y-96196D01*
X31302Y-96059D01*
X31888Y-95667D01*
X32279Y-95081D01*
X32417Y-94390D01*
X32279Y-93699D01*
X31888Y-93112D01*
X31664Y-92963D01*
Y-10679D01*
X31888Y-10529D01*
X32279Y-9943D01*
X32417Y-9252D01*
X32279Y-8561D01*
X31888Y-7975D01*
X31302Y-7583D01*
X30610Y-7446D01*
D02*
G37*
G36*
X37697Y-9709D02*
X37006Y-9847D01*
X36420Y-10238D01*
X36028Y-10825D01*
X35890Y-11516D01*
X36028Y-12207D01*
X36420Y-12793D01*
X37006Y-13185D01*
X37697Y-13322D01*
X38388Y-13185D01*
X38974Y-12793D01*
X39123Y-12570D01*
X46414D01*
X78572Y-44728D01*
Y-91454D01*
X78447Y-91538D01*
X78056Y-92124D01*
X77918Y-92815D01*
X78056Y-93506D01*
X78447Y-94092D01*
X79033Y-94484D01*
X79724Y-94621D01*
X80416Y-94484D01*
X81002Y-94092D01*
X81393Y-93506D01*
X81531Y-92815D01*
X81393Y-92124D01*
X81002Y-91538D01*
X80680Y-91322D01*
Y-44291D01*
X80680Y-44291D01*
X80599Y-43888D01*
X80371Y-43546D01*
X47596Y-10771D01*
X47254Y-10542D01*
X46850Y-10462D01*
X46850Y-10462D01*
X39123D01*
X38974Y-10238D01*
X38388Y-9847D01*
X37697Y-9709D01*
D02*
G37*
G36*
X110000Y-82123D02*
X108302Y-82291D01*
X106669Y-82786D01*
X105165Y-83590D01*
X103846Y-84673D01*
X102763Y-85991D01*
X101959Y-87496D01*
X101464Y-89129D01*
X101297Y-90827D01*
Y-92795D01*
X101464Y-94493D01*
X101959Y-96126D01*
X102763Y-97631D01*
X103846Y-98949D01*
X105165Y-100032D01*
X106669Y-100836D01*
X108302Y-101331D01*
X110000Y-101499D01*
X111698Y-101331D01*
X113331Y-100836D01*
X114835Y-100032D01*
X116154Y-98949D01*
X117237Y-97631D01*
X118041Y-96126D01*
X118536Y-94493D01*
X118703Y-92795D01*
Y-90827D01*
X118536Y-89129D01*
X118041Y-87496D01*
X117237Y-85991D01*
X116154Y-84673D01*
X114835Y-83590D01*
X113331Y-82786D01*
X111698Y-82291D01*
X110000Y-82123D01*
D02*
G37*
G36*
X160000D02*
X158302Y-82291D01*
X156669Y-82786D01*
X155165Y-83590D01*
X153846Y-84673D01*
X152763Y-85991D01*
X151959Y-87496D01*
X151464Y-89129D01*
X151297Y-90827D01*
Y-92795D01*
X151464Y-94493D01*
X151959Y-96126D01*
X152763Y-97631D01*
X153846Y-98949D01*
X155165Y-100032D01*
X156669Y-100836D01*
X158302Y-101331D01*
X160000Y-101499D01*
X161698Y-101331D01*
X163331Y-100836D01*
X164835Y-100032D01*
X166154Y-98949D01*
X167237Y-97631D01*
X168041Y-96126D01*
X168536Y-94493D01*
X168703Y-92795D01*
Y-90827D01*
X168536Y-89129D01*
X168041Y-87496D01*
X167237Y-85991D01*
X166154Y-84673D01*
X164835Y-83590D01*
X163331Y-82786D01*
X161698Y-82291D01*
X160000Y-82123D01*
D02*
G37*
G36*
X60000Y-58501D02*
X58302Y-58669D01*
X56669Y-59164D01*
X55165Y-59968D01*
X53846Y-61050D01*
X52763Y-62369D01*
X51959Y-63874D01*
X51464Y-65507D01*
X51297Y-67205D01*
Y-69173D01*
X51464Y-70871D01*
X51959Y-72504D01*
X52763Y-74009D01*
X53846Y-75327D01*
X55165Y-76410D01*
X56669Y-77214D01*
X58302Y-77709D01*
X60000Y-77877D01*
X61698Y-77709D01*
X63331Y-77214D01*
X64835Y-76410D01*
X66154Y-75327D01*
X67237Y-74009D01*
X68041Y-72504D01*
X68536Y-70871D01*
X68703Y-69173D01*
Y-67205D01*
X68536Y-65507D01*
X68041Y-63874D01*
X67237Y-62369D01*
X66154Y-61050D01*
X64835Y-59968D01*
X63331Y-59164D01*
X61698Y-58669D01*
X60000Y-58501D01*
D02*
G37*
G36*
X110000D02*
X108302Y-58669D01*
X106669Y-59164D01*
X105165Y-59968D01*
X103846Y-61050D01*
X102763Y-62369D01*
X101959Y-63874D01*
X101464Y-65507D01*
X101297Y-67205D01*
Y-69173D01*
X101464Y-70871D01*
X101959Y-72504D01*
X102763Y-74009D01*
X103846Y-75327D01*
X105165Y-76410D01*
X106669Y-77214D01*
X108302Y-77709D01*
X110000Y-77877D01*
X111698Y-77709D01*
X113331Y-77214D01*
X114835Y-76410D01*
X116154Y-75327D01*
X117237Y-74009D01*
X118041Y-72504D01*
X118536Y-70871D01*
X118703Y-69173D01*
Y-67205D01*
X118536Y-65507D01*
X118041Y-63874D01*
X117237Y-62369D01*
X116154Y-61050D01*
X114835Y-59968D01*
X113331Y-59164D01*
X111698Y-58669D01*
X110000Y-58501D01*
D02*
G37*
G36*
X-40000D02*
X-41698Y-58669D01*
X-43331Y-59164D01*
X-44835Y-59968D01*
X-46154Y-61050D01*
X-47236Y-62369D01*
X-48041Y-63874D01*
X-48536Y-65507D01*
X-48703Y-67205D01*
Y-69173D01*
X-48536Y-70871D01*
X-48041Y-72504D01*
X-47236Y-74009D01*
X-46154Y-75327D01*
X-44835Y-76410D01*
X-43331Y-77214D01*
X-41698Y-77709D01*
X-40000Y-77877D01*
X-38302Y-77709D01*
X-36669Y-77214D01*
X-35165Y-76410D01*
X-33846Y-75327D01*
X-32763Y-74009D01*
X-31959Y-72504D01*
X-31464Y-70871D01*
X-31297Y-69173D01*
Y-67205D01*
X-31464Y-65507D01*
X-31959Y-63874D01*
X-32763Y-62369D01*
X-33846Y-61050D01*
X-35165Y-59968D01*
X-36669Y-59164D01*
X-38302Y-58669D01*
X-40000Y-58501D01*
D02*
G37*
G36*
X10000D02*
X8302Y-58669D01*
X6669Y-59164D01*
X5165Y-59968D01*
X3846Y-61050D01*
X2763Y-62369D01*
X1959Y-63874D01*
X1464Y-65507D01*
X1297Y-67205D01*
Y-69173D01*
X1464Y-70871D01*
X1959Y-72504D01*
X2763Y-74009D01*
X3846Y-75327D01*
X5165Y-76410D01*
X6669Y-77214D01*
X8302Y-77709D01*
X10000Y-77877D01*
X11698Y-77709D01*
X13331Y-77214D01*
X14835Y-76410D01*
X16154Y-75327D01*
X17236Y-74009D01*
X18041Y-72504D01*
X18536Y-70871D01*
X18703Y-69173D01*
Y-67205D01*
X18536Y-65507D01*
X18041Y-63874D01*
X17236Y-62369D01*
X16154Y-61050D01*
X14835Y-59968D01*
X13331Y-59164D01*
X11698Y-58669D01*
X10000Y-58501D01*
D02*
G37*
G36*
X160000D02*
X158302Y-58669D01*
X156669Y-59164D01*
X155165Y-59968D01*
X153846Y-61050D01*
X152763Y-62369D01*
X151959Y-63874D01*
X151464Y-65507D01*
X151297Y-67205D01*
Y-69173D01*
X151464Y-70871D01*
X151959Y-72504D01*
X152763Y-74009D01*
X153846Y-75327D01*
X155165Y-76410D01*
X156669Y-77214D01*
X158302Y-77709D01*
X160000Y-77877D01*
X161698Y-77709D01*
X163331Y-77214D01*
X164835Y-76410D01*
X166154Y-75327D01*
X167237Y-74009D01*
X168041Y-72504D01*
X168536Y-70871D01*
X168703Y-69173D01*
Y-67205D01*
X168536Y-65507D01*
X168041Y-63874D01*
X167237Y-62369D01*
X166154Y-61050D01*
X164835Y-59968D01*
X163331Y-59164D01*
X161698Y-58669D01*
X160000Y-58501D01*
D02*
G37*
G36*
X-76500Y-65830D02*
X-77579Y-65973D01*
X-78585Y-66389D01*
X-79448Y-67052D01*
X-80111Y-67915D01*
X-80527Y-68921D01*
X-80669Y-70000D01*
X-80527Y-71079D01*
X-80111Y-72085D01*
X-79448Y-72948D01*
X-78585Y-73611D01*
X-77579Y-74027D01*
X-76500Y-74169D01*
X-75421Y-74027D01*
X-74415Y-73611D01*
X-73552Y-72948D01*
X-72889Y-72085D01*
X-72473Y-71079D01*
X-72330Y-70000D01*
X-72473Y-68921D01*
X-72889Y-67915D01*
X-73552Y-67052D01*
X-74415Y-66389D01*
X-75421Y-65973D01*
X-76500Y-65830D01*
D02*
G37*
G36*
X-26500D02*
X-27579Y-65973D01*
X-28585Y-66389D01*
X-29448Y-67052D01*
X-30111Y-67915D01*
X-30527Y-68921D01*
X-30670Y-70000D01*
X-30527Y-71079D01*
X-30111Y-72085D01*
X-29448Y-72948D01*
X-28585Y-73611D01*
X-27579Y-74027D01*
X-26500Y-74169D01*
X-25421Y-74027D01*
X-24415Y-73611D01*
X-23552Y-72948D01*
X-22889Y-72085D01*
X-22473Y-71079D01*
X-22331Y-70000D01*
X-22473Y-68921D01*
X-22889Y-67915D01*
X-23552Y-67052D01*
X-24415Y-66389D01*
X-25421Y-65973D01*
X-26500Y-65830D01*
D02*
G37*
G36*
X223441Y-65949D02*
X222362Y-66091D01*
X221356Y-66507D01*
X220493Y-67170D01*
X219830Y-68033D01*
X219413Y-69039D01*
X219271Y-70118D01*
X219413Y-71197D01*
X219830Y-72203D01*
X220493Y-73066D01*
X221356Y-73729D01*
X222362Y-74146D01*
X223441Y-74288D01*
X224520Y-74146D01*
X225526Y-73729D01*
X226389Y-73066D01*
X227052Y-72203D01*
X227468Y-71197D01*
X227610Y-70118D01*
X227468Y-69039D01*
X227052Y-68033D01*
X226389Y-67170D01*
X225526Y-66507D01*
X224520Y-66091D01*
X223441Y-65949D01*
D02*
G37*
G36*
X-126500Y-65830D02*
X-127579Y-65973D01*
X-128585Y-66389D01*
X-129448Y-67052D01*
X-130111Y-67915D01*
X-130527Y-68921D01*
X-130669Y-70000D01*
X-130527Y-71079D01*
X-130111Y-72085D01*
X-129448Y-72948D01*
X-128585Y-73611D01*
X-127579Y-74027D01*
X-126500Y-74169D01*
X-125421Y-74027D01*
X-124415Y-73611D01*
X-123552Y-72948D01*
X-122889Y-72085D01*
X-122473Y-71079D01*
X-122330Y-70000D01*
X-122473Y-68921D01*
X-122889Y-67915D01*
X-123552Y-67052D01*
X-124415Y-66389D01*
X-125421Y-65973D01*
X-126500Y-65830D01*
D02*
G37*
G36*
X-26500Y-75831D02*
X-27579Y-75973D01*
X-28585Y-76389D01*
X-29448Y-77052D01*
X-30111Y-77915D01*
X-30527Y-78921D01*
X-30670Y-80000D01*
X-30527Y-81079D01*
X-30111Y-82085D01*
X-29448Y-82948D01*
X-28585Y-83611D01*
X-27579Y-84027D01*
X-26500Y-84170D01*
X-25421Y-84027D01*
X-24415Y-83611D01*
X-23552Y-82948D01*
X-22889Y-82085D01*
X-22473Y-81079D01*
X-22331Y-80000D01*
X-22473Y-78921D01*
X-22889Y-77915D01*
X-23552Y-77052D01*
X-24415Y-76389D01*
X-25421Y-75973D01*
X-26500Y-75831D01*
D02*
G37*
G36*
X23500D02*
X22421Y-75973D01*
X21415Y-76389D01*
X20552Y-77052D01*
X19889Y-77915D01*
X19473Y-78921D01*
X19331Y-80000D01*
X19473Y-81079D01*
X19889Y-82085D01*
X20552Y-82948D01*
X21415Y-83611D01*
X22421Y-84027D01*
X23500Y-84170D01*
X24579Y-84027D01*
X25585Y-83611D01*
X26448Y-82948D01*
X27111Y-82085D01*
X27527Y-81079D01*
X27670Y-80000D01*
X27527Y-78921D01*
X27111Y-77915D01*
X26448Y-77052D01*
X25585Y-76389D01*
X24579Y-75973D01*
X23500Y-75831D01*
D02*
G37*
G36*
X-126500D02*
X-127579Y-75973D01*
X-128585Y-76389D01*
X-129448Y-77052D01*
X-130111Y-77915D01*
X-130527Y-78921D01*
X-130669Y-80000D01*
X-130527Y-81079D01*
X-130111Y-82085D01*
X-129448Y-82948D01*
X-128585Y-83611D01*
X-127579Y-84027D01*
X-126500Y-84170D01*
X-125421Y-84027D01*
X-124415Y-83611D01*
X-123552Y-82948D01*
X-122889Y-82085D01*
X-122473Y-81079D01*
X-122330Y-80000D01*
X-122473Y-78921D01*
X-122889Y-77915D01*
X-123552Y-77052D01*
X-124415Y-76389D01*
X-125421Y-75973D01*
X-126500Y-75831D01*
D02*
G37*
G36*
X-76500D02*
X-77579Y-75973D01*
X-78585Y-76389D01*
X-79448Y-77052D01*
X-80111Y-77915D01*
X-80527Y-78921D01*
X-80669Y-80000D01*
X-80527Y-81079D01*
X-80111Y-82085D01*
X-79448Y-82948D01*
X-78585Y-83611D01*
X-77579Y-84027D01*
X-76500Y-84170D01*
X-75421Y-84027D01*
X-74415Y-83611D01*
X-73552Y-82948D01*
X-72889Y-82085D01*
X-72473Y-81079D01*
X-72330Y-80000D01*
X-72473Y-78921D01*
X-72889Y-77915D01*
X-73552Y-77052D01*
X-74415Y-76389D01*
X-75421Y-75973D01*
X-76500Y-75831D01*
D02*
G37*
G36*
X73500D02*
X72421Y-75973D01*
X71415Y-76389D01*
X70552Y-77052D01*
X69889Y-77915D01*
X69473Y-78921D01*
X69331Y-80000D01*
X69473Y-81079D01*
X69889Y-82085D01*
X70552Y-82948D01*
X71415Y-83611D01*
X72421Y-84027D01*
X73500Y-84170D01*
X74579Y-84027D01*
X75585Y-83611D01*
X76448Y-82948D01*
X77111Y-82085D01*
X77527Y-81079D01*
X77670Y-80000D01*
X77527Y-78921D01*
X77111Y-77915D01*
X76448Y-77052D01*
X75585Y-76389D01*
X74579Y-75973D01*
X73500Y-75831D01*
D02*
G37*
G36*
X209941Y-58619D02*
X208243Y-58787D01*
X206610Y-59282D01*
X205106Y-60086D01*
X203787Y-61169D01*
X202704Y-62488D01*
X201900Y-63992D01*
X201405Y-65625D01*
X201238Y-67323D01*
Y-69291D01*
X201405Y-70989D01*
X201900Y-72622D01*
X202704Y-74127D01*
X203787Y-75445D01*
X205106Y-76528D01*
X206610Y-77332D01*
X208243Y-77827D01*
X209941Y-77995D01*
X211639Y-77827D01*
X213272Y-77332D01*
X214776Y-76528D01*
X216095Y-75445D01*
X217178Y-74127D01*
X217982Y-72622D01*
X218477Y-70989D01*
X218644Y-69291D01*
Y-67323D01*
X218477Y-65625D01*
X217982Y-63992D01*
X217178Y-62488D01*
X216095Y-61169D01*
X214776Y-60086D01*
X213272Y-59282D01*
X211639Y-58787D01*
X209941Y-58619D01*
D02*
G37*
G36*
X-90000Y-58501D02*
X-91698Y-58669D01*
X-93331Y-59164D01*
X-94835Y-59968D01*
X-96154Y-61050D01*
X-97237Y-62369D01*
X-98041Y-63874D01*
X-98536Y-65507D01*
X-98703Y-67205D01*
Y-69173D01*
X-98536Y-70871D01*
X-98041Y-72504D01*
X-97237Y-74009D01*
X-96154Y-75327D01*
X-94835Y-76410D01*
X-93331Y-77214D01*
X-91698Y-77709D01*
X-90000Y-77877D01*
X-88302Y-77709D01*
X-86669Y-77214D01*
X-85165Y-76410D01*
X-83846Y-75327D01*
X-82763Y-74009D01*
X-81959Y-72504D01*
X-81464Y-70871D01*
X-81297Y-69173D01*
Y-67205D01*
X-81464Y-65507D01*
X-81959Y-63874D01*
X-82763Y-62369D01*
X-83846Y-61050D01*
X-85165Y-59968D01*
X-86669Y-59164D01*
X-88302Y-58669D01*
X-90000Y-58501D01*
D02*
G37*
G36*
X123500Y-75831D02*
X122421Y-75973D01*
X121415Y-76389D01*
X120552Y-77052D01*
X119889Y-77915D01*
X119473Y-78921D01*
X119331Y-80000D01*
X119473Y-81079D01*
X119889Y-82085D01*
X120552Y-82948D01*
X121415Y-83611D01*
X122421Y-84027D01*
X123500Y-84170D01*
X124579Y-84027D01*
X125585Y-83611D01*
X126448Y-82948D01*
X127111Y-82085D01*
X127527Y-81079D01*
X127670Y-80000D01*
X127527Y-78921D01*
X127111Y-77915D01*
X126448Y-77052D01*
X125585Y-76389D01*
X124579Y-75973D01*
X123500Y-75831D01*
D02*
G37*
G36*
X173500D02*
X172421Y-75973D01*
X171415Y-76389D01*
X170552Y-77052D01*
X169889Y-77915D01*
X169473Y-78921D01*
X169331Y-80000D01*
X169473Y-81079D01*
X169889Y-82085D01*
X170552Y-82948D01*
X171415Y-83611D01*
X172421Y-84027D01*
X173500Y-84170D01*
X174579Y-84027D01*
X175585Y-83611D01*
X176448Y-82948D01*
X177111Y-82085D01*
X177527Y-81079D01*
X177670Y-80000D01*
X177527Y-78921D01*
X177111Y-77915D01*
X176448Y-77052D01*
X175585Y-76389D01*
X174579Y-75973D01*
X173500Y-75831D01*
D02*
G37*
G36*
X123500Y114170D02*
X122421Y114027D01*
X121415Y113611D01*
X120552Y112948D01*
X119889Y112085D01*
X119473Y111079D01*
X119331Y110000D01*
X119473Y108921D01*
X119889Y107915D01*
X120552Y107052D01*
X121415Y106389D01*
X122421Y105973D01*
X123500Y105831D01*
X124579Y105973D01*
X125585Y106389D01*
X126448Y107052D01*
X127111Y107915D01*
X127527Y108921D01*
X127670Y110000D01*
X127527Y111079D01*
X127111Y112085D01*
X126448Y112948D01*
X125585Y113611D01*
X124579Y114027D01*
X123500Y114170D01*
D02*
G37*
G36*
X173500D02*
X172421Y114027D01*
X171415Y113611D01*
X170552Y112948D01*
X169889Y112085D01*
X169473Y111079D01*
X169331Y110000D01*
X169473Y108921D01*
X169889Y107915D01*
X170552Y107052D01*
X171415Y106389D01*
X172421Y105973D01*
X173500Y105831D01*
X174579Y105973D01*
X175585Y106389D01*
X176448Y107052D01*
X177111Y107915D01*
X177527Y108921D01*
X177670Y110000D01*
X177527Y111079D01*
X177111Y112085D01*
X176448Y112948D01*
X175585Y113611D01*
X174579Y114027D01*
X173500Y114170D01*
D02*
G37*
G36*
X23500D02*
X22421Y114027D01*
X21415Y113611D01*
X20552Y112948D01*
X19889Y112085D01*
X19473Y111079D01*
X19331Y110000D01*
X19473Y108921D01*
X19889Y107915D01*
X20552Y107052D01*
X21415Y106389D01*
X22421Y105973D01*
X23500Y105831D01*
X24579Y105973D01*
X25585Y106389D01*
X26448Y107052D01*
X27111Y107915D01*
X27527Y108921D01*
X27670Y110000D01*
X27527Y111079D01*
X27111Y112085D01*
X26448Y112948D01*
X25585Y113611D01*
X24579Y114027D01*
X23500Y114170D01*
D02*
G37*
G36*
X73500D02*
X72421Y114027D01*
X71415Y113611D01*
X70552Y112948D01*
X69889Y112085D01*
X69473Y111079D01*
X69331Y110000D01*
X69473Y108921D01*
X69889Y107915D01*
X70552Y107052D01*
X71415Y106389D01*
X72421Y105973D01*
X73500Y105831D01*
X74579Y105973D01*
X75585Y106389D01*
X76448Y107052D01*
X77111Y107915D01*
X77527Y108921D01*
X77670Y110000D01*
X77527Y111079D01*
X77111Y112085D01*
X76448Y112948D01*
X75585Y113611D01*
X74579Y114027D01*
X73500Y114170D01*
D02*
G37*
G36*
X223500D02*
X222421Y114027D01*
X221415Y113611D01*
X220552Y112948D01*
X219889Y112085D01*
X219473Y111079D01*
X219331Y110000D01*
X219473Y108921D01*
X219889Y107915D01*
X220552Y107052D01*
X221415Y106389D01*
X222421Y105973D01*
X223500Y105831D01*
X224579Y105973D01*
X225585Y106389D01*
X226448Y107052D01*
X227111Y107915D01*
X227527Y108921D01*
X227670Y110000D01*
X227527Y111079D01*
X227111Y112085D01*
X226448Y112948D01*
X225585Y113611D01*
X224579Y114027D01*
X223500Y114170D01*
D02*
G37*
G36*
X-26500Y124170D02*
X-27579Y124027D01*
X-28585Y123611D01*
X-29448Y122948D01*
X-30111Y122085D01*
X-30527Y121079D01*
X-30670Y120000D01*
X-30527Y118921D01*
X-30111Y117915D01*
X-29448Y117052D01*
X-28585Y116389D01*
X-27579Y115973D01*
X-26500Y115831D01*
X-25421Y115973D01*
X-24415Y116389D01*
X-23552Y117052D01*
X-22889Y117915D01*
X-22473Y118921D01*
X-22331Y120000D01*
X-22473Y121079D01*
X-22889Y122085D01*
X-23552Y122948D01*
X-24415Y123611D01*
X-25421Y124027D01*
X-26500Y124170D01*
D02*
G37*
G36*
X23500D02*
X22421Y124027D01*
X21415Y123611D01*
X20552Y122948D01*
X19889Y122085D01*
X19473Y121079D01*
X19331Y120000D01*
X19473Y118921D01*
X19889Y117915D01*
X20552Y117052D01*
X21415Y116389D01*
X22421Y115973D01*
X23500Y115831D01*
X24579Y115973D01*
X25585Y116389D01*
X26448Y117052D01*
X27111Y117915D01*
X27527Y118921D01*
X27670Y120000D01*
X27527Y121079D01*
X27111Y122085D01*
X26448Y122948D01*
X25585Y123611D01*
X24579Y124027D01*
X23500Y124170D01*
D02*
G37*
G36*
X-126500D02*
X-127579Y124027D01*
X-128585Y123611D01*
X-129448Y122948D01*
X-130111Y122085D01*
X-130527Y121079D01*
X-130669Y120000D01*
X-130527Y118921D01*
X-130111Y117915D01*
X-129448Y117052D01*
X-128585Y116389D01*
X-127579Y115973D01*
X-126500Y115831D01*
X-125421Y115973D01*
X-124415Y116389D01*
X-123552Y117052D01*
X-122889Y117915D01*
X-122473Y118921D01*
X-122330Y120000D01*
X-122473Y121079D01*
X-122889Y122085D01*
X-123552Y122948D01*
X-124415Y123611D01*
X-125421Y124027D01*
X-126500Y124170D01*
D02*
G37*
G36*
X-76500D02*
X-77579Y124027D01*
X-78585Y123611D01*
X-79448Y122948D01*
X-80111Y122085D01*
X-80527Y121079D01*
X-80669Y120000D01*
X-80527Y118921D01*
X-80111Y117915D01*
X-79448Y117052D01*
X-78585Y116389D01*
X-77579Y115973D01*
X-76500Y115831D01*
X-75421Y115973D01*
X-74415Y116389D01*
X-73552Y117052D01*
X-72889Y117915D01*
X-72473Y118921D01*
X-72330Y120000D01*
X-72473Y121079D01*
X-72889Y122085D01*
X-73552Y122948D01*
X-74415Y123611D01*
X-75421Y124027D01*
X-76500Y124170D01*
D02*
G37*
G36*
X-26500Y114170D02*
X-27579Y114027D01*
X-28585Y113611D01*
X-29448Y112948D01*
X-30111Y112085D01*
X-30527Y111079D01*
X-30670Y110000D01*
X-30527Y108921D01*
X-30111Y107915D01*
X-29448Y107052D01*
X-28585Y106389D01*
X-27579Y105973D01*
X-26500Y105831D01*
X-25421Y105973D01*
X-24415Y106389D01*
X-23552Y107052D01*
X-22889Y107915D01*
X-22473Y108921D01*
X-22331Y110000D01*
X-22473Y111079D01*
X-22889Y112085D01*
X-23552Y112948D01*
X-24415Y113611D01*
X-25421Y114027D01*
X-26500Y114170D01*
D02*
G37*
G36*
X10000Y117877D02*
X8302Y117709D01*
X6669Y117214D01*
X5165Y116410D01*
X3846Y115327D01*
X2763Y114008D01*
X1959Y112504D01*
X1464Y110871D01*
X1297Y109173D01*
Y107205D01*
X1464Y105507D01*
X1959Y103874D01*
X2763Y102369D01*
X3846Y101050D01*
X5165Y99968D01*
X6669Y99164D01*
X8302Y98669D01*
X10000Y98501D01*
X11698Y98669D01*
X13331Y99164D01*
X14835Y99968D01*
X16154Y101050D01*
X17236Y102369D01*
X18041Y103874D01*
X18536Y105507D01*
X18703Y107205D01*
Y109173D01*
X18536Y110871D01*
X18041Y112504D01*
X17236Y114008D01*
X16154Y115327D01*
X14835Y116410D01*
X13331Y117214D01*
X11698Y117709D01*
X10000Y117877D01*
D02*
G37*
G36*
X60000D02*
X58302Y117709D01*
X56669Y117214D01*
X55165Y116410D01*
X53846Y115327D01*
X52763Y114008D01*
X51959Y112504D01*
X51464Y110871D01*
X51297Y109173D01*
Y107205D01*
X51464Y105507D01*
X51959Y103874D01*
X52763Y102369D01*
X53846Y101050D01*
X55165Y99968D01*
X56669Y99164D01*
X58302Y98669D01*
X60000Y98501D01*
X61698Y98669D01*
X63331Y99164D01*
X64835Y99968D01*
X66154Y101050D01*
X67237Y102369D01*
X68041Y103874D01*
X68536Y105507D01*
X68703Y107205D01*
Y109173D01*
X68536Y110871D01*
X68041Y112504D01*
X67237Y114008D01*
X66154Y115327D01*
X64835Y116410D01*
X63331Y117214D01*
X61698Y117709D01*
X60000Y117877D01*
D02*
G37*
G36*
X-90000D02*
X-91698Y117709D01*
X-93331Y117214D01*
X-94835Y116410D01*
X-96154Y115327D01*
X-97237Y114008D01*
X-98041Y112504D01*
X-98536Y110871D01*
X-98703Y109173D01*
Y107205D01*
X-98536Y105507D01*
X-98041Y103874D01*
X-97237Y102369D01*
X-96154Y101050D01*
X-94835Y99968D01*
X-93331Y99164D01*
X-91698Y98669D01*
X-90000Y98501D01*
X-88302Y98669D01*
X-86669Y99164D01*
X-85165Y99968D01*
X-83846Y101050D01*
X-82763Y102369D01*
X-81959Y103874D01*
X-81464Y105507D01*
X-81297Y107205D01*
Y109173D01*
X-81464Y110871D01*
X-81959Y112504D01*
X-82763Y114008D01*
X-83846Y115327D01*
X-85165Y116410D01*
X-86669Y117214D01*
X-88302Y117709D01*
X-90000Y117877D01*
D02*
G37*
G36*
X-40000D02*
X-41698Y117709D01*
X-43331Y117214D01*
X-44835Y116410D01*
X-46154Y115327D01*
X-47236Y114008D01*
X-48041Y112504D01*
X-48536Y110871D01*
X-48703Y109173D01*
Y107205D01*
X-48536Y105507D01*
X-48041Y103874D01*
X-47236Y102369D01*
X-46154Y101050D01*
X-44835Y99968D01*
X-43331Y99164D01*
X-41698Y98669D01*
X-40000Y98501D01*
X-38302Y98669D01*
X-36669Y99164D01*
X-35165Y99968D01*
X-33846Y101050D01*
X-32763Y102369D01*
X-31959Y103874D01*
X-31464Y105507D01*
X-31297Y107205D01*
Y109173D01*
X-31464Y110871D01*
X-31959Y112504D01*
X-32763Y114008D01*
X-33846Y115327D01*
X-35165Y116410D01*
X-36669Y117214D01*
X-38302Y117709D01*
X-40000Y117877D01*
D02*
G37*
G36*
X110000D02*
X108302Y117709D01*
X106669Y117214D01*
X105165Y116410D01*
X103846Y115327D01*
X102763Y114008D01*
X101959Y112504D01*
X101464Y110871D01*
X101297Y109173D01*
Y107205D01*
X101464Y105507D01*
X101959Y103874D01*
X102763Y102369D01*
X103846Y101050D01*
X105165Y99968D01*
X106669Y99164D01*
X108302Y98669D01*
X110000Y98501D01*
X111698Y98669D01*
X113331Y99164D01*
X114835Y99968D01*
X116154Y101050D01*
X117237Y102369D01*
X118041Y103874D01*
X118536Y105507D01*
X118703Y107205D01*
Y109173D01*
X118536Y110871D01*
X118041Y112504D01*
X117237Y114008D01*
X116154Y115327D01*
X114835Y116410D01*
X113331Y117214D01*
X111698Y117709D01*
X110000Y117877D01*
D02*
G37*
G36*
X-126500Y114170D02*
X-127579Y114027D01*
X-128585Y113611D01*
X-129448Y112948D01*
X-130111Y112085D01*
X-130527Y111079D01*
X-130669Y110000D01*
X-130527Y108921D01*
X-130111Y107915D01*
X-129448Y107052D01*
X-128585Y106389D01*
X-127579Y105973D01*
X-126500Y105831D01*
X-125421Y105973D01*
X-124415Y106389D01*
X-123552Y107052D01*
X-122889Y107915D01*
X-122473Y108921D01*
X-122330Y110000D01*
X-122473Y111079D01*
X-122889Y112085D01*
X-123552Y112948D01*
X-124415Y113611D01*
X-125421Y114027D01*
X-126500Y114170D01*
D02*
G37*
G36*
X-76500D02*
X-77579Y114027D01*
X-78585Y113611D01*
X-79448Y112948D01*
X-80111Y112085D01*
X-80527Y111079D01*
X-80669Y110000D01*
X-80527Y108921D01*
X-80111Y107915D01*
X-79448Y107052D01*
X-78585Y106389D01*
X-77579Y105973D01*
X-76500Y105831D01*
X-75421Y105973D01*
X-74415Y106389D01*
X-73552Y107052D01*
X-72889Y107915D01*
X-72473Y108921D01*
X-72330Y110000D01*
X-72473Y111079D01*
X-72889Y112085D01*
X-73552Y112948D01*
X-74415Y113611D01*
X-75421Y114027D01*
X-76500Y114170D01*
D02*
G37*
G36*
X160000Y117877D02*
X158302Y117709D01*
X156669Y117214D01*
X155165Y116410D01*
X153846Y115327D01*
X152763Y114008D01*
X151959Y112504D01*
X151464Y110871D01*
X151297Y109173D01*
Y107205D01*
X151464Y105507D01*
X151959Y103874D01*
X152763Y102369D01*
X153846Y101050D01*
X155165Y99968D01*
X156669Y99164D01*
X158302Y98669D01*
X160000Y98501D01*
X161698Y98669D01*
X163331Y99164D01*
X164835Y99968D01*
X166154Y101050D01*
X167237Y102369D01*
X168041Y103874D01*
X168536Y105507D01*
X168703Y107205D01*
Y109173D01*
X168536Y110871D01*
X168041Y112504D01*
X167237Y114008D01*
X166154Y115327D01*
X164835Y116410D01*
X163331Y117214D01*
X161698Y117709D01*
X160000Y117877D01*
D02*
G37*
G36*
X210000D02*
X208302Y117709D01*
X206669Y117214D01*
X205165Y116410D01*
X203846Y115327D01*
X202763Y114008D01*
X201959Y112504D01*
X201464Y110871D01*
X201297Y109173D01*
Y107205D01*
X201464Y105507D01*
X201959Y103874D01*
X202763Y102369D01*
X203846Y101050D01*
X205165Y99968D01*
X206669Y99164D01*
X208302Y98669D01*
X210000Y98501D01*
X211698Y98669D01*
X213331Y99164D01*
X214835Y99968D01*
X216154Y101050D01*
X217236Y102369D01*
X218041Y103874D01*
X218536Y105507D01*
X218703Y107205D01*
Y109173D01*
X218536Y110871D01*
X218041Y112504D01*
X217236Y114008D01*
X216154Y115327D01*
X214835Y116410D01*
X213331Y117214D01*
X211698Y117709D01*
X210000Y117877D01*
D02*
G37*
G36*
X73500Y124170D02*
X72421Y124027D01*
X71415Y123611D01*
X70552Y122948D01*
X69889Y122085D01*
X69473Y121079D01*
X69331Y120000D01*
X69473Y118921D01*
X69889Y117915D01*
X70552Y117052D01*
X71415Y116389D01*
X72421Y115973D01*
X73500Y115831D01*
X74579Y115973D01*
X75585Y116389D01*
X76448Y117052D01*
X77111Y117915D01*
X77527Y118921D01*
X77670Y120000D01*
X77527Y121079D01*
X77111Y122085D01*
X76448Y122948D01*
X75585Y123611D01*
X74579Y124027D01*
X73500Y124170D01*
D02*
G37*
G36*
X-26500Y134169D02*
X-27579Y134027D01*
X-28585Y133611D01*
X-29448Y132948D01*
X-30111Y132085D01*
X-30527Y131079D01*
X-30670Y130000D01*
X-30527Y128921D01*
X-30111Y127915D01*
X-29448Y127052D01*
X-28585Y126389D01*
X-27579Y125973D01*
X-26500Y125830D01*
X-25421Y125973D01*
X-24415Y126389D01*
X-23552Y127052D01*
X-22889Y127915D01*
X-22473Y128921D01*
X-22331Y130000D01*
X-22473Y131079D01*
X-22889Y132085D01*
X-23552Y132948D01*
X-24415Y133611D01*
X-25421Y134027D01*
X-26500Y134169D01*
D02*
G37*
G36*
X23500D02*
X22421Y134027D01*
X21415Y133611D01*
X20552Y132948D01*
X19889Y132085D01*
X19473Y131079D01*
X19331Y130000D01*
X19473Y128921D01*
X19889Y127915D01*
X20552Y127052D01*
X21415Y126389D01*
X22421Y125973D01*
X23500Y125830D01*
X24579Y125973D01*
X25585Y126389D01*
X26448Y127052D01*
X27111Y127915D01*
X27527Y128921D01*
X27670Y130000D01*
X27527Y131079D01*
X27111Y132085D01*
X26448Y132948D01*
X25585Y133611D01*
X24579Y134027D01*
X23500Y134169D01*
D02*
G37*
G36*
X-126500D02*
X-127579Y134027D01*
X-128585Y133611D01*
X-129448Y132948D01*
X-130111Y132085D01*
X-130527Y131079D01*
X-130669Y130000D01*
X-130527Y128921D01*
X-130111Y127915D01*
X-129448Y127052D01*
X-128585Y126389D01*
X-127579Y125973D01*
X-126500Y125830D01*
X-125421Y125973D01*
X-124415Y126389D01*
X-123552Y127052D01*
X-122889Y127915D01*
X-122473Y128921D01*
X-122330Y130000D01*
X-122473Y131079D01*
X-122889Y132085D01*
X-123552Y132948D01*
X-124415Y133611D01*
X-125421Y134027D01*
X-126500Y134169D01*
D02*
G37*
G36*
X-76500D02*
X-77579Y134027D01*
X-78585Y133611D01*
X-79448Y132948D01*
X-80111Y132085D01*
X-80527Y131079D01*
X-80669Y130000D01*
X-80527Y128921D01*
X-80111Y127915D01*
X-79448Y127052D01*
X-78585Y126389D01*
X-77579Y125973D01*
X-76500Y125830D01*
X-75421Y125973D01*
X-74415Y126389D01*
X-73552Y127052D01*
X-72889Y127915D01*
X-72473Y128921D01*
X-72330Y130000D01*
X-72473Y131079D01*
X-72889Y132085D01*
X-73552Y132948D01*
X-74415Y133611D01*
X-75421Y134027D01*
X-76500Y134169D01*
D02*
G37*
G36*
X73500D02*
X72421Y134027D01*
X71415Y133611D01*
X70552Y132948D01*
X69889Y132085D01*
X69473Y131079D01*
X69331Y130000D01*
X69473Y128921D01*
X69889Y127915D01*
X70552Y127052D01*
X71415Y126389D01*
X72421Y125973D01*
X73500Y125830D01*
X74579Y125973D01*
X75585Y126389D01*
X76448Y127052D01*
X77111Y127915D01*
X77527Y128921D01*
X77670Y130000D01*
X77527Y131079D01*
X77111Y132085D01*
X76448Y132948D01*
X75585Y133611D01*
X74579Y134027D01*
X73500Y134169D01*
D02*
G37*
G36*
X223500D02*
X222421Y134027D01*
X221415Y133611D01*
X220552Y132948D01*
X219889Y132085D01*
X219473Y131079D01*
X219331Y130000D01*
X219473Y128921D01*
X219889Y127915D01*
X220552Y127052D01*
X221415Y126389D01*
X222421Y125973D01*
X223500Y125830D01*
X224579Y125973D01*
X225585Y126389D01*
X226448Y127052D01*
X227111Y127915D01*
X227527Y128921D01*
X227670Y130000D01*
X227527Y131079D01*
X227111Y132085D01*
X226448Y132948D01*
X225585Y133611D01*
X224579Y134027D01*
X223500Y134169D01*
D02*
G37*
G36*
X194654Y149745D02*
X174575D01*
Y143052D01*
X191176D01*
Y142856D01*
X194851D01*
Y148367D01*
X194654D01*
Y149745D01*
D02*
G37*
G36*
X123500Y134169D02*
X122421Y134027D01*
X121415Y133611D01*
X120552Y132948D01*
X119889Y132085D01*
X119473Y131079D01*
X119331Y130000D01*
X119473Y128921D01*
X119889Y127915D01*
X120552Y127052D01*
X121415Y126389D01*
X122421Y125973D01*
X123500Y125830D01*
X124579Y125973D01*
X125585Y126389D01*
X126448Y127052D01*
X127111Y127915D01*
X127527Y128921D01*
X127670Y130000D01*
X127527Y131079D01*
X127111Y132085D01*
X126448Y132948D01*
X125585Y133611D01*
X124579Y134027D01*
X123500Y134169D01*
D02*
G37*
G36*
X173500D02*
X172421Y134027D01*
X171415Y133611D01*
X170552Y132948D01*
X169889Y132085D01*
X169473Y131079D01*
X169331Y130000D01*
X169473Y128921D01*
X169889Y127915D01*
X170552Y127052D01*
X171415Y126389D01*
X172421Y125973D01*
X173500Y125830D01*
X174579Y125973D01*
X175585Y126389D01*
X176448Y127052D01*
X177111Y127915D01*
X177527Y128921D01*
X177670Y130000D01*
X177527Y131079D01*
X177111Y132085D01*
X176448Y132948D01*
X175585Y133611D01*
X174579Y134027D01*
X173500Y134169D01*
D02*
G37*
G36*
X210000Y141499D02*
X208302Y141331D01*
X206669Y140836D01*
X205165Y140032D01*
X203846Y138950D01*
X202763Y137631D01*
X201959Y136126D01*
X201464Y134493D01*
X201297Y132795D01*
Y130827D01*
X201464Y129129D01*
X201959Y127496D01*
X202763Y125991D01*
X203846Y124673D01*
X205165Y123590D01*
X206669Y122786D01*
X208302Y122291D01*
X210000Y122123D01*
X211698Y122291D01*
X213331Y122786D01*
X214835Y123590D01*
X216154Y124673D01*
X217236Y125991D01*
X218041Y127496D01*
X218536Y129129D01*
X218703Y130827D01*
Y132795D01*
X218536Y134493D01*
X218041Y136126D01*
X217236Y137631D01*
X216154Y138950D01*
X214835Y140032D01*
X213331Y140836D01*
X211698Y141331D01*
X210000Y141499D01*
D02*
G37*
G36*
X223500Y124170D02*
X222421Y124027D01*
X221415Y123611D01*
X220552Y122948D01*
X219889Y122085D01*
X219473Y121079D01*
X219331Y120000D01*
X219473Y118921D01*
X219889Y117915D01*
X220552Y117052D01*
X221415Y116389D01*
X222421Y115973D01*
X223500Y115831D01*
X224579Y115973D01*
X225585Y116389D01*
X226448Y117052D01*
X227111Y117915D01*
X227527Y118921D01*
X227670Y120000D01*
X227527Y121079D01*
X227111Y122085D01*
X226448Y122948D01*
X225585Y123611D01*
X224579Y124027D01*
X223500Y124170D01*
D02*
G37*
G36*
X-90000Y141499D02*
X-91698Y141331D01*
X-93331Y140836D01*
X-94835Y140032D01*
X-96154Y138950D01*
X-97237Y137631D01*
X-98041Y136126D01*
X-98536Y134493D01*
X-98703Y132795D01*
Y130827D01*
X-98536Y129129D01*
X-98041Y127496D01*
X-97237Y125991D01*
X-96154Y124673D01*
X-94835Y123590D01*
X-93331Y122786D01*
X-91698Y122291D01*
X-90000Y122123D01*
X-88302Y122291D01*
X-86669Y122786D01*
X-85165Y123590D01*
X-83846Y124673D01*
X-82763Y125991D01*
X-81959Y127496D01*
X-81464Y129129D01*
X-81297Y130827D01*
Y132795D01*
X-81464Y134493D01*
X-81959Y136126D01*
X-82763Y137631D01*
X-83846Y138950D01*
X-85165Y140032D01*
X-86669Y140836D01*
X-88302Y141331D01*
X-90000Y141499D01*
D02*
G37*
G36*
X123500Y124170D02*
X122421Y124027D01*
X121415Y123611D01*
X120552Y122948D01*
X119889Y122085D01*
X119473Y121079D01*
X119331Y120000D01*
X119473Y118921D01*
X119889Y117915D01*
X120552Y117052D01*
X121415Y116389D01*
X122421Y115973D01*
X123500Y115831D01*
X124579Y115973D01*
X125585Y116389D01*
X126448Y117052D01*
X127111Y117915D01*
X127527Y118921D01*
X127670Y120000D01*
X127527Y121079D01*
X127111Y122085D01*
X126448Y122948D01*
X125585Y123611D01*
X124579Y124027D01*
X123500Y124170D01*
D02*
G37*
G36*
X173500D02*
X172421Y124027D01*
X171415Y123611D01*
X170552Y122948D01*
X169889Y122085D01*
X169473Y121079D01*
X169331Y120000D01*
X169473Y118921D01*
X169889Y117915D01*
X170552Y117052D01*
X171415Y116389D01*
X172421Y115973D01*
X173500Y115831D01*
X174579Y115973D01*
X175585Y116389D01*
X176448Y117052D01*
X177111Y117915D01*
X177527Y118921D01*
X177670Y120000D01*
X177527Y121079D01*
X177111Y122085D01*
X176448Y122948D01*
X175585Y123611D01*
X174579Y124027D01*
X173500Y124170D01*
D02*
G37*
G36*
X-40000Y141499D02*
X-41698Y141331D01*
X-43331Y140836D01*
X-44835Y140032D01*
X-46154Y138950D01*
X-47236Y137631D01*
X-48041Y136126D01*
X-48536Y134493D01*
X-48703Y132795D01*
Y130827D01*
X-48536Y129129D01*
X-48041Y127496D01*
X-47236Y125991D01*
X-46154Y124673D01*
X-44835Y123590D01*
X-43331Y122786D01*
X-41698Y122291D01*
X-40000Y122123D01*
X-38302Y122291D01*
X-36669Y122786D01*
X-35165Y123590D01*
X-33846Y124673D01*
X-32763Y125991D01*
X-31959Y127496D01*
X-31464Y129129D01*
X-31297Y130827D01*
Y132795D01*
X-31464Y134493D01*
X-31959Y136126D01*
X-32763Y137631D01*
X-33846Y138950D01*
X-35165Y140032D01*
X-36669Y140836D01*
X-38302Y141331D01*
X-40000Y141499D01*
D02*
G37*
G36*
X110000D02*
X108302Y141331D01*
X106669Y140836D01*
X105165Y140032D01*
X103846Y138950D01*
X102763Y137631D01*
X101959Y136126D01*
X101464Y134493D01*
X101297Y132795D01*
Y130827D01*
X101464Y129129D01*
X101959Y127496D01*
X102763Y125991D01*
X103846Y124673D01*
X105165Y123590D01*
X106669Y122786D01*
X108302Y122291D01*
X110000Y122123D01*
X111698Y122291D01*
X113331Y122786D01*
X114835Y123590D01*
X116154Y124673D01*
X117237Y125991D01*
X118041Y127496D01*
X118536Y129129D01*
X118703Y130827D01*
Y132795D01*
X118536Y134493D01*
X118041Y136126D01*
X117237Y137631D01*
X116154Y138950D01*
X114835Y140032D01*
X113331Y140836D01*
X111698Y141331D01*
X110000Y141499D01*
D02*
G37*
G36*
X160000D02*
X158302Y141331D01*
X156669Y140836D01*
X155165Y140032D01*
X153846Y138950D01*
X152763Y137631D01*
X151959Y136126D01*
X151464Y134493D01*
X151297Y132795D01*
Y130827D01*
X151464Y129129D01*
X151959Y127496D01*
X152763Y125991D01*
X153846Y124673D01*
X155165Y123590D01*
X156669Y122786D01*
X158302Y122291D01*
X160000Y122123D01*
X161698Y122291D01*
X163331Y122786D01*
X164835Y123590D01*
X166154Y124673D01*
X167237Y125991D01*
X168041Y127496D01*
X168536Y129129D01*
X168703Y130827D01*
Y132795D01*
X168536Y134493D01*
X168041Y136126D01*
X167237Y137631D01*
X166154Y138950D01*
X164835Y140032D01*
X163331Y140836D01*
X161698Y141331D01*
X160000Y141499D01*
D02*
G37*
G36*
X10000D02*
X8302Y141331D01*
X6669Y140836D01*
X5165Y140032D01*
X3846Y138950D01*
X2763Y137631D01*
X1959Y136126D01*
X1464Y134493D01*
X1297Y132795D01*
Y130827D01*
X1464Y129129D01*
X1959Y127496D01*
X2763Y125991D01*
X3846Y124673D01*
X5165Y123590D01*
X6669Y122786D01*
X8302Y122291D01*
X10000Y122123D01*
X11698Y122291D01*
X13331Y122786D01*
X14835Y123590D01*
X16154Y124673D01*
X17236Y125991D01*
X18041Y127496D01*
X18536Y129129D01*
X18703Y130827D01*
Y132795D01*
X18536Y134493D01*
X18041Y136126D01*
X17236Y137631D01*
X16154Y138950D01*
X14835Y140032D01*
X13331Y140836D01*
X11698Y141331D01*
X10000Y141499D01*
D02*
G37*
G36*
X60000D02*
X58302Y141331D01*
X56669Y140836D01*
X55165Y140032D01*
X53846Y138950D01*
X52763Y137631D01*
X51959Y136126D01*
X51464Y134493D01*
X51297Y132795D01*
Y130827D01*
X51464Y129129D01*
X51959Y127496D01*
X52763Y125991D01*
X53846Y124673D01*
X55165Y123590D01*
X56669Y122786D01*
X58302Y122291D01*
X60000Y122123D01*
X61698Y122291D01*
X63331Y122786D01*
X64835Y123590D01*
X66154Y124673D01*
X67237Y125991D01*
X68041Y127496D01*
X68536Y129129D01*
X68703Y130827D01*
Y132795D01*
X68536Y134493D01*
X68041Y136126D01*
X67237Y137631D01*
X66154Y138950D01*
X64835Y140032D01*
X63331Y140836D01*
X61698Y141331D01*
X60000Y141499D01*
D02*
G37*
G36*
X124508Y98066D02*
X123817Y97929D01*
X123231Y97537D01*
X123081Y97313D01*
X36614D01*
X36211Y97233D01*
X35869Y97005D01*
X35869Y97005D01*
X-12149Y48987D01*
X-41929D01*
X-42332Y48907D01*
X-42358Y48889D01*
X-42623Y48821D01*
X-43014Y49407D01*
X-43600Y49799D01*
X-44291Y49936D01*
X-44983Y49799D01*
X-45569Y49407D01*
X-45960Y48821D01*
X-46098Y48130D01*
X-46045Y47866D01*
X-51828Y42084D01*
X-52056Y41742D01*
X-52136Y41339D01*
X-52136Y41339D01*
Y30495D01*
X-56809Y25822D01*
X-65311D01*
X-65389Y25874D01*
X-66080Y26011D01*
X-66772Y25874D01*
X-67358Y25482D01*
X-67749Y24896D01*
X-67887Y24205D01*
X-67749Y23514D01*
X-67358Y22928D01*
X-66772Y22536D01*
X-66080Y22399D01*
X-65389Y22536D01*
X-64803Y22928D01*
X-64411Y23514D01*
X-64372Y23715D01*
X-58178D01*
X-57986Y23253D01*
X-64740Y16499D01*
X-65283Y16664D01*
X-65359Y17044D01*
X-65750Y17630D01*
X-66336Y18022D01*
X-67028Y18159D01*
X-67291Y18107D01*
X-69517Y20333D01*
Y38484D01*
X-69597Y38888D01*
X-69826Y39229D01*
X-69826Y39229D01*
X-91422Y60825D01*
X-91304Y61417D01*
X-91441Y62109D01*
X-91833Y62695D01*
X-92419Y63086D01*
X-93110Y63224D01*
X-93801Y63086D01*
X-94388Y62695D01*
X-94779Y62109D01*
X-94917Y61417D01*
X-94779Y60726D01*
X-94388Y60140D01*
X-93801Y59749D01*
X-93207Y59630D01*
X-71625Y38048D01*
Y37548D01*
X-72087Y37356D01*
X-77306Y42576D01*
X-77648Y42804D01*
X-78051Y42884D01*
X-78051Y42884D01*
X-87598D01*
X-88002Y42804D01*
X-88344Y42576D01*
X-88344Y42576D01*
X-90976Y39943D01*
X-91240Y39995D01*
X-91931Y39858D01*
X-92517Y39466D01*
X-92909Y38880D01*
X-93046Y38189D01*
X-92909Y37498D01*
X-92517Y36912D01*
X-91931Y36520D01*
X-91240Y36383D01*
X-90549Y36520D01*
X-90233Y36731D01*
X-89958Y36321D01*
X-89372Y35930D01*
X-88681Y35792D01*
X-88499Y35828D01*
X-87274Y34603D01*
Y7720D01*
X-92300Y2694D01*
X-92618Y2757D01*
X-93309Y2620D01*
X-93895Y2228D01*
X-94287Y1642D01*
X-94424Y951D01*
X-94287Y260D01*
X-93895Y-326D01*
X-93309Y-718D01*
X-92618Y-855D01*
X-91927Y-718D01*
X-91341Y-326D01*
X-90949Y260D01*
X-90823Y893D01*
X-90752Y994D01*
X-90605Y1099D01*
X-90057Y896D01*
X-90055Y883D01*
X-89663Y298D01*
X-89077Y-94D01*
X-88386Y-232D01*
X-87984Y-152D01*
X-87646Y-219D01*
X-81283D01*
X-81047Y-660D01*
X-81132Y-786D01*
X-81269Y-1477D01*
X-81213Y-1760D01*
X-81530Y-2146D01*
X-84302D01*
X-84302Y-2146D01*
X-84705Y-2226D01*
X-85047Y-2455D01*
X-85047Y-2455D01*
X-98304Y-15712D01*
X-98533Y-16053D01*
X-98613Y-16457D01*
X-98613Y-16457D01*
Y-18434D01*
X-98850Y-18532D01*
X-99384Y-18943D01*
X-99794Y-19477D01*
X-100052Y-20100D01*
X-100140Y-20768D01*
X-100052Y-21436D01*
X-99794Y-22058D01*
X-99384Y-22593D01*
X-99233Y-22709D01*
X-99403Y-23209D01*
X-100118D01*
Y-28327D01*
X-95000D01*
Y-27612D01*
X-94500Y-27442D01*
X-94384Y-27593D01*
X-93850Y-28003D01*
X-93227Y-28261D01*
X-93051Y-28284D01*
Y-25768D01*
X-92067D01*
Y-28284D01*
X-91891Y-28261D01*
X-91268Y-28003D01*
X-90734Y-27593D01*
X-90324Y-27058D01*
X-89794D01*
X-89384Y-27593D01*
X-88850Y-28003D01*
X-88227Y-28261D01*
X-88051Y-28284D01*
Y-25768D01*
X-87067D01*
Y-28284D01*
X-86891Y-28261D01*
X-86269Y-28003D01*
X-85734Y-27593D01*
X-85324Y-27058D01*
X-84794D01*
X-84384Y-27593D01*
X-83850Y-28003D01*
X-83227Y-28261D01*
X-82559Y-28349D01*
X-81891Y-28261D01*
X-81269Y-28003D01*
X-80734Y-27593D01*
X-80324Y-27058D01*
X-79794D01*
X-79384Y-27593D01*
X-78850Y-28003D01*
X-78227Y-28261D01*
X-78051Y-28284D01*
Y-25768D01*
X-77559D01*
Y-25276D01*
X-75043D01*
X-75066Y-25100D01*
X-75324Y-24477D01*
X-75734Y-23943D01*
X-76269Y-23532D01*
Y-23003D01*
X-75734Y-22593D01*
X-75324Y-22058D01*
X-75066Y-21436D01*
X-74978Y-20768D01*
X-75066Y-20100D01*
X-75324Y-19477D01*
X-75734Y-18943D01*
X-76269Y-18532D01*
X-76891Y-18274D01*
X-77559Y-18187D01*
X-78227Y-18274D01*
X-78850Y-18532D01*
X-79384Y-18943D01*
X-79794Y-19477D01*
X-80324D01*
X-80734Y-18943D01*
X-81269Y-18532D01*
X-81891Y-18274D01*
X-82559Y-18187D01*
X-83227Y-18274D01*
X-83850Y-18532D01*
X-84384Y-18943D01*
X-84794Y-19477D01*
X-85324D01*
X-85734Y-18943D01*
X-86269Y-18532D01*
X-86891Y-18274D01*
X-87559Y-18187D01*
X-88227Y-18274D01*
X-88850Y-18532D01*
X-89384Y-18943D01*
X-89794Y-19477D01*
X-90324D01*
X-90734Y-18943D01*
X-91268Y-18532D01*
X-91505Y-18434D01*
Y-16893D01*
X-83803Y-9191D01*
X-83169Y-9274D01*
X-82501Y-9186D01*
X-81879Y-8928D01*
X-81344Y-8518D01*
X-80934Y-7983D01*
X-80676Y-7361D01*
X-80588Y-6693D01*
X-80672Y-6059D01*
X-79850Y-5238D01*
X-70767D01*
X-70576Y-5700D01*
X-71611Y-6735D01*
X-71840Y-7077D01*
X-71920Y-7480D01*
X-71920Y-7480D01*
Y-36172D01*
X-72143Y-36321D01*
X-72535Y-36907D01*
X-72672Y-37598D01*
X-72535Y-38290D01*
X-72143Y-38876D01*
X-71557Y-39267D01*
X-70866Y-39405D01*
X-70175Y-39267D01*
X-69589Y-38876D01*
X-69197Y-38290D01*
X-69060Y-37598D01*
X-69197Y-36907D01*
X-69589Y-36321D01*
X-69812Y-36172D01*
Y-7917D01*
X-65016Y-3120D01*
X-64494Y-3253D01*
X-64472Y-3283D01*
X-64602Y-3937D01*
X-64464Y-4628D01*
X-64073Y-5214D01*
X-63849Y-5364D01*
Y-22999D01*
X-64122Y-23181D01*
X-64513Y-23767D01*
X-64651Y-24459D01*
X-64513Y-25150D01*
X-64122Y-25736D01*
X-63536Y-26127D01*
X-62845Y-26265D01*
X-62153Y-26127D01*
X-61567Y-25736D01*
X-61176Y-25150D01*
X-61038Y-24459D01*
X-61176Y-23767D01*
X-61567Y-23181D01*
X-61742Y-23065D01*
Y-7268D01*
X-61242Y-7079D01*
X-58127Y-10194D01*
X-58127Y-10194D01*
X-57785Y-10422D01*
X-57382Y-10503D01*
X-45810D01*
X-30986Y-25327D01*
X-31039Y-25591D01*
X-30901Y-26282D01*
X-30510Y-26868D01*
X-29923Y-27259D01*
X-29232Y-27397D01*
X-28541Y-27259D01*
X-27955Y-26868D01*
X-27563Y-26282D01*
X-27426Y-25591D01*
X-27563Y-24899D01*
X-27955Y-24313D01*
X-28541Y-23922D01*
X-29170Y-23797D01*
X-29267Y-23738D01*
X-29394Y-23569D01*
X-29282Y-22971D01*
X-29038Y-22808D01*
X-28880Y-22572D01*
X-28383Y-22523D01*
X-26952Y-23954D01*
X-27003Y-24213D01*
X-26866Y-24904D01*
X-26474Y-25490D01*
X-25888Y-25881D01*
X-25197Y-26019D01*
X-24506Y-25881D01*
X-23920Y-25490D01*
X-23528Y-24904D01*
X-23391Y-24213D01*
X-23528Y-23521D01*
X-23920Y-22935D01*
X-24506Y-22544D01*
X-25197Y-22406D01*
X-25466Y-22460D01*
X-27835Y-20090D01*
X-27847Y-20072D01*
X-27847Y-20072D01*
X-41679Y-6240D01*
X-41488Y-5778D01*
X-14419D01*
X-14419Y-5778D01*
X-14016Y-5698D01*
X-13674Y-5469D01*
X-4964Y3241D01*
X-4964Y3241D01*
X-4735Y3583D01*
X-4655Y3986D01*
X-4655Y3986D01*
Y47693D01*
X40594Y92942D01*
X69341D01*
X69490Y92719D01*
X70077Y92327D01*
X70768Y92190D01*
X71459Y92327D01*
X72045Y92719D01*
X72437Y93305D01*
X72574Y93996D01*
X72437Y94687D01*
X72385Y94765D01*
X72620Y95206D01*
X123081D01*
X123231Y94983D01*
X123817Y94591D01*
X124508Y94454D01*
X125199Y94591D01*
X125785Y94983D01*
X126177Y95569D01*
X126314Y96260D01*
X126177Y96951D01*
X125785Y97537D01*
X125199Y97929D01*
X124508Y98066D01*
D02*
G37*
G36*
X115847Y66260D02*
X112598D01*
Y63012D01*
X115847D01*
Y66260D01*
D02*
G37*
G36*
X101927Y70571D02*
X92561D01*
X92591Y70344D01*
X92868Y69673D01*
X93310Y69098D01*
X93603Y68873D01*
Y68253D01*
X93310Y68028D01*
X92868Y67453D01*
X92591Y66782D01*
X92496Y66063D01*
X92591Y65344D01*
X92868Y64673D01*
X93310Y64097D01*
X93886Y63656D01*
X94556Y63378D01*
X95275Y63283D01*
X99212D01*
X99932Y63378D01*
X100602Y63656D01*
X101178Y64097D01*
X101620Y64673D01*
X101898Y65344D01*
X101992Y66063D01*
X101898Y66782D01*
X101620Y67453D01*
X101178Y68028D01*
X100885Y68253D01*
Y68873D01*
X101178Y69098D01*
X101620Y69673D01*
X101898Y70344D01*
X101927Y70571D01*
D02*
G37*
G36*
X186516Y75032D02*
X185204Y74903D01*
X183942Y74520D01*
X182779Y73899D01*
X181760Y73063D01*
X180924Y72044D01*
X180302Y70881D01*
X179920Y69619D01*
X179790Y68307D01*
X179920Y66995D01*
X180302Y65733D01*
X180924Y64571D01*
X181760Y63552D01*
X182779Y62715D01*
X183942Y62094D01*
X185204Y61711D01*
X186516Y61582D01*
X187828Y61711D01*
X189089Y62094D01*
X190252Y62715D01*
X191271Y63552D01*
X192108Y64571D01*
X192729Y65733D01*
X193112Y66995D01*
X193241Y68307D01*
X193112Y69619D01*
X192729Y70881D01*
X192108Y72044D01*
X191271Y73063D01*
X190252Y73899D01*
X189089Y74520D01*
X187828Y74903D01*
X186516Y75032D01*
D02*
G37*
G36*
X111614Y66260D02*
X108366D01*
Y63012D01*
X111614D01*
Y66260D01*
D02*
G37*
G36*
X228150Y71555D02*
X220981D01*
X221061Y70735D01*
X221444Y69474D01*
X222066Y68311D01*
X222902Y67292D01*
X223921Y66455D01*
X225084Y65834D01*
X226345Y65451D01*
X227658Y65322D01*
X228150D01*
Y71555D01*
D02*
G37*
G36*
X236303D02*
X229134D01*
Y65322D01*
X229626D01*
X230938Y65451D01*
X232200Y65834D01*
X233362Y66455D01*
X234382Y67292D01*
X235218Y68311D01*
X235839Y69474D01*
X236222Y70735D01*
X236303Y71555D01*
D02*
G37*
G36*
X208268D02*
X201099D01*
X201180Y70735D01*
X201562Y69474D01*
X202184Y68311D01*
X203020Y67292D01*
X204039Y66455D01*
X205202Y65834D01*
X206464Y65451D01*
X207776Y65322D01*
X208268D01*
Y71555D01*
D02*
G37*
G36*
X216421D02*
X209252D01*
Y65322D01*
X209744D01*
X211056Y65451D01*
X212318Y65834D01*
X213480Y66455D01*
X214500Y67292D01*
X215336Y68311D01*
X215957Y69474D01*
X216340Y70735D01*
X216421Y71555D01*
D02*
G37*
G36*
X78642Y65094D02*
X77951Y64956D01*
X77364Y64565D01*
X76973Y63979D01*
X76835Y63287D01*
X76973Y62596D01*
X77364Y62010D01*
X77951Y61619D01*
X78642Y61481D01*
X79333Y61619D01*
X79919Y62010D01*
X80311Y62596D01*
X80448Y63287D01*
X80311Y63979D01*
X79919Y64565D01*
X79333Y64956D01*
X78642Y65094D01*
D02*
G37*
G36*
X-57815Y35458D02*
X-58506Y35320D01*
X-59092Y34929D01*
X-59484Y34343D01*
X-59621Y33652D01*
X-59484Y32960D01*
X-59092Y32374D01*
X-58506Y31983D01*
X-57815Y31845D01*
X-57123Y31983D01*
X-56537Y32374D01*
X-56146Y32960D01*
X-56008Y33652D01*
X-56146Y34343D01*
X-56537Y34929D01*
X-57123Y35320D01*
X-57815Y35458D01*
D02*
G37*
G36*
X-102526Y39715D02*
X-103217Y39577D01*
X-103803Y39186D01*
X-104195Y38600D01*
X-104332Y37908D01*
X-104195Y37217D01*
X-103803Y36631D01*
X-103217Y36239D01*
X-102526Y36102D01*
X-101835Y36239D01*
X-101249Y36631D01*
X-100857Y37217D01*
X-100719Y37908D01*
X-100857Y38600D01*
X-101249Y39186D01*
X-101835Y39577D01*
X-102526Y39715D01*
D02*
G37*
G36*
X173500Y34170D02*
X172421Y34027D01*
X171415Y33611D01*
X170552Y32948D01*
X169889Y32085D01*
X169473Y31079D01*
X169331Y30000D01*
X169473Y28921D01*
X169889Y27915D01*
X170552Y27052D01*
X171415Y26389D01*
X172421Y25973D01*
X173500Y25831D01*
X174579Y25973D01*
X175585Y26389D01*
X176448Y27052D01*
X177111Y27915D01*
X177527Y28921D01*
X177670Y30000D01*
X177527Y31079D01*
X177111Y32085D01*
X176448Y32948D01*
X175585Y33611D01*
X174579Y34027D01*
X173500Y34170D01*
D02*
G37*
G36*
X223500D02*
X222421Y34027D01*
X221415Y33611D01*
X220552Y32948D01*
X219889Y32085D01*
X219473Y31079D01*
X219331Y30000D01*
X219473Y28921D01*
X219889Y27915D01*
X220552Y27052D01*
X221415Y26389D01*
X222421Y25973D01*
X223500Y25831D01*
X224579Y25973D01*
X225585Y26389D01*
X226448Y27052D01*
X227111Y27915D01*
X227527Y28921D01*
X227670Y30000D01*
X227527Y31079D01*
X227111Y32085D01*
X226448Y32948D01*
X225585Y33611D01*
X224579Y34027D01*
X223500Y34170D01*
D02*
G37*
G36*
X68405Y62043D02*
X67714Y61905D01*
X67128Y61514D01*
X66737Y60927D01*
X66599Y60236D01*
X66737Y59545D01*
X67128Y58959D01*
X67714Y58567D01*
X68405Y58430D01*
X69097Y58567D01*
X69683Y58959D01*
X70074Y59545D01*
X70212Y60236D01*
X70074Y60927D01*
X69683Y61514D01*
X69097Y61905D01*
X68405Y62043D01*
D02*
G37*
G36*
X58268Y63322D02*
X57577Y63185D01*
X56990Y62793D01*
X56599Y62207D01*
X56461Y61516D01*
X56599Y60825D01*
X56990Y60238D01*
X57577Y59847D01*
X58268Y59709D01*
X58959Y59847D01*
X59545Y60238D01*
X59937Y60825D01*
X60074Y61516D01*
X59937Y62207D01*
X59545Y62793D01*
X58959Y63185D01*
X58268Y63322D01*
D02*
G37*
G36*
X-73228Y56223D02*
X-73896Y56135D01*
X-74519Y55877D01*
X-75054Y55467D01*
X-75464Y54932D01*
X-75722Y54310D01*
X-75810Y53642D01*
X-75722Y52974D01*
X-75464Y52351D01*
X-75054Y51817D01*
X-74651Y51508D01*
X-74670Y51026D01*
X-75068Y50947D01*
X-75653Y50555D01*
X-76045Y49969D01*
X-76183Y49278D01*
X-76045Y48587D01*
X-75653Y48000D01*
X-75068Y47609D01*
X-74376Y47471D01*
X-73685Y47609D01*
X-73099Y48000D01*
X-72707Y48587D01*
X-72615Y49053D01*
X-72235Y49432D01*
X-71930Y49888D01*
X-71823Y50426D01*
Y51494D01*
X-71403Y51817D01*
X-70993Y52351D01*
X-70735Y52974D01*
X-70647Y53642D01*
X-70735Y54310D01*
X-70993Y54932D01*
X-71403Y55467D01*
X-71938Y55877D01*
X-72560Y56135D01*
X-73228Y56223D01*
D02*
G37*
G36*
X63287Y61846D02*
X62596Y61708D01*
X62010Y61317D01*
X61619Y60731D01*
X61481Y60039D01*
X61619Y59348D01*
X62010Y58762D01*
X62596Y58371D01*
X63287Y58233D01*
X63979Y58371D01*
X64565Y58762D01*
X64956Y59348D01*
X65094Y60039D01*
X64956Y60731D01*
X64565Y61317D01*
X63979Y61708D01*
X63287Y61846D01*
D02*
G37*
G36*
X209744Y78772D02*
X209252D01*
Y72539D01*
X216421D01*
X216340Y73359D01*
X215957Y74621D01*
X215336Y75784D01*
X214500Y76803D01*
X213480Y77639D01*
X212318Y78261D01*
X211056Y78643D01*
X209744Y78772D01*
D02*
G37*
G36*
X228150D02*
X227658D01*
X226345Y78643D01*
X225084Y78261D01*
X223921Y77639D01*
X222902Y76803D01*
X222066Y75784D01*
X221444Y74621D01*
X221061Y73359D01*
X220981Y72539D01*
X228150D01*
Y78772D01*
D02*
G37*
G36*
X99213Y78843D02*
X95275D01*
X94556Y78748D01*
X93886Y78470D01*
X93310Y78029D01*
X92868Y77453D01*
X92591Y76782D01*
X92496Y76063D01*
X92591Y75344D01*
X92868Y74673D01*
X93310Y74098D01*
X93603Y73873D01*
Y73253D01*
X93310Y73028D01*
X92868Y72453D01*
X92591Y71782D01*
X92561Y71555D01*
X101927D01*
X101898Y71782D01*
X101620Y72453D01*
X101178Y73028D01*
X100885Y73253D01*
Y73873D01*
X101178Y74098D01*
X101620Y74673D01*
X101898Y75344D01*
X101992Y76063D01*
X101898Y76782D01*
X101620Y77453D01*
X101178Y78029D01*
X100602Y78470D01*
X99932Y78748D01*
X99213Y78843D01*
D02*
G37*
G36*
X208268Y78772D02*
X207776D01*
X206464Y78643D01*
X205202Y78261D01*
X204039Y77639D01*
X203020Y76803D01*
X202184Y75784D01*
X201562Y74621D01*
X201180Y73359D01*
X201099Y72539D01*
X208268D01*
Y78772D01*
D02*
G37*
G36*
X229626D02*
X229134D01*
Y72539D01*
X236303D01*
X236222Y73359D01*
X235839Y74621D01*
X235218Y75784D01*
X234382Y76803D01*
X233362Y77639D01*
X232200Y78261D01*
X230938Y78643D01*
X229626Y78772D01*
D02*
G37*
G36*
X83563Y89602D02*
X82872Y89464D01*
X82562Y89257D01*
X82185Y89112D01*
X81808Y89257D01*
X81498Y89464D01*
X80807Y89602D01*
X80116Y89464D01*
X79577Y89104D01*
X79038Y89464D01*
X78347Y89602D01*
X77655Y89464D01*
X77346Y89257D01*
X76968Y89112D01*
X76591Y89257D01*
X76282Y89464D01*
X75590Y89602D01*
X74899Y89464D01*
X74313Y89073D01*
X73922Y88486D01*
X73784Y87795D01*
X73922Y87104D01*
X74313Y86518D01*
X74899Y86126D01*
X75590Y85989D01*
X76282Y86126D01*
X76591Y86333D01*
X76968Y86479D01*
X77346Y86333D01*
X77655Y86126D01*
X78347Y85989D01*
X79038Y86126D01*
X79577Y86487D01*
X80116Y86126D01*
X80807Y85989D01*
X81498Y86126D01*
X81808Y86333D01*
X82185Y86479D01*
X82562Y86333D01*
X82872Y86126D01*
X83563Y85989D01*
X84254Y86126D01*
X84840Y86518D01*
X85232Y87104D01*
X85369Y87795D01*
X85232Y88486D01*
X84840Y89073D01*
X84254Y89464D01*
X83563Y89602D01*
D02*
G37*
G36*
X-78347Y96787D02*
X-79038Y96649D01*
X-79624Y96258D01*
X-79773Y96034D01*
X-109547D01*
X-109950Y95954D01*
X-110292Y95725D01*
X-110292Y95725D01*
X-118954Y87064D01*
X-119182Y86722D01*
X-119262Y86319D01*
X-119262Y86319D01*
Y31139D01*
X-119278Y31059D01*
X-119278Y31059D01*
Y23835D01*
X-119278Y23835D01*
X-119198Y23432D01*
X-118970Y23090D01*
X-113720Y17840D01*
X-113752Y17652D01*
X-113917Y17330D01*
X-114496Y17215D01*
X-115082Y16823D01*
X-115473Y16237D01*
X-115611Y15546D01*
X-115473Y14855D01*
X-115082Y14269D01*
X-114496Y13877D01*
X-113804Y13739D01*
X-113610Y13778D01*
X-113136Y13657D01*
X-113055Y13253D01*
X-112827Y12912D01*
X-111683Y11768D01*
X-111753Y11418D01*
X-111615Y10727D01*
X-111224Y10141D01*
X-110638Y9749D01*
X-109946Y9612D01*
X-109688Y9663D01*
X-109188Y9252D01*
Y-9385D01*
X-109428Y-9416D01*
X-110050Y-9674D01*
X-110585Y-10084D01*
X-110995Y-10619D01*
X-111253Y-11241D01*
X-111341Y-11909D01*
X-111253Y-12577D01*
X-110995Y-13200D01*
X-110585Y-13735D01*
X-110050Y-14145D01*
X-109428Y-14403D01*
X-108760Y-14491D01*
X-108092Y-14403D01*
X-107924Y-14333D01*
X-107069Y-15189D01*
X-107121Y-15453D01*
X-106984Y-16144D01*
X-106592Y-16730D01*
X-106006Y-17122D01*
X-105315Y-17259D01*
X-104624Y-17122D01*
X-104038Y-16730D01*
X-103646Y-16144D01*
X-103509Y-15453D01*
X-103646Y-14762D01*
X-104038Y-14175D01*
X-104624Y-13784D01*
X-105315Y-13646D01*
X-105579Y-13699D01*
X-106394Y-12884D01*
X-106267Y-12577D01*
X-106179Y-11909D01*
X-106267Y-11241D01*
X-106525Y-10619D01*
X-106935Y-10084D01*
X-107081Y-9972D01*
Y11762D01*
X-106857Y11912D01*
X-106465Y12498D01*
X-106328Y13189D01*
X-106358Y13338D01*
X-105456Y14240D01*
X-105227Y14582D01*
X-105147Y14985D01*
X-105147Y14985D01*
Y34620D01*
X-105147Y34620D01*
X-105227Y35023D01*
X-105456Y35365D01*
X-105456Y35365D01*
X-111758Y41667D01*
Y48805D01*
X-111735Y48809D01*
X-111149Y49201D01*
X-110758Y49787D01*
X-110620Y50478D01*
X-110677Y50760D01*
X-110359Y51147D01*
X-109941D01*
X-109941Y51147D01*
X-109538Y51227D01*
X-109196Y51455D01*
X-107227Y53424D01*
X-107227Y53424D01*
X-106999Y53766D01*
X-106919Y54169D01*
Y83422D01*
X-103993Y86348D01*
X-47638D01*
X-47638Y86348D01*
X-47235Y86428D01*
X-46893Y86656D01*
X-41701Y91848D01*
X-41437Y91796D01*
X-40746Y91934D01*
X-40160Y92325D01*
X-39768Y92911D01*
X-39631Y93602D01*
X-39768Y94294D01*
X-40160Y94880D01*
X-40746Y95271D01*
X-41437Y95409D01*
X-42128Y95271D01*
X-42714Y94880D01*
X-43106Y94294D01*
X-43243Y93602D01*
X-43191Y93339D01*
X-48074Y88455D01*
X-104429D01*
X-104429Y88455D01*
X-104832Y88375D01*
X-105174Y88147D01*
X-105174Y88147D01*
X-108718Y84603D01*
X-108946Y84262D01*
X-109026Y83858D01*
X-109026Y83858D01*
Y56151D01*
X-109467Y55915D01*
X-109571Y55984D01*
X-110262Y56122D01*
X-110953Y55984D01*
X-111539Y55593D01*
X-111931Y55007D01*
X-112068Y54316D01*
X-111957Y53754D01*
X-112239Y53254D01*
X-113140D01*
X-113140Y53254D01*
X-113543Y53174D01*
X-113885Y52945D01*
X-113885Y52945D01*
X-114894Y51936D01*
X-115123Y51595D01*
X-115203Y51191D01*
X-115203Y51191D01*
Y41176D01*
X-115203Y41176D01*
X-115123Y40773D01*
X-114894Y40431D01*
X-112317Y37854D01*
Y20071D01*
X-112779Y19879D01*
X-117171Y24271D01*
Y30994D01*
X-117155Y31075D01*
X-117155Y31075D01*
Y85882D01*
X-109111Y93927D01*
X-79773D01*
X-79624Y93703D01*
X-79038Y93312D01*
X-78347Y93174D01*
X-77655Y93312D01*
X-77069Y93703D01*
X-76678Y94289D01*
X-76540Y94980D01*
X-76678Y95672D01*
X-77069Y96258D01*
X-77655Y96649D01*
X-78347Y96787D01*
D02*
G37*
G36*
X112106Y80524D02*
X111130Y80396D01*
X110220Y80019D01*
X109439Y79419D01*
X108839Y78638D01*
X108462Y77728D01*
X108334Y76752D01*
X108462Y75776D01*
X108839Y74866D01*
X109439Y74085D01*
X110220Y73485D01*
X111130Y73108D01*
X112106Y72979D01*
X113083Y73108D01*
X113993Y73485D01*
X114774Y74085D01*
X115373Y74866D01*
X115750Y75776D01*
X115879Y76752D01*
X115750Y77728D01*
X115373Y78638D01*
X114774Y79419D01*
X113993Y80019D01*
X113083Y80396D01*
X112106Y80524D01*
D02*
G37*
G36*
X49114Y78086D02*
X48423Y77948D01*
X47837Y77557D01*
X47445Y76971D01*
X47352Y76503D01*
X47308Y76279D01*
X46832Y76253D01*
X46748Y76675D01*
X46356Y77262D01*
X45770Y77653D01*
X45079Y77791D01*
X44388Y77653D01*
X43801Y77262D01*
X43410Y76675D01*
X43272Y75984D01*
X43410Y75293D01*
X43801Y74707D01*
X44388Y74315D01*
X45079Y74178D01*
X45770Y74315D01*
X46356Y74707D01*
X46748Y75293D01*
X46841Y75761D01*
X46885Y75984D01*
X47361Y76011D01*
X47445Y75588D01*
X47837Y75002D01*
X48423Y74611D01*
X49114Y74473D01*
X49805Y74611D01*
X50296Y74939D01*
X50866Y74986D01*
X50986Y74805D01*
X51573Y74414D01*
X52264Y74276D01*
X52955Y74414D01*
X53537Y74803D01*
X53654Y74876D01*
X54023D01*
X54141Y74803D01*
X54722Y74414D01*
X55413Y74276D01*
X56105Y74414D01*
X56691Y74805D01*
X57082Y75391D01*
X57220Y76083D01*
X57082Y76774D01*
X56691Y77360D01*
X56105Y77751D01*
X55413Y77889D01*
X54722Y77751D01*
X54136Y77360D01*
X54089Y77289D01*
X53589D01*
X53541Y77360D01*
X52955Y77751D01*
X52264Y77889D01*
X51573Y77751D01*
X51082Y77424D01*
X50512Y77376D01*
X50392Y77557D01*
X49805Y77948D01*
X49114Y78086D01*
D02*
G37*
G36*
X144685Y72497D02*
Y70472D01*
X146709D01*
X146686Y70648D01*
X146428Y71271D01*
X146018Y71805D01*
X145484Y72216D01*
X144861Y72474D01*
X144685Y72497D01*
D02*
G37*
G36*
X143701Y69488D02*
X141677D01*
X141700Y69312D01*
X141958Y68690D01*
X142368Y68155D01*
X142902Y67745D01*
X143525Y67487D01*
X143701Y67464D01*
Y69488D01*
D02*
G37*
G36*
X146709D02*
X144685D01*
Y67464D01*
X144861Y67487D01*
X145484Y67745D01*
X146018Y68155D01*
X146428Y68690D01*
X146686Y69312D01*
X146709Y69488D01*
D02*
G37*
G36*
X111614Y70492D02*
X108366D01*
Y67244D01*
X111614D01*
Y70492D01*
D02*
G37*
G36*
X115847D02*
X112598D01*
Y67244D01*
X115847D01*
Y70492D01*
D02*
G37*
G36*
X143701Y72497D02*
X143525Y72474D01*
X142902Y72216D01*
X142368Y71805D01*
X141958Y71271D01*
X141700Y70648D01*
X141677Y70472D01*
X143701D01*
Y72497D01*
D02*
G37*
%LPD*%
G36*
X-83007Y40570D02*
X-82922Y40277D01*
X-83263Y39766D01*
X-83401Y39075D01*
X-83263Y38383D01*
X-82872Y37797D01*
X-82286Y37406D01*
X-81595Y37268D01*
X-81331Y37321D01*
X-78711Y34701D01*
Y7579D01*
X-78711Y7579D01*
X-78631Y7175D01*
X-78403Y6834D01*
X-74339Y2770D01*
X-74381Y2557D01*
X-74325Y2275D01*
X-74642Y1888D01*
X-86642D01*
X-86717Y2266D01*
X-87108Y2852D01*
X-87695Y3244D01*
X-88002Y3305D01*
X-88166Y3847D01*
X-85475Y6538D01*
X-85475Y6538D01*
X-85247Y6880D01*
X-85167Y7283D01*
X-85167Y7283D01*
Y35039D01*
X-85167Y35039D01*
X-85247Y35443D01*
X-85475Y35784D01*
X-85475Y35785D01*
X-86944Y37253D01*
X-86875Y37598D01*
X-87012Y38290D01*
X-87404Y38876D01*
X-87975Y39257D01*
X-88045Y39313D01*
X-88146Y39793D01*
X-87162Y40777D01*
X-83136D01*
X-83007Y40570D01*
D02*
G37*
G36*
X-2852Y53742D02*
X-2517Y53519D01*
X-2419Y52910D01*
X-6454Y48875D01*
X-6682Y48533D01*
X-6762Y48130D01*
X-6762Y48130D01*
Y4423D01*
X-14856Y-3671D01*
X-42772D01*
X-46794Y351D01*
X-47136Y580D01*
X-47539Y660D01*
X-47539Y660D01*
X-55758D01*
X-55908Y884D01*
X-56494Y1275D01*
X-57185Y1413D01*
X-57839Y1283D01*
X-57869Y1305D01*
X-58002Y1827D01*
X-51568Y8261D01*
X-51340Y8603D01*
X-51259Y9006D01*
X-51259Y9006D01*
Y15306D01*
X-51259Y15306D01*
X-51340Y15710D01*
X-51568Y16051D01*
X-51568Y16051D01*
X-54668Y19152D01*
X-55010Y19380D01*
X-55413Y19460D01*
X-55413Y19460D01*
X-56447D01*
X-56597Y19684D01*
X-57183Y20076D01*
X-57428Y20124D01*
X-57592Y20667D01*
X-56427Y21832D01*
X-55884Y21668D01*
X-55803Y21258D01*
X-55411Y20672D01*
X-54825Y20280D01*
X-54134Y20143D01*
X-53443Y20280D01*
X-52857Y20672D01*
X-52465Y21258D01*
X-52328Y21949D01*
X-52380Y22212D01*
X-48369Y26223D01*
X-48369Y26223D01*
X-48141Y26565D01*
X-48087Y26834D01*
X-47662Y26941D01*
X-47574Y26935D01*
X-46902Y25677D01*
X-45820Y24358D01*
X-44501Y23275D01*
X-42996Y22471D01*
X-41363Y21976D01*
X-39665Y21809D01*
X-37967Y21976D01*
X-36335Y22471D01*
X-34830Y23275D01*
X-33511Y24358D01*
X-32429Y25677D01*
X-31624Y27181D01*
X-31129Y28814D01*
X-30962Y30512D01*
Y32480D01*
X-31129Y34178D01*
X-31624Y35811D01*
X-32429Y37316D01*
X-33511Y38634D01*
X-34830Y39717D01*
X-36335Y40521D01*
X-37967Y41016D01*
X-39665Y41184D01*
X-41363Y41016D01*
X-42996Y40521D01*
X-44501Y39717D01*
X-45820Y38634D01*
X-46902Y37316D01*
X-47561Y36084D01*
X-48061Y36209D01*
Y38835D01*
X-41050Y45846D01*
X-11354D01*
X-11354Y45846D01*
X-10951Y45926D01*
X-10609Y46154D01*
X-3006Y53758D01*
X-2852Y53742D01*
D02*
G37*
G36*
X-107255Y34183D02*
Y17823D01*
X-107755Y17413D01*
X-107972Y17456D01*
X-108236Y17403D01*
X-110209Y19377D01*
Y36485D01*
X-109748Y36676D01*
X-107255Y34183D01*
D02*
G37*
%LPC*%
G36*
X-26165Y13855D02*
X-27244Y13713D01*
X-28250Y13296D01*
X-29114Y12633D01*
X-29776Y11770D01*
X-30193Y10764D01*
X-30335Y9685D01*
X-30193Y8606D01*
X-29776Y7600D01*
X-29114Y6737D01*
X-28250Y6074D01*
X-27244Y5658D01*
X-26165Y5516D01*
X-25086Y5658D01*
X-24081Y6074D01*
X-23217Y6737D01*
X-22554Y7600D01*
X-22138Y8606D01*
X-21996Y9685D01*
X-22138Y10764D01*
X-22554Y11770D01*
X-23217Y12633D01*
X-24081Y13296D01*
X-25086Y13713D01*
X-26165Y13855D01*
D02*
G37*
G36*
X-39665Y17562D02*
X-41363Y17394D01*
X-42996Y16899D01*
X-44501Y16095D01*
X-45820Y15012D01*
X-46902Y13694D01*
X-47706Y12189D01*
X-48201Y10556D01*
X-48369Y8858D01*
Y6890D01*
X-48201Y5192D01*
X-47706Y3559D01*
X-46902Y2054D01*
X-45820Y736D01*
X-44501Y-347D01*
X-42996Y-1151D01*
X-41363Y-1646D01*
X-39665Y-1814D01*
X-37967Y-1646D01*
X-36335Y-1151D01*
X-34830Y-347D01*
X-33511Y736D01*
X-32429Y2054D01*
X-31624Y3559D01*
X-31129Y5192D01*
X-30962Y6890D01*
Y8858D01*
X-31129Y10556D01*
X-31624Y12189D01*
X-32429Y13694D01*
X-33511Y15012D01*
X-34830Y16095D01*
X-36335Y16899D01*
X-37967Y17394D01*
X-39665Y17562D01*
D02*
G37*
G36*
X-26165Y23855D02*
X-27244Y23712D01*
X-28250Y23296D01*
X-29114Y22633D01*
X-29776Y21770D01*
X-30193Y20764D01*
X-30335Y19685D01*
X-30193Y18606D01*
X-29776Y17600D01*
X-29114Y16737D01*
X-28250Y16074D01*
X-27244Y15658D01*
X-26165Y15516D01*
X-25086Y15658D01*
X-24081Y16074D01*
X-23217Y16737D01*
X-22554Y17600D01*
X-22138Y18606D01*
X-21996Y19685D01*
X-22138Y20764D01*
X-22554Y21770D01*
X-23217Y22633D01*
X-24081Y23296D01*
X-25086Y23712D01*
X-26165Y23855D01*
D02*
G37*
G36*
Y33855D02*
X-27244Y33713D01*
X-28250Y33296D01*
X-29114Y32633D01*
X-29776Y31770D01*
X-30193Y30764D01*
X-30335Y29685D01*
X-30193Y28606D01*
X-29776Y27600D01*
X-29114Y26737D01*
X-28250Y26074D01*
X-27244Y25658D01*
X-26165Y25515D01*
X-25086Y25658D01*
X-24081Y26074D01*
X-23217Y26737D01*
X-22554Y27600D01*
X-22138Y28606D01*
X-21996Y29685D01*
X-22138Y30764D01*
X-22554Y31770D01*
X-23217Y32633D01*
X-24081Y33296D01*
X-25086Y33713D01*
X-26165Y33855D01*
D02*
G37*
%LPD*%
D10*
X-108760Y-11909D02*
D03*
X-83169Y-6693D02*
D03*
X-62894Y6102D02*
D03*
X-73228Y53642D02*
D03*
X144193Y69980D02*
D03*
D11*
X-82299Y41831D02*
D03*
X-80299D02*
D03*
D12*
X-41486Y46900D02*
X-11354D01*
X-3234Y55020D01*
X-1575D01*
X36614Y96260D02*
X124508D01*
X-11713Y47933D02*
X36614Y96260D01*
X-41929Y47933D02*
X-11713D01*
X-5709Y48130D02*
X40157Y93996D01*
X-50098Y39764D02*
X-41929Y47933D01*
X-49114Y39272D02*
X-41486Y46900D01*
X-86221Y7283D02*
Y35039D01*
X-92421Y1083D02*
X-86221Y7283D01*
X-91240Y38189D02*
X-90526D01*
X-81595Y39075D02*
X-77658Y35138D01*
Y7579D02*
Y35138D01*
X-88779Y37598D02*
X-88681D01*
X-77658Y7579D02*
X-72636Y2557D01*
X-112811Y50093D02*
X-112427Y50478D01*
X-107869Y13317D02*
X-106201Y14985D01*
Y34620D01*
X-62897Y12304D02*
X-62894Y12301D01*
Y6102D02*
Y12301D01*
X-112811Y41240D02*
Y50093D01*
X-112821Y41240D02*
X-112811D01*
X-112821D02*
X-106201Y34620D01*
X-114149Y41176D02*
X-111263Y38290D01*
X-114149Y41176D02*
Y51191D01*
X-113140Y52200D01*
X-109941D01*
X-107972Y54169D01*
Y83858D01*
X-104429Y87402D01*
X-47638D01*
X-41437Y93602D01*
X-118225Y31059D02*
X-118209Y31075D01*
Y86319D01*
X-109547Y94980D02*
X-78347D01*
X-118209Y86319D02*
X-109547Y94980D01*
X-118225Y23835D02*
Y31059D01*
Y23835D02*
X-112082Y17692D01*
Y13657D02*
Y17692D01*
X-87646Y835D02*
X-71861D01*
X-65256Y7440D01*
X-92559Y-20768D02*
Y-16457D01*
X-97559Y-20768D02*
Y-16457D01*
X-72097Y-3200D02*
X-62894Y6004D01*
X-84302Y-3200D02*
X-72097D01*
X-62992Y-24606D02*
X-62845Y-24459D01*
X-62697Y-24311D01*
X-78051Y41831D02*
X-72097Y35876D01*
Y14813D02*
Y35876D01*
Y14813D02*
X-70374Y13091D01*
Y10335D02*
Y13091D01*
X-66080Y24205D02*
X-65517Y24768D01*
X-56373D01*
X-80286Y-4184D02*
X-68962D01*
X-59842Y4935D01*
X-62795Y-24213D02*
Y-3937D01*
X-57185Y-394D02*
X-47539D01*
X-43209Y-4724D01*
X-14419D01*
X-112082Y13657D02*
X-109946Y11521D01*
Y11418D02*
Y11521D01*
X-108134Y-12633D02*
X-105315Y-15453D01*
X-111263Y18940D02*
Y38290D01*
Y18940D02*
X-107972Y15650D01*
X37697Y-11516D02*
X46850D01*
X30610Y-94390D02*
Y-9252D01*
X-60630Y-6201D02*
Y689D01*
Y-6201D02*
X-57382Y-9449D01*
X-45546Y-6299D02*
X-30315Y-21530D01*
X-57579Y-6299D02*
X-45546D01*
X-28593Y-20823D02*
Y-20817D01*
X-57382Y-9449D02*
X-45374D01*
X-29232Y-25591D01*
X-53740Y-2953D02*
X-46457D01*
X-28593Y-20817D01*
X-97559Y-16457D02*
X-84302Y-3200D01*
X-59842Y4935D02*
Y13878D01*
X-65256Y7440D02*
Y14493D01*
X-54134Y21949D02*
X-49114Y26969D01*
Y39272D01*
X-65256Y14493D02*
X-50098Y29651D01*
X-56373Y24768D02*
X-51083Y30058D01*
Y41339D01*
X-50098Y29651D02*
Y39764D01*
X-51083Y41339D02*
X-44291Y48130D01*
X46850Y-11516D02*
X79626Y-44291D01*
X-55905Y7480D02*
Y15059D01*
X-55413Y18407D02*
X-52313Y15306D01*
Y9006D02*
Y15306D01*
X-57874Y18407D02*
X-55413D01*
X-60630Y689D02*
X-52313Y9006D01*
X-70571Y19896D02*
X-67028Y16353D01*
X-70571Y19896D02*
Y38484D01*
X-87598Y41831D02*
X-82299D01*
X-91240Y38189D02*
X-87598Y41831D01*
X79626Y-93012D02*
X79724Y-92913D01*
Y-92815D01*
X-93110Y61024D02*
Y61417D01*
Y61024D02*
X-70571Y38484D01*
X-70866Y-7480D02*
X-55905Y7480D01*
X-70866Y-37598D02*
Y-7480D01*
X-14419Y-4724D02*
X-5709Y3986D01*
Y48130D01*
X40157Y93996D02*
X70669D01*
X-82299Y41831D02*
X-80299D01*
X-62795Y-24213D02*
X-62697Y-24311D01*
X-81299Y41831D02*
X-80299D01*
X-78051D01*
X-92559Y-16457D02*
X-80286Y-4184D01*
X79626Y-93012D02*
Y-44291D01*
X-28593Y-20823D02*
X-25200Y-24216D01*
X-108134Y-12633D02*
Y13189D01*
X-88779Y37598D02*
X-86221Y35039D01*
X-88386Y1575D02*
X-87646Y835D01*
D13*
X144488Y70276D02*
X148524D01*
X-74376Y49278D02*
X-73228Y50426D01*
Y53642D01*
D14*
X193473Y146989D02*
X192554D01*
X193013D01*
Y144234D01*
X193473Y144693D01*
D15*
X-149097Y29979D02*
D03*
D16*
X10000Y131811D02*
D03*
Y108189D02*
D03*
X60000Y8189D02*
D03*
Y31811D02*
D03*
X160000D02*
D03*
Y8189D02*
D03*
X60000Y108189D02*
D03*
Y131811D02*
D03*
X110000Y31811D02*
D03*
Y8189D02*
D03*
X210000D02*
D03*
Y31811D02*
D03*
X10000Y-68189D02*
D03*
Y-91811D02*
D03*
X-90000Y108189D02*
D03*
Y131811D02*
D03*
X110000Y-68189D02*
D03*
Y-91811D02*
D03*
X60000D02*
D03*
Y-68189D02*
D03*
X-40000Y131811D02*
D03*
Y108189D02*
D03*
X160000Y-91811D02*
D03*
Y-68189D02*
D03*
X-39665Y31496D02*
D03*
Y7874D02*
D03*
X-90000Y-91811D02*
D03*
Y-68189D02*
D03*
X110000Y131811D02*
D03*
Y108189D02*
D03*
X10000Y8189D02*
D03*
Y31811D02*
D03*
X-40000Y-68189D02*
D03*
Y-91811D02*
D03*
X160000Y108189D02*
D03*
Y131811D02*
D03*
X-140000D02*
D03*
Y108189D02*
D03*
X210000D02*
D03*
Y131811D02*
D03*
X209941Y-68307D02*
D03*
Y-91929D02*
D03*
X-140000Y-91811D02*
D03*
Y-68189D02*
D03*
D17*
X23500Y130000D02*
D03*
Y110000D02*
D03*
Y120000D02*
D03*
X73500Y20000D02*
D03*
Y10000D02*
D03*
Y30000D02*
D03*
X173500D02*
D03*
Y10000D02*
D03*
Y20000D02*
D03*
X73500Y120000D02*
D03*
Y110000D02*
D03*
Y130000D02*
D03*
X123500Y30000D02*
D03*
Y10000D02*
D03*
Y20000D02*
D03*
X223500D02*
D03*
Y10000D02*
D03*
Y30000D02*
D03*
X23500Y-70000D02*
D03*
Y-90000D02*
D03*
Y-80000D02*
D03*
X-76500Y120000D02*
D03*
Y110000D02*
D03*
Y130000D02*
D03*
X123500Y-70000D02*
D03*
Y-90000D02*
D03*
Y-80000D02*
D03*
X73500D02*
D03*
Y-90000D02*
D03*
Y-70000D02*
D03*
X-26500Y130000D02*
D03*
Y110000D02*
D03*
Y120000D02*
D03*
X173500Y-80000D02*
D03*
Y-90000D02*
D03*
Y-70000D02*
D03*
X-26165Y29685D02*
D03*
Y9685D02*
D03*
Y19685D02*
D03*
X-76500Y-80000D02*
D03*
Y-90000D02*
D03*
Y-70000D02*
D03*
X123500Y130000D02*
D03*
Y110000D02*
D03*
Y120000D02*
D03*
X23500Y20000D02*
D03*
Y10000D02*
D03*
Y30000D02*
D03*
X-26500Y-70000D02*
D03*
Y-90000D02*
D03*
Y-80000D02*
D03*
X173500Y120000D02*
D03*
Y110000D02*
D03*
Y130000D02*
D03*
X-126500D02*
D03*
Y110000D02*
D03*
Y120000D02*
D03*
X223500D02*
D03*
Y110000D02*
D03*
Y130000D02*
D03*
X223441Y-70118D02*
D03*
Y-90118D02*
D03*
Y-80118D02*
D03*
X-126500Y-80000D02*
D03*
Y-90000D02*
D03*
Y-70000D02*
D03*
D18*
X-77559Y-25768D02*
D03*
X-82559D02*
D03*
X-87559D02*
D03*
X-92559D02*
D03*
X-97559Y-20768D02*
D03*
X-92559D02*
D03*
X-87559D02*
D03*
X-82559D02*
D03*
X-77559D02*
D03*
D19*
X-97559Y-25768D02*
D03*
D20*
X112106Y76752D02*
D03*
D21*
Y66752D02*
D03*
D22*
X97244Y76063D02*
D03*
D23*
Y71063D02*
D03*
Y66063D02*
D03*
D24*
X-228445Y139469D02*
D03*
X-220571D02*
D03*
X-212697D02*
D03*
X-204823D02*
D03*
X-196949D02*
D03*
D25*
X-189075D02*
D03*
D26*
X-180807D02*
D03*
X-236319D02*
D03*
D27*
X208760Y72047D02*
D03*
X228642D02*
D03*
D28*
X225787Y-35433D02*
D03*
X204429D02*
D03*
D29*
X-145192Y69543D02*
D03*
Y62456D02*
D03*
Y55370D02*
D03*
Y48283D02*
D03*
Y41197D02*
D03*
Y34110D02*
D03*
Y27023D02*
D03*
Y19937D02*
D03*
X-152279Y69543D02*
D03*
Y62456D02*
D03*
Y55370D02*
D03*
Y48283D02*
D03*
Y41197D02*
D03*
Y34110D02*
D03*
Y27023D02*
D03*
Y19937D02*
D03*
Y12850D02*
D03*
X-145192D02*
D03*
Y-12780D02*
D03*
X-152279D02*
D03*
Y-5693D02*
D03*
X-145192D02*
D03*
D30*
X-1575Y55020D02*
D03*
X-57815Y33652D02*
D03*
X-136187Y36432D02*
D03*
X-141732Y33563D02*
D03*
X-102526Y37908D02*
D03*
X-57742Y27967D02*
D03*
X-69455Y48833D02*
D03*
X-107939Y23637D02*
D03*
X-108628Y30034D02*
D03*
X-74376Y49278D02*
D03*
X-81595Y39075D02*
D03*
X-88681Y37598D02*
D03*
X-91240Y38189D02*
D03*
X-141043Y27657D02*
D03*
X-62172Y23046D02*
D03*
X-72575Y2557D02*
D03*
X-79463Y-1477D02*
D03*
X-127187Y69371D02*
D03*
X-116502Y30329D02*
D03*
X-111089Y44896D02*
D03*
X-98946Y48575D02*
D03*
X-78971Y55496D02*
D03*
X-112427Y50478D02*
D03*
X-110262Y54316D02*
D03*
X-119118Y9740D02*
D03*
X-115182Y6198D02*
D03*
X-119315Y2557D02*
D03*
X-124333Y-12006D02*
D03*
Y-8857D02*
D03*
Y-6397D02*
D03*
X-120003Y20958D02*
D03*
X-137519Y40047D02*
D03*
X-66080Y24205D02*
D03*
X-68737Y41524D02*
D03*
X-109541Y20366D02*
D03*
X-113804Y15546D02*
D03*
X-107972Y15650D02*
D03*
X-108134Y13189D02*
D03*
X-107447Y38302D02*
D03*
X-109744Y90847D02*
D03*
X-62897Y12304D02*
D03*
X-14764Y6413D02*
D03*
X148524Y70276D02*
D03*
X-13878Y-94063D02*
D03*
X36319Y-94232D02*
D03*
X85827Y-94346D02*
D03*
X135547Y-94413D02*
D03*
X185827Y-94740D02*
D03*
X227461Y-54528D02*
D03*
X219390Y-55020D02*
D03*
X219587Y-50295D02*
D03*
X225098D02*
D03*
X235925Y5740D02*
D03*
X185858Y5413D02*
D03*
X135516Y6020D02*
D03*
X85614D02*
D03*
X35614Y6398D02*
D03*
X-64468Y-94161D02*
D03*
X78642Y63287D02*
D03*
X80315Y77559D02*
D03*
X73721Y75394D02*
D03*
X185138Y106134D02*
D03*
X134827D02*
D03*
X85319Y105512D02*
D03*
X34827Y105709D02*
D03*
X-15583Y105823D02*
D03*
X-64878Y106480D02*
D03*
X-147835Y117913D02*
D03*
X-154528Y117815D02*
D03*
X-151279Y114272D02*
D03*
X58268Y61516D02*
D03*
X68405Y60236D02*
D03*
X63287Y60039D02*
D03*
X-41437Y93602D02*
D03*
X-78347Y94980D02*
D03*
X75590Y87795D02*
D03*
X83563D02*
D03*
X80807D02*
D03*
X78347D02*
D03*
X45079Y75984D02*
D03*
X55413Y76083D02*
D03*
X52264D02*
D03*
X49114Y76279D02*
D03*
X-51476Y-25000D02*
D03*
X-55905Y-22146D02*
D03*
X30610Y-94390D02*
D03*
X124508Y96260D02*
D03*
X-62845Y-24459D02*
D03*
X-57185Y-394D02*
D03*
X70768Y93996D02*
D03*
X-70374Y10335D02*
D03*
X-25197Y-24213D02*
D03*
X-30315Y-21530D02*
D03*
X-44291Y48130D02*
D03*
X-57874Y18407D02*
D03*
X-62795Y-3937D02*
D03*
X-109946Y11418D02*
D03*
X-105315Y-15453D02*
D03*
X-104724Y-22736D02*
D03*
X-112303Y-16240D02*
D03*
X37697Y-11516D02*
D03*
X30610Y-9252D02*
D03*
X-57579Y-6299D02*
D03*
X-29232Y-25591D02*
D03*
X-53740Y-2953D02*
D03*
X-59842Y13878D02*
D03*
X-67028Y16353D02*
D03*
X-54134Y21949D02*
D03*
X-55905Y15059D02*
D03*
X79724Y-92815D02*
D03*
X-93110Y61417D02*
D03*
X-70866Y-37598D02*
D03*
X-88156Y9070D02*
D03*
X-83825D02*
D03*
X-79494D02*
D03*
X-88156Y13400D02*
D03*
X-83825D02*
D03*
X-79494D02*
D03*
X-88156Y17731D02*
D03*
X-83825D02*
D03*
X-79494D02*
D03*
X-99573Y20881D02*
D03*
X-95242D02*
D03*
X-90912D02*
D03*
X-99573Y25211D02*
D03*
X-95242Y25211D02*
D03*
X-90912D02*
D03*
X-99573Y29542D02*
D03*
X-95242D02*
D03*
X-90912D02*
D03*
X-92618Y951D02*
D03*
X-88386Y1575D02*
D03*
D31*
X184252Y-26575D02*
D03*
X-172933Y-51673D02*
D03*
X-173228Y98425D02*
D03*
X186516Y68307D02*
D03*
M02*
