M48
;Layer_Color=9474304
;FILE_FORMAT=2:5
INCH,LZ
;TYPE=PLATED
T9F00S00C0.07874
T10F00S00C0.09843
T12F00S00C0.13780
%
G90
G05
T09
G00X0206398Y-0035433
M15
G01X0202461
M16
G00X0227756Y-0035433
M15
G01X0223819
M16
T10
G00X0209744Y0072047
M15
G01X0207776
M16
G00X0229626Y0072047
M15
G01X0227658
M16
T12
G00X016Y-0092795
M15
G01Y-0090827
M16
G00X016Y-0069173
M15
G01Y-0067205
M16
G00X0209941Y-0069291
M15
G01Y-0067323
M16
G00X0209941Y-0092913
M15
G01Y-0090945
M16
G00X021Y0007205
M15
G01Y0009173
M16
G00X016Y0007205
M15
G01Y0009173
M16
G00X011Y0007205
M15
G01Y0009173
M16
G00X006Y0007205
M15
G01Y0009173
M16
G00X001Y0007205
M15
G01Y0009173
M16
G00X001Y-0069173
M15
G01Y-0067205
M16
G00X001Y-0092795
M15
G01Y-0090827
M16
G00X006Y-0092795
M15
G01Y-0090827
M16
G00X006Y-0069173
M15
G01Y-0067205
M16
G00X011Y-0069173
M15
G01Y-0067205
M16
G00X011Y-0092795
M15
G01Y-0090827
M16
G00X-004Y-0092795
M15
G01Y-0090827
M16
G00X-004Y-0069173
M15
G01Y-0067205
M16
G00X-009Y-0069173
M15
G01Y-0067205
M16
G00X-009Y-0092795
M15
G01Y-0090827
M16
G00X-014Y-0092795
M15
G01Y-0090827
M16
G00X-014Y-0069173
M15
G01Y-0067205
M16
G00X-0039665Y000689
M15
G01Y0008858
M16
G00X-0039665Y0030512
M15
G01Y003248
M16
G00X-004Y0107205
M15
G01Y0109173
M16
G00X-004Y0130827
M15
G01Y0132795
M16
G00X-009Y0130827
M15
G01Y0132795
M16
G00X-009Y0107205
M15
G01Y0109173
M16
G00X-014Y0107205
M15
G01Y0109173
M16
G00X-014Y0130827
M15
G01Y0132795
M16
G00X001Y0130827
M15
G01Y0132795
M16
G00X001Y0107205
M15
G01Y0109173
M16
G00X006Y0107205
M15
G01Y0109173
M16
G00X006Y0130827
M15
G01Y0132795
M16
G00X011Y0130827
M15
G01Y0132795
M16
G00X011Y0107205
M15
G01Y0109173
M16
G00X011Y0030827
M15
G01Y0032795
M16
G00X006Y0030827
M15
G01Y0032795
M16
G00X001Y0030827
M15
G01Y0032795
M16
G00X016Y0030827
M15
G01Y0032795
M16
G00X021Y0030827
M15
G01Y0032795
M16
G00X021Y0107205
M15
G01Y0109173
M16
G00X021Y0130827
M15
G01Y0132795
M16
G00X016Y0130827
M15
G01Y0132795
M16
G00X016Y0107205
M15
G01Y0109173
M16
M17
M30
