G04 Layer_Color=32896*
%FSLAX25Y25*%
%MOIN*%
G70*
G01*
G75*
%ADD13C,0.01181*%
%ADD14C,0.00591*%
%ADD85C,0.00787*%
%ADD139C,0.00394*%
%ADD140C,0.00984*%
%ADD141C,0.00800*%
%ADD142C,0.00551*%
D13*
X-96880Y55104D02*
X-94223D01*
D14*
X99443Y83038D02*
Y84875D01*
X99902Y85334D01*
X100820D01*
X101279Y84875D01*
Y83038D01*
X100820Y82579D01*
X99902D01*
X100361Y83497D02*
X99443Y82579D01*
X99902D02*
X99443Y83038D01*
X98524Y82579D02*
X97606D01*
X98065D01*
Y85334D01*
X98524Y84875D01*
X96229D02*
X95769Y85334D01*
X94851D01*
X94392Y84875D01*
Y83038D01*
X94851Y82579D01*
X95769D01*
X96229Y83038D01*
Y84875D01*
X93474Y85334D02*
Y82579D01*
X92096D01*
X91637Y83038D01*
Y83497D01*
X92096Y83956D01*
X93474D01*
X92096D01*
X91637Y84415D01*
Y84875D01*
X92096Y85334D01*
X93474D01*
X57479Y66601D02*
Y64764D01*
X56102D01*
Y65682D01*
Y64764D01*
X54724D01*
Y67519D02*
Y68437D01*
Y67978D01*
X57479D01*
X57020Y67519D01*
Y69815D02*
X57479Y70274D01*
Y71192D01*
X57020Y71651D01*
X55184D01*
X54724Y71192D01*
Y70274D01*
X55184Y69815D01*
X57020D01*
X57479Y72570D02*
X54724D01*
Y73947D01*
X55184Y74406D01*
X55643D01*
X56102Y73947D01*
Y72570D01*
Y73947D01*
X56561Y74406D01*
X57020D01*
X57479Y73947D01*
Y72570D01*
X130609Y66437D02*
X127854D01*
Y67814D01*
X128314Y68274D01*
X130150D01*
X130609Y67814D01*
Y66437D01*
X127854Y71029D02*
Y69192D01*
X129691Y71029D01*
X130150D01*
X130609Y70569D01*
Y69651D01*
X130150Y69192D01*
X130609Y73784D02*
X130150Y72865D01*
X129232Y71947D01*
X128314D01*
X127854Y72406D01*
Y73325D01*
X128314Y73784D01*
X128773D01*
X129232Y73325D01*
Y71947D01*
X130609Y74702D02*
X127854D01*
Y76080D01*
X128314Y76539D01*
X128773D01*
X129232Y76080D01*
Y74702D01*
Y76080D01*
X129691Y76539D01*
X130150D01*
X130609Y76080D01*
Y74702D01*
X88779Y53150D02*
X86023D01*
Y54527D01*
X86483Y54986D01*
X88319D01*
X88779Y54527D01*
Y53150D01*
X86023Y57741D02*
Y55905D01*
X87860Y57741D01*
X88319D01*
X88779Y57282D01*
Y56364D01*
X88319Y55905D01*
X86023Y60496D02*
Y58660D01*
X87860Y60496D01*
X88319D01*
X88779Y60037D01*
Y59119D01*
X88319Y58660D01*
X88779Y61415D02*
X86023D01*
Y62792D01*
X86483Y63251D01*
X86942D01*
X87401Y62792D01*
Y61415D01*
Y62792D01*
X87860Y63251D01*
X88319D01*
X88779Y62792D01*
Y61415D01*
X116942Y87502D02*
Y84747D01*
X115565D01*
X115106Y85206D01*
Y85665D01*
X115565Y86124D01*
X116942D01*
X115565D01*
X115106Y86583D01*
Y87042D01*
X115565Y87502D01*
X116942D01*
X114187D02*
X112351D01*
X113269D01*
Y84747D01*
X111432D02*
X110514D01*
X110973D01*
Y87502D01*
X111432Y87042D01*
X109136D02*
X108677Y87502D01*
X107759D01*
X107300Y87042D01*
Y85206D01*
X107759Y84747D01*
X108677D01*
X109136Y85206D01*
Y87042D01*
X106381Y87502D02*
Y84747D01*
X105004D01*
X104545Y85206D01*
Y85665D01*
X105004Y86124D01*
X106381D01*
X105004D01*
X104545Y86583D01*
Y87042D01*
X105004Y87502D01*
X106381D01*
X-94846Y37472D02*
Y37931D01*
X-93928Y38850D01*
X-93010Y37931D01*
Y37472D01*
X-93928Y38850D02*
Y40227D01*
X-92092D02*
X-91173D01*
X-91632D01*
Y37472D01*
X-92092Y37931D01*
X-89796D02*
X-89337Y37472D01*
X-88418D01*
X-87959Y37931D01*
Y39768D01*
X-88418Y40227D01*
X-89337D01*
X-89796Y39768D01*
Y37931D01*
X-87041Y40227D02*
Y37472D01*
X-86122Y38390D01*
X-85204Y37472D01*
Y40227D01*
X-68111Y1280D02*
X-70407D01*
X-70866Y1739D01*
Y2657D01*
X-70407Y3116D01*
X-68111D01*
X-70866Y4035D02*
Y4953D01*
Y4494D01*
X-68111D01*
X-68570Y4035D01*
Y6330D02*
X-68111Y6790D01*
Y7708D01*
X-68570Y8167D01*
X-70407D01*
X-70866Y7708D01*
Y6790D01*
X-70407Y6330D01*
X-68570D01*
X-70866Y9085D02*
X-68111D01*
X-69029Y10004D01*
X-68111Y10922D01*
X-70866D01*
X-142291Y47998D02*
X-141832Y47539D01*
Y46621D01*
X-142291Y46161D01*
X-142750D01*
X-143209Y46621D01*
Y47539D01*
X-143668Y47998D01*
X-144128D01*
X-144587Y47539D01*
Y46621D01*
X-144128Y46161D01*
X-141832Y48916D02*
X-144587D01*
X-143668Y49835D01*
X-144587Y50753D01*
X-141832D01*
X-144587Y51671D02*
Y52590D01*
Y52131D01*
X-141832D01*
X-142291Y51671D01*
Y53967D02*
X-141832Y54426D01*
Y55345D01*
X-142291Y55804D01*
X-144128D01*
X-144587Y55345D01*
Y54426D01*
X-144128Y53967D01*
X-142291D01*
X-144587Y56722D02*
X-141832D01*
X-142750Y57641D01*
X-141832Y58559D01*
X-144587D01*
X-146850Y-13484D02*
X-144095D01*
Y-12107D01*
X-144554Y-11648D01*
X-145473D01*
X-145932Y-12107D01*
Y-13484D01*
X-146850Y-10729D02*
Y-9811D01*
Y-10270D01*
X-144095D01*
X-144554Y-10729D01*
Y-8433D02*
X-144095Y-7974D01*
Y-7056D01*
X-144554Y-6597D01*
X-146391D01*
X-146850Y-7056D01*
Y-7974D01*
X-146391Y-8433D01*
X-144554D01*
X-146850Y-5678D02*
X-144095D01*
X-145014Y-4760D01*
X-144095Y-3842D01*
X-146850D01*
X-116142Y11416D02*
Y8661D01*
X-117978D01*
X-118897D02*
X-119815D01*
X-119356D01*
Y11416D01*
X-118897Y10957D01*
X-121193D02*
X-121652Y11416D01*
X-122570D01*
X-123029Y10957D01*
Y10498D01*
X-122570Y10039D01*
X-122111D01*
X-122570D01*
X-123029Y9580D01*
Y9121D01*
X-122570Y8661D01*
X-121652D01*
X-121193Y9121D01*
X-123948Y8661D02*
Y11416D01*
X-124866Y10498D01*
X-125784Y11416D01*
Y8661D01*
X-131398Y26082D02*
Y23327D01*
X-133234D01*
X-134153D02*
X-135071D01*
X-134612D01*
Y26082D01*
X-134153Y25623D01*
X-138285Y23327D02*
X-136449D01*
X-138285Y25163D01*
Y25623D01*
X-137826Y26082D01*
X-136908D01*
X-136449Y25623D01*
X-139204Y23327D02*
Y26082D01*
X-140122Y25163D01*
X-141040Y26082D01*
Y23327D01*
X-117125Y22835D02*
X-114370D01*
Y20998D01*
Y20080D02*
Y19161D01*
Y19621D01*
X-117125D01*
X-116666Y20080D01*
X-114370Y17784D02*
Y16865D01*
Y17325D01*
X-117125D01*
X-116666Y17784D01*
X-114370Y15488D02*
X-117125D01*
X-116207Y14570D01*
X-117125Y13651D01*
X-114370D01*
X-118996Y43897D02*
Y41142D01*
X-120833D01*
X-121751D02*
X-122669D01*
X-122210D01*
Y43897D01*
X-121751Y43438D01*
X-124047D02*
X-124506Y43897D01*
X-125425D01*
X-125884Y43438D01*
Y41601D01*
X-125425Y41142D01*
X-124506D01*
X-124047Y41601D01*
Y43438D01*
X-126802Y41142D02*
Y43897D01*
X-127720Y42978D01*
X-128639Y43897D01*
Y41142D01*
X-92191Y524D02*
X-91732Y983D01*
X-90814D01*
X-90354Y524D01*
Y-1312D01*
X-90814Y-1772D01*
X-91732D01*
X-92191Y-1312D01*
X-93109Y524D02*
X-93569Y983D01*
X-94487D01*
X-94946Y524D01*
Y65D01*
X-94487Y-394D01*
X-94028D01*
X-94487D01*
X-94946Y-853D01*
Y-1312D01*
X-94487Y-1772D01*
X-93569D01*
X-93109Y-1312D01*
X-95864Y524D02*
X-96324Y983D01*
X-97242D01*
X-97701Y524D01*
Y-1312D01*
X-97242Y-1772D01*
X-96324D01*
X-95864Y-1312D01*
Y524D01*
X-98620Y-1772D02*
Y983D01*
X-99538Y65D01*
X-100456Y983D01*
Y-1772D01*
X-98098Y38943D02*
X-97639Y38484D01*
Y37565D01*
X-98098Y37106D01*
X-99935D01*
X-100394Y37565D01*
Y38484D01*
X-99935Y38943D01*
X-100394Y41698D02*
Y39861D01*
X-98557Y41698D01*
X-98098D01*
X-97639Y41239D01*
Y40321D01*
X-98098Y39861D01*
X-99935Y42616D02*
X-100394Y43075D01*
Y43994D01*
X-99935Y44453D01*
X-98098D01*
X-97639Y43994D01*
Y43075D01*
X-98098Y42616D01*
X-98557D01*
X-99016Y43075D01*
Y44453D01*
X-100394Y45371D02*
X-97639D01*
X-98557Y46290D01*
X-97639Y47208D01*
X-100394D01*
X-114140Y3280D02*
X-113681Y3739D01*
X-112762D01*
X-112303Y3280D01*
Y1443D01*
X-112762Y984D01*
X-113681D01*
X-114140Y1443D01*
X-116895Y984D02*
X-115058D01*
X-116895Y2821D01*
Y3280D01*
X-116436Y3739D01*
X-115517D01*
X-115058Y3280D01*
X-117813D02*
X-118272Y3739D01*
X-119191D01*
X-119650Y3280D01*
Y2821D01*
X-119191Y2362D01*
X-119650Y1903D01*
Y1443D01*
X-119191Y984D01*
X-118272D01*
X-117813Y1443D01*
Y1903D01*
X-118272Y2362D01*
X-117813Y2821D01*
Y3280D01*
X-118272Y2362D02*
X-119191D01*
X-120568Y984D02*
Y3739D01*
X-121487Y2821D01*
X-122405Y3739D01*
Y984D01*
X-118987Y14431D02*
X-118528Y13971D01*
Y13053D01*
X-118987Y12594D01*
X-120824D01*
X-121283Y13053D01*
Y13971D01*
X-120824Y14431D01*
X-121283Y17186D02*
Y15349D01*
X-119446Y17186D01*
X-118987D01*
X-118528Y16726D01*
Y15808D01*
X-118987Y15349D01*
X-118528Y18104D02*
Y19941D01*
X-118987D01*
X-120824Y18104D01*
X-121283D01*
Y20859D02*
X-118528D01*
X-119446Y21777D01*
X-118528Y22696D01*
X-121283D01*
X-140715Y28674D02*
X-140255Y29133D01*
X-139337D01*
X-138878Y28674D01*
Y26837D01*
X-139337Y26378D01*
X-140255D01*
X-140715Y26837D01*
X-143470Y26378D02*
X-141633D01*
X-143470Y28215D01*
Y28674D01*
X-143010Y29133D01*
X-142092D01*
X-141633Y28674D01*
X-146225Y29133D02*
X-145306Y28674D01*
X-144388Y27755D01*
Y26837D01*
X-144847Y26378D01*
X-145765D01*
X-146225Y26837D01*
Y27296D01*
X-145765Y27755D01*
X-144388D01*
X-147143Y26378D02*
Y29133D01*
X-148061Y28215D01*
X-148980Y29133D01*
Y26378D01*
X-140813Y34579D02*
X-140354Y35039D01*
X-139436D01*
X-138976Y34579D01*
Y32743D01*
X-139436Y32283D01*
X-140354D01*
X-140813Y32743D01*
X-143568Y32283D02*
X-141732D01*
X-143568Y34120D01*
Y34579D01*
X-143109Y35039D01*
X-142191D01*
X-141732Y34579D01*
X-146323Y35039D02*
X-144486D01*
Y33661D01*
X-145405Y34120D01*
X-145864D01*
X-146323Y33661D01*
Y32743D01*
X-145864Y32283D01*
X-144946D01*
X-144486Y32743D01*
X-147241Y32283D02*
Y35039D01*
X-148160Y34120D01*
X-149078Y35039D01*
Y32283D01*
X-140911Y819D02*
X-140452Y1279D01*
X-139534D01*
X-139075Y819D01*
Y-1017D01*
X-139534Y-1476D01*
X-140452D01*
X-140911Y-1017D01*
X-141830Y819D02*
X-142289Y1279D01*
X-143207D01*
X-143667Y819D01*
Y360D01*
X-143207Y-99D01*
X-142748D01*
X-143207D01*
X-143667Y-558D01*
Y-1017D01*
X-143207Y-1476D01*
X-142289D01*
X-141830Y-1017D01*
X-146422Y-1476D02*
X-144585D01*
X-146422Y360D01*
Y819D01*
X-145962Y1279D01*
X-145044D01*
X-144585Y819D01*
X-147340Y-1476D02*
Y1279D01*
X-148258Y360D01*
X-149177Y1279D01*
Y-1476D01*
X-126837Y38221D02*
X-126377Y38680D01*
X-125459D01*
X-125000Y38221D01*
Y36384D01*
X-125459Y35925D01*
X-126377D01*
X-126837Y36384D01*
X-129592Y35925D02*
X-127755D01*
X-129592Y37762D01*
Y38221D01*
X-129133Y38680D01*
X-128214D01*
X-127755Y38221D01*
X-130510D02*
X-130969Y38680D01*
X-131888D01*
X-132347Y38221D01*
Y37762D01*
X-131888Y37303D01*
X-131428D01*
X-131888D01*
X-132347Y36843D01*
Y36384D01*
X-131888Y35925D01*
X-130969D01*
X-130510Y36384D01*
X-133265Y35925D02*
Y38680D01*
X-134183Y37762D01*
X-135102Y38680D01*
Y35925D01*
X-138845Y9678D02*
X-138385Y10137D01*
X-137467D01*
X-137008Y9678D01*
Y7841D01*
X-137467Y7382D01*
X-138385D01*
X-138845Y7841D01*
X-141600Y7382D02*
X-139763D01*
X-141600Y9219D01*
Y9678D01*
X-141140Y10137D01*
X-140222D01*
X-139763Y9678D01*
X-144355Y7382D02*
X-142518D01*
X-144355Y9219D01*
Y9678D01*
X-143895Y10137D01*
X-142977D01*
X-142518Y9678D01*
X-145273Y7382D02*
Y10137D01*
X-146191Y9219D01*
X-147110Y10137D01*
Y7382D01*
X-137762Y19717D02*
X-137303Y20176D01*
X-136384D01*
X-135925Y19717D01*
Y17880D01*
X-136384Y17421D01*
X-137303D01*
X-137762Y17880D01*
X-140517Y17421D02*
X-138680D01*
X-140517Y19258D01*
Y19717D01*
X-140058Y20176D01*
X-139139D01*
X-138680Y19717D01*
X-141435Y17421D02*
X-142354D01*
X-141894D01*
Y20176D01*
X-141435Y19717D01*
X-143731Y17421D02*
Y20176D01*
X-144650Y19258D01*
X-145568Y20176D01*
Y17421D01*
X-107350Y30380D02*
X-106891Y29921D01*
Y29002D01*
X-107350Y28543D01*
X-109186D01*
X-109646Y29002D01*
Y29921D01*
X-109186Y30380D01*
X-109646Y31298D02*
Y32217D01*
Y31758D01*
X-106891D01*
X-107350Y31298D01*
X-109186Y33594D02*
X-109646Y34053D01*
Y34972D01*
X-109186Y35431D01*
X-107350D01*
X-106891Y34972D01*
Y34053D01*
X-107350Y33594D01*
X-107809D01*
X-108268Y34053D01*
Y35431D01*
X-109646Y36349D02*
X-106891D01*
X-107809Y37268D01*
X-106891Y38186D01*
X-109646D01*
X-99967Y53674D02*
X-99507Y54133D01*
X-98589D01*
X-98130Y53674D01*
Y51837D01*
X-98589Y51378D01*
X-99507D01*
X-99967Y51837D01*
X-100885Y51378D02*
X-101803D01*
X-101344D01*
Y54133D01*
X-100885Y53674D01*
X-103181D02*
X-103640Y54133D01*
X-104558D01*
X-105017Y53674D01*
Y53215D01*
X-104558Y52755D01*
X-105017Y52296D01*
Y51837D01*
X-104558Y51378D01*
X-103640D01*
X-103181Y51837D01*
Y52296D01*
X-103640Y52755D01*
X-103181Y53215D01*
Y53674D01*
X-103640Y52755D02*
X-104558D01*
X-105936Y51378D02*
Y54133D01*
X-106854Y53215D01*
X-107773Y54133D01*
Y51378D01*
X-111154Y10565D02*
X-111613Y11024D01*
Y11942D01*
X-111154Y12402D01*
X-109318D01*
X-108858Y11942D01*
Y11024D01*
X-109318Y10565D01*
X-108858Y9647D02*
Y8728D01*
Y9187D01*
X-111613D01*
X-111154Y9647D01*
X-111613Y5514D02*
X-111154Y6432D01*
X-110236Y7351D01*
X-109318D01*
X-108858Y6892D01*
Y5973D01*
X-109318Y5514D01*
X-109777D01*
X-110236Y5973D01*
Y7351D01*
X-108858Y4596D02*
X-111613D01*
X-110695Y3677D01*
X-111613Y2759D01*
X-108858D01*
X-94356Y57709D02*
X-93897Y58168D01*
X-92979D01*
X-92520Y57709D01*
Y55873D01*
X-92979Y55413D01*
X-93897D01*
X-94356Y55873D01*
X-95275Y55413D02*
X-96193D01*
X-95734D01*
Y58168D01*
X-95275Y57709D01*
X-99407Y58168D02*
X-97571D01*
Y56791D01*
X-98489Y57250D01*
X-98948D01*
X-99407Y56791D01*
Y55873D01*
X-98948Y55413D01*
X-98030D01*
X-97571Y55873D01*
X-100326Y55413D02*
Y58168D01*
X-101244Y57250D01*
X-102162Y58168D01*
Y55413D01*
X-68963Y50721D02*
X-68503Y51180D01*
X-67585D01*
X-67126Y50721D01*
Y48884D01*
X-67585Y48425D01*
X-68503D01*
X-68963Y48884D01*
X-69881Y48425D02*
X-70799D01*
X-70340D01*
Y51180D01*
X-69881Y50721D01*
X-72177D02*
X-72636Y51180D01*
X-73554D01*
X-74014Y50721D01*
Y50262D01*
X-73554Y49803D01*
X-73095D01*
X-73554D01*
X-74014Y49343D01*
Y48884D01*
X-73554Y48425D01*
X-72636D01*
X-72177Y48884D01*
X-74932Y48425D02*
Y51180D01*
X-75850Y50262D01*
X-76769Y51180D01*
Y48425D01*
X-69528Y23844D02*
X-69987Y24304D01*
Y25222D01*
X-69528Y25681D01*
X-67691D01*
X-67232Y25222D01*
Y24304D01*
X-67691Y23844D01*
X-67232Y22926D02*
Y22008D01*
Y22467D01*
X-69987D01*
X-69528Y22926D01*
X-67232Y18793D02*
Y20630D01*
X-69069Y18793D01*
X-69528D01*
X-69987Y19253D01*
Y20171D01*
X-69528Y20630D01*
X-67232Y17875D02*
X-69987D01*
X-69069Y16957D01*
X-69987Y16038D01*
X-67232D01*
X-63910Y22770D02*
X-64369Y23229D01*
Y24147D01*
X-63910Y24606D01*
X-62073D01*
X-61614Y24147D01*
Y23229D01*
X-62073Y22770D01*
X-61614Y21851D02*
Y20933D01*
Y21392D01*
X-64369D01*
X-63910Y21851D01*
X-61614Y19555D02*
Y18637D01*
Y19096D01*
X-64369D01*
X-63910Y19555D01*
X-61614Y17260D02*
X-64369D01*
X-63451Y16341D01*
X-64369Y15423D01*
X-61614D01*
X-77494Y37173D02*
X-77953Y36713D01*
X-78872D01*
X-79331Y37173D01*
Y39009D01*
X-78872Y39469D01*
X-77953D01*
X-77494Y39009D01*
X-76576Y39469D02*
X-75657D01*
X-76117D01*
Y36713D01*
X-76576Y37173D01*
X-74280D02*
X-73821Y36713D01*
X-72902D01*
X-72443Y37173D01*
Y39009D01*
X-72902Y39469D01*
X-73821D01*
X-74280Y39009D01*
Y37173D01*
X-71525Y39469D02*
Y36713D01*
X-70606Y37632D01*
X-69688Y36713D01*
Y39469D01*
X-124081Y70406D02*
X-123622Y70865D01*
X-122703D01*
X-122244Y70406D01*
Y68569D01*
X-122703Y68110D01*
X-123622D01*
X-124081Y68569D01*
X-124999Y70406D02*
X-125458Y70865D01*
X-126377D01*
X-126836Y70406D01*
Y69947D01*
X-126377Y69488D01*
X-125917D01*
X-126377D01*
X-126836Y69029D01*
Y68569D01*
X-126377Y68110D01*
X-125458D01*
X-124999Y68569D01*
X-127754Y68110D02*
X-128673D01*
X-128213D01*
Y70865D01*
X-127754Y70406D01*
X-130050Y68110D02*
Y70865D01*
X-130968Y69947D01*
X-131887Y70865D01*
Y68110D01*
X-112959Y-1543D02*
X-112500Y-1084D01*
X-111581D01*
X-111122Y-1543D01*
Y-3379D01*
X-111581Y-3839D01*
X-112500D01*
X-112959Y-3379D01*
X-115714Y-3839D02*
X-113877D01*
X-115714Y-2002D01*
Y-1543D01*
X-115255Y-1084D01*
X-114336D01*
X-113877Y-1543D01*
X-118010Y-3839D02*
Y-1084D01*
X-116632Y-2461D01*
X-118469D01*
X-119387Y-3839D02*
Y-1084D01*
X-120306Y-2002D01*
X-121224Y-1084D01*
Y-3839D01*
X-48426Y-34646D02*
X-51181D01*
Y-33268D01*
X-50722Y-32809D01*
X-48885D01*
X-48426Y-33268D01*
Y-34646D01*
X-48885Y-31891D02*
X-48426Y-31431D01*
Y-30513D01*
X-48885Y-30054D01*
X-49345D01*
X-49804Y-30513D01*
Y-30972D01*
Y-30513D01*
X-50263Y-30054D01*
X-50722D01*
X-51181Y-30513D01*
Y-31431D01*
X-50722Y-31891D01*
X-48885Y-29136D02*
X-48426Y-28677D01*
Y-27758D01*
X-48885Y-27299D01*
X-50722D01*
X-51181Y-27758D01*
Y-28677D01*
X-50722Y-29136D01*
X-48885D01*
X-48426Y-26381D02*
X-51181D01*
Y-25003D01*
X-50722Y-24544D01*
X-50263D01*
X-49804Y-25003D01*
Y-26381D01*
Y-25003D01*
X-49345Y-24544D01*
X-48885D01*
X-48426Y-25003D01*
Y-26381D01*
X32709Y110301D02*
X33168Y109842D01*
Y108924D01*
X32709Y108465D01*
X30872D01*
X30413Y108924D01*
Y109842D01*
X30872Y110301D01*
X30413Y111220D02*
Y112138D01*
Y111679D01*
X33168D01*
X32709Y111220D01*
Y113515D02*
X33168Y113975D01*
Y114893D01*
X32709Y115352D01*
X30872D01*
X30413Y114893D01*
Y113975D01*
X30872Y113515D01*
X32709D01*
X33168Y116270D02*
X30413D01*
Y117648D01*
X30872Y118107D01*
X31332D01*
X31791Y117648D01*
Y116270D01*
Y117648D01*
X32250Y118107D01*
X32709D01*
X33168Y117648D01*
Y116270D01*
X83595Y10990D02*
X84054Y10531D01*
Y9613D01*
X83595Y9154D01*
X81758D01*
X81299Y9613D01*
Y10531D01*
X81758Y10990D01*
X81299Y11909D02*
Y12827D01*
Y12368D01*
X84054D01*
X83595Y11909D01*
X81299Y14204D02*
Y15123D01*
Y14664D01*
X84054D01*
X83595Y14204D01*
X84054Y16500D02*
X81299D01*
Y17878D01*
X81758Y18337D01*
X82218D01*
X82677Y17878D01*
Y16500D01*
Y17878D01*
X83136Y18337D01*
X83595D01*
X84054Y17878D01*
Y16500D01*
X183694Y10400D02*
X184153Y9940D01*
Y9022D01*
X183694Y8563D01*
X181857D01*
X181398Y9022D01*
Y9940D01*
X181857Y10400D01*
X181398Y11318D02*
Y12236D01*
Y11777D01*
X184153D01*
X183694Y11318D01*
X181398Y15450D02*
Y13614D01*
X183234Y15450D01*
X183694D01*
X184153Y14991D01*
Y14073D01*
X183694Y13614D01*
X184153Y16369D02*
X181398D01*
Y17746D01*
X181857Y18206D01*
X182316D01*
X182775Y17746D01*
Y16369D01*
Y17746D01*
X183234Y18206D01*
X183694D01*
X184153Y17746D01*
Y16369D01*
X83103Y110597D02*
X83562Y110137D01*
Y109219D01*
X83103Y108760D01*
X81266D01*
X80807Y109219D01*
Y110137D01*
X81266Y110597D01*
X80807Y111515D02*
Y112433D01*
Y111974D01*
X83562D01*
X83103Y111515D01*
Y113811D02*
X83562Y114270D01*
Y115188D01*
X83103Y115647D01*
X82644D01*
X82185Y115188D01*
Y114729D01*
Y115188D01*
X81725Y115647D01*
X81266D01*
X80807Y115188D01*
Y114270D01*
X81266Y113811D01*
X83562Y116566D02*
X80807D01*
Y117943D01*
X81266Y118402D01*
X81725D01*
X82185Y117943D01*
Y116566D01*
Y117943D01*
X82644Y118402D01*
X83103D01*
X83562Y117943D01*
Y116566D01*
X133300Y10695D02*
X133759Y10236D01*
Y9317D01*
X133300Y8858D01*
X131463D01*
X131004Y9317D01*
Y10236D01*
X131463Y10695D01*
X131004Y11613D02*
Y12532D01*
Y12072D01*
X133759D01*
X133300Y11613D01*
X131004Y15287D02*
X133759D01*
X132381Y13909D01*
Y15746D01*
X133759Y16664D02*
X131004D01*
Y18042D01*
X131463Y18501D01*
X131922D01*
X132381Y18042D01*
Y16664D01*
Y18042D01*
X132841Y18501D01*
X133300D01*
X133759Y18042D01*
Y16664D01*
X233890Y10597D02*
X234349Y10137D01*
Y9219D01*
X233890Y8760D01*
X232054D01*
X231594Y9219D01*
Y10137D01*
X232054Y10597D01*
X231594Y11515D02*
Y12433D01*
Y11974D01*
X234349D01*
X233890Y11515D01*
X234349Y15647D02*
Y13811D01*
X232972D01*
X233431Y14729D01*
Y15188D01*
X232972Y15647D01*
X232054D01*
X231594Y15188D01*
Y14270D01*
X232054Y13811D01*
X234349Y16566D02*
X231594D01*
Y17943D01*
X232054Y18402D01*
X232513D01*
X232972Y17943D01*
Y16566D01*
Y17943D01*
X233431Y18402D01*
X233890D01*
X234349Y17943D01*
Y16566D01*
X34087Y-89305D02*
X34546Y-89764D01*
Y-90683D01*
X34087Y-91142D01*
X32250D01*
X31791Y-90683D01*
Y-89764D01*
X32250Y-89305D01*
X31791Y-88387D02*
Y-87468D01*
Y-87928D01*
X34546D01*
X34087Y-88387D01*
X34546Y-84254D02*
X34087Y-85172D01*
X33169Y-86091D01*
X32250D01*
X31791Y-85632D01*
Y-84713D01*
X32250Y-84254D01*
X32710D01*
X33169Y-84713D01*
Y-86091D01*
X34546Y-83336D02*
X31791D01*
Y-81958D01*
X32250Y-81499D01*
X32710D01*
X33169Y-81958D01*
Y-83336D01*
Y-81958D01*
X33628Y-81499D01*
X34087D01*
X34546Y-81958D01*
Y-83336D01*
X-66799Y111285D02*
X-66339Y110826D01*
Y109908D01*
X-66799Y109449D01*
X-68635D01*
X-69095Y109908D01*
Y110826D01*
X-68635Y111285D01*
X-69095Y112204D02*
Y113122D01*
Y112663D01*
X-66339D01*
X-66799Y112204D01*
X-66339Y114500D02*
Y116336D01*
X-66799D01*
X-68635Y114500D01*
X-69095D01*
X-66339Y117255D02*
X-69095D01*
Y118632D01*
X-68635Y119091D01*
X-68176D01*
X-67717Y118632D01*
Y117255D01*
Y118632D01*
X-67258Y119091D01*
X-66799D01*
X-66339Y118632D01*
Y117255D01*
X133595Y-89699D02*
X134054Y-90158D01*
Y-91076D01*
X133595Y-91535D01*
X131758D01*
X131299Y-91076D01*
Y-90158D01*
X131758Y-89699D01*
X131299Y-88780D02*
Y-87862D01*
Y-88321D01*
X134054D01*
X133595Y-88780D01*
Y-86485D02*
X134054Y-86025D01*
Y-85107D01*
X133595Y-84648D01*
X133136D01*
X132677Y-85107D01*
X132218Y-84648D01*
X131758D01*
X131299Y-85107D01*
Y-86025D01*
X131758Y-86485D01*
X132218D01*
X132677Y-86025D01*
X133136Y-86485D01*
X133595D01*
X132677Y-86025D02*
Y-85107D01*
X134054Y-83729D02*
X131299D01*
Y-82352D01*
X131758Y-81893D01*
X132218D01*
X132677Y-82352D01*
Y-83729D01*
Y-82352D01*
X133136Y-81893D01*
X133595D01*
X134054Y-82352D01*
Y-83729D01*
X83693Y-89699D02*
X84153Y-90158D01*
Y-91076D01*
X83693Y-91535D01*
X81857D01*
X81398Y-91076D01*
Y-90158D01*
X81857Y-89699D01*
X81398Y-88780D02*
Y-87862D01*
Y-88321D01*
X84153D01*
X83693Y-88780D01*
X81857Y-86485D02*
X81398Y-86025D01*
Y-85107D01*
X81857Y-84648D01*
X83693D01*
X84153Y-85107D01*
Y-86025D01*
X83693Y-86485D01*
X83234D01*
X82775Y-86025D01*
Y-84648D01*
X84153Y-83729D02*
X81398D01*
Y-82352D01*
X81857Y-81893D01*
X82316D01*
X82775Y-82352D01*
Y-83729D01*
Y-82352D01*
X83234Y-81893D01*
X83693D01*
X84153Y-82352D01*
Y-83729D01*
X-17586Y110498D02*
X-17127Y110039D01*
Y109121D01*
X-17586Y108661D01*
X-19423D01*
X-19882Y109121D01*
Y110039D01*
X-19423Y110498D01*
X-19882Y113253D02*
Y111416D01*
X-18045Y113253D01*
X-17586D01*
X-17127Y112794D01*
Y111876D01*
X-17586Y111416D01*
Y114172D02*
X-17127Y114631D01*
Y115549D01*
X-17586Y116008D01*
X-19423D01*
X-19882Y115549D01*
Y114631D01*
X-19423Y114172D01*
X-17586D01*
X-17127Y116927D02*
X-19882D01*
Y118304D01*
X-19423Y118763D01*
X-18964D01*
X-18504Y118304D01*
Y116927D01*
Y118304D01*
X-18045Y118763D01*
X-17586D01*
X-17127Y118304D01*
Y116927D01*
X183890Y-89994D02*
X184350Y-90453D01*
Y-91372D01*
X183890Y-91831D01*
X182054D01*
X181595Y-91372D01*
Y-90453D01*
X182054Y-89994D01*
X181595Y-87239D02*
Y-89076D01*
X183431Y-87239D01*
X183890D01*
X184350Y-87698D01*
Y-88617D01*
X183890Y-89076D01*
X181595Y-86321D02*
Y-85402D01*
Y-85861D01*
X184350D01*
X183890Y-86321D01*
X184350Y-84025D02*
X181595D01*
Y-82647D01*
X182054Y-82188D01*
X182513D01*
X182972Y-82647D01*
Y-84025D01*
Y-82647D01*
X183431Y-82188D01*
X183890D01*
X184350Y-82647D01*
Y-84025D01*
X-16897Y11384D02*
X-16438Y10925D01*
Y10006D01*
X-16897Y9547D01*
X-18734D01*
X-19193Y10006D01*
Y10925D01*
X-18734Y11384D01*
X-19193Y14139D02*
Y12302D01*
X-17356Y14139D01*
X-16897D01*
X-16438Y13680D01*
Y12761D01*
X-16897Y12302D01*
X-19193Y16894D02*
Y15057D01*
X-17356Y16894D01*
X-16897D01*
X-16438Y16435D01*
Y15517D01*
X-16897Y15057D01*
X-16438Y17812D02*
X-19193D01*
Y19190D01*
X-18734Y19649D01*
X-18275D01*
X-17815Y19190D01*
Y17812D01*
Y19190D01*
X-17356Y19649D01*
X-16897D01*
X-16438Y19190D01*
Y17812D01*
X-66602Y-89305D02*
X-66143Y-89764D01*
Y-90683D01*
X-66602Y-91142D01*
X-68439D01*
X-68898Y-90683D01*
Y-89764D01*
X-68439Y-89305D01*
X-68898Y-86550D02*
Y-88387D01*
X-67061Y-86550D01*
X-66602D01*
X-66143Y-87009D01*
Y-87928D01*
X-66602Y-88387D01*
Y-85632D02*
X-66143Y-85172D01*
Y-84254D01*
X-66602Y-83795D01*
X-67061D01*
X-67520Y-84254D01*
Y-84713D01*
Y-84254D01*
X-67979Y-83795D01*
X-68439D01*
X-68898Y-84254D01*
Y-85172D01*
X-68439Y-85632D01*
X-66143Y-82877D02*
X-68898D01*
Y-81499D01*
X-68439Y-81040D01*
X-67979D01*
X-67520Y-81499D01*
Y-82877D01*
Y-81499D01*
X-67061Y-81040D01*
X-66602D01*
X-66143Y-81499D01*
Y-82877D01*
X132709Y111285D02*
X133168Y110826D01*
Y109908D01*
X132709Y109449D01*
X130872D01*
X130413Y109908D01*
Y110826D01*
X130872Y111285D01*
X130413Y114041D02*
Y112204D01*
X132250Y114041D01*
X132709D01*
X133168Y113581D01*
Y112663D01*
X132709Y112204D01*
X130413Y116336D02*
X133168D01*
X131791Y114959D01*
Y116796D01*
X133168Y117714D02*
X130413D01*
Y119091D01*
X130872Y119551D01*
X131332D01*
X131791Y119091D01*
Y117714D01*
Y119091D01*
X132250Y119551D01*
X132709D01*
X133168Y119091D01*
Y117714D01*
X81134Y54396D02*
X81594Y53937D01*
Y53018D01*
X81134Y52559D01*
X79298D01*
X78838Y53018D01*
Y53937D01*
X79298Y54396D01*
X78838Y57151D02*
Y55314D01*
X80675Y57151D01*
X81134D01*
X81594Y56692D01*
Y55773D01*
X81134Y55314D01*
X81594Y59906D02*
Y58069D01*
X80216D01*
X80675Y58987D01*
Y59447D01*
X80216Y59906D01*
X79298D01*
X78838Y59447D01*
Y58528D01*
X79298Y58069D01*
X81594Y60824D02*
X78838D01*
Y62202D01*
X79298Y62661D01*
X79757D01*
X80216Y62202D01*
Y60824D01*
Y62202D01*
X80675Y62661D01*
X81134D01*
X81594Y62202D01*
Y60824D01*
X74048Y55183D02*
X74507Y54724D01*
Y53806D01*
X74048Y53347D01*
X72211D01*
X71752Y53806D01*
Y54724D01*
X72211Y55183D01*
X71752Y57938D02*
Y56102D01*
X73589Y57938D01*
X74048D01*
X74507Y57479D01*
Y56561D01*
X74048Y56102D01*
X74507Y60693D02*
X74048Y59775D01*
X73129Y58856D01*
X72211D01*
X71752Y59316D01*
Y60234D01*
X72211Y60693D01*
X72670D01*
X73129Y60234D01*
Y58856D01*
X74507Y61611D02*
X71752D01*
Y62989D01*
X72211Y63448D01*
X72670D01*
X73129Y62989D01*
Y61611D01*
Y62989D01*
X73589Y63448D01*
X74048D01*
X74507Y62989D01*
Y61611D01*
X33300Y11581D02*
X33759Y11122D01*
Y10203D01*
X33300Y9744D01*
X31463D01*
X31004Y10203D01*
Y11122D01*
X31463Y11581D01*
X31004Y14336D02*
Y12499D01*
X32841Y14336D01*
X33300D01*
X33759Y13877D01*
Y12958D01*
X33300Y12499D01*
X33759Y15254D02*
Y17091D01*
X33300D01*
X31463Y15254D01*
X31004D01*
X33759Y18009D02*
X31004D01*
Y19387D01*
X31463Y19846D01*
X31922D01*
X32381Y19387D01*
Y18009D01*
Y19387D01*
X32841Y19846D01*
X33300D01*
X33759Y19387D01*
Y18009D01*
X-15814Y-89502D02*
X-15355Y-89961D01*
Y-90879D01*
X-15814Y-91339D01*
X-17651D01*
X-18110Y-90879D01*
Y-89961D01*
X-17651Y-89502D01*
X-18110Y-86747D02*
Y-88584D01*
X-16274Y-86747D01*
X-15814D01*
X-15355Y-87206D01*
Y-88124D01*
X-15814Y-88584D01*
Y-85829D02*
X-15355Y-85369D01*
Y-84451D01*
X-15814Y-83992D01*
X-16274D01*
X-16733Y-84451D01*
X-17192Y-83992D01*
X-17651D01*
X-18110Y-84451D01*
Y-85369D01*
X-17651Y-85829D01*
X-17192D01*
X-16733Y-85369D01*
X-16274Y-85829D01*
X-15814D01*
X-16733Y-85369D02*
Y-84451D01*
X-15355Y-83074D02*
X-18110D01*
Y-81696D01*
X-17651Y-81237D01*
X-17192D01*
X-16733Y-81696D01*
Y-83074D01*
Y-81696D01*
X-16274Y-81237D01*
X-15814D01*
X-15355Y-81696D01*
Y-83074D01*
X182808Y111187D02*
X183267Y110728D01*
Y109810D01*
X182808Y109350D01*
X180971D01*
X180512Y109810D01*
Y110728D01*
X180971Y111187D01*
X180512Y113942D02*
Y112105D01*
X182349Y113942D01*
X182808D01*
X183267Y113483D01*
Y112565D01*
X182808Y112105D01*
X180971Y114860D02*
X180512Y115320D01*
Y116238D01*
X180971Y116697D01*
X182808D01*
X183267Y116238D01*
Y115320D01*
X182808Y114860D01*
X182349D01*
X181889Y115320D01*
Y116697D01*
X183267Y117615D02*
X180512D01*
Y118993D01*
X180971Y119452D01*
X181430D01*
X181889Y118993D01*
Y117615D01*
Y118993D01*
X182349Y119452D01*
X182808D01*
X183267Y118993D01*
Y117615D01*
X28839Y95472D02*
Y98228D01*
X27461D01*
X27002Y97768D01*
Y96850D01*
X27461Y96391D01*
X28839D01*
X27920D02*
X27002Y95472D01*
X26083D02*
X25165D01*
X25624D01*
Y98228D01*
X26083Y97768D01*
X23788D02*
X23328Y98228D01*
X22410D01*
X21951Y97768D01*
Y95932D01*
X22410Y95472D01*
X23328D01*
X23788Y95932D01*
Y97768D01*
X21033Y98228D02*
Y95472D01*
X19655D01*
X19196Y95932D01*
Y96391D01*
X19655Y96850D01*
X21033D01*
X19655D01*
X19196Y97309D01*
Y97768D01*
X19655Y98228D01*
X21033D01*
X79134Y-4331D02*
Y-1576D01*
X77756D01*
X77297Y-2035D01*
Y-2953D01*
X77756Y-3412D01*
X79134D01*
X78215D02*
X77297Y-4331D01*
X76379D02*
X75460D01*
X75920D01*
Y-1576D01*
X76379Y-2035D01*
X74083Y-4331D02*
X73165D01*
X73624D01*
Y-1576D01*
X74083Y-2035D01*
X71787Y-1576D02*
Y-4331D01*
X70410D01*
X69950Y-3872D01*
Y-3412D01*
X70410Y-2953D01*
X71787D01*
X70410D01*
X69950Y-2494D01*
Y-2035D01*
X70410Y-1576D01*
X71787D01*
X179527Y-4724D02*
Y-1969D01*
X178150D01*
X177691Y-2429D01*
Y-3347D01*
X178150Y-3806D01*
X179527D01*
X178609D02*
X177691Y-4724D01*
X176772D02*
X175854D01*
X176313D01*
Y-1969D01*
X176772Y-2429D01*
X172640Y-4724D02*
X174477D01*
X172640Y-2888D01*
Y-2429D01*
X173099Y-1969D01*
X174018D01*
X174477Y-2429D01*
X171722Y-1969D02*
Y-4724D01*
X170344D01*
X169885Y-4265D01*
Y-3806D01*
X170344Y-3347D01*
X171722D01*
X170344D01*
X169885Y-2888D01*
Y-2429D01*
X170344Y-1969D01*
X171722D01*
X78838Y94882D02*
Y97637D01*
X77461D01*
X77002Y97178D01*
Y96259D01*
X77461Y95800D01*
X78838D01*
X77920D02*
X77002Y94882D01*
X76083D02*
X75165D01*
X75624D01*
Y97637D01*
X76083Y97178D01*
X73788D02*
X73329Y97637D01*
X72410D01*
X71951Y97178D01*
Y96719D01*
X72410Y96259D01*
X72869D01*
X72410D01*
X71951Y95800D01*
Y95341D01*
X72410Y94882D01*
X73329D01*
X73788Y95341D01*
X71033Y97637D02*
Y94882D01*
X69655D01*
X69196Y95341D01*
Y95800D01*
X69655Y96259D01*
X71033D01*
X69655D01*
X69196Y96719D01*
Y97178D01*
X69655Y97637D01*
X71033D01*
X129429Y-4331D02*
Y-1576D01*
X128052D01*
X127592Y-2035D01*
Y-2953D01*
X128052Y-3412D01*
X129429D01*
X128511D02*
X127592Y-4331D01*
X126674D02*
X125756D01*
X126215D01*
Y-1576D01*
X126674Y-2035D01*
X123001Y-4331D02*
Y-1576D01*
X124378Y-2953D01*
X122541D01*
X121623Y-1576D02*
Y-4331D01*
X120246D01*
X119787Y-3872D01*
Y-3412D01*
X120246Y-2953D01*
X121623D01*
X120246D01*
X119787Y-2494D01*
Y-2035D01*
X120246Y-1576D01*
X121623D01*
X229724Y-4429D02*
Y-1674D01*
X228347D01*
X227888Y-2133D01*
Y-3052D01*
X228347Y-3511D01*
X229724D01*
X228806D02*
X227888Y-4429D01*
X226969D02*
X226051D01*
X226510D01*
Y-1674D01*
X226969Y-2133D01*
X222837Y-1674D02*
X224674D01*
Y-3052D01*
X223755Y-2592D01*
X223296D01*
X222837Y-3052D01*
Y-3970D01*
X223296Y-4429D01*
X224214D01*
X224674Y-3970D01*
X221919Y-1674D02*
Y-4429D01*
X220541D01*
X220082Y-3970D01*
Y-3511D01*
X220541Y-3052D01*
X221919D01*
X220541D01*
X220082Y-2592D01*
Y-2133D01*
X220541Y-1674D01*
X221919D01*
X-219488Y115847D02*
X-222243D01*
Y114469D01*
X-221784Y114010D01*
X-220866D01*
X-220407Y114469D01*
Y115847D01*
Y114928D02*
X-219488Y114010D01*
Y113091D02*
Y112173D01*
Y112632D01*
X-222243D01*
X-221784Y113091D01*
X-222243Y108959D02*
X-221784Y109877D01*
X-220866Y110796D01*
X-219947D01*
X-219488Y110336D01*
Y109418D01*
X-219947Y108959D01*
X-220407D01*
X-220866Y109418D01*
Y110796D01*
X-222243Y108041D02*
X-219488D01*
Y106663D01*
X-219947Y106204D01*
X-220407D01*
X-220866Y106663D01*
Y108041D01*
Y106663D01*
X-221325Y106204D01*
X-221784D01*
X-222243Y106663D01*
Y108041D01*
X-227264Y115256D02*
X-230019D01*
Y113878D01*
X-229560Y113419D01*
X-228641D01*
X-228182Y113878D01*
Y115256D01*
Y114338D02*
X-227264Y113419D01*
Y112501D02*
Y111583D01*
Y112042D01*
X-230019D01*
X-229560Y112501D01*
X-230019Y110205D02*
Y108368D01*
X-229560D01*
X-227723Y110205D01*
X-227264D01*
X-230019Y107450D02*
X-227264D01*
Y106072D01*
X-227723Y105613D01*
X-228182D01*
X-228641Y106072D01*
Y107450D01*
Y106072D01*
X-229100Y105613D01*
X-229560D01*
X-230019Y106072D01*
Y107450D01*
X-187697Y115256D02*
X-190452D01*
Y113878D01*
X-189993Y113419D01*
X-189074D01*
X-188615Y113878D01*
Y115256D01*
Y114338D02*
X-187697Y113419D01*
Y112501D02*
Y111583D01*
Y112042D01*
X-190452D01*
X-189993Y112501D01*
Y110205D02*
X-190452Y109746D01*
Y108827D01*
X-189993Y108368D01*
X-189534D01*
X-189074Y108827D01*
X-188615Y108368D01*
X-188156D01*
X-187697Y108827D01*
Y109746D01*
X-188156Y110205D01*
X-188615D01*
X-189074Y109746D01*
X-189534Y110205D01*
X-189993D01*
X-189074Y109746D02*
Y108827D01*
X-190452Y107450D02*
X-187697D01*
Y106072D01*
X-188156Y105613D01*
X-188615D01*
X-189074Y106072D01*
Y107450D01*
Y106072D01*
X-189534Y105613D01*
X-189993D01*
X-190452Y106072D01*
Y107450D01*
X-195768Y115847D02*
X-198523D01*
Y114469D01*
X-198064Y114010D01*
X-197145D01*
X-196686Y114469D01*
Y115847D01*
Y114928D02*
X-195768Y114010D01*
Y113091D02*
Y112173D01*
Y112632D01*
X-198523D01*
X-198064Y113091D01*
X-196227Y110796D02*
X-195768Y110336D01*
Y109418D01*
X-196227Y108959D01*
X-198064D01*
X-198523Y109418D01*
Y110336D01*
X-198064Y110796D01*
X-197604D01*
X-197145Y110336D01*
Y108959D01*
X-198523Y108041D02*
X-195768D01*
Y106663D01*
X-196227Y106204D01*
X-196686D01*
X-197145Y106663D01*
Y108041D01*
Y106663D01*
X-197604Y106204D01*
X-198064D01*
X-198523Y106663D01*
Y108041D01*
X-102461Y90551D02*
X-99706D01*
Y91929D01*
X-100165Y92388D01*
X-101083D01*
X-101542Y91929D01*
Y90551D01*
Y91470D02*
X-102461Y92388D01*
Y95143D02*
Y93306D01*
X-100624Y95143D01*
X-100165D01*
X-99706Y94684D01*
Y93765D01*
X-100165Y93306D01*
Y96061D02*
X-99706Y96520D01*
Y97439D01*
X-100165Y97898D01*
X-102002D01*
X-102461Y97439D01*
Y96520D01*
X-102002Y96061D01*
X-100165D01*
X-99706Y98816D02*
X-102461D01*
Y100194D01*
X-102002Y100653D01*
X-101542D01*
X-101083Y100194D01*
Y98816D01*
Y100194D01*
X-100624Y100653D01*
X-100165D01*
X-99706Y100194D01*
Y98816D01*
X29823Y-104626D02*
Y-101871D01*
X28445D01*
X27986Y-102330D01*
Y-103249D01*
X28445Y-103708D01*
X29823D01*
X28905D02*
X27986Y-104626D01*
X25231D02*
X27068D01*
X25231Y-102789D01*
Y-102330D01*
X25690Y-101871D01*
X26609D01*
X27068Y-102330D01*
X24313Y-104626D02*
X23394D01*
X23854D01*
Y-101871D01*
X24313Y-102330D01*
X22017Y-101871D02*
Y-104626D01*
X20639D01*
X20180Y-104167D01*
Y-103708D01*
X20639Y-103249D01*
X22017D01*
X20639D01*
X20180Y-102789D01*
Y-102330D01*
X20639Y-101871D01*
X22017D01*
X-71260Y96457D02*
Y99212D01*
X-72637D01*
X-73097Y98752D01*
Y97834D01*
X-72637Y97375D01*
X-71260D01*
X-72178D02*
X-73097Y96457D01*
X-75852D02*
X-74015D01*
X-75852Y98293D01*
Y98752D01*
X-75392Y99212D01*
X-74474D01*
X-74015Y98752D01*
X-78607Y96457D02*
X-76770D01*
X-78607Y98293D01*
Y98752D01*
X-78147Y99212D01*
X-77229D01*
X-76770Y98752D01*
X-79525Y99212D02*
Y96457D01*
X-80902D01*
X-81362Y96916D01*
Y97375D01*
X-80902Y97834D01*
X-79525D01*
X-80902D01*
X-81362Y98293D01*
Y98752D01*
X-80902Y99212D01*
X-79525D01*
X129331Y-104823D02*
Y-102068D01*
X127953D01*
X127494Y-102527D01*
Y-103445D01*
X127953Y-103904D01*
X129331D01*
X128412D02*
X127494Y-104823D01*
X124739D02*
X126576D01*
X124739Y-102986D01*
Y-102527D01*
X125198Y-102068D01*
X126117D01*
X126576Y-102527D01*
X123821D02*
X123362Y-102068D01*
X122443D01*
X121984Y-102527D01*
Y-102986D01*
X122443Y-103445D01*
X122902D01*
X122443D01*
X121984Y-103904D01*
Y-104364D01*
X122443Y-104823D01*
X123362D01*
X123821Y-104364D01*
X121066Y-102068D02*
Y-104823D01*
X119688D01*
X119229Y-104364D01*
Y-103904D01*
X119688Y-103445D01*
X121066D01*
X119688D01*
X119229Y-102986D01*
Y-102527D01*
X119688Y-102068D01*
X121066D01*
X-107480Y90945D02*
X-104725D01*
Y92322D01*
X-105184Y92782D01*
X-106103D01*
X-106562Y92322D01*
Y90945D01*
Y91863D02*
X-107480Y92782D01*
Y95537D02*
Y93700D01*
X-105644Y95537D01*
X-105184D01*
X-104725Y95077D01*
Y94159D01*
X-105184Y93700D01*
X-107480Y97832D02*
X-104725D01*
X-106103Y96455D01*
Y98292D01*
X-104725Y99210D02*
X-107480D01*
Y100587D01*
X-107021Y101047D01*
X-106562D01*
X-106103Y100587D01*
Y99210D01*
Y100587D01*
X-105644Y101047D01*
X-105184D01*
X-104725Y100587D01*
Y99210D01*
X80020Y-104823D02*
Y-102068D01*
X78642D01*
X78183Y-102527D01*
Y-103445D01*
X78642Y-103904D01*
X80020D01*
X79101D02*
X78183Y-104823D01*
X75428D02*
X77265D01*
X75428Y-102986D01*
Y-102527D01*
X75887Y-102068D01*
X76806D01*
X77265Y-102527D01*
X72673Y-102068D02*
X74510D01*
Y-103445D01*
X73591Y-102986D01*
X73132D01*
X72673Y-103445D01*
Y-104364D01*
X73132Y-104823D01*
X74050D01*
X74510Y-104364D01*
X71755Y-102068D02*
Y-104823D01*
X70377D01*
X69918Y-104364D01*
Y-103904D01*
X70377Y-103445D01*
X71755D01*
X70377D01*
X69918Y-102986D01*
Y-102527D01*
X70377Y-102068D01*
X71755D01*
X-21654Y95374D02*
Y98129D01*
X-23031D01*
X-23490Y97670D01*
Y96751D01*
X-23031Y96292D01*
X-21654D01*
X-22572D02*
X-23490Y95374D01*
X-26245D02*
X-24409D01*
X-26245Y97211D01*
Y97670D01*
X-25786Y98129D01*
X-24868D01*
X-24409Y97670D01*
X-29000Y98129D02*
X-28082Y97670D01*
X-27164Y96751D01*
Y95833D01*
X-27623Y95374D01*
X-28541D01*
X-29000Y95833D01*
Y96292D01*
X-28541Y96751D01*
X-27164D01*
X-29919Y98129D02*
Y95374D01*
X-31296D01*
X-31755Y95833D01*
Y96292D01*
X-31296Y96751D01*
X-29919D01*
X-31296D01*
X-31755Y97211D01*
Y97670D01*
X-31296Y98129D01*
X-29919D01*
X180020Y-105118D02*
Y-102363D01*
X178642D01*
X178183Y-102822D01*
Y-103741D01*
X178642Y-104200D01*
X180020D01*
X179101D02*
X178183Y-105118D01*
X175428D02*
X177265D01*
X175428Y-103281D01*
Y-102822D01*
X175887Y-102363D01*
X176805D01*
X177265Y-102822D01*
X174510Y-102363D02*
X172673D01*
Y-102822D01*
X174510Y-104659D01*
Y-105118D01*
X171755Y-102363D02*
Y-105118D01*
X170377D01*
X169918Y-104659D01*
Y-104200D01*
X170377Y-103741D01*
X171755D01*
X170377D01*
X169918Y-103281D01*
Y-102822D01*
X170377Y-102363D01*
X171755D01*
X-20276Y-4429D02*
Y-1674D01*
X-21653D01*
X-22112Y-2133D01*
Y-3052D01*
X-21653Y-3511D01*
X-20276D01*
X-21194D02*
X-22112Y-4429D01*
X-24867D02*
X-23031D01*
X-24867Y-2592D01*
Y-2133D01*
X-24408Y-1674D01*
X-23490D01*
X-23031Y-2133D01*
X-25786D02*
X-26245Y-1674D01*
X-27163D01*
X-27622Y-2133D01*
Y-2592D01*
X-27163Y-3052D01*
X-27622Y-3511D01*
Y-3970D01*
X-27163Y-4429D01*
X-26245D01*
X-25786Y-3970D01*
Y-3511D01*
X-26245Y-3052D01*
X-25786Y-2592D01*
Y-2133D01*
X-26245Y-3052D02*
X-27163D01*
X-28541Y-1674D02*
Y-4429D01*
X-29918D01*
X-30377Y-3970D01*
Y-3511D01*
X-29918Y-3052D01*
X-28541D01*
X-29918D01*
X-30377Y-2592D01*
Y-2133D01*
X-29918Y-1674D01*
X-28541D01*
X-70374Y-104134D02*
Y-101379D01*
X-71752D01*
X-72211Y-101838D01*
Y-102756D01*
X-71752Y-103216D01*
X-70374D01*
X-71292D02*
X-72211Y-104134D01*
X-74966D02*
X-73129D01*
X-74966Y-102297D01*
Y-101838D01*
X-74507Y-101379D01*
X-73588D01*
X-73129Y-101838D01*
X-75884Y-103675D02*
X-76343Y-104134D01*
X-77262D01*
X-77721Y-103675D01*
Y-101838D01*
X-77262Y-101379D01*
X-76343D01*
X-75884Y-101838D01*
Y-102297D01*
X-76343Y-102756D01*
X-77721D01*
X-78639Y-101379D02*
Y-104134D01*
X-80017D01*
X-80476Y-103675D01*
Y-103216D01*
X-80017Y-102756D01*
X-78639D01*
X-80017D01*
X-80476Y-102297D01*
Y-101838D01*
X-80017Y-101379D01*
X-78639D01*
X129134Y95571D02*
Y98326D01*
X127756D01*
X127297Y97867D01*
Y96948D01*
X127756Y96489D01*
X129134D01*
X128216D02*
X127297Y95571D01*
X126379Y97867D02*
X125920Y98326D01*
X125001D01*
X124542Y97867D01*
Y97408D01*
X125001Y96948D01*
X125461D01*
X125001D01*
X124542Y96489D01*
Y96030D01*
X125001Y95571D01*
X125920D01*
X126379Y96030D01*
X123624Y97867D02*
X123165Y98326D01*
X122246D01*
X121787Y97867D01*
Y96030D01*
X122246Y95571D01*
X123165D01*
X123624Y96030D01*
Y97867D01*
X120869Y98326D02*
Y95571D01*
X119491D01*
X119032Y96030D01*
Y96489D01*
X119491Y96948D01*
X120869D01*
X119491D01*
X119032Y97408D01*
Y97867D01*
X119491Y98326D01*
X120869D01*
X29823Y-4035D02*
Y-1280D01*
X28445D01*
X27986Y-1740D01*
Y-2658D01*
X28445Y-3117D01*
X29823D01*
X28905D02*
X27986Y-4035D01*
X27068Y-1740D02*
X26609Y-1280D01*
X25690D01*
X25231Y-1740D01*
Y-2199D01*
X25690Y-2658D01*
X26149D01*
X25690D01*
X25231Y-3117D01*
Y-3576D01*
X25690Y-4035D01*
X26609D01*
X27068Y-3576D01*
X24313Y-4035D02*
X23394D01*
X23854D01*
Y-1280D01*
X24313Y-1740D01*
X22017Y-1280D02*
Y-4035D01*
X20639D01*
X20180Y-3576D01*
Y-3117D01*
X20639Y-2658D01*
X22017D01*
X20639D01*
X20180Y-2199D01*
Y-1740D01*
X20639Y-1280D01*
X22017D01*
X-19685Y-104331D02*
Y-101576D01*
X-21063D01*
X-21522Y-102035D01*
Y-102953D01*
X-21063Y-103412D01*
X-19685D01*
X-20603D02*
X-21522Y-104331D01*
X-22440Y-102035D02*
X-22899Y-101576D01*
X-23818D01*
X-24277Y-102035D01*
Y-102494D01*
X-23818Y-102953D01*
X-23358D01*
X-23818D01*
X-24277Y-103412D01*
Y-103872D01*
X-23818Y-104331D01*
X-22899D01*
X-22440Y-103872D01*
X-27032Y-104331D02*
X-25195D01*
X-27032Y-102494D01*
Y-102035D01*
X-26573Y-101576D01*
X-25654D01*
X-25195Y-102035D01*
X-27950Y-101576D02*
Y-104331D01*
X-29328D01*
X-29787Y-103872D01*
Y-103412D01*
X-29328Y-102953D01*
X-27950D01*
X-29328D01*
X-29787Y-102494D01*
Y-102035D01*
X-29328Y-101576D01*
X-27950D01*
X179331Y95768D02*
Y98523D01*
X177953D01*
X177494Y98064D01*
Y97145D01*
X177953Y96686D01*
X179331D01*
X178412D02*
X177494Y95768D01*
X176576Y98064D02*
X176117Y98523D01*
X175198D01*
X174739Y98064D01*
Y97604D01*
X175198Y97145D01*
X175657D01*
X175198D01*
X174739Y96686D01*
Y96227D01*
X175198Y95768D01*
X176117D01*
X176576Y96227D01*
X173821Y98064D02*
X173362Y98523D01*
X172443D01*
X171984Y98064D01*
Y97604D01*
X172443Y97145D01*
X172902D01*
X172443D01*
X171984Y96686D01*
Y96227D01*
X172443Y95768D01*
X173362D01*
X173821Y96227D01*
X171066Y98523D02*
Y95768D01*
X169688D01*
X169229Y96227D01*
Y96686D01*
X169688Y97145D01*
X171066D01*
X169688D01*
X169229Y97604D01*
Y98064D01*
X169688Y98523D01*
X171066D01*
X-68898Y-36122D02*
X-66143D01*
Y-34745D01*
X-66602Y-34285D01*
X-67520D01*
X-67979Y-34745D01*
Y-36122D01*
Y-35204D02*
X-68898Y-34285D01*
X-66602Y-33367D02*
X-66143Y-32908D01*
Y-31989D01*
X-66602Y-31530D01*
X-67061D01*
X-67520Y-31989D01*
Y-32449D01*
Y-31989D01*
X-67979Y-31530D01*
X-68439D01*
X-68898Y-31989D01*
Y-32908D01*
X-68439Y-33367D01*
X-66143Y-28775D02*
Y-30612D01*
X-67520D01*
X-67061Y-29694D01*
Y-29234D01*
X-67520Y-28775D01*
X-68439D01*
X-68898Y-29234D01*
Y-30153D01*
X-68439Y-30612D01*
X-66143Y-27857D02*
X-68898D01*
Y-26480D01*
X-68439Y-26020D01*
X-67979D01*
X-67520Y-26480D01*
Y-27857D01*
Y-26480D01*
X-67061Y-26020D01*
X-66602D01*
X-66143Y-26480D01*
Y-27857D01*
X-153445Y126181D02*
X-156200D01*
Y124804D01*
X-155741Y124344D01*
X-154822D01*
X-154363Y124804D01*
Y126181D01*
Y125263D02*
X-153445Y124344D01*
X-155741Y123426D02*
X-156200Y122967D01*
Y122049D01*
X-155741Y121589D01*
X-155282D01*
X-154822Y122049D01*
Y122508D01*
Y122049D01*
X-154363Y121589D01*
X-153904D01*
X-153445Y122049D01*
Y122967D01*
X-153904Y123426D01*
X-156200Y118834D02*
X-155741Y119753D01*
X-154822Y120671D01*
X-153904D01*
X-153445Y120212D01*
Y119294D01*
X-153904Y118834D01*
X-154363D01*
X-154822Y119294D01*
Y120671D01*
X-156200Y117916D02*
X-153445D01*
Y116539D01*
X-153904Y116079D01*
X-154363D01*
X-154822Y116539D01*
Y117916D01*
Y116539D01*
X-155282Y116079D01*
X-155741D01*
X-156200Y116539D01*
Y117916D01*
X37991Y105807D02*
X35236D01*
Y107185D01*
X35695Y107644D01*
X37532D01*
X37991Y107185D01*
Y105807D01*
X35236Y108562D02*
Y109480D01*
Y109021D01*
X37991D01*
X37532Y108562D01*
Y110858D02*
X37991Y111317D01*
Y112235D01*
X37532Y112695D01*
X35695D01*
X35236Y112235D01*
Y111317D01*
X35695Y110858D01*
X37532D01*
X37991Y113613D02*
X35236D01*
Y114990D01*
X35695Y115450D01*
X36155D01*
X36614Y114990D01*
Y113613D01*
Y114990D01*
X37073Y115450D01*
X37532D01*
X37991Y114990D01*
Y113613D01*
X88779Y6201D02*
X86024D01*
Y7578D01*
X86483Y8038D01*
X88319D01*
X88779Y7578D01*
Y6201D01*
X86024Y8956D02*
Y9874D01*
Y9415D01*
X88779D01*
X88319Y8956D01*
X86024Y11252D02*
Y12170D01*
Y11711D01*
X88779D01*
X88319Y11252D01*
X88779Y13547D02*
X86024D01*
Y14925D01*
X86483Y15384D01*
X86942D01*
X87401Y14925D01*
Y13547D01*
Y14925D01*
X87860Y15384D01*
X88319D01*
X88779Y14925D01*
Y13547D01*
X188877Y5512D02*
X186122D01*
Y6889D01*
X186581Y7349D01*
X188418D01*
X188877Y6889D01*
Y5512D01*
X186122Y8267D02*
Y9185D01*
Y8726D01*
X188877D01*
X188418Y8267D01*
X186122Y12399D02*
Y10563D01*
X187959Y12399D01*
X188418D01*
X188877Y11940D01*
Y11022D01*
X188418Y10563D01*
X188877Y13318D02*
X186122D01*
Y14695D01*
X186581Y15154D01*
X187040D01*
X187500Y14695D01*
Y13318D01*
Y14695D01*
X187959Y15154D01*
X188418D01*
X188877Y14695D01*
Y13318D01*
X88975Y105709D02*
X86220D01*
Y107086D01*
X86680Y107545D01*
X88516D01*
X88975Y107086D01*
Y105709D01*
X86220Y108464D02*
Y109382D01*
Y108923D01*
X88975D01*
X88516Y108464D01*
Y110759D02*
X88975Y111219D01*
Y112137D01*
X88516Y112596D01*
X88057D01*
X87598Y112137D01*
Y111678D01*
Y112137D01*
X87139Y112596D01*
X86680D01*
X86220Y112137D01*
Y111219D01*
X86680Y110759D01*
X88975Y113515D02*
X86220D01*
Y114892D01*
X86680Y115351D01*
X87139D01*
X87598Y114892D01*
Y113515D01*
Y114892D01*
X88057Y115351D01*
X88516D01*
X88975Y114892D01*
Y113515D01*
X139074Y6201D02*
X136319D01*
Y7578D01*
X136778Y8038D01*
X138615D01*
X139074Y7578D01*
Y6201D01*
X136319Y8956D02*
Y9874D01*
Y9415D01*
X139074D01*
X138615Y8956D01*
X136319Y12629D02*
X139074D01*
X137696Y11252D01*
Y13088D01*
X139074Y14007D02*
X136319D01*
Y15384D01*
X136778Y15843D01*
X137237D01*
X137696Y15384D01*
Y14007D01*
Y15384D01*
X138156Y15843D01*
X138615D01*
X139074Y15384D01*
Y14007D01*
X239468Y5709D02*
X236713D01*
Y7086D01*
X237172Y7545D01*
X239008D01*
X239468Y7086D01*
Y5709D01*
X236713Y8464D02*
Y9382D01*
Y8923D01*
X239468D01*
X239008Y8464D01*
X239468Y12596D02*
Y10759D01*
X238090D01*
X238549Y11678D01*
Y12137D01*
X238090Y12596D01*
X237172D01*
X236713Y12137D01*
Y11219D01*
X237172Y10759D01*
X239468Y13514D02*
X236713D01*
Y14892D01*
X237172Y15351D01*
X237631D01*
X238090Y14892D01*
Y13514D01*
Y14892D01*
X238549Y15351D01*
X239008D01*
X239468Y14892D01*
Y13514D01*
X39763Y-94291D02*
X37008D01*
Y-92914D01*
X37467Y-92455D01*
X39304D01*
X39763Y-92914D01*
Y-94291D01*
X37008Y-91536D02*
Y-90618D01*
Y-91077D01*
X39763D01*
X39304Y-91536D01*
X39763Y-87404D02*
X39304Y-88322D01*
X38385Y-89240D01*
X37467D01*
X37008Y-88781D01*
Y-87863D01*
X37467Y-87404D01*
X37926D01*
X38385Y-87863D01*
Y-89240D01*
X39763Y-86485D02*
X37008D01*
Y-85108D01*
X37467Y-84649D01*
X37926D01*
X38385Y-85108D01*
Y-86485D01*
Y-85108D01*
X38844Y-84649D01*
X39304D01*
X39763Y-85108D01*
Y-86485D01*
X-60926Y107087D02*
X-63681D01*
Y108464D01*
X-63222Y108923D01*
X-61385D01*
X-60926Y108464D01*
Y107087D01*
X-63681Y109842D02*
Y110760D01*
Y110301D01*
X-60926D01*
X-61385Y109842D01*
X-60926Y112137D02*
Y113974D01*
X-61385D01*
X-63222Y112137D01*
X-63681D01*
X-60926Y114892D02*
X-63681D01*
Y116270D01*
X-63222Y116729D01*
X-62763D01*
X-62304Y116270D01*
Y114892D01*
Y116270D01*
X-61844Y116729D01*
X-61385D01*
X-60926Y116270D01*
Y114892D01*
X138877Y-94488D02*
X136122D01*
Y-93111D01*
X136581Y-92651D01*
X138418D01*
X138877Y-93111D01*
Y-94488D01*
X136122Y-91733D02*
Y-90815D01*
Y-91274D01*
X138877D01*
X138418Y-91733D01*
Y-89437D02*
X138877Y-88978D01*
Y-88060D01*
X138418Y-87601D01*
X137959D01*
X137499Y-88060D01*
X137040Y-87601D01*
X136581D01*
X136122Y-88060D01*
Y-88978D01*
X136581Y-89437D01*
X137040D01*
X137499Y-88978D01*
X137959Y-89437D01*
X138418D01*
X137499Y-88978D02*
Y-88060D01*
X138877Y-86682D02*
X136122D01*
Y-85305D01*
X136581Y-84846D01*
X137040D01*
X137499Y-85305D01*
Y-86682D01*
Y-85305D01*
X137959Y-84846D01*
X138418D01*
X138877Y-85305D01*
Y-86682D01*
X88877Y-94193D02*
X86122D01*
Y-92815D01*
X86581Y-92356D01*
X88418D01*
X88877Y-92815D01*
Y-94193D01*
X86122Y-91438D02*
Y-90520D01*
Y-90979D01*
X88877D01*
X88418Y-91438D01*
X86581Y-89142D02*
X86122Y-88683D01*
Y-87765D01*
X86581Y-87305D01*
X88418D01*
X88877Y-87765D01*
Y-88683D01*
X88418Y-89142D01*
X87959D01*
X87500Y-88683D01*
Y-87305D01*
X88877Y-86387D02*
X86122D01*
Y-85009D01*
X86581Y-84550D01*
X87040D01*
X87500Y-85009D01*
Y-86387D01*
Y-85009D01*
X87959Y-84550D01*
X88418D01*
X88877Y-85009D01*
Y-86387D01*
X-11714Y106102D02*
X-14469D01*
Y107480D01*
X-14009Y107939D01*
X-12173D01*
X-11714Y107480D01*
Y106102D01*
X-14469Y110694D02*
Y108857D01*
X-12632Y110694D01*
X-12173D01*
X-11714Y110235D01*
Y109317D01*
X-12173Y108857D01*
Y111612D02*
X-11714Y112072D01*
Y112990D01*
X-12173Y113449D01*
X-14009D01*
X-14469Y112990D01*
Y112072D01*
X-14009Y111612D01*
X-12173D01*
X-11714Y114367D02*
X-14469D01*
Y115745D01*
X-14009Y116204D01*
X-13550D01*
X-13091Y115745D01*
Y114367D01*
Y115745D01*
X-12632Y116204D01*
X-12173D01*
X-11714Y115745D01*
Y114367D01*
X189172Y-94488D02*
X186417D01*
Y-93111D01*
X186876Y-92651D01*
X188713D01*
X189172Y-93111D01*
Y-94488D01*
X186417Y-89897D02*
Y-91733D01*
X188254Y-89897D01*
X188713D01*
X189172Y-90356D01*
Y-91274D01*
X188713Y-91733D01*
X186417Y-88978D02*
Y-88060D01*
Y-88519D01*
X189172D01*
X188713Y-88978D01*
X189172Y-86682D02*
X186417D01*
Y-85305D01*
X186876Y-84846D01*
X187336D01*
X187795Y-85305D01*
Y-86682D01*
Y-85305D01*
X188254Y-84846D01*
X188713D01*
X189172Y-85305D01*
Y-86682D01*
X-11517Y6398D02*
X-14272D01*
Y7775D01*
X-13813Y8234D01*
X-11976D01*
X-11517Y7775D01*
Y6398D01*
X-14272Y10989D02*
Y9153D01*
X-12435Y10989D01*
X-11976D01*
X-11517Y10530D01*
Y9612D01*
X-11976Y9153D01*
Y11908D02*
X-11517Y12367D01*
Y13285D01*
X-11976Y13744D01*
X-12435D01*
X-12894Y13285D01*
Y12826D01*
Y13285D01*
X-13353Y13744D01*
X-13813D01*
X-14272Y13285D01*
Y12367D01*
X-13813Y11908D01*
X-11517Y14663D02*
X-14272D01*
Y16040D01*
X-13813Y16499D01*
X-13353D01*
X-12894Y16040D01*
Y14663D01*
Y16040D01*
X-12435Y16499D01*
X-11976D01*
X-11517Y16040D01*
Y14663D01*
X-61123Y-94095D02*
X-63878D01*
Y-92717D01*
X-63419Y-92258D01*
X-61582D01*
X-61123Y-92717D01*
Y-94095D01*
X-63878Y-89503D02*
Y-91339D01*
X-62041Y-89503D01*
X-61582D01*
X-61123Y-89962D01*
Y-90880D01*
X-61582Y-91339D01*
X-63878Y-87207D02*
X-61123D01*
X-62500Y-88585D01*
Y-86748D01*
X-61123Y-85829D02*
X-63878D01*
Y-84452D01*
X-63419Y-83993D01*
X-62960D01*
X-62500Y-84452D01*
Y-85829D01*
Y-84452D01*
X-62041Y-83993D01*
X-61582D01*
X-61123Y-84452D01*
Y-85829D01*
X138286Y106398D02*
X135531D01*
Y107775D01*
X135991Y108234D01*
X137827D01*
X138286Y107775D01*
Y106398D01*
X135531Y110989D02*
Y109153D01*
X137368Y110989D01*
X137827D01*
X138286Y110530D01*
Y109612D01*
X137827Y109153D01*
X138286Y113744D02*
Y111908D01*
X136909D01*
X137368Y112826D01*
Y113285D01*
X136909Y113744D01*
X135991D01*
X135531Y113285D01*
Y112367D01*
X135991Y111908D01*
X138286Y114663D02*
X135531D01*
Y116040D01*
X135991Y116499D01*
X136450D01*
X136909Y116040D01*
Y114663D01*
Y116040D01*
X137368Y116499D01*
X137827D01*
X138286Y116040D01*
Y114663D01*
X38779Y6398D02*
X36024D01*
Y7775D01*
X36483Y8234D01*
X38320D01*
X38779Y7775D01*
Y6398D01*
X36024Y10989D02*
Y9153D01*
X37860Y10989D01*
X38320D01*
X38779Y10530D01*
Y9612D01*
X38320Y9153D01*
X38779Y11908D02*
Y13744D01*
X38320D01*
X36483Y11908D01*
X36024D01*
X38779Y14663D02*
X36024D01*
Y16040D01*
X36483Y16499D01*
X36942D01*
X37401Y16040D01*
Y14663D01*
Y16040D01*
X37860Y16499D01*
X38320D01*
X38779Y16040D01*
Y14663D01*
X-10631Y-94291D02*
X-13386D01*
Y-92914D01*
X-12927Y-92455D01*
X-11090D01*
X-10631Y-92914D01*
Y-94291D01*
X-13386Y-89700D02*
Y-91536D01*
X-11549Y-89700D01*
X-11090D01*
X-10631Y-90159D01*
Y-91077D01*
X-11090Y-91536D01*
Y-88781D02*
X-10631Y-88322D01*
Y-87404D01*
X-11090Y-86945D01*
X-11549D01*
X-12008Y-87404D01*
X-12467Y-86945D01*
X-12927D01*
X-13386Y-87404D01*
Y-88322D01*
X-12927Y-88781D01*
X-12467D01*
X-12008Y-88322D01*
X-11549Y-88781D01*
X-11090D01*
X-12008Y-88322D02*
Y-87404D01*
X-10631Y-86026D02*
X-13386D01*
Y-84649D01*
X-12927Y-84190D01*
X-12467D01*
X-12008Y-84649D01*
Y-86026D01*
Y-84649D01*
X-11549Y-84190D01*
X-11090D01*
X-10631Y-84649D01*
Y-86026D01*
X188483Y106398D02*
X185728D01*
Y107775D01*
X186188Y108234D01*
X188024D01*
X188483Y107775D01*
Y106398D01*
X185728Y110989D02*
Y109153D01*
X187565Y110989D01*
X188024D01*
X188483Y110530D01*
Y109612D01*
X188024Y109153D01*
X186188Y111908D02*
X185728Y112367D01*
Y113285D01*
X186188Y113744D01*
X188024D01*
X188483Y113285D01*
Y112367D01*
X188024Y111908D01*
X187565D01*
X187106Y112367D01*
Y113744D01*
X188483Y114663D02*
X185728D01*
Y116040D01*
X186188Y116499D01*
X186647D01*
X187106Y116040D01*
Y114663D01*
Y116040D01*
X187565Y116499D01*
X188024D01*
X188483Y116040D01*
Y114663D01*
X-64894Y78183D02*
X-65354Y78642D01*
Y79561D01*
X-64894Y80020D01*
X-64435D01*
X-63976Y79561D01*
Y78642D01*
X-63517Y78183D01*
X-63058D01*
X-62599Y78642D01*
Y79561D01*
X-63058Y80020D01*
X-65354Y77265D02*
X-62599D01*
X-63517Y76346D01*
X-62599Y75428D01*
X-65354D01*
X-62599Y74510D02*
Y73591D01*
Y74050D01*
X-65354D01*
X-64894Y74510D01*
X-62599Y72214D02*
Y71295D01*
Y71755D01*
X-65354D01*
X-64894Y72214D01*
X-65354Y69918D02*
X-62599D01*
Y68540D01*
X-63058Y68081D01*
X-63517D01*
X-63976Y68540D01*
Y69918D01*
Y68540D01*
X-64435Y68081D01*
X-64894D01*
X-65354Y68540D01*
Y69918D01*
X226378Y-61811D02*
X229133D01*
Y-60434D01*
X228674Y-59974D01*
X227755D01*
X227296Y-60434D01*
Y-61811D01*
Y-60893D02*
X226378Y-59974D01*
X228674Y-59056D02*
X229133Y-58597D01*
Y-57679D01*
X228674Y-57219D01*
X228215D01*
X227755Y-57679D01*
Y-58138D01*
Y-57679D01*
X227296Y-57219D01*
X226837D01*
X226378Y-57679D01*
Y-58597D01*
X226837Y-59056D01*
X229133Y-56301D02*
Y-54464D01*
X228674D01*
X226837Y-56301D01*
X226378D01*
X229133Y-53546D02*
X226378D01*
Y-52168D01*
X226837Y-51709D01*
X227296D01*
X227755Y-52168D01*
Y-53546D01*
Y-52168D01*
X228215Y-51709D01*
X228674D01*
X229133Y-52168D01*
Y-53546D01*
X-102363Y-28642D02*
X-105118D01*
Y-27264D01*
X-104659Y-26805D01*
X-102822D01*
X-102363Y-27264D01*
Y-28642D01*
X-102822Y-25887D02*
X-102363Y-25427D01*
Y-24509D01*
X-102822Y-24050D01*
X-103281D01*
X-103741Y-24509D01*
Y-24968D01*
Y-24509D01*
X-104200Y-24050D01*
X-104659D01*
X-105118Y-24509D01*
Y-25427D01*
X-104659Y-25887D01*
X-105118Y-23132D02*
Y-22213D01*
Y-22672D01*
X-102363D01*
X-102822Y-23132D01*
X-102363Y-20836D02*
X-105118D01*
Y-19458D01*
X-104659Y-18999D01*
X-104200D01*
X-103741Y-19458D01*
Y-20836D01*
Y-19458D01*
X-103281Y-18999D01*
X-102822D01*
X-102363Y-19458D01*
Y-20836D01*
X-122638Y-29724D02*
X-119883D01*
Y-28347D01*
X-120342Y-27888D01*
X-121260D01*
X-121720Y-28347D01*
Y-29724D01*
Y-28806D02*
X-122638Y-27888D01*
X-120342Y-26969D02*
X-119883Y-26510D01*
Y-25592D01*
X-120342Y-25133D01*
X-120801D01*
X-121260Y-25592D01*
Y-26051D01*
Y-25592D01*
X-121720Y-25133D01*
X-122179D01*
X-122638Y-25592D01*
Y-26510D01*
X-122179Y-26969D01*
X-122638Y-22837D02*
X-119883D01*
X-121260Y-24214D01*
Y-22378D01*
X-119883Y-21459D02*
X-122638D01*
Y-20082D01*
X-122179Y-19623D01*
X-121720D01*
X-121260Y-20082D01*
Y-21459D01*
Y-20082D01*
X-120801Y-19623D01*
X-120342D01*
X-119883Y-20082D01*
Y-21459D01*
X-135039Y63189D02*
Y66141D01*
X-136515D01*
X-137007Y65649D01*
Y64665D01*
X-136515Y64173D01*
X-135039D01*
X-136023D02*
X-137007Y63189D01*
X-139959Y66141D02*
X-137991D01*
Y63189D01*
X-139959D01*
X-137991Y64665D02*
X-138975D01*
X-142911Y65649D02*
X-142419Y66141D01*
X-141435D01*
X-140943Y65649D01*
Y65157D01*
X-141435Y64665D01*
X-142419D01*
X-142911Y64173D01*
Y63681D01*
X-142419Y63189D01*
X-141435D01*
X-140943Y63681D01*
X-145863Y66141D02*
X-143895D01*
Y63189D01*
X-145863D01*
X-143895Y64665D02*
X-144879D01*
X-146847Y66141D02*
X-148814D01*
X-147830D01*
Y63189D01*
X-77658Y89370D02*
Y92322D01*
X-79133D01*
X-79625Y91830D01*
Y90846D01*
X-79133Y90354D01*
X-77658D01*
X-80609Y89370D02*
Y91338D01*
X-81593Y92322D01*
X-82577Y91338D01*
Y89370D01*
Y90846D01*
X-80609D01*
X-83561Y92322D02*
X-84545D01*
X-84053D01*
Y89370D01*
X-83561D01*
X-84545D01*
X-86021D02*
Y92322D01*
X-87497D01*
X-87989Y91830D01*
Y90846D01*
X-87497Y90354D01*
X-86021D01*
X-87005D02*
X-87989Y89370D01*
X112098Y57303D02*
Y60321D01*
X113606Y58812D02*
X110589D01*
X89764Y82579D02*
X87796D01*
X88780D01*
Y88482D01*
X89764Y87498D01*
X97736Y59841D02*
X96752Y60825D01*
X94784D01*
X93800Y59841D01*
Y58857D01*
X94784Y57873D01*
X95768D01*
X94784D01*
X93800Y56889D01*
Y55905D01*
X94784Y54921D01*
X96752D01*
X97736Y55905D01*
D85*
X-58465Y-23327D02*
X-53347D01*
X117106Y61752D02*
Y81752D01*
X107106Y61752D02*
X117106D01*
X107106D02*
Y81752D01*
X117106D01*
X-111909Y-17421D02*
X-106791D01*
X101063Y61575D02*
X102795Y63307D01*
X101063Y80551D02*
X102795Y78819D01*
X91693Y80512D02*
X101063D01*
X91693Y61614D02*
X101063D01*
X102795Y63307D02*
Y78819D01*
X91693Y61614D02*
Y80512D01*
X-74475Y2967D02*
X-72998D01*
Y4444D01*
X-105675Y2967D02*
X-104199D01*
X-105675D02*
Y4444D01*
Y34168D02*
Y35644D01*
X-104199D01*
X-74475D02*
X-72998D01*
Y34168D02*
Y35644D01*
X118996Y73327D02*
X125689D01*
X118996Y77067D02*
X119783D01*
X124901D02*
X125689D01*
X118996Y65650D02*
X119783D01*
X124901D02*
X125689D01*
X118996D02*
Y77067D01*
X125689Y65650D02*
Y77067D01*
X58878Y60677D02*
X69378D01*
X58878D02*
Y79677D01*
X69378D01*
Y60677D02*
Y79677D01*
D139*
X-9843Y-99673D02*
G03*
X-9843Y-99673I-197J0D01*
G01*
X39650Y787D02*
G03*
X39650Y787I-197J0D01*
G01*
X138862Y100524D02*
G03*
X138862Y100524I-197J0D01*
G01*
X-60433Y-99772D02*
G03*
X-60433Y-99772I-197J0D01*
G01*
X-10728Y803D02*
G03*
X-10728Y803I-197J0D01*
G01*
X189862Y-100350D02*
G03*
X189862Y-100350I-197J0D01*
G01*
X-11547Y100213D02*
G03*
X-11547Y100213I-197J0D01*
G01*
X89862Y-99957D02*
G03*
X89862Y-99957I-197J0D01*
G01*
X139583Y-100024D02*
G03*
X139583Y-100024I-197J0D01*
G01*
X-60843Y100870D02*
G03*
X-60843Y100870I-197J0D01*
G01*
X40354Y-99843D02*
G03*
X40354Y-99843I-197J0D01*
G01*
X239961Y130D02*
G03*
X239961Y130I-197J0D01*
G01*
X139551Y410D02*
G03*
X139551Y410I-197J0D01*
G01*
X89354Y99902D02*
G03*
X89354Y99902I-197J0D01*
G01*
X189764Y-67D02*
G03*
X189764Y-67I-197J0D01*
G01*
X89650Y410D02*
G03*
X89650Y410I-197J0D01*
G01*
X38862Y100098D02*
G03*
X38862Y100098I-197J0D01*
G01*
X85138Y73721D02*
G03*
X85138Y73721I-197J0D01*
G01*
X189173Y100524D02*
G03*
X189173Y100524I-197J0D01*
G01*
D140*
X-69947Y35054D02*
G03*
X-69947Y35054I-492J0D01*
G01*
D141*
X-132308Y61798D02*
X-120103D01*
X-132308Y41719D02*
X-120103Y41720D01*
X-136245Y48412D02*
X-136245Y55105D01*
X-116166Y48412D02*
Y55105D01*
X-88189Y66831D02*
X-75984D01*
X-88189Y86909D02*
X-75984Y86910D01*
X-72047Y73524D02*
X-72047Y80216D01*
X-92126Y73524D02*
Y80216D01*
D142*
X-117422Y29135D02*
X-117815Y28741D01*
X-118603D01*
X-118996Y29135D01*
Y30709D01*
X-118603Y31102D01*
X-117815D01*
X-117422Y30709D01*
X-115060Y31102D02*
X-116635D01*
X-115060Y29528D01*
Y29135D01*
X-115454Y28741D01*
X-116241D01*
X-116635Y29135D01*
X-114273D02*
X-113880Y28741D01*
X-113093D01*
X-112699Y29135D01*
Y30709D01*
X-113093Y31102D01*
X-113880D01*
X-114273Y30709D01*
Y29135D01*
X-111912Y31102D02*
Y28741D01*
X-111125Y29528D01*
X-110337Y28741D01*
Y31102D01*
M02*
