G04 Layer_Color=32768*
%FSLAX25Y25*%
%MOIN*%
G70*
G01*
G75*
%ADD139C,0.00394*%
%ADD145C,0.00197*%
D139*
X220866Y-62106D02*
X225590Y-62106D01*
X220866Y-52264D02*
X225590D01*
Y-62106D02*
Y-52264D01*
X220866Y-62106D02*
Y-52264D01*
X223228Y-58366D02*
Y-56004D01*
X222047Y-57185D02*
X224409Y-57185D01*
X-13287Y-97705D02*
X-10728D01*
X-12008Y-96425D02*
X-12008Y-98984D01*
X36205Y2756D02*
X38764D01*
X37484Y4035D02*
X37484Y1476D01*
X135417Y102492D02*
X137976D01*
X136697Y103772D02*
X136697Y101213D01*
X-63878Y-97803D02*
X-61319D01*
X-62598Y-96524D02*
X-62598Y-99083D01*
X-14173Y2772D02*
X-11614D01*
X-12894Y4051D02*
X-12894Y1492D01*
X186417Y-98382D02*
X188976D01*
X187697Y-97102D02*
X187697Y-99661D01*
X-14992Y102181D02*
X-12433D01*
X-13713Y103461D02*
X-13713Y100902D01*
X86417Y-97988D02*
X88976D01*
X87697Y-96709D02*
X87697Y-99268D01*
X136138Y-98055D02*
X138697D01*
X137417Y-96776D02*
X137417Y-99335D01*
X-64287Y102839D02*
X-61728D01*
X-63008Y104118D02*
X-63008Y101559D01*
X36909Y-97874D02*
X39468D01*
X38189Y-96595D02*
X38189Y-99154D01*
X236516Y2098D02*
X239075D01*
X237795Y3378D02*
X237795Y819D01*
X136106Y2378D02*
X138665D01*
X137386Y3658D02*
X137386Y1098D01*
X85909Y101870D02*
X88468D01*
X87189Y103150D02*
X87189Y100591D01*
X186319Y1902D02*
X188878D01*
X187598Y3181D02*
X187598Y622D01*
X86205Y2378D02*
X88764D01*
X87484Y3658D02*
X87484Y1098D01*
X35417Y102067D02*
X37976D01*
X36697Y103347D02*
X36697Y100787D01*
X-152461Y120669D02*
X-150099Y120669D01*
X-151280Y119488D02*
Y121850D01*
X-148917Y115748D02*
Y125591D01*
X-153642Y115748D02*
Y125591D01*
Y115748D02*
X-148917D01*
X-153642Y125591D02*
X-148917Y125591D01*
X-64764Y-31890D02*
X-62402Y-31890D01*
X-63583Y-33071D02*
Y-30709D01*
X-61221Y-36811D02*
Y-26969D01*
X-65945Y-36811D02*
Y-26969D01*
Y-36811D02*
X-61221D01*
X-65945Y-26969D02*
X-61221Y-26969D01*
X174508Y102394D02*
X174508Y100031D01*
X173327Y101213D02*
X175689D01*
X169587Y103575D02*
X179429D01*
X169587Y98850D02*
X179429D01*
Y103575D01*
X169587D02*
X169587Y98850D01*
X-24508Y-97803D02*
X-24508Y-100165D01*
X-25689Y-98984D02*
X-23327D01*
X-29429Y-101347D02*
X-19587D01*
X-29429Y-96622D02*
X-19587D01*
X-29429Y-101347D02*
Y-96622D01*
X-19587D02*
X-19587Y-101347D01*
X24984Y2657D02*
X24984Y295D01*
X23803Y1476D02*
X26165D01*
X20063Y-886D02*
X29906D01*
X20063Y3839D02*
X29906D01*
X20063Y-886D02*
Y3839D01*
X29906D02*
X29906Y-886D01*
X124197Y102394D02*
X124197Y100031D01*
X123016Y101213D02*
X125378D01*
X119275Y103575D02*
X129118D01*
X119275Y98850D02*
X129118D01*
Y103575D01*
X119275D02*
X119275Y98850D01*
X-75099Y-97902D02*
X-75099Y-100264D01*
X-76280Y-99083D02*
X-73917D01*
X-80020Y-101445D02*
X-70177D01*
X-80020Y-96720D02*
X-70177D01*
X-80020Y-101445D02*
Y-96720D01*
X-70177D02*
X-70177Y-101445D01*
X-25394Y2673D02*
X-25394Y311D01*
X-26575Y1492D02*
X-24213D01*
X-30315Y-870D02*
X-20472D01*
X-30315Y3854D02*
X-20472D01*
X-30315Y-870D02*
Y3854D01*
X-20472D02*
X-20472Y-870D01*
X175197Y-98480D02*
X175197Y-100842D01*
X174016Y-99661D02*
X176378D01*
X170275Y-97299D02*
X180118D01*
X170275Y-102024D02*
X180118D01*
Y-97299D01*
X170275D02*
X170275Y-102024D01*
X-26213Y102083D02*
X-26213Y99721D01*
X-27394Y100902D02*
X-25032D01*
X-31134Y98539D02*
X-21291D01*
X-31134Y103264D02*
X-21291D01*
X-31134Y98539D02*
Y103264D01*
X-21291D02*
X-21291Y98539D01*
X75197Y-98087D02*
X75197Y-100449D01*
X74016Y-99268D02*
X76378D01*
X70275Y-101630D02*
X80118D01*
X70275Y-96905D02*
X80118D01*
X70275Y-101630D02*
Y-96905D01*
X80118D02*
X80118Y-101630D01*
X-107677Y84941D02*
X-105315Y84941D01*
X-106496Y83760D02*
Y86122D01*
X-104134Y80020D02*
Y89862D01*
X-108858Y80020D02*
Y89862D01*
Y80020D02*
X-104134D01*
X-108858Y89862D02*
X-104134Y89862D01*
X124917Y-98154D02*
X124917Y-100516D01*
X123736Y-99335D02*
X126098D01*
X119996Y-96973D02*
X129839D01*
X119996Y-101697D02*
X129839D01*
Y-96973D01*
X119996D02*
X119996Y-101697D01*
X-75492Y102756D02*
X-75492Y100394D01*
X-76673Y101575D02*
X-74311D01*
X-80413Y99213D02*
X-70571D01*
X-80413Y103937D02*
X-70571D01*
X-80413Y99213D02*
Y103937D01*
X-70571D02*
X-70571Y99213D01*
X25689Y-97972D02*
X25689Y-100335D01*
X24508Y-99154D02*
X26870D01*
X20768Y-101516D02*
X30610D01*
X20768Y-96791D02*
X30610D01*
X20768Y-101516D02*
Y-96791D01*
X30610D02*
X30610Y-101516D01*
X-102461Y84941D02*
X-100098Y84941D01*
X-101279Y83760D02*
Y86122D01*
X-103642Y80020D02*
Y89862D01*
X-98917Y80020D02*
Y89862D01*
X-103642D02*
X-98917D01*
X-103642Y80020D02*
X-98917Y80020D01*
X-198031Y120768D02*
X-195669Y120768D01*
X-196850Y119587D02*
Y121949D01*
X-199213Y115847D02*
Y125689D01*
X-194488Y115847D02*
Y125689D01*
X-199213D02*
X-194488D01*
X-199213Y115847D02*
X-194488Y115847D01*
X-190157Y120768D02*
X-187795Y120768D01*
X-188976Y119587D02*
Y121949D01*
X-191339Y115847D02*
Y125689D01*
X-186614Y115847D02*
Y125689D01*
X-191339D02*
X-186614D01*
X-191339Y115847D02*
X-186614Y115847D01*
X-229626Y120768D02*
X-227264Y120768D01*
X-228445Y119587D02*
Y121949D01*
X-230807Y115847D02*
Y125689D01*
X-226083Y115847D02*
Y125689D01*
X-230807D02*
X-226083D01*
X-230807Y115847D02*
X-226083Y115847D01*
X-221850Y120768D02*
X-219488Y120768D01*
X-220669Y119587D02*
Y121949D01*
X-223031Y115847D02*
Y125689D01*
X-218307Y115847D02*
Y125689D01*
X-223031D02*
X-218307D01*
X-223031Y115847D02*
X-218307Y115847D01*
X225295Y2000D02*
X225295Y-362D01*
X224114Y819D02*
X226476D01*
X220374Y-1543D02*
X230217D01*
X220374Y3181D02*
X230217D01*
X220374Y-1543D02*
Y3181D01*
X230217D02*
X230217Y-1543D01*
X124886Y2279D02*
X124886Y-83D01*
X123705Y1098D02*
X126067D01*
X119965Y-1264D02*
X129807D01*
X119965Y3461D02*
X129807D01*
X119965Y-1264D02*
Y3461D01*
X129807D02*
X129807Y-1264D01*
X74689Y101772D02*
X74689Y99410D01*
X73508Y100591D02*
X75870D01*
X69768Y98228D02*
X79610D01*
X69768Y102953D02*
X79610D01*
X69768Y98228D02*
Y102953D01*
X79610D02*
X79610Y98228D01*
X175098Y1803D02*
X175098Y-559D01*
X173917Y622D02*
X176279D01*
X170177Y-1740D02*
X180020D01*
X170177Y2984D02*
X180020D01*
X170177Y-1740D02*
Y2984D01*
X180020D02*
X180020Y-1740D01*
X74984Y2279D02*
X74984Y-83D01*
X73803Y1098D02*
X76165D01*
X70063Y-1264D02*
X79905D01*
X70063Y3461D02*
X79905D01*
X70063Y-1264D02*
Y3461D01*
X79905D02*
X79905Y-1264D01*
X24213Y101969D02*
X24213Y99606D01*
X23031Y100787D02*
X25394D01*
X19291Y98425D02*
X29134D01*
X19291Y103150D02*
X29134D01*
X19291Y98425D02*
Y103150D01*
X29134D02*
X29134Y98425D01*
X-18110Y-96425D02*
X-15748D01*
X-16929Y-97606D02*
Y-95244D01*
X-19094Y-101347D02*
Y-91504D01*
X-14764Y-101347D02*
Y-91504D01*
X-19094Y-91504D02*
X-14764Y-91504D01*
X-19094Y-101347D02*
X-14764Y-101347D01*
X31382Y4035D02*
X33744D01*
X32563Y2854D02*
Y5217D01*
X30398Y-886D02*
Y8957D01*
X34728Y-886D02*
Y8957D01*
X30398Y8957D02*
X34728Y8957D01*
X30398Y-886D02*
X34728Y-886D01*
X72244Y69291D02*
X74606D01*
X73425Y68110D02*
Y70473D01*
X71260Y64370D02*
Y74213D01*
X75590Y64370D02*
Y74213D01*
X71260Y74213D02*
X75590Y74213D01*
X71260Y64370D02*
X75590Y64370D01*
X130595Y103772D02*
X132957D01*
X131775Y102591D02*
Y104953D01*
X129610Y98850D02*
Y108693D01*
X133941Y98850D02*
Y108693D01*
X129610Y108693D02*
X133941Y108693D01*
X129610Y98850D02*
X133941Y98850D01*
X-68701Y-96524D02*
X-66339D01*
X-67520Y-97705D02*
Y-95342D01*
X-69685Y-101445D02*
Y-91602D01*
X-65354Y-101445D02*
Y-91602D01*
X-69685Y-91602D02*
X-65354Y-91602D01*
X-69685Y-101445D02*
X-65354Y-101445D01*
X-18996Y4051D02*
X-16634D01*
X-17815Y2870D02*
Y5232D01*
X-19980Y-870D02*
Y8973D01*
X-15650Y-870D02*
Y8972D01*
X-19980Y8973D02*
X-15650Y8972D01*
X-19980Y-870D02*
X-15650Y-870D01*
X181595Y-97102D02*
X183957D01*
X182775Y-98283D02*
Y-95921D01*
X180610Y-102024D02*
Y-92181D01*
X184941Y-102024D02*
Y-92181D01*
X180610Y-92181D02*
X184941Y-92181D01*
X180610Y-102024D02*
X184941Y-102024D01*
X-19815Y103461D02*
X-17453D01*
X-18634Y102279D02*
Y104642D01*
X-20799Y98539D02*
Y108382D01*
X-16468Y98539D02*
Y108382D01*
X-20799Y108382D02*
X-16468Y108382D01*
X-20799Y98539D02*
X-16468Y98539D01*
X81595Y-96709D02*
X83957D01*
X82775Y-97890D02*
Y-95527D01*
X80610Y-101630D02*
Y-91787D01*
X84941Y-101630D02*
Y-91787D01*
X80610Y-91787D02*
X84941Y-91787D01*
X80610Y-101630D02*
X84941Y-101630D01*
X131315Y-96776D02*
X133677D01*
X132496Y-97957D02*
Y-95595D01*
X130331Y-101697D02*
Y-91854D01*
X134661Y-101697D02*
Y-91854D01*
X130331Y-91854D02*
X134661Y-91854D01*
X130331Y-101697D02*
X134661Y-101697D01*
X-69110Y104118D02*
X-66748D01*
X-67929Y102937D02*
Y105299D01*
X-70095Y99197D02*
Y109039D01*
X-65764Y99197D02*
Y109039D01*
X-70095Y109039D02*
X-65764Y109039D01*
X-70095Y99197D02*
X-65764Y99197D01*
X32087Y-96595D02*
X34449D01*
X33268Y-97776D02*
Y-95413D01*
X31102Y-101516D02*
Y-91673D01*
X35433Y-101516D02*
Y-91673D01*
X31102Y-91673D02*
X35433Y-91673D01*
X31102Y-101516D02*
X35433Y-101516D01*
X231693Y3378D02*
X234055D01*
X232874Y2197D02*
Y4559D01*
X230709Y-1543D02*
Y8299D01*
X235039Y-1543D02*
Y8299D01*
X230709Y8299D02*
X235039Y8299D01*
X230709Y-1543D02*
X235039Y-1543D01*
X131283Y3658D02*
X133646D01*
X132465Y2476D02*
Y4839D01*
X130299Y-1264D02*
Y8579D01*
X134630Y-1264D02*
Y8579D01*
X130299Y8579D02*
X134630Y8579D01*
X130299Y-1264D02*
X134630Y-1264D01*
X81087Y103150D02*
X83449D01*
X82268Y101969D02*
Y104331D01*
X80102Y98228D02*
Y108071D01*
X84433Y98228D02*
Y108071D01*
X80102Y108071D02*
X84433Y108071D01*
X80102Y98228D02*
X84433Y98228D01*
X181496Y3181D02*
X183858D01*
X182677Y2000D02*
Y4362D01*
X180512Y-1740D02*
Y8102D01*
X184843Y-1740D02*
Y8102D01*
X180512Y8102D02*
X184843Y8102D01*
X180512Y-1740D02*
X184843Y-1740D01*
X81382Y3658D02*
X83744D01*
X82563Y2476D02*
Y4839D01*
X80398Y-1264D02*
Y8579D01*
X84728Y-1264D02*
Y8579D01*
X80398Y8579D02*
X84728Y8579D01*
X80398Y-1264D02*
X84728Y-1264D01*
X30595Y103347D02*
X32957D01*
X31776Y102165D02*
Y104528D01*
X29610Y98425D02*
Y108268D01*
X33941Y98425D02*
Y108268D01*
X29610Y108268D02*
X33941Y108268D01*
X29610Y98425D02*
X33941Y98425D01*
X-131321Y1082D02*
X-131321Y-3249D01*
X-121478D02*
X-121478Y1082D01*
X-131321Y-3249D02*
X-121478D01*
X-131321Y1082D02*
X-121478D01*
X-127581Y-1084D02*
X-125218D01*
X-126400Y-2265D02*
Y97D01*
X-120177Y68110D02*
X-120177Y63779D01*
X-130020D02*
X-130020Y68110D01*
X-120177D01*
X-130020Y63779D02*
X-120177D01*
X-126279Y65945D02*
X-123917D01*
X-125098Y64764D02*
Y67126D01*
X-74376Y40172D02*
Y42534D01*
X-75557Y41353D02*
X-73195D01*
X-79298Y43518D02*
X-69455D01*
X-79298Y39188D02*
X-69455D01*
X-69455Y43518D01*
X-79298D02*
X-79298Y39188D01*
X-65124Y37219D02*
X-59219D01*
X-65124Y25014D02*
X-59219Y25014D01*
X-65124Y25014D02*
Y37219D01*
X-59219Y25014D02*
Y37219D01*
X-62172Y29247D02*
Y32987D01*
X-64042Y31117D02*
X-60302Y31117D01*
X-68471Y30723D02*
X-66109D01*
X-67290Y31904D02*
X-67290Y29542D01*
X-65124Y25802D02*
Y35644D01*
X-69455D02*
X-69455Y25802D01*
X-65124Y25802D01*
X-69455Y35644D02*
X-65124D01*
X-72014Y44503D02*
Y46865D01*
X-73195Y45684D02*
X-70833D01*
X-76935Y47849D02*
X-67093D01*
X-76935Y43518D02*
X-67093Y43518D01*
Y47849D01*
X-76935Y43518D02*
Y47849D01*
X-80282Y48440D02*
X-77920D01*
X-79101Y47259D02*
Y49621D01*
X-81266Y43518D02*
Y53361D01*
X-76935Y43518D02*
Y53361D01*
X-81266Y53361D02*
X-76935Y53361D01*
X-81266Y43518D02*
X-76935Y43518D01*
X-87532Y55594D02*
Y57957D01*
X-88713Y56775D02*
X-86351D01*
X-92453Y58941D02*
X-82610D01*
X-92453Y54610D02*
X-82610D01*
X-82610Y58941D01*
X-92453D02*
X-92453Y54610D01*
X-112565Y17731D02*
X-110203D01*
X-111384Y16550D02*
Y18912D01*
X-113550Y22652D02*
X-113549Y12810D01*
X-109219Y12810D02*
Y22652D01*
X-113550D02*
X-109219D01*
X-113549Y12810D02*
X-109219Y12810D01*
X-105085Y46077D02*
X-105085Y43715D01*
X-106266Y44896D02*
X-103904Y44896D01*
X-110006Y42731D02*
X-100164Y42731D01*
X-110006Y47062D02*
X-100164D01*
X-110006Y42731D02*
Y47062D01*
X-100164D02*
X-100164Y42731D01*
X-105085Y48046D02*
Y50408D01*
X-106266Y49227D02*
X-103904Y49227D01*
X-110006Y47062D02*
X-100164D01*
X-110006Y51392D02*
X-100164D01*
X-110006D02*
X-110006Y47062D01*
X-100164D02*
Y51392D01*
X-113353Y35841D02*
X-110991D01*
X-112172Y34660D02*
Y37022D01*
X-110006Y30920D02*
Y40762D01*
X-114337Y30920D02*
Y40762D01*
Y30920D02*
X-110006Y30920D01*
X-114337Y40762D02*
X-110006Y40762D01*
X-117683Y35841D02*
X-115321D01*
X-116502Y34660D02*
Y37022D01*
X-114337Y30920D02*
Y40762D01*
X-118668Y30920D02*
Y40762D01*
Y30920D02*
X-114337Y30920D01*
X-118668Y40762D02*
X-114337Y40762D01*
X-134646Y18996D02*
X-132283D01*
X-133465Y17815D02*
Y20177D01*
X-131299Y14075D02*
Y23917D01*
X-135630Y14075D02*
Y23917D01*
Y14075D02*
X-131299Y14075D01*
X-135630Y23917D02*
X-131299Y23917D01*
X-135925Y8465D02*
X-133563D01*
X-134744Y7283D02*
Y9646D01*
X-132579Y3543D02*
Y13386D01*
X-136909Y3543D02*
Y13386D01*
Y3543D02*
X-132579Y3543D01*
X-136909Y13386D02*
X-132579Y13386D01*
X-127953Y30709D02*
X-125591D01*
X-126772Y29528D02*
Y31890D01*
X-124606Y25787D02*
Y35630D01*
X-128937Y25787D02*
Y35630D01*
Y25787D02*
X-124606Y25787D01*
X-128937Y35630D02*
X-124606Y35630D01*
X-141848Y2557D02*
Y4919D01*
X-143029Y3738D02*
X-140667D01*
X-146770Y5903D02*
X-136927D01*
X-146770Y1572D02*
X-136927D01*
Y5903D01*
X-146770Y1572D02*
Y5903D01*
X-133825Y32298D02*
Y34660D01*
X-135006Y33479D02*
X-132644D01*
X-138746Y31314D02*
X-128904D01*
X-138746Y35644D02*
X-128904D01*
X-138746Y31314D02*
Y35644D01*
X-128904Y31314D02*
Y35644D01*
X-133858Y26575D02*
Y28937D01*
X-135039Y27756D02*
X-132677D01*
X-138779Y29921D02*
X-128937D01*
X-138779Y25591D02*
X-128937D01*
X-128937Y29921D01*
X-138779D02*
X-138779Y25591D01*
X-124409Y18110D02*
X-122047D01*
X-123228Y16929D02*
Y19291D01*
X-125394Y13189D02*
Y23031D01*
X-121063Y13189D02*
Y23031D01*
X-125394D02*
X-121063D01*
X-125394Y13189D02*
X-121063D01*
X-121358Y5020D02*
Y7382D01*
X-122539Y6201D02*
X-120177D01*
X-126280Y8366D02*
X-116437D01*
X-126280Y4035D02*
X-116437D01*
X-116437Y8366D01*
X-126280D02*
X-126280Y4035D01*
X-105085Y39385D02*
Y41747D01*
X-106266Y40566D02*
X-103904D01*
X-110006Y38400D02*
X-100164D01*
X-110006Y42731D02*
X-100164Y42731D01*
X-110006Y38400D02*
Y42731D01*
X-100164Y38400D02*
Y42731D01*
X-85236Y-2264D02*
Y98D01*
X-86417Y-1083D02*
X-84055D01*
X-90158Y-3248D02*
X-80315D01*
X-90158Y1083D02*
X-80315D01*
X-90158Y-3248D02*
X-90158Y1083D01*
X-80315D02*
X-80315Y-3248D01*
X-115321Y24030D02*
Y27967D01*
X-117290Y25999D02*
X-113353D01*
X-121423Y23046D02*
X-109219D01*
X-121423Y28951D02*
X-109219D01*
X-121423Y23046D02*
Y28951D01*
X-109219Y23046D02*
Y28951D01*
X-130315Y19488D02*
X-126378D01*
X-128347Y17520D02*
Y21457D01*
X-125394Y13386D02*
Y25591D01*
X-131299Y13386D02*
Y25591D01*
Y13386D02*
X-125394D01*
X-131299Y25591D02*
X-125394D01*
X-131332Y7170D02*
X-127395D01*
X-129364Y5202D02*
Y9139D01*
X-126411Y1068D02*
Y13273D01*
X-132317Y1068D02*
Y13273D01*
Y1068D02*
X-126411D01*
X-132317Y13273D02*
X-126411D01*
X-111935Y55101D02*
X-107211Y55101D01*
X-111935Y64944D02*
X-107211Y64944D01*
Y55101D02*
Y64944D01*
X-111935Y55101D02*
Y64944D01*
X-109573Y58842D02*
Y61204D01*
X-110754Y60023D02*
X-108392D01*
X180905Y103772D02*
X183268D01*
X182087Y102591D02*
Y104953D01*
X179921Y98850D02*
Y108693D01*
X184252Y98850D02*
Y108693D01*
X179921Y108693D02*
X184252Y108693D01*
X179921Y98850D02*
X184252Y98850D01*
X77067Y63878D02*
X82972D01*
X77067Y76083D02*
X82972D01*
Y63878D02*
Y76083D01*
X77067Y63878D02*
X77067Y76083D01*
X80020Y68110D02*
Y71850D01*
X78150Y69980D02*
X81890D01*
X95275Y71063D02*
X99212D01*
X97244Y69095D02*
Y73032D01*
X-123589Y35054D02*
X-119652D01*
X-121620Y33085D02*
Y37022D01*
X-118668Y28951D02*
Y41156D01*
X-124573Y28951D02*
Y41156D01*
Y28951D02*
X-118668D01*
X-124573Y41156D02*
X-118668D01*
X-89337Y17337D02*
Y21274D01*
X-91305Y19306D02*
X-87368D01*
X-119477Y-20236D02*
X-114753Y-20236D01*
X-119477Y-30078D02*
X-114753D01*
X-119477D02*
Y-20236D01*
X-114753Y-30078D02*
Y-20236D01*
X-117115Y-26338D02*
Y-23976D01*
X-118296Y-25157D02*
X-115934Y-25157D01*
X84941Y69882D02*
X88878D01*
X86909Y67913D02*
Y71850D01*
X185728Y102492D02*
X188287D01*
X187008Y103772D02*
X187008Y101213D01*
D145*
X-14370Y-101445D02*
Y-93965D01*
X-9646Y-101445D02*
X-9646Y-93965D01*
X-14370D02*
X-9646D01*
X-14370Y-101445D02*
X-9646D01*
X35122Y-984D02*
Y6496D01*
X39846Y-984D02*
X39847Y6496D01*
X35122D02*
X39847D01*
X35122Y-984D02*
X39846D01*
X134335Y98752D02*
Y106232D01*
X139059Y98752D02*
X139059Y106232D01*
X134335D02*
X139059D01*
X134335Y98752D02*
X139059D01*
X-64961Y-101543D02*
Y-94063D01*
X-60236Y-101543D02*
X-60236Y-94063D01*
X-64961D02*
X-60236D01*
X-64961Y-101543D02*
X-60236D01*
X-15256Y-969D02*
Y6512D01*
X-10532Y-969D02*
X-10532Y6512D01*
X-15256D02*
X-10532D01*
X-15256Y-969D02*
X-10532D01*
X185335Y-102122D02*
Y-94642D01*
X190059Y-102122D02*
X190059Y-94642D01*
X185335D02*
X190059D01*
X185335Y-102122D02*
X190059D01*
X-16075Y98441D02*
Y105921D01*
X-11350Y98441D02*
X-11350Y105921D01*
X-16075D02*
X-11350D01*
X-16075Y98441D02*
X-11350D01*
X85335Y-101728D02*
Y-94248D01*
X90059Y-101728D02*
X90059Y-94248D01*
X85335D02*
X90059D01*
X85335Y-101728D02*
X90059D01*
X135055Y-101795D02*
Y-94315D01*
X139779Y-101795D02*
X139779Y-94315D01*
X135055D02*
X139779D01*
X135055Y-101795D02*
X139779D01*
X-65370Y99098D02*
Y106579D01*
X-60646Y99098D02*
X-60646Y106579D01*
X-65370D02*
X-60646D01*
X-65370Y99098D02*
X-60646D01*
X35827Y-101614D02*
Y-94134D01*
X40551Y-101614D02*
X40551Y-94134D01*
X35827D02*
X40551D01*
X35827Y-101614D02*
X40551D01*
X235433Y-1642D02*
Y5839D01*
X240157Y-1642D02*
X240157Y5839D01*
X235433D02*
X240157D01*
X235433Y-1642D02*
X240157D01*
X135024Y-1362D02*
Y6118D01*
X139748Y-1362D02*
X139748Y6118D01*
X135024D02*
X139748D01*
X135024Y-1362D02*
X139748D01*
X84827Y98130D02*
Y105610D01*
X89551Y98130D02*
X89551Y105610D01*
X84827D02*
X89551D01*
X84827Y98130D02*
X89551D01*
X185236Y-1839D02*
Y5642D01*
X189961Y-1839D02*
X189961Y5642D01*
X185236D02*
X189961D01*
X185236Y-1839D02*
X189961D01*
X85122Y-1362D02*
Y6118D01*
X89846Y-1362D02*
X89846Y6118D01*
X85122D02*
X89846D01*
X85122Y-1362D02*
X89846D01*
X34335Y98327D02*
Y105807D01*
X39059Y98327D02*
X39059Y105807D01*
X34335D02*
X39059D01*
X34335Y98327D02*
X39059D01*
X-107447Y1196D02*
X-71227D01*
X-107447Y37416D02*
X-71227D01*
X-107447Y1196D02*
Y37416D01*
X-71227Y1196D02*
Y37416D01*
X89272Y65059D02*
Y74705D01*
X84547Y65059D02*
Y74705D01*
Y65059D02*
X89272D01*
X84547Y74705D02*
X89272D01*
X184646Y98752D02*
Y106232D01*
X189370Y98752D02*
X189370Y106232D01*
X184646D02*
X189370D01*
X184646Y98752D02*
X189370D01*
M02*
