G04 Layer_Color=128*
%FSLAX25Y25*%
%MOIN*%
G70*
G01*
G75*
%ADD98C,0.00500*%
D98*
X3110Y131811D02*
X16890D01*
X10000Y124921D02*
Y138701D01*
X20902Y130000D02*
X26098D01*
X23500Y127402D02*
Y132598D01*
X20902Y110000D02*
X26098D01*
X23500Y107402D02*
Y112598D01*
X3110Y108189D02*
X16890D01*
X10000Y101299D02*
Y115079D01*
X20902Y120000D02*
X26098D01*
X23500Y117402D02*
Y122598D01*
X70902Y20000D02*
X76098D01*
X73500Y17402D02*
Y22598D01*
X53110Y8189D02*
X66890D01*
X60000Y1299D02*
Y15079D01*
X70902Y10000D02*
X76098D01*
X73500Y7402D02*
Y12598D01*
X70902Y30000D02*
X76098D01*
X73500Y27402D02*
Y32598D01*
X53110Y31811D02*
X66890D01*
X60000Y24921D02*
Y38701D01*
X153110Y31811D02*
X166890D01*
X160000Y24921D02*
Y38701D01*
X170902Y30000D02*
X176098D01*
X173500Y27402D02*
Y32598D01*
X170902Y10000D02*
X176098D01*
X173500Y7402D02*
Y12598D01*
X153110Y8189D02*
X166890D01*
X160000Y1299D02*
Y15079D01*
X170902Y20000D02*
X176098D01*
X173500Y17402D02*
Y22598D01*
X70902Y120000D02*
X76098D01*
X73500Y117402D02*
Y122598D01*
X53110Y108189D02*
X66890D01*
X60000Y101299D02*
Y115079D01*
X70902Y110000D02*
X76098D01*
X73500Y107402D02*
Y112598D01*
X70902Y130000D02*
X76098D01*
X73500Y127402D02*
Y132598D01*
X53110Y131811D02*
X66890D01*
X60000Y124921D02*
Y138701D01*
X103110Y31811D02*
X116890D01*
X110000Y24921D02*
Y38701D01*
X120902Y30000D02*
X126098D01*
X123500Y27402D02*
Y32598D01*
X120902Y10000D02*
X126098D01*
X123500Y7402D02*
Y12598D01*
X103110Y8189D02*
X116890D01*
X110000Y1299D02*
Y15079D01*
X120902Y20000D02*
X126098D01*
X123500Y17402D02*
Y22598D01*
X220902Y20000D02*
X226098D01*
X223500Y17402D02*
Y22598D01*
X203110Y8189D02*
X216890D01*
X210000Y1299D02*
Y15079D01*
X220902Y10000D02*
X226098D01*
X223500Y7402D02*
Y12598D01*
X220902Y30000D02*
X226098D01*
X223500Y27402D02*
Y32598D01*
X203110Y31811D02*
X216890D01*
X210000Y24921D02*
Y38701D01*
X3110Y-68189D02*
X16890D01*
X10000Y-75079D02*
Y-61299D01*
X20902Y-70000D02*
X26098D01*
X23500Y-72598D02*
Y-67402D01*
X20902Y-90000D02*
X26098D01*
X23500Y-92598D02*
Y-87402D01*
X3110Y-91811D02*
X16890D01*
X10000Y-98701D02*
Y-84921D01*
X20902Y-80000D02*
X26098D01*
X23500Y-82598D02*
Y-77402D01*
X-79098Y120000D02*
X-73902D01*
X-76500Y117402D02*
Y122598D01*
X-96890Y108189D02*
X-83110D01*
X-90000Y101299D02*
Y115079D01*
X-79098Y110000D02*
X-73902D01*
X-76500Y107402D02*
Y112598D01*
X-79098Y130000D02*
X-73902D01*
X-76500Y127402D02*
Y132598D01*
X-96890Y131811D02*
X-83110D01*
X-90000Y124921D02*
Y138701D01*
X103110Y-68189D02*
X116890D01*
X110000Y-75079D02*
Y-61299D01*
X120902Y-70000D02*
X126098D01*
X123500Y-72598D02*
Y-67402D01*
X120902Y-90000D02*
X126098D01*
X123500Y-92598D02*
Y-87402D01*
X103110Y-91811D02*
X116890D01*
X110000Y-98701D02*
Y-84921D01*
X120902Y-80000D02*
X126098D01*
X123500Y-82598D02*
Y-77402D01*
X70902Y-80000D02*
X76098D01*
X73500Y-82598D02*
Y-77402D01*
X53110Y-91811D02*
X66890D01*
X60000Y-98701D02*
Y-84921D01*
X70902Y-90000D02*
X76098D01*
X73500Y-92598D02*
Y-87402D01*
X70902Y-70000D02*
X76098D01*
X73500Y-72598D02*
Y-67402D01*
X53110Y-68189D02*
X66890D01*
X60000Y-75079D02*
Y-61299D01*
X-46890Y131811D02*
X-33110D01*
X-40000Y124921D02*
Y138701D01*
X-29098Y130000D02*
X-23902D01*
X-26500Y127402D02*
Y132598D01*
X-29098Y110000D02*
X-23902D01*
X-26500Y107402D02*
Y112598D01*
X-46890Y108189D02*
X-33110D01*
X-40000Y101299D02*
Y115079D01*
X-29098Y120000D02*
X-23902D01*
X-26500Y117402D02*
Y122598D01*
X170902Y-80000D02*
X176098D01*
X173500Y-82598D02*
Y-77402D01*
X153110Y-91811D02*
X166890D01*
X160000Y-98701D02*
Y-84921D01*
X170902Y-90000D02*
X176098D01*
X173500Y-92598D02*
Y-87402D01*
X170902Y-70000D02*
X176098D01*
X173500Y-72598D02*
Y-67402D01*
X153110Y-68189D02*
X166890D01*
X160000Y-75079D02*
Y-61299D01*
X-46555Y31496D02*
X-32776D01*
X-39665Y24606D02*
Y38386D01*
X-28764Y29685D02*
X-23567D01*
X-26165Y27087D02*
Y32283D01*
X-28764Y9685D02*
X-23567D01*
X-26165Y7087D02*
Y12284D01*
X-46555Y7874D02*
X-32776D01*
X-39665Y984D02*
Y14764D01*
X-28764Y19685D02*
X-23567D01*
X-26165Y17087D02*
Y22284D01*
X-79098Y-80000D02*
X-73902D01*
X-76500Y-82598D02*
Y-77402D01*
X-96890Y-91811D02*
X-83110D01*
X-90000Y-98701D02*
Y-84921D01*
X-79098Y-90000D02*
X-73902D01*
X-76500Y-92598D02*
Y-87402D01*
X-79098Y-70000D02*
X-73902D01*
X-76500Y-72598D02*
Y-67402D01*
X-96890Y-68189D02*
X-83110D01*
X-90000Y-75079D02*
Y-61299D01*
X103110Y131811D02*
X116890D01*
X110000Y124921D02*
Y138701D01*
X120902Y130000D02*
X126098D01*
X123500Y127402D02*
Y132598D01*
X120902Y110000D02*
X126098D01*
X123500Y107402D02*
Y112598D01*
X103110Y108189D02*
X116890D01*
X110000Y101299D02*
Y115079D01*
X120902Y120000D02*
X126098D01*
X123500Y117402D02*
Y122598D01*
X20902Y20000D02*
X26098D01*
X23500Y17402D02*
Y22598D01*
X3110Y8189D02*
X16890D01*
X10000Y1299D02*
Y15079D01*
X20902Y10000D02*
X26098D01*
X23500Y7402D02*
Y12598D01*
X20902Y30000D02*
X26098D01*
X23500Y27402D02*
Y32598D01*
X3110Y31811D02*
X16890D01*
X10000Y24921D02*
Y38701D01*
X-46890Y-68189D02*
X-33110D01*
X-40000Y-75079D02*
Y-61299D01*
X-29098Y-70000D02*
X-23902D01*
X-26500Y-72598D02*
Y-67402D01*
X-29098Y-90000D02*
X-23902D01*
X-26500Y-92598D02*
Y-87402D01*
X-46890Y-91811D02*
X-33110D01*
X-40000Y-98701D02*
Y-84921D01*
X-29098Y-80000D02*
X-23902D01*
X-26500Y-82598D02*
Y-77402D01*
X170902Y120000D02*
X176098D01*
X173500Y117402D02*
Y122598D01*
X153110Y108189D02*
X166890D01*
X160000Y101299D02*
Y115079D01*
X170902Y110000D02*
X176098D01*
X173500Y107402D02*
Y112598D01*
X170902Y130000D02*
X176098D01*
X173500Y127402D02*
Y132598D01*
X153110Y131811D02*
X166890D01*
X160000Y124921D02*
Y138701D01*
X-146890Y131811D02*
X-133110D01*
X-140000Y124921D02*
Y138701D01*
X-129098Y130000D02*
X-123902D01*
X-126500Y127402D02*
Y132598D01*
X-129098Y110000D02*
X-123902D01*
X-126500Y107402D02*
Y112598D01*
X-146890Y108189D02*
X-133110D01*
X-140000Y101299D02*
Y115079D01*
X-129098Y120000D02*
X-123902D01*
X-126500Y117402D02*
Y122598D01*
X220902Y120000D02*
X226098D01*
X223500Y117402D02*
Y122598D01*
X203110Y108189D02*
X216890D01*
X210000Y101299D02*
Y115079D01*
X220902Y110000D02*
X226098D01*
X223500Y107402D02*
Y112598D01*
X220902Y130000D02*
X226098D01*
X223500Y127402D02*
Y132598D01*
X203110Y131811D02*
X216890D01*
X210000Y124921D02*
Y138701D01*
X203051Y-68307D02*
X216831D01*
X209941Y-75197D02*
Y-61417D01*
X220843Y-70118D02*
X226039D01*
X223441Y-72716D02*
Y-67520D01*
X220843Y-90118D02*
X226039D01*
X223441Y-92716D02*
Y-87520D01*
X203051Y-91929D02*
X216831D01*
X209941Y-98819D02*
Y-85039D01*
X220843Y-80118D02*
X226039D01*
X223441Y-82717D02*
Y-77520D01*
X-129098Y-80000D02*
X-123902D01*
X-126500Y-82598D02*
Y-77402D01*
X-146890Y-91811D02*
X-133110D01*
X-140000Y-98701D02*
Y-84921D01*
X-129098Y-90000D02*
X-123902D01*
X-126500Y-92598D02*
Y-87402D01*
X-129098Y-70000D02*
X-123902D01*
X-126500Y-72598D02*
Y-67402D01*
X-146890Y-68189D02*
X-133110D01*
X-140000Y-75079D02*
Y-61299D01*
X-78937Y-25768D02*
X-76181D01*
X-77559Y-27146D02*
Y-24390D01*
X-83937Y-25768D02*
X-81181D01*
X-82559Y-27146D02*
Y-24390D01*
X-88937Y-25768D02*
X-86181D01*
X-87559Y-27146D02*
Y-24390D01*
X-93937Y-25768D02*
X-91181D01*
X-92559Y-27146D02*
Y-24390D01*
X-98937Y-25768D02*
X-96181D01*
X-97559Y-27146D02*
Y-24390D01*
X-98937Y-20768D02*
X-96181D01*
X-97559Y-22146D02*
Y-19390D01*
X-93937Y-20768D02*
X-91181D01*
X-92559Y-22146D02*
Y-19390D01*
X-88937Y-20768D02*
X-86181D01*
X-87559Y-22146D02*
Y-19390D01*
X-83937Y-20768D02*
X-81181D01*
X-82559Y-22146D02*
Y-19390D01*
X-78937Y-20768D02*
X-76181D01*
X-77559Y-22146D02*
Y-19390D01*
X110335Y76752D02*
X113878D01*
X112106Y74980D02*
Y78524D01*
X110335Y66752D02*
X113878D01*
X112106Y64980D02*
Y68524D01*
X95669Y76063D02*
X98819D01*
X97244Y74488D02*
Y77638D01*
X95669Y71063D02*
X98819D01*
X97244Y69488D02*
Y72638D01*
X95669Y66063D02*
X98819D01*
X97244Y64488D02*
Y67638D01*
X-230020Y139469D02*
X-226870D01*
X-228445Y137894D02*
Y141043D01*
X-222146Y139469D02*
X-218996D01*
X-220571Y137894D02*
Y141043D01*
X-214272Y139469D02*
X-211122D01*
X-212697Y137894D02*
Y141043D01*
X-206398Y139469D02*
X-203248D01*
X-204823Y137894D02*
Y141043D01*
X-198524Y139469D02*
X-195374D01*
X-196949Y137894D02*
Y141043D01*
X-190650Y139469D02*
X-187500D01*
X-189075Y137894D02*
Y141043D01*
X-183268Y139469D02*
X-178347D01*
X-180807Y137008D02*
Y141929D01*
X-238779Y139469D02*
X-233858D01*
X-236319Y137008D02*
Y141929D01*
X203839Y72047D02*
X213681D01*
X208760Y67126D02*
Y76968D01*
X223721Y72047D02*
X233563D01*
X228642Y67126D02*
Y76968D01*
X221850Y-35433D02*
X229724D01*
X225787Y-39370D02*
Y-31496D01*
X200492Y-35433D02*
X208366D01*
X204429Y-39370D02*
Y-31496D01*
X-145980Y69543D02*
X-144405D01*
X-145192Y68756D02*
Y70330D01*
X-145980Y62456D02*
X-144405D01*
X-145192Y61669D02*
Y63244D01*
X-145980Y55370D02*
X-144405D01*
X-145192Y54582D02*
Y56157D01*
X-145980Y48283D02*
X-144405D01*
X-145192Y47496D02*
Y49071D01*
X-145980Y41197D02*
X-144405D01*
X-145192Y40409D02*
Y41984D01*
X-145980Y34110D02*
X-144405D01*
X-145192Y33323D02*
Y34897D01*
X-145980Y27023D02*
X-144405D01*
X-145192Y26236D02*
Y27811D01*
X-145980Y19937D02*
X-144405D01*
X-145192Y19149D02*
Y20724D01*
X-153066Y69543D02*
X-151491D01*
X-152279Y68756D02*
Y70330D01*
X-153066Y62456D02*
X-151491D01*
X-152279Y61669D02*
Y63244D01*
X-153066Y55370D02*
X-151491D01*
X-152279Y54582D02*
Y56157D01*
X-153066Y48283D02*
X-151491D01*
X-152279Y47496D02*
Y49071D01*
X-153066Y41197D02*
X-151491D01*
X-152279Y40409D02*
Y41984D01*
X-153066Y34110D02*
X-151491D01*
X-152279Y33323D02*
Y34897D01*
X-153066Y27023D02*
X-151491D01*
X-152279Y26236D02*
Y27811D01*
X-153066Y19937D02*
X-151491D01*
X-152279Y19149D02*
Y20724D01*
X-153066Y12850D02*
X-151491D01*
X-152279Y12063D02*
Y13637D01*
X-145980Y12850D02*
X-144405D01*
X-145192Y12063D02*
Y13637D01*
X-145980Y-12780D02*
X-144405D01*
X-145192Y-13567D02*
Y-11992D01*
X-153066Y-12780D02*
X-151491D01*
X-152279Y-13567D02*
Y-11992D01*
X-153066Y-5693D02*
X-151491D01*
X-152279Y-6481D02*
Y-4906D01*
X-145980Y-5693D02*
X-144405D01*
X-145192Y-6481D02*
Y-4906D01*
X-2067Y55020D02*
X-1083D01*
X-1575Y54528D02*
Y55512D01*
X178347Y-26575D02*
X190157D01*
X184252Y-32480D02*
Y-20669D01*
X-178839Y-51673D02*
X-167028D01*
X-172933Y-57579D02*
Y-45768D01*
X-179134Y98425D02*
X-167323D01*
X-173228Y92520D02*
Y104331D01*
X180610Y68307D02*
X192421D01*
X186516Y62402D02*
Y74213D01*
X-58307Y33652D02*
X-57323D01*
X-57815Y33159D02*
Y34144D01*
X-136679Y36432D02*
X-135695D01*
X-136187Y35940D02*
Y36924D01*
X-142224Y33563D02*
X-141240D01*
X-141732Y33071D02*
Y34055D01*
X-103018Y37908D02*
X-102034D01*
X-102526Y37416D02*
Y38400D01*
X-58235Y27967D02*
X-57250D01*
X-57742Y27475D02*
Y28459D01*
X-69947Y48833D02*
X-68963D01*
X-69455Y48341D02*
Y49325D01*
X-108431Y23637D02*
X-107447D01*
X-107939Y23144D02*
Y24129D01*
X-109120Y30034D02*
X-108136D01*
X-108628Y29542D02*
Y30526D01*
X-74868Y49278D02*
X-73884D01*
X-74376Y48786D02*
Y49770D01*
X-82087Y39075D02*
X-81102D01*
X-81595Y38583D02*
Y39567D01*
X-89173Y37598D02*
X-88189D01*
X-88681Y37106D02*
Y38091D01*
X-91732Y38189D02*
X-90748D01*
X-91240Y37697D02*
Y38681D01*
X-141535Y27657D02*
X-140551D01*
X-141043Y27165D02*
Y28150D01*
X-62664Y23046D02*
X-61679D01*
X-62172Y22554D02*
Y23538D01*
X-73067Y2557D02*
X-72083D01*
X-72575Y2065D02*
Y3049D01*
X-79955Y-1477D02*
X-78971D01*
X-79463Y-1970D02*
Y-985D01*
X-127679Y69371D02*
X-126695D01*
X-127187Y68879D02*
Y69863D01*
X-116994Y30329D02*
X-116010D01*
X-116502Y29837D02*
Y30822D01*
X-111581Y44896D02*
X-110597D01*
X-111089Y44404D02*
Y45388D01*
X-99438Y48575D02*
X-98454D01*
X-98946Y48083D02*
Y49067D01*
X-79463Y55496D02*
X-78479D01*
X-78971Y55004D02*
Y55988D01*
X-112919Y50478D02*
X-111935D01*
X-112427Y49986D02*
Y50970D01*
X-110754Y54316D02*
X-109770D01*
X-110262Y53823D02*
Y54808D01*
X-119610Y9740D02*
X-118626D01*
X-119118Y9248D02*
Y10232D01*
X-115674Y6198D02*
X-114690D01*
X-115182Y5706D02*
Y6690D01*
X-119807Y2557D02*
X-118823D01*
X-119315Y2065D02*
Y3049D01*
X-124825Y-12006D02*
X-123841D01*
X-124333Y-12498D02*
Y-11514D01*
X-124825Y-8857D02*
X-123841D01*
X-124333Y-9349D02*
Y-8365D01*
X-124825Y-6397D02*
X-123841D01*
X-124333Y-6889D02*
Y-5905D01*
X-120496Y20958D02*
X-119511D01*
X-120003Y20466D02*
Y21450D01*
X-138011Y40047D02*
X-137027D01*
X-137519Y39555D02*
Y40540D01*
X-66572Y24205D02*
X-65588D01*
X-66080Y23713D02*
Y24697D01*
X-69229Y41524D02*
X-68245D01*
X-68737Y41031D02*
Y42016D01*
X-110033Y20366D02*
X-109048D01*
X-109541Y19874D02*
Y20858D01*
X-114296Y15546D02*
X-113312D01*
X-113804Y15054D02*
Y16038D01*
X-108465Y15650D02*
X-107480D01*
X-107972Y15157D02*
Y16142D01*
X-108626Y13189D02*
X-107642D01*
X-108134Y12697D02*
Y13681D01*
X-107939Y38302D02*
X-106955D01*
X-107447Y37810D02*
Y38794D01*
X-110236Y90847D02*
X-109252D01*
X-109744Y90354D02*
Y91339D01*
X-63389Y12304D02*
X-62405D01*
X-62897Y11812D02*
Y12796D01*
X-15256Y6413D02*
X-14272D01*
X-14764Y5921D02*
Y6905D01*
X148031Y70276D02*
X149016D01*
X148524Y69784D02*
Y70768D01*
X-14370Y-94063D02*
X-13386D01*
X-13878Y-94555D02*
Y-93571D01*
X35827Y-94232D02*
X36811D01*
X36319Y-94724D02*
Y-93740D01*
X85335Y-94346D02*
X86319D01*
X85827Y-94839D02*
Y-93854D01*
X135055Y-94413D02*
X136039D01*
X135547Y-94906D02*
Y-93921D01*
X185335Y-94740D02*
X186319D01*
X185827Y-95232D02*
Y-94248D01*
X226969Y-54528D02*
X227953D01*
X227461Y-55020D02*
Y-54035D01*
X218898Y-55020D02*
X219882D01*
X219390Y-55512D02*
Y-54528D01*
X219094Y-50295D02*
X220079D01*
X219587Y-50787D02*
Y-49803D01*
X224606Y-50295D02*
X225590D01*
X225098Y-50787D02*
Y-49803D01*
X235433Y5740D02*
X236417D01*
X235925Y5248D02*
Y6232D01*
X185366Y5413D02*
X186350D01*
X185858Y4921D02*
Y5906D01*
X135024Y6020D02*
X136008D01*
X135516Y5528D02*
Y6512D01*
X85122Y6020D02*
X86106D01*
X85614Y5528D02*
Y6512D01*
X35122Y6398D02*
X36106D01*
X35614Y5906D02*
Y6890D01*
X-64961Y-94161D02*
X-63976D01*
X-64468Y-94653D02*
Y-93669D01*
X78150Y63287D02*
X79134D01*
X78642Y62795D02*
Y63779D01*
X79823Y77559D02*
X80807D01*
X80315Y77067D02*
Y78051D01*
X73228Y75394D02*
X74213D01*
X73721Y74902D02*
Y75886D01*
X184646Y106134D02*
X185630D01*
X185138Y105642D02*
Y106626D01*
X134335Y106134D02*
X135319D01*
X134827Y105642D02*
Y106626D01*
X84827Y105512D02*
X85811D01*
X85319Y105020D02*
Y106004D01*
X34335Y105709D02*
X35319D01*
X34827Y105217D02*
Y106201D01*
X-16075Y105823D02*
X-15090D01*
X-15583Y105331D02*
Y106315D01*
X-65370Y106480D02*
X-64386D01*
X-64878Y105988D02*
Y106972D01*
X-148327Y117913D02*
X-147343D01*
X-147835Y117421D02*
Y118405D01*
X-155020Y117815D02*
X-154035D01*
X-154528Y117323D02*
Y118307D01*
X-151772Y114272D02*
X-150787D01*
X-151279Y113779D02*
Y114764D01*
X57776Y61516D02*
X58760D01*
X58268Y61024D02*
Y62008D01*
X67913Y60236D02*
X68898D01*
X68405Y59744D02*
Y60728D01*
X62795Y60039D02*
X63779D01*
X63287Y59547D02*
Y60532D01*
X-41929Y93602D02*
X-40945D01*
X-41437Y93110D02*
Y94095D01*
X-78839Y94980D02*
X-77854D01*
X-78347Y94488D02*
Y95472D01*
X75098Y87795D02*
X76083D01*
X75590Y87303D02*
Y88287D01*
X83071Y87795D02*
X84055D01*
X83563Y87303D02*
Y88287D01*
X80315Y87795D02*
X81299D01*
X80807Y87303D02*
Y88287D01*
X77854Y87795D02*
X78839D01*
X78347Y87303D02*
Y88287D01*
X44587Y75984D02*
X45571D01*
X45079Y75492D02*
Y76476D01*
X54921Y76083D02*
X55905D01*
X55413Y75591D02*
Y76575D01*
X51772Y76083D02*
X52756D01*
X52264Y75591D02*
Y76575D01*
X48622Y76279D02*
X49606D01*
X49114Y75787D02*
Y76772D01*
X-51968Y-25000D02*
X-50984D01*
X-51476Y-25492D02*
Y-24508D01*
X-56398Y-22146D02*
X-55413D01*
X-55905Y-22638D02*
Y-21654D01*
X30118Y-94390D02*
X31102D01*
X30610Y-94882D02*
Y-93898D01*
X124016Y96260D02*
X125000D01*
X124508Y95768D02*
Y96752D01*
X-63337Y-24459D02*
X-62352D01*
X-62845Y-24951D02*
Y-23967D01*
X-57677Y-394D02*
X-56693D01*
X-57185Y-886D02*
Y98D01*
X70276Y93996D02*
X71260D01*
X70768Y93504D02*
Y94488D01*
X-70866Y10335D02*
X-69882D01*
X-70374Y9843D02*
Y10827D01*
X-25689Y-24213D02*
X-24705D01*
X-25197Y-24705D02*
Y-23720D01*
X-30807Y-21530D02*
X-29823D01*
X-30315Y-22023D02*
Y-21038D01*
X-44783Y48130D02*
X-43799D01*
X-44291Y47638D02*
Y48622D01*
X-58366Y18407D02*
X-57382D01*
X-57874Y17914D02*
Y18899D01*
X-63287Y-3937D02*
X-62303D01*
X-62795Y-4429D02*
Y-3445D01*
X-110438Y11418D02*
X-109454D01*
X-109946Y10926D02*
Y11910D01*
X-105807Y-15453D02*
X-104823D01*
X-105315Y-15945D02*
Y-14961D01*
X-105217Y-22736D02*
X-104232D01*
X-104724Y-23228D02*
Y-22244D01*
X-112795Y-16240D02*
X-111811D01*
X-112303Y-16732D02*
Y-15748D01*
X37205Y-11516D02*
X38189D01*
X37697Y-12008D02*
Y-11024D01*
X30118Y-9252D02*
X31102D01*
X30610Y-9744D02*
Y-8760D01*
X-58071Y-6299D02*
X-57087D01*
X-57579Y-6791D02*
Y-5807D01*
X-29724Y-25591D02*
X-28740D01*
X-29232Y-26083D02*
Y-25098D01*
X-54232Y-2953D02*
X-53248D01*
X-53740Y-3445D02*
Y-2461D01*
X-60335Y13878D02*
X-59350D01*
X-59842Y13386D02*
Y14370D01*
X-67520Y16353D02*
X-66535D01*
X-67028Y15861D02*
Y16845D01*
X-54626Y21949D02*
X-53642D01*
X-54134Y21457D02*
Y22441D01*
X-56398Y15059D02*
X-55413D01*
X-55905Y14567D02*
Y15551D01*
X79232Y-92815D02*
X80216D01*
X79724Y-93307D02*
Y-92323D01*
X-93602Y61417D02*
X-92618D01*
X-93110Y60925D02*
Y61910D01*
X-71358Y-37598D02*
X-70374D01*
X-70866Y-38091D02*
Y-37106D01*
X-88550Y9070D02*
X-87762D01*
X-88156Y8676D02*
Y9463D01*
X-84219Y9070D02*
X-83431D01*
X-83825Y8676D02*
Y9463D01*
X-79888Y9070D02*
X-79101D01*
X-79494Y8676D02*
Y9463D01*
X-88550Y13400D02*
X-87762D01*
X-88156Y13007D02*
Y13794D01*
X-84219Y13400D02*
X-83431D01*
X-83825Y13007D02*
Y13794D01*
X-79888Y13400D02*
X-79101D01*
X-79494Y13007D02*
Y13794D01*
X-88550Y17731D02*
X-87762D01*
X-88156Y17337D02*
Y18125D01*
X-84219Y17731D02*
X-83431D01*
X-83825Y17337D02*
Y18125D01*
X-79888Y17731D02*
X-79101D01*
X-79494Y17337D02*
Y18125D01*
X-99967Y20881D02*
X-99179D01*
X-99573Y20487D02*
Y21274D01*
X-95636Y20881D02*
X-94849D01*
X-95242Y20487D02*
Y21274D01*
X-91305Y20881D02*
X-90518D01*
X-90912Y20487D02*
Y21274D01*
X-99967Y25211D02*
X-99179D01*
X-99573Y24818D02*
Y25605D01*
X-95636Y25211D02*
X-94849D01*
X-95242Y24818D02*
Y25605D01*
X-91305Y25211D02*
X-90518D01*
X-90912Y24818D02*
Y25605D01*
X-99967Y29542D02*
X-99179D01*
X-99573Y29148D02*
Y29936D01*
X-95636Y29542D02*
X-94849D01*
X-95242Y29148D02*
Y29936D01*
X-91305Y29542D02*
X-90518D01*
X-90912Y29148D02*
Y29936D01*
X-93110Y951D02*
X-92126D01*
X-92618Y459D02*
Y1443D01*
X-88878Y1575D02*
X-87894D01*
X-88386Y1083D02*
Y2067D01*
M02*
