G04 Layer_Physical_Order=2*
G04 Layer_Color=32768*
%FSLAX25Y25*%
%MOIN*%
G70*
G01*
G75*
%ADD12C,0.00492*%
%ADD14C,0.00591*%
%ADD20C,0.05906*%
%ADD32C,0.04000*%
%ADD33R,1.07147X0.28798*%
%ADD34R,1.16142X2.21949*%
%ADD35R,0.13386X0.05512*%
%ADD36R,0.03150X0.05512*%
%ADD37R,0.20000X0.05000*%
%ADD38O,0.16142X0.18110*%
%ADD39C,0.07559*%
G04:AMPARAMS|DCode=40|XSize=111.969mil|YSize=111.969mil|CornerRadius=0mil|HoleSize=0mil|Usage=FLASHONLY|Rotation=0.000|XOffset=0mil|YOffset=0mil|HoleType=Round|Shape=Relief|Width=10mil|Gap=10mil|Entries=4|*
%AMTHD40*
7,0,0,0.11197,0.09197,0.01000,45*
%
%ADD40THD40*%
%AMTHOVALD41*
21,1,0.01969,0.19780,0,0,90.0*
1,1,0.19780,0.00000,-0.00984*
1,1,0.19780,0.00000,0.00984*
21,0,0.01969,0.17779,0,0,90.0*
1,0,0.17779,0.00000,-0.00984*
1,0,0.17779,0.00000,0.00984*
4,0,4,0.00354,-0.00631,0.07347,-0.07624,0.06640,-0.08331,-0.00354,-0.01338,0.00354,-0.00631,0.0*
4,0,4,0.00354,0.01338,-0.06640,0.08331,-0.07347,0.07624,-0.00354,0.00631,0.00354,0.01338,0.0*
4,0,4,0.00354,-0.01338,-0.06640,-0.08331,-0.07347,-0.07624,-0.00354,-0.00631,0.00354,-0.01338,0.0*
4,0,4,0.00354,0.00631,0.07347,0.07624,0.06640,0.08331,-0.00354,0.01338,0.00354,0.00631,0.0*
%
%ADD41THOVALD41*%

%ADD42C,0.05118*%
G04:AMPARAMS|DCode=43|XSize=87.559mil|YSize=87.559mil|CornerRadius=0mil|HoleSize=0mil|Usage=FLASHONLY|Rotation=0.000|XOffset=0mil|YOffset=0mil|HoleType=Round|Shape=Relief|Width=10mil|Gap=10mil|Entries=4|*
%AMTHD43*
7,0,0,0.08756,0.06756,0.01000,45*
%
%ADD43THD43*%
%ADD44C,0.05512*%
%ADD45C,0.05512*%
G04:AMPARAMS|DCode=46|XSize=91.496mil|YSize=91.496mil|CornerRadius=0mil|HoleSize=0mil|Usage=FLASHONLY|Rotation=0.000|XOffset=0mil|YOffset=0mil|HoleType=Round|Shape=Relief|Width=10mil|Gap=10mil|Entries=4|*
%AMTHD46*
7,0,0,0.09150,0.07150,0.01000,45*
%
%ADD46THD46*%
G04:AMPARAMS|DCode=47|XSize=91.496mil|YSize=91.496mil|CornerRadius=0mil|HoleSize=0mil|Usage=FLASHONLY|Rotation=0.000|XOffset=0mil|YOffset=0mil|HoleType=Round|Shape=Relief|Width=10mil|Gap=10mil|Entries=4|*
%AMTHD47*
7,0,0,0.09150,0.07150,0.01000,45*
%
%ADD47THD47*%
%ADD48C,0.07284*%
%ADD49O,0.14173X0.12205*%
%ADD50O,0.14173X0.10236*%
%ADD51C,0.03937*%
%ADD52C,0.03347*%
%ADD53C,0.14173*%
%ADD54C,0.03150*%
D12*
X60335Y91437D02*
X68307D01*
X44488Y107283D02*
X60335Y91437D01*
X44488Y107283D02*
Y155413D01*
X-3839Y-35236D02*
X-197Y-31594D01*
X30906Y-492D01*
X245472Y155413D02*
X245472Y155413D01*
Y93504D02*
Y155413D01*
X-164469Y-110238D02*
X-151083D01*
X-150788Y-110533D01*
X-3839D01*
X-144783Y-48917D02*
X-65847D01*
X-151181Y-111221D02*
Y-55315D01*
X-144783Y-48917D01*
X59449Y70768D02*
Y77953D01*
X58366Y79035D02*
X59449Y77953D01*
X28445Y79035D02*
X58366D01*
X232776Y84744D02*
X245472Y72047D01*
X75000Y84744D02*
X232776D01*
X68307Y91437D02*
X75000Y84744D01*
X-4331Y-110533D02*
X-3839Y-110041D01*
Y-35487D01*
X30906Y-492D02*
Y42224D01*
X59449Y70768D01*
X44488Y155413D02*
X245473D01*
X-65847Y-48917D02*
X-19685Y-2756D01*
Y30906D01*
X28445Y79035D01*
D14*
X188908Y146989D02*
X190745D01*
X188908Y145152D01*
Y144693D01*
X189367Y144234D01*
X190286D01*
X190745Y144693D01*
D20*
X112106Y76752D02*
D03*
Y66752D02*
D03*
D32*
X216604Y-110562D02*
G03*
X245472Y-81693I0J28869D01*
G01*
Y126545D02*
G03*
X216604Y155413I-28869J0D01*
G01*
X-236781D02*
G03*
X-265650Y126545I0J-28869D01*
G01*
Y-82579D02*
G03*
X-237694Y-110534I27955J0D01*
G01*
X216634Y-110531D01*
X216604Y-110562D02*
X216634Y-110531D01*
X245472Y-81693D02*
Y126545D01*
X-236781Y155413D02*
X216604D01*
X-265650Y-82579D02*
Y126545D01*
D33*
X-211940Y115383D02*
D03*
D34*
X-206496Y49D02*
D03*
D35*
X181296Y145808D02*
D03*
D36*
X193107Y145808D02*
D03*
D37*
X-87559Y-23268D02*
D03*
D38*
X10000Y131811D02*
D03*
Y108189D02*
D03*
X60000Y8189D02*
D03*
Y31811D02*
D03*
X160000D02*
D03*
Y8189D02*
D03*
X60000Y108189D02*
D03*
Y131811D02*
D03*
X110000Y31811D02*
D03*
Y8189D02*
D03*
X210000D02*
D03*
Y31811D02*
D03*
X10000Y-68189D02*
D03*
Y-91811D02*
D03*
X-90000Y108189D02*
D03*
Y131811D02*
D03*
X110000Y-68189D02*
D03*
Y-91811D02*
D03*
X60000D02*
D03*
Y-68189D02*
D03*
X-40000Y131811D02*
D03*
Y108189D02*
D03*
X160000Y-91811D02*
D03*
Y-68189D02*
D03*
X-39665Y31496D02*
D03*
Y7874D02*
D03*
X-90000Y-91811D02*
D03*
Y-68189D02*
D03*
X110000Y131811D02*
D03*
Y108189D02*
D03*
X10000Y8189D02*
D03*
Y31811D02*
D03*
X-40000Y-68189D02*
D03*
Y-91811D02*
D03*
X160000Y108189D02*
D03*
Y131811D02*
D03*
X-140000D02*
D03*
Y108189D02*
D03*
X209941Y-68307D02*
D03*
Y-91929D02*
D03*
D39*
X23500Y130000D02*
D03*
Y110000D02*
D03*
Y120000D02*
D03*
X73500Y20000D02*
D03*
Y10000D02*
D03*
Y30000D02*
D03*
X173500D02*
D03*
Y10000D02*
D03*
Y20000D02*
D03*
X73500Y120000D02*
D03*
Y110000D02*
D03*
Y130000D02*
D03*
X123500Y30000D02*
D03*
Y10000D02*
D03*
Y20000D02*
D03*
X223500D02*
D03*
Y10000D02*
D03*
Y30000D02*
D03*
X23500Y-70000D02*
D03*
Y-90000D02*
D03*
Y-80000D02*
D03*
X-76500Y120000D02*
D03*
Y110000D02*
D03*
Y130000D02*
D03*
X123500Y-70000D02*
D03*
Y-90000D02*
D03*
Y-80000D02*
D03*
X73500D02*
D03*
Y-90000D02*
D03*
Y-70000D02*
D03*
X-26500Y130000D02*
D03*
Y110000D02*
D03*
Y120000D02*
D03*
X173500Y-80000D02*
D03*
Y-90000D02*
D03*
Y-70000D02*
D03*
X-26165Y29685D02*
D03*
Y9685D02*
D03*
Y19685D02*
D03*
X-76500Y-80000D02*
D03*
Y-90000D02*
D03*
Y-70000D02*
D03*
X123500Y130000D02*
D03*
Y110000D02*
D03*
Y120000D02*
D03*
X23500Y20000D02*
D03*
Y10000D02*
D03*
Y30000D02*
D03*
X-26500Y-70000D02*
D03*
Y-90000D02*
D03*
Y-80000D02*
D03*
X173500Y120000D02*
D03*
Y110000D02*
D03*
Y130000D02*
D03*
X-126500D02*
D03*
Y110000D02*
D03*
Y120000D02*
D03*
X223441Y-70118D02*
D03*
Y-90118D02*
D03*
Y-80118D02*
D03*
D40*
X223500Y120000D02*
D03*
Y110000D02*
D03*
Y130000D02*
D03*
X-126500Y-80000D02*
D03*
Y-90000D02*
D03*
Y-70000D02*
D03*
D41*
X210000Y108189D02*
D03*
Y131811D02*
D03*
X-140000Y-91811D02*
D03*
Y-68189D02*
D03*
D42*
X-77559Y-25768D02*
D03*
X-82559D02*
D03*
X-87559D02*
D03*
X-92559D02*
D03*
X-97559Y-20768D02*
D03*
X-92559D02*
D03*
X-87559D02*
D03*
X-82559D02*
D03*
X-77559D02*
D03*
D43*
X-97559Y-25768D02*
D03*
D44*
X97244Y76063D02*
D03*
X-228445Y139469D02*
D03*
X-220571D02*
D03*
X-196949D02*
D03*
X-189075D02*
D03*
D45*
X97244Y71063D02*
D03*
D46*
Y66063D02*
D03*
D47*
X-212697Y139469D02*
D03*
X-204823D02*
D03*
D48*
X-180807D02*
D03*
X-236319D02*
D03*
D49*
X208760Y72047D02*
D03*
X228642D02*
D03*
D50*
X225787Y-35433D02*
D03*
X204429D02*
D03*
D51*
X-145192Y69543D02*
D03*
Y62456D02*
D03*
Y55370D02*
D03*
Y48283D02*
D03*
Y41197D02*
D03*
Y34110D02*
D03*
Y27023D02*
D03*
Y19937D02*
D03*
X-152279Y69543D02*
D03*
Y62456D02*
D03*
Y55370D02*
D03*
Y48283D02*
D03*
Y41197D02*
D03*
Y34110D02*
D03*
Y27023D02*
D03*
Y19937D02*
D03*
Y12850D02*
D03*
X-145192D02*
D03*
Y-12780D02*
D03*
X-152279D02*
D03*
Y-5693D02*
D03*
X-145192D02*
D03*
D52*
X-1575Y55020D02*
D03*
X-136187Y36432D02*
D03*
X-141732Y33563D02*
D03*
X-57742Y27967D02*
D03*
X-69455Y48833D02*
D03*
X-107939Y23637D02*
D03*
X-108628Y30034D02*
D03*
X-81595Y39075D02*
D03*
X-88681Y37598D02*
D03*
X-91240Y38189D02*
D03*
X-141043Y27657D02*
D03*
X-62172Y23046D02*
D03*
X-72575Y2557D02*
D03*
X-127187Y69371D02*
D03*
X-116502Y30329D02*
D03*
X-111089Y44896D02*
D03*
X-98946Y48575D02*
D03*
X-78971Y55496D02*
D03*
X-112427Y50478D02*
D03*
X-119118Y9740D02*
D03*
X-115182Y6198D02*
D03*
X-119315Y2557D02*
D03*
X-124333Y-12006D02*
D03*
Y-8857D02*
D03*
Y-6397D02*
D03*
X-120003Y20958D02*
D03*
X-137519Y40047D02*
D03*
X-66080Y24205D02*
D03*
X-68737Y41524D02*
D03*
X-109541Y20366D02*
D03*
X-107972Y15650D02*
D03*
X-108134Y13189D02*
D03*
X-107447Y38302D02*
D03*
X-109744Y90847D02*
D03*
X-62897Y12304D02*
D03*
X-14764Y6413D02*
D03*
X148524Y70276D02*
D03*
X-13878Y-94063D02*
D03*
X36319Y-94232D02*
D03*
X85827Y-94346D02*
D03*
X135547Y-94413D02*
D03*
X185827Y-94740D02*
D03*
X227461Y-54528D02*
D03*
X219390Y-55020D02*
D03*
X219587Y-50295D02*
D03*
X225098D02*
D03*
X235925Y5740D02*
D03*
X185858Y5413D02*
D03*
X135516Y6020D02*
D03*
X85614D02*
D03*
X35614Y6398D02*
D03*
X-64468Y-94161D02*
D03*
X80315Y77559D02*
D03*
X73721Y75394D02*
D03*
X185138Y106134D02*
D03*
X134827D02*
D03*
X85319Y105512D02*
D03*
X34827Y105709D02*
D03*
X-15583Y105823D02*
D03*
X-64878Y106480D02*
D03*
X-147835Y117913D02*
D03*
X-154528Y117815D02*
D03*
X-151279Y114272D02*
D03*
X-41437Y93602D02*
D03*
X-78347Y94980D02*
D03*
X-51476Y-25000D02*
D03*
X-55905Y-22146D02*
D03*
X30610Y-94390D02*
D03*
X124508Y96260D02*
D03*
X-62845Y-24459D02*
D03*
X-57185Y-394D02*
D03*
X70768Y93996D02*
D03*
X-70374Y10335D02*
D03*
X-25197Y-24213D02*
D03*
X-30315Y-21530D02*
D03*
X-44291Y48130D02*
D03*
X-57874Y18407D02*
D03*
X-62795Y-3937D02*
D03*
X-109946Y11418D02*
D03*
X-105315Y-15453D02*
D03*
X-104724Y-22736D02*
D03*
X-112303Y-16240D02*
D03*
X37697Y-11516D02*
D03*
X30610Y-9252D02*
D03*
X-57579Y-6299D02*
D03*
X-29232Y-25591D02*
D03*
X-53740Y-2953D02*
D03*
X-59842Y13878D02*
D03*
X-67028Y16353D02*
D03*
X-54134Y21949D02*
D03*
X-55905Y15059D02*
D03*
X79724Y-92815D02*
D03*
X-93110Y61417D02*
D03*
X-70866Y-37598D02*
D03*
X-92618Y951D02*
D03*
X-88386Y1575D02*
D03*
D53*
X184252Y-26575D02*
D03*
X-172933Y-51673D02*
D03*
X-173228Y98425D02*
D03*
X186516Y68307D02*
D03*
D54*
X-88156Y9070D02*
D03*
X-83825D02*
D03*
X-79494D02*
D03*
X-88156Y13400D02*
D03*
X-83825D02*
D03*
X-79494D02*
D03*
X-88156Y17731D02*
D03*
X-83825D02*
D03*
X-79494D02*
D03*
X-99573Y20881D02*
D03*
X-95242D02*
D03*
X-90912D02*
D03*
X-99573Y25211D02*
D03*
X-95242Y25211D02*
D03*
X-90912D02*
D03*
X-99573Y29542D02*
D03*
X-95242D02*
D03*
X-90912D02*
D03*
M02*
