G04 Layer_Color=2752767*
%FSLAX25Y25*%
%MOIN*%
G70*
G01*
G75*
%ADD98C,0.00500*%
%ADD146C,0.00667*%
%ADD147C,0.00400*%
D98*
X8000Y129811D02*
Y133811D01*
X12000D01*
Y129811D01*
X8000D01*
Y106189D02*
Y110189D01*
X12000D01*
Y106189D01*
X8000D01*
X58000Y6189D02*
Y10189D01*
X62000D01*
Y6189D01*
X58000D01*
Y29811D02*
Y33811D01*
X62000D01*
Y29811D01*
X58000D01*
X158000D02*
Y33811D01*
X162000D01*
Y29811D01*
X158000D01*
Y6189D02*
Y10189D01*
X162000D01*
Y6189D01*
X158000D01*
X58000Y106189D02*
Y110189D01*
X62000D01*
Y106189D01*
X58000D01*
Y129811D02*
Y133811D01*
X62000D01*
Y129811D01*
X58000D01*
X108000Y29811D02*
Y33811D01*
X112000D01*
Y29811D01*
X108000D01*
Y6189D02*
Y10189D01*
X112000D01*
Y6189D01*
X108000D01*
X208000D02*
Y10189D01*
X212000D01*
Y6189D01*
X208000D01*
Y29811D02*
Y33811D01*
X212000D01*
Y29811D01*
X208000D01*
X8000Y-70189D02*
Y-66189D01*
X12000D01*
Y-70189D01*
X8000D01*
Y-93811D02*
Y-89811D01*
X12000D01*
Y-93811D01*
X8000D01*
X-92000Y106189D02*
Y110189D01*
X-88000D01*
Y106189D01*
X-92000D01*
Y129811D02*
Y133811D01*
X-88000D01*
Y129811D01*
X-92000D01*
X108000Y-70189D02*
Y-66189D01*
X112000D01*
Y-70189D01*
X108000D01*
Y-93811D02*
Y-89811D01*
X112000D01*
Y-93811D01*
X108000D01*
X58000D02*
Y-89811D01*
X62000D01*
Y-93811D01*
X58000D01*
Y-70189D02*
Y-66189D01*
X62000D01*
Y-70189D01*
X58000D01*
X-42000Y129811D02*
Y133811D01*
X-38000D01*
Y129811D01*
X-42000D01*
Y106189D02*
Y110189D01*
X-38000D01*
Y106189D01*
X-42000D01*
X158000Y-93811D02*
Y-89811D01*
X162000D01*
Y-93811D01*
X158000D01*
Y-70189D02*
Y-66189D01*
X162000D01*
Y-70189D01*
X158000D01*
X-41665Y29496D02*
Y33496D01*
X-37665D01*
Y29496D01*
X-41665D01*
Y5874D02*
Y9874D01*
X-37665D01*
Y5874D01*
X-41665D01*
X-92000Y-93811D02*
Y-89811D01*
X-88000D01*
Y-93811D01*
X-92000D01*
Y-70189D02*
Y-66189D01*
X-88000D01*
Y-70189D01*
X-92000D01*
X108000Y129811D02*
Y133811D01*
X112000D01*
Y129811D01*
X108000D01*
Y106189D02*
Y110189D01*
X112000D01*
Y106189D01*
X108000D01*
X8000Y6189D02*
Y10189D01*
X12000D01*
Y6189D01*
X8000D01*
Y29811D02*
Y33811D01*
X12000D01*
Y29811D01*
X8000D01*
X-42000Y-70189D02*
Y-66189D01*
X-38000D01*
Y-70189D01*
X-42000D01*
Y-93811D02*
Y-89811D01*
X-38000D01*
Y-93811D01*
X-42000D01*
X158000Y106189D02*
Y110189D01*
X162000D01*
Y106189D01*
X158000D01*
Y129811D02*
Y133811D01*
X162000D01*
Y129811D01*
X158000D01*
X-142000D02*
Y133811D01*
X-138000D01*
Y129811D01*
X-142000D01*
Y106189D02*
Y110189D01*
X-138000D01*
Y106189D01*
X-142000D01*
X208000D02*
Y110189D01*
X212000D01*
Y106189D01*
X208000D01*
Y129811D02*
Y133811D01*
X212000D01*
Y129811D01*
X208000D01*
X207941Y-70307D02*
Y-66307D01*
X211941D01*
Y-70307D01*
X207941D01*
Y-93929D02*
Y-89929D01*
X211941D01*
Y-93929D01*
X207941D01*
X-142000Y-93811D02*
Y-89811D01*
X-138000D01*
Y-93811D01*
X-142000D01*
Y-70189D02*
Y-66189D01*
X-138000D01*
Y-70189D01*
X-142000D01*
X-77559Y-27768D02*
X-79559Y-23768D01*
X-75559D01*
X-77559Y-27768D01*
X-82559D02*
X-84559Y-23768D01*
X-80559D01*
X-82559Y-27768D01*
X-87559D02*
X-89559Y-23768D01*
X-85559D01*
X-87559Y-27768D01*
X-92559D02*
X-94559Y-23768D01*
X-90559D01*
X-92559Y-27768D01*
X-97559D02*
X-99559Y-23768D01*
X-95559D01*
X-97559Y-27768D01*
Y-22768D02*
X-99559Y-18768D01*
X-95559D01*
X-97559Y-22768D01*
X-92559D02*
X-94559Y-18768D01*
X-90559D01*
X-92559Y-22768D01*
X-87559D02*
X-89559Y-18768D01*
X-85559D01*
X-87559Y-22768D01*
X-82559D02*
X-84559Y-18768D01*
X-80559D01*
X-82559Y-22768D01*
X-77559D02*
X-79559Y-18768D01*
X-75559D01*
X-77559Y-22768D01*
X112106Y74752D02*
X113106Y75752D01*
X114106D01*
X113106Y76752D01*
X114106Y77752D01*
X113106D01*
X112106Y78752D01*
X111106Y77752D01*
X110106D01*
X111106Y76752D01*
X110106Y75752D01*
X111106D01*
X112106Y74752D01*
Y64752D02*
X113106Y65752D01*
X114106D01*
X113106Y66752D01*
X114106Y67752D01*
X113106D01*
X112106Y68752D01*
X111106Y67752D01*
X110106D01*
X111106Y66752D01*
X110106Y65752D01*
X111106D01*
X112106Y64752D01*
X95244Y74063D02*
X96244Y76063D01*
X95244Y78063D01*
X97244Y77063D01*
X99244Y78063D01*
X98244Y76063D01*
X99244Y74063D01*
X97244Y75063D01*
X95244Y74063D01*
Y69063D02*
X96244Y71063D01*
X95244Y73063D01*
X97244Y72063D01*
X99244Y73063D01*
X98244Y71063D01*
X99244Y69063D01*
X97244Y70063D01*
X95244Y69063D01*
Y64063D02*
X96244Y66063D01*
X95244Y68063D01*
X97244Y67063D01*
X99244Y68063D01*
X98244Y66063D01*
X99244Y64063D01*
X97244Y65063D01*
X95244Y64063D01*
X-230445Y137469D02*
X-229445Y139469D01*
X-230445Y141469D01*
X-228445Y140469D01*
X-226445Y141469D01*
X-227445Y139469D01*
X-226445Y137469D01*
X-228445Y138469D01*
X-230445Y137469D01*
X-222571D02*
X-221571Y139469D01*
X-222571Y141469D01*
X-220571Y140469D01*
X-218571Y141469D01*
X-219571Y139469D01*
X-218571Y137469D01*
X-220571Y138469D01*
X-222571Y137469D01*
X-214697D02*
X-213697Y139469D01*
X-214697Y141469D01*
X-212697Y140469D01*
X-210697Y141469D01*
X-211697Y139469D01*
X-210697Y137469D01*
X-212697Y138469D01*
X-214697Y137469D01*
X-206823D02*
X-205823Y139469D01*
X-206823Y141469D01*
X-204823Y140469D01*
X-202823Y141469D01*
X-203823Y139469D01*
X-202823Y137469D01*
X-204823Y138469D01*
X-206823Y137469D01*
X-198949D02*
X-197949Y139469D01*
X-198949Y141469D01*
X-196949Y140469D01*
X-194949Y141469D01*
X-195949Y139469D01*
X-194949Y137469D01*
X-196949Y138469D01*
X-198949Y137469D01*
X-191075D02*
X-190075Y139469D01*
X-191075Y141469D01*
X-189075Y140469D01*
X-187075Y141469D01*
X-188075Y139469D01*
X-187075Y137469D01*
X-189075Y138469D01*
X-191075Y137469D01*
X-181807Y138469D02*
Y137469D01*
X-179807D01*
Y138469D01*
X-178807D01*
Y140469D01*
X-179807D01*
Y141469D01*
X-181807D01*
Y140469D01*
X-182807D01*
Y138469D01*
X-181807D01*
X-237319D02*
Y137469D01*
X-235319D01*
Y138469D01*
X-234319D01*
Y140469D01*
X-235319D01*
Y141469D01*
X-237319D01*
Y140469D01*
X-238319D01*
Y138469D01*
X-237319D01*
X206760Y70047D02*
X207760D01*
X208760Y71047D01*
X209760Y70047D01*
X210760D01*
Y71047D01*
X209760Y72047D01*
X210760Y73047D01*
Y74047D01*
X209760D01*
X208760Y73047D01*
X207760Y74047D01*
X206760D01*
Y73047D01*
X207760Y72047D01*
X206760Y71047D01*
Y70047D01*
X226642D02*
X227642D01*
X228642Y71047D01*
X229642Y70047D01*
X230642D01*
Y71047D01*
X229642Y72047D01*
X230642Y73047D01*
Y74047D01*
X229642D01*
X228642Y73047D01*
X227642Y74047D01*
X226642D01*
Y73047D01*
X227642Y72047D01*
X226642Y71047D01*
Y70047D01*
X223787Y-35433D02*
X225787Y-33433D01*
X227787Y-35433D01*
X225787Y-37433D01*
X223787Y-35433D01*
X202429D02*
X204429Y-33433D01*
X206429Y-35433D01*
X204429Y-37433D01*
X202429Y-35433D01*
X-147192Y67543D02*
Y71543D01*
X-143192D01*
Y67543D01*
X-147192D01*
X-146392Y68343D02*
Y70743D01*
X-143992D01*
Y68343D01*
X-146392D01*
X-147192Y60456D02*
Y64456D01*
X-143192D01*
Y60456D01*
X-147192D01*
X-146392Y61256D02*
Y63656D01*
X-143992D01*
Y61256D01*
X-146392D01*
X-147192Y53370D02*
Y57370D01*
X-143192D01*
Y53370D01*
X-147192D01*
X-146392Y54170D02*
Y56570D01*
X-143992D01*
Y54170D01*
X-146392D01*
X-147192Y46283D02*
Y50283D01*
X-143192D01*
Y46283D01*
X-147192D01*
X-146392Y47083D02*
Y49483D01*
X-143992D01*
Y47083D01*
X-146392D01*
X-147192Y39197D02*
Y43197D01*
X-143192D01*
Y39197D01*
X-147192D01*
X-146392Y39997D02*
Y42397D01*
X-143992D01*
Y39997D01*
X-146392D01*
X-147192Y32110D02*
Y36110D01*
X-143192D01*
Y32110D01*
X-147192D01*
X-146392Y32910D02*
Y35310D01*
X-143992D01*
Y32910D01*
X-146392D01*
X-147192Y25023D02*
Y29023D01*
X-143192D01*
Y25023D01*
X-147192D01*
X-146392Y25823D02*
Y28223D01*
X-143992D01*
Y25823D01*
X-146392D01*
X-147192Y17937D02*
Y21937D01*
X-143192D01*
Y17937D01*
X-147192D01*
X-146392Y18737D02*
Y21137D01*
X-143992D01*
Y18737D01*
X-146392D01*
X-154279Y67543D02*
Y71543D01*
X-150279D01*
Y67543D01*
X-154279D01*
X-153479Y68343D02*
Y70743D01*
X-151079D01*
Y68343D01*
X-153479D01*
X-154279Y60456D02*
Y64456D01*
X-150279D01*
Y60456D01*
X-154279D01*
X-153479Y61256D02*
Y63656D01*
X-151079D01*
Y61256D01*
X-153479D01*
X-154279Y53370D02*
Y57370D01*
X-150279D01*
Y53370D01*
X-154279D01*
X-153479Y54170D02*
Y56570D01*
X-151079D01*
Y54170D01*
X-153479D01*
X-154279Y46283D02*
Y50283D01*
X-150279D01*
Y46283D01*
X-154279D01*
X-153479Y47083D02*
Y49483D01*
X-151079D01*
Y47083D01*
X-153479D01*
X-154279Y39197D02*
Y43197D01*
X-150279D01*
Y39197D01*
X-154279D01*
X-153479Y39997D02*
Y42397D01*
X-151079D01*
Y39997D01*
X-153479D01*
X-154279Y32110D02*
Y36110D01*
X-150279D01*
Y32110D01*
X-154279D01*
X-153479Y32910D02*
Y35310D01*
X-151079D01*
Y32910D01*
X-153479D01*
X-154279Y25023D02*
Y29023D01*
X-150279D01*
Y25023D01*
X-154279D01*
X-153479Y25823D02*
Y28223D01*
X-151079D01*
Y25823D01*
X-153479D01*
X-154279Y17937D02*
Y21937D01*
X-150279D01*
Y17937D01*
X-154279D01*
X-153479Y18737D02*
Y21137D01*
X-151079D01*
Y18737D01*
X-153479D01*
X-154279Y10850D02*
Y14850D01*
X-150279D01*
Y10850D01*
X-154279D01*
X-153479Y11650D02*
Y14050D01*
X-151079D01*
Y11650D01*
X-153479D01*
X-147192Y10850D02*
Y14850D01*
X-143192D01*
Y10850D01*
X-147192D01*
X-146392Y11650D02*
Y14050D01*
X-143992D01*
Y11650D01*
X-146392D01*
X-147192Y-14780D02*
Y-10780D01*
X-143192D01*
Y-14780D01*
X-147192D01*
X-146392Y-13980D02*
Y-11580D01*
X-143992D01*
Y-13980D01*
X-146392D01*
X-154279Y-14780D02*
Y-10780D01*
X-150279D01*
Y-14780D01*
X-154279D01*
X-153479Y-13980D02*
Y-11580D01*
X-151079D01*
Y-13980D01*
X-153479D01*
X-154279Y-7693D02*
Y-3693D01*
X-150279D01*
Y-7693D01*
X-154279D01*
X-153479Y-6893D02*
Y-4493D01*
X-151079D01*
Y-6893D01*
X-153479D01*
X-147192Y-7693D02*
Y-3693D01*
X-143192D01*
Y-7693D01*
X-147192D01*
X-146392Y-6893D02*
Y-4493D01*
X-143992D01*
Y-6893D01*
X-146392D01*
X184252Y-28575D02*
X182252Y-24575D01*
X186252D01*
X184252Y-28575D01*
Y-27775D02*
X183052Y-25375D01*
X185452D01*
X184252Y-27775D01*
X-172933Y-53673D02*
X-174933Y-49673D01*
X-170933D01*
X-172933Y-53673D01*
Y-52873D02*
X-174133Y-50473D01*
X-171733D01*
X-172933Y-52873D01*
X-173228Y96425D02*
X-175228Y100425D01*
X-171228D01*
X-173228Y96425D01*
Y97225D02*
X-174428Y99625D01*
X-172028D01*
X-173228Y97225D01*
X186516Y66307D02*
X184516Y70307D01*
X188516D01*
X186516Y66307D01*
Y67107D02*
X185316Y69507D01*
X187716D01*
X186516Y67107D01*
X-88156Y7070D02*
X-87156Y8070D01*
X-86156D01*
X-87156Y9070D01*
X-86156Y10070D01*
X-87156D01*
X-88156Y11070D01*
X-89156Y10070D01*
X-90156D01*
X-89156Y9070D01*
X-90156Y8070D01*
X-89156D01*
X-88156Y7070D01*
Y7870D02*
X-87556Y8470D01*
X-86956D01*
X-87556Y9070D01*
X-86956Y9670D01*
X-87556D01*
X-88156Y10270D01*
X-88756Y9670D01*
X-89356D01*
X-88756Y9070D01*
X-89356Y8470D01*
X-88756D01*
X-88156Y7870D01*
X-83825Y7070D02*
X-82825Y8070D01*
X-81825D01*
X-82825Y9070D01*
X-81825Y10070D01*
X-82825D01*
X-83825Y11070D01*
X-84825Y10070D01*
X-85825D01*
X-84825Y9070D01*
X-85825Y8070D01*
X-84825D01*
X-83825Y7070D01*
Y7870D02*
X-83225Y8470D01*
X-82625D01*
X-83225Y9070D01*
X-82625Y9670D01*
X-83225D01*
X-83825Y10270D01*
X-84425Y9670D01*
X-85025D01*
X-84425Y9070D01*
X-85025Y8470D01*
X-84425D01*
X-83825Y7870D01*
X-79494Y7070D02*
X-78494Y8070D01*
X-77494D01*
X-78494Y9070D01*
X-77494Y10070D01*
X-78494D01*
X-79494Y11070D01*
X-80494Y10070D01*
X-81494D01*
X-80494Y9070D01*
X-81494Y8070D01*
X-80494D01*
X-79494Y7070D01*
Y7870D02*
X-78894Y8470D01*
X-78294D01*
X-78894Y9070D01*
X-78294Y9670D01*
X-78894D01*
X-79494Y10270D01*
X-80094Y9670D01*
X-80694D01*
X-80094Y9070D01*
X-80694Y8470D01*
X-80094D01*
X-79494Y7870D01*
X-88156Y11400D02*
X-87156Y12400D01*
X-86156D01*
X-87156Y13400D01*
X-86156Y14400D01*
X-87156D01*
X-88156Y15400D01*
X-89156Y14400D01*
X-90156D01*
X-89156Y13400D01*
X-90156Y12400D01*
X-89156D01*
X-88156Y11400D01*
Y12200D02*
X-87556Y12800D01*
X-86956D01*
X-87556Y13400D01*
X-86956Y14000D01*
X-87556D01*
X-88156Y14600D01*
X-88756Y14000D01*
X-89356D01*
X-88756Y13400D01*
X-89356Y12800D01*
X-88756D01*
X-88156Y12200D01*
X-83825Y11400D02*
X-82825Y12400D01*
X-81825D01*
X-82825Y13400D01*
X-81825Y14400D01*
X-82825D01*
X-83825Y15400D01*
X-84825Y14400D01*
X-85825D01*
X-84825Y13400D01*
X-85825Y12400D01*
X-84825D01*
X-83825Y11400D01*
Y12200D02*
X-83225Y12800D01*
X-82625D01*
X-83225Y13400D01*
X-82625Y14000D01*
X-83225D01*
X-83825Y14600D01*
X-84425Y14000D01*
X-85025D01*
X-84425Y13400D01*
X-85025Y12800D01*
X-84425D01*
X-83825Y12200D01*
X-79494Y11400D02*
X-78494Y12400D01*
X-77494D01*
X-78494Y13400D01*
X-77494Y14400D01*
X-78494D01*
X-79494Y15400D01*
X-80494Y14400D01*
X-81494D01*
X-80494Y13400D01*
X-81494Y12400D01*
X-80494D01*
X-79494Y11400D01*
Y12200D02*
X-78894Y12800D01*
X-78294D01*
X-78894Y13400D01*
X-78294Y14000D01*
X-78894D01*
X-79494Y14600D01*
X-80094Y14000D01*
X-80694D01*
X-80094Y13400D01*
X-80694Y12800D01*
X-80094D01*
X-79494Y12200D01*
X-88156Y15731D02*
X-87156Y16731D01*
X-86156D01*
X-87156Y17731D01*
X-86156Y18731D01*
X-87156D01*
X-88156Y19731D01*
X-89156Y18731D01*
X-90156D01*
X-89156Y17731D01*
X-90156Y16731D01*
X-89156D01*
X-88156Y15731D01*
Y16531D02*
X-87556Y17131D01*
X-86956D01*
X-87556Y17731D01*
X-86956Y18331D01*
X-87556D01*
X-88156Y18931D01*
X-88756Y18331D01*
X-89356D01*
X-88756Y17731D01*
X-89356Y17131D01*
X-88756D01*
X-88156Y16531D01*
X-83825Y15731D02*
X-82825Y16731D01*
X-81825D01*
X-82825Y17731D01*
X-81825Y18731D01*
X-82825D01*
X-83825Y19731D01*
X-84825Y18731D01*
X-85825D01*
X-84825Y17731D01*
X-85825Y16731D01*
X-84825D01*
X-83825Y15731D01*
Y16531D02*
X-83225Y17131D01*
X-82625D01*
X-83225Y17731D01*
X-82625Y18331D01*
X-83225D01*
X-83825Y18931D01*
X-84425Y18331D01*
X-85025D01*
X-84425Y17731D01*
X-85025Y17131D01*
X-84425D01*
X-83825Y16531D01*
X-79494Y15731D02*
X-78494Y16731D01*
X-77494D01*
X-78494Y17731D01*
X-77494Y18731D01*
X-78494D01*
X-79494Y19731D01*
X-80494Y18731D01*
X-81494D01*
X-80494Y17731D01*
X-81494Y16731D01*
X-80494D01*
X-79494Y15731D01*
Y16531D02*
X-78894Y17131D01*
X-78294D01*
X-78894Y17731D01*
X-78294Y18331D01*
X-78894D01*
X-79494Y18931D01*
X-80094Y18331D01*
X-80694D01*
X-80094Y17731D01*
X-80694Y17131D01*
X-80094D01*
X-79494Y16531D01*
X-99573Y18881D02*
X-98573Y19881D01*
X-97573D01*
X-98573Y20881D01*
X-97573Y21881D01*
X-98573D01*
X-99573Y22881D01*
X-100573Y21881D01*
X-101573D01*
X-100573Y20881D01*
X-101573Y19881D01*
X-100573D01*
X-99573Y18881D01*
Y19681D02*
X-98973Y20281D01*
X-98373D01*
X-98973Y20881D01*
X-98373Y21481D01*
X-98973D01*
X-99573Y22081D01*
X-100173Y21481D01*
X-100773D01*
X-100173Y20881D01*
X-100773Y20281D01*
X-100173D01*
X-99573Y19681D01*
X-95242Y18881D02*
X-94242Y19881D01*
X-93242D01*
X-94242Y20881D01*
X-93242Y21881D01*
X-94242D01*
X-95242Y22881D01*
X-96242Y21881D01*
X-97242D01*
X-96242Y20881D01*
X-97242Y19881D01*
X-96242D01*
X-95242Y18881D01*
Y19681D02*
X-94642Y20281D01*
X-94042D01*
X-94642Y20881D01*
X-94042Y21481D01*
X-94642D01*
X-95242Y22081D01*
X-95842Y21481D01*
X-96442D01*
X-95842Y20881D01*
X-96442Y20281D01*
X-95842D01*
X-95242Y19681D01*
X-90912Y18881D02*
X-89912Y19881D01*
X-88912D01*
X-89912Y20881D01*
X-88912Y21881D01*
X-89912D01*
X-90912Y22881D01*
X-91912Y21881D01*
X-92912D01*
X-91912Y20881D01*
X-92912Y19881D01*
X-91912D01*
X-90912Y18881D01*
Y19681D02*
X-90312Y20281D01*
X-89712D01*
X-90312Y20881D01*
X-89712Y21481D01*
X-90312D01*
X-90912Y22081D01*
X-91512Y21481D01*
X-92112D01*
X-91512Y20881D01*
X-92112Y20281D01*
X-91512D01*
X-90912Y19681D01*
X-99573Y23211D02*
X-98573Y24211D01*
X-97573D01*
X-98573Y25211D01*
X-97573Y26211D01*
X-98573D01*
X-99573Y27211D01*
X-100573Y26211D01*
X-101573D01*
X-100573Y25211D01*
X-101573Y24211D01*
X-100573D01*
X-99573Y23211D01*
Y24011D02*
X-98973Y24611D01*
X-98373D01*
X-98973Y25211D01*
X-98373Y25811D01*
X-98973D01*
X-99573Y26411D01*
X-100173Y25811D01*
X-100773D01*
X-100173Y25211D01*
X-100773Y24611D01*
X-100173D01*
X-99573Y24011D01*
X-95242Y23211D02*
X-94242Y24211D01*
X-93242D01*
X-94242Y25211D01*
X-93242Y26211D01*
X-94242D01*
X-95242Y27211D01*
X-96242Y26211D01*
X-97242D01*
X-96242Y25211D01*
X-97242Y24211D01*
X-96242D01*
X-95242Y23211D01*
Y24011D02*
X-94642Y24611D01*
X-94042D01*
X-94642Y25211D01*
X-94042Y25811D01*
X-94642D01*
X-95242Y26411D01*
X-95842Y25811D01*
X-96442D01*
X-95842Y25211D01*
X-96442Y24611D01*
X-95842D01*
X-95242Y24011D01*
X-90912Y23211D02*
X-89912Y24211D01*
X-88912D01*
X-89912Y25211D01*
X-88912Y26211D01*
X-89912D01*
X-90912Y27211D01*
X-91912Y26211D01*
X-92912D01*
X-91912Y25211D01*
X-92912Y24211D01*
X-91912D01*
X-90912Y23211D01*
Y24011D02*
X-90312Y24611D01*
X-89712D01*
X-90312Y25211D01*
X-89712Y25811D01*
X-90312D01*
X-90912Y26411D01*
X-91512Y25811D01*
X-92112D01*
X-91512Y25211D01*
X-92112Y24611D01*
X-91512D01*
X-90912Y24011D01*
X-99573Y27542D02*
X-98573Y28542D01*
X-97573D01*
X-98573Y29542D01*
X-97573Y30542D01*
X-98573D01*
X-99573Y31542D01*
X-100573Y30542D01*
X-101573D01*
X-100573Y29542D01*
X-101573Y28542D01*
X-100573D01*
X-99573Y27542D01*
Y28342D02*
X-98973Y28942D01*
X-98373D01*
X-98973Y29542D01*
X-98373Y30142D01*
X-98973D01*
X-99573Y30742D01*
X-100173Y30142D01*
X-100773D01*
X-100173Y29542D01*
X-100773Y28942D01*
X-100173D01*
X-99573Y28342D01*
X-95242Y27542D02*
X-94242Y28542D01*
X-93242D01*
X-94242Y29542D01*
X-93242Y30542D01*
X-94242D01*
X-95242Y31542D01*
X-96242Y30542D01*
X-97242D01*
X-96242Y29542D01*
X-97242Y28542D01*
X-96242D01*
X-95242Y27542D01*
Y28342D02*
X-94642Y28942D01*
X-94042D01*
X-94642Y29542D01*
X-94042Y30142D01*
X-94642D01*
X-95242Y30742D01*
X-95842Y30142D01*
X-96442D01*
X-95842Y29542D01*
X-96442Y28942D01*
X-95842D01*
X-95242Y28342D01*
X-90912Y27542D02*
X-89912Y28542D01*
X-88912D01*
X-89912Y29542D01*
X-88912Y30542D01*
X-89912D01*
X-90912Y31542D01*
X-91912Y30542D01*
X-92912D01*
X-91912Y29542D01*
X-92912Y28542D01*
X-91912D01*
X-90912Y27542D01*
Y28342D02*
X-90312Y28942D01*
X-89712D01*
X-90312Y29542D01*
X-89712Y30142D01*
X-90312D01*
X-90912Y30742D01*
X-91512Y30142D01*
X-92112D01*
X-91512Y29542D01*
X-92112Y28942D01*
X-91512D01*
X-90912Y28342D01*
D146*
X25500Y130000D02*
G03*
X25500Y130000I-2000J0D01*
G01*
Y110000D02*
G03*
X25500Y110000I-2000J0D01*
G01*
Y120000D02*
G03*
X25500Y120000I-2000J0D01*
G01*
X75500Y20000D02*
G03*
X75500Y20000I-2000J0D01*
G01*
Y10000D02*
G03*
X75500Y10000I-2000J0D01*
G01*
Y30000D02*
G03*
X75500Y30000I-2000J0D01*
G01*
X175500D02*
G03*
X175500Y30000I-2000J0D01*
G01*
Y10000D02*
G03*
X175500Y10000I-2000J0D01*
G01*
Y20000D02*
G03*
X175500Y20000I-2000J0D01*
G01*
X75500Y120000D02*
G03*
X75500Y120000I-2000J0D01*
G01*
Y110000D02*
G03*
X75500Y110000I-2000J0D01*
G01*
Y130000D02*
G03*
X75500Y130000I-2000J0D01*
G01*
X125500Y30000D02*
G03*
X125500Y30000I-2000J0D01*
G01*
Y10000D02*
G03*
X125500Y10000I-2000J0D01*
G01*
Y20000D02*
G03*
X125500Y20000I-2000J0D01*
G01*
X225500D02*
G03*
X225500Y20000I-2000J0D01*
G01*
Y10000D02*
G03*
X225500Y10000I-2000J0D01*
G01*
Y30000D02*
G03*
X225500Y30000I-2000J0D01*
G01*
X25500Y-70000D02*
G03*
X25500Y-70000I-2000J0D01*
G01*
Y-90000D02*
G03*
X25500Y-90000I-2000J0D01*
G01*
Y-80000D02*
G03*
X25500Y-80000I-2000J0D01*
G01*
X-74500Y120000D02*
G03*
X-74500Y120000I-2000J0D01*
G01*
Y110000D02*
G03*
X-74500Y110000I-2000J0D01*
G01*
Y130000D02*
G03*
X-74500Y130000I-2000J0D01*
G01*
X125500Y-70000D02*
G03*
X125500Y-70000I-2000J0D01*
G01*
Y-90000D02*
G03*
X125500Y-90000I-2000J0D01*
G01*
Y-80000D02*
G03*
X125500Y-80000I-2000J0D01*
G01*
X75500D02*
G03*
X75500Y-80000I-2000J0D01*
G01*
Y-90000D02*
G03*
X75500Y-90000I-2000J0D01*
G01*
Y-70000D02*
G03*
X75500Y-70000I-2000J0D01*
G01*
X-24500Y130000D02*
G03*
X-24500Y130000I-2000J0D01*
G01*
Y110000D02*
G03*
X-24500Y110000I-2000J0D01*
G01*
Y120000D02*
G03*
X-24500Y120000I-2000J0D01*
G01*
X175500Y-80000D02*
G03*
X175500Y-80000I-2000J0D01*
G01*
Y-90000D02*
G03*
X175500Y-90000I-2000J0D01*
G01*
Y-70000D02*
G03*
X175500Y-70000I-2000J0D01*
G01*
X-24165Y29685D02*
G03*
X-24165Y29685I-2000J0D01*
G01*
Y9685D02*
G03*
X-24165Y9685I-2000J0D01*
G01*
Y19685D02*
G03*
X-24165Y19685I-2000J0D01*
G01*
X-74500Y-80000D02*
G03*
X-74500Y-80000I-2000J0D01*
G01*
Y-90000D02*
G03*
X-74500Y-90000I-2000J0D01*
G01*
Y-70000D02*
G03*
X-74500Y-70000I-2000J0D01*
G01*
X125500Y130000D02*
G03*
X125500Y130000I-2000J0D01*
G01*
Y110000D02*
G03*
X125500Y110000I-2000J0D01*
G01*
Y120000D02*
G03*
X125500Y120000I-2000J0D01*
G01*
X25500Y20000D02*
G03*
X25500Y20000I-2000J0D01*
G01*
Y10000D02*
G03*
X25500Y10000I-2000J0D01*
G01*
Y30000D02*
G03*
X25500Y30000I-2000J0D01*
G01*
X-24500Y-70000D02*
G03*
X-24500Y-70000I-2000J0D01*
G01*
Y-90000D02*
G03*
X-24500Y-90000I-2000J0D01*
G01*
Y-80000D02*
G03*
X-24500Y-80000I-2000J0D01*
G01*
X175500Y120000D02*
G03*
X175500Y120000I-2000J0D01*
G01*
Y110000D02*
G03*
X175500Y110000I-2000J0D01*
G01*
Y130000D02*
G03*
X175500Y130000I-2000J0D01*
G01*
X-124500D02*
G03*
X-124500Y130000I-2000J0D01*
G01*
Y110000D02*
G03*
X-124500Y110000I-2000J0D01*
G01*
Y120000D02*
G03*
X-124500Y120000I-2000J0D01*
G01*
X225500D02*
G03*
X225500Y120000I-2000J0D01*
G01*
Y110000D02*
G03*
X225500Y110000I-2000J0D01*
G01*
Y130000D02*
G03*
X225500Y130000I-2000J0D01*
G01*
X225441Y-70118D02*
G03*
X225441Y-70118I-2000J0D01*
G01*
Y-90118D02*
G03*
X225441Y-90118I-2000J0D01*
G01*
Y-80118D02*
G03*
X225441Y-80118I-2000J0D01*
G01*
X-124500Y-80000D02*
G03*
X-124500Y-80000I-2000J0D01*
G01*
Y-90000D02*
G03*
X-124500Y-90000I-2000J0D01*
G01*
Y-70000D02*
G03*
X-124500Y-70000I-2000J0D01*
G01*
X425Y55020D02*
G03*
X425Y55020I-2000J0D01*
G01*
X-55815Y33652D02*
G03*
X-55815Y33652I-2000J0D01*
G01*
X-134187Y36432D02*
G03*
X-134187Y36432I-2000J0D01*
G01*
X-139732Y33563D02*
G03*
X-139732Y33563I-2000J0D01*
G01*
X-100526Y37908D02*
G03*
X-100526Y37908I-2000J0D01*
G01*
X-55742Y27967D02*
G03*
X-55742Y27967I-2000J0D01*
G01*
X-67455Y48833D02*
G03*
X-67455Y48833I-2000J0D01*
G01*
X-105939Y23637D02*
G03*
X-105939Y23637I-2000J0D01*
G01*
X-106628Y30034D02*
G03*
X-106628Y30034I-2000J0D01*
G01*
X-72376Y49278D02*
G03*
X-72376Y49278I-2000J0D01*
G01*
X-79594Y39075D02*
G03*
X-79594Y39075I-2000J0D01*
G01*
X-86681Y37598D02*
G03*
X-86681Y37598I-2000J0D01*
G01*
X-89240Y38189D02*
G03*
X-89240Y38189I-2000J0D01*
G01*
X-139043Y27657D02*
G03*
X-139043Y27657I-2000J0D01*
G01*
X-60172Y23046D02*
G03*
X-60172Y23046I-2000J0D01*
G01*
X-70575Y2557D02*
G03*
X-70575Y2557I-2000J0D01*
G01*
X-77463Y-1477D02*
G03*
X-77463Y-1477I-2000J0D01*
G01*
X-125187Y69371D02*
G03*
X-125187Y69371I-2000J0D01*
G01*
X-114502Y30329D02*
G03*
X-114502Y30329I-2000J0D01*
G01*
X-109089Y44896D02*
G03*
X-109089Y44896I-2000J0D01*
G01*
X-96946Y48575D02*
G03*
X-96946Y48575I-2000J0D01*
G01*
X-76971Y55496D02*
G03*
X-76971Y55496I-2000J0D01*
G01*
X-110427Y50478D02*
G03*
X-110427Y50478I-2000J0D01*
G01*
X-108262Y54316D02*
G03*
X-108262Y54316I-2000J0D01*
G01*
X-117118Y9740D02*
G03*
X-117118Y9740I-2000J0D01*
G01*
X-113182Y6198D02*
G03*
X-113182Y6198I-2000J0D01*
G01*
X-117315Y2557D02*
G03*
X-117315Y2557I-2000J0D01*
G01*
X-122333Y-12006D02*
G03*
X-122333Y-12006I-2000J0D01*
G01*
Y-8857D02*
G03*
X-122333Y-8857I-2000J0D01*
G01*
Y-6397D02*
G03*
X-122333Y-6397I-2000J0D01*
G01*
X-118003Y20958D02*
G03*
X-118003Y20958I-2000J0D01*
G01*
X-135519Y40047D02*
G03*
X-135519Y40047I-2000J0D01*
G01*
X-64080Y24205D02*
G03*
X-64080Y24205I-2000J0D01*
G01*
X-66737Y41524D02*
G03*
X-66737Y41524I-2000J0D01*
G01*
X-107541Y20366D02*
G03*
X-107541Y20366I-2000J0D01*
G01*
X-111804Y15546D02*
G03*
X-111804Y15546I-2000J0D01*
G01*
X-105972Y15650D02*
G03*
X-105972Y15650I-2000J0D01*
G01*
X-106134Y13189D02*
G03*
X-106134Y13189I-2000J0D01*
G01*
X-105447Y38302D02*
G03*
X-105447Y38302I-2000J0D01*
G01*
X-107744Y90847D02*
G03*
X-107744Y90847I-2000J0D01*
G01*
X-60897Y12304D02*
G03*
X-60897Y12304I-2000J0D01*
G01*
X-12764Y6413D02*
G03*
X-12764Y6413I-2000J0D01*
G01*
X150524Y70276D02*
G03*
X150524Y70276I-2000J0D01*
G01*
X-11878Y-94063D02*
G03*
X-11878Y-94063I-2000J0D01*
G01*
X38319Y-94232D02*
G03*
X38319Y-94232I-2000J0D01*
G01*
X87827Y-94346D02*
G03*
X87827Y-94346I-2000J0D01*
G01*
X137547Y-94413D02*
G03*
X137547Y-94413I-2000J0D01*
G01*
X187827Y-94740D02*
G03*
X187827Y-94740I-2000J0D01*
G01*
X229461Y-54528D02*
G03*
X229461Y-54528I-2000J0D01*
G01*
X221390Y-55020D02*
G03*
X221390Y-55020I-2000J0D01*
G01*
X221587Y-50295D02*
G03*
X221587Y-50295I-2000J0D01*
G01*
X227098D02*
G03*
X227098Y-50295I-2000J0D01*
G01*
X237925Y5740D02*
G03*
X237925Y5740I-2000J0D01*
G01*
X187858Y5413D02*
G03*
X187858Y5413I-2000J0D01*
G01*
X137516Y6020D02*
G03*
X137516Y6020I-2000J0D01*
G01*
X87614D02*
G03*
X87614Y6020I-2000J0D01*
G01*
X37614Y6398D02*
G03*
X37614Y6398I-2000J0D01*
G01*
X-62468Y-94161D02*
G03*
X-62468Y-94161I-2000J0D01*
G01*
X80642Y63287D02*
G03*
X80642Y63287I-2000J0D01*
G01*
X82315Y77559D02*
G03*
X82315Y77559I-2000J0D01*
G01*
X75721Y75394D02*
G03*
X75721Y75394I-2000J0D01*
G01*
X187138Y106134D02*
G03*
X187138Y106134I-2000J0D01*
G01*
X136827D02*
G03*
X136827Y106134I-2000J0D01*
G01*
X87319Y105512D02*
G03*
X87319Y105512I-2000J0D01*
G01*
X36827Y105709D02*
G03*
X36827Y105709I-2000J0D01*
G01*
X-13583Y105823D02*
G03*
X-13583Y105823I-2000J0D01*
G01*
X-62878Y106480D02*
G03*
X-62878Y106480I-2000J0D01*
G01*
X-145835Y117913D02*
G03*
X-145835Y117913I-2000J0D01*
G01*
X-152528Y117815D02*
G03*
X-152528Y117815I-2000J0D01*
G01*
X-149279Y114272D02*
G03*
X-149279Y114272I-2000J0D01*
G01*
X60268Y61516D02*
G03*
X60268Y61516I-2000J0D01*
G01*
X70406Y60236D02*
G03*
X70406Y60236I-2000J0D01*
G01*
X65287Y60039D02*
G03*
X65287Y60039I-2000J0D01*
G01*
X-39437Y93602D02*
G03*
X-39437Y93602I-2000J0D01*
G01*
X-76346Y94980D02*
G03*
X-76346Y94980I-2000J0D01*
G01*
X77591Y87795D02*
G03*
X77591Y87795I-2000J0D01*
G01*
X85563D02*
G03*
X85563Y87795I-2000J0D01*
G01*
X82807D02*
G03*
X82807Y87795I-2000J0D01*
G01*
X80347D02*
G03*
X80347Y87795I-2000J0D01*
G01*
X47079Y75984D02*
G03*
X47079Y75984I-2000J0D01*
G01*
X57413Y76083D02*
G03*
X57413Y76083I-2000J0D01*
G01*
X54264D02*
G03*
X54264Y76083I-2000J0D01*
G01*
X51114Y76279D02*
G03*
X51114Y76279I-2000J0D01*
G01*
X-49476Y-25000D02*
G03*
X-49476Y-25000I-2000J0D01*
G01*
X-53905Y-22146D02*
G03*
X-53905Y-22146I-2000J0D01*
G01*
X32610Y-94390D02*
G03*
X32610Y-94390I-2000J0D01*
G01*
X126508Y96260D02*
G03*
X126508Y96260I-2000J0D01*
G01*
X-60844Y-24459D02*
G03*
X-60844Y-24459I-2000J0D01*
G01*
X-55185Y-394D02*
G03*
X-55185Y-394I-2000J0D01*
G01*
X72768Y93996D02*
G03*
X72768Y93996I-2000J0D01*
G01*
X-68374Y10335D02*
G03*
X-68374Y10335I-2000J0D01*
G01*
X-23197Y-24213D02*
G03*
X-23197Y-24213I-2000J0D01*
G01*
X-28315Y-21530D02*
G03*
X-28315Y-21530I-2000J0D01*
G01*
X-42291Y48130D02*
G03*
X-42291Y48130I-2000J0D01*
G01*
X-55874Y18407D02*
G03*
X-55874Y18407I-2000J0D01*
G01*
X-60795Y-3937D02*
G03*
X-60795Y-3937I-2000J0D01*
G01*
X-107946Y11418D02*
G03*
X-107946Y11418I-2000J0D01*
G01*
X-103315Y-15453D02*
G03*
X-103315Y-15453I-2000J0D01*
G01*
X-102724Y-22736D02*
G03*
X-102724Y-22736I-2000J0D01*
G01*
X-110303Y-16240D02*
G03*
X-110303Y-16240I-2000J0D01*
G01*
X39697Y-11516D02*
G03*
X39697Y-11516I-2000J0D01*
G01*
X32610Y-9252D02*
G03*
X32610Y-9252I-2000J0D01*
G01*
X-55579Y-6299D02*
G03*
X-55579Y-6299I-2000J0D01*
G01*
X-27232Y-25591D02*
G03*
X-27232Y-25591I-2000J0D01*
G01*
X-51740Y-2953D02*
G03*
X-51740Y-2953I-2000J0D01*
G01*
X-57842Y13878D02*
G03*
X-57842Y13878I-2000J0D01*
G01*
X-65028Y16353D02*
G03*
X-65028Y16353I-2000J0D01*
G01*
X-52134Y21949D02*
G03*
X-52134Y21949I-2000J0D01*
G01*
X-53905Y15059D02*
G03*
X-53905Y15059I-2000J0D01*
G01*
X81724Y-92815D02*
G03*
X81724Y-92815I-2000J0D01*
G01*
X-91110Y61417D02*
G03*
X-91110Y61417I-2000J0D01*
G01*
X-68866Y-37598D02*
G03*
X-68866Y-37598I-2000J0D01*
G01*
X-90618Y951D02*
G03*
X-90618Y951I-2000J0D01*
G01*
X-86386Y1575D02*
G03*
X-86386Y1575I-2000J0D01*
G01*
D147*
X-375Y55020D02*
G03*
X-375Y55020I-1200J0D01*
G01*
X-56615Y33652D02*
G03*
X-56615Y33652I-1200J0D01*
G01*
X-134987Y36432D02*
G03*
X-134987Y36432I-1200J0D01*
G01*
X-140532Y33563D02*
G03*
X-140532Y33563I-1200J0D01*
G01*
X-101326Y37908D02*
G03*
X-101326Y37908I-1200J0D01*
G01*
X-56542Y27967D02*
G03*
X-56542Y27967I-1200J0D01*
G01*
X-68255Y48833D02*
G03*
X-68255Y48833I-1200J0D01*
G01*
X-106739Y23637D02*
G03*
X-106739Y23637I-1200J0D01*
G01*
X-107428Y30034D02*
G03*
X-107428Y30034I-1200J0D01*
G01*
X-73176Y49278D02*
G03*
X-73176Y49278I-1200J0D01*
G01*
X-80395Y39075D02*
G03*
X-80395Y39075I-1200J0D01*
G01*
X-87481Y37598D02*
G03*
X-87481Y37598I-1200J0D01*
G01*
X-90040Y38189D02*
G03*
X-90040Y38189I-1200J0D01*
G01*
X-139843Y27657D02*
G03*
X-139843Y27657I-1200J0D01*
G01*
X-60971Y23046D02*
G03*
X-60971Y23046I-1200J0D01*
G01*
X-71375Y2557D02*
G03*
X-71375Y2557I-1200J0D01*
G01*
X-78263Y-1477D02*
G03*
X-78263Y-1477I-1200J0D01*
G01*
X-125987Y69371D02*
G03*
X-125987Y69371I-1200J0D01*
G01*
X-115302Y30329D02*
G03*
X-115302Y30329I-1200J0D01*
G01*
X-109889Y44896D02*
G03*
X-109889Y44896I-1200J0D01*
G01*
X-97746Y48575D02*
G03*
X-97746Y48575I-1200J0D01*
G01*
X-77771Y55496D02*
G03*
X-77771Y55496I-1200J0D01*
G01*
X-111227Y50478D02*
G03*
X-111227Y50478I-1200J0D01*
G01*
X-109062Y54316D02*
G03*
X-109062Y54316I-1200J0D01*
G01*
X-117918Y9740D02*
G03*
X-117918Y9740I-1200J0D01*
G01*
X-113982Y6198D02*
G03*
X-113982Y6198I-1200J0D01*
G01*
X-118115Y2557D02*
G03*
X-118115Y2557I-1200J0D01*
G01*
X-123133Y-12006D02*
G03*
X-123133Y-12006I-1200J0D01*
G01*
Y-8857D02*
G03*
X-123133Y-8857I-1200J0D01*
G01*
Y-6397D02*
G03*
X-123133Y-6397I-1200J0D01*
G01*
X-118804Y20958D02*
G03*
X-118804Y20958I-1200J0D01*
G01*
X-136319Y40047D02*
G03*
X-136319Y40047I-1200J0D01*
G01*
X-64880Y24205D02*
G03*
X-64880Y24205I-1200J0D01*
G01*
X-67537Y41524D02*
G03*
X-67537Y41524I-1200J0D01*
G01*
X-108341Y20366D02*
G03*
X-108341Y20366I-1200J0D01*
G01*
X-112604Y15546D02*
G03*
X-112604Y15546I-1200J0D01*
G01*
X-106772Y15650D02*
G03*
X-106772Y15650I-1200J0D01*
G01*
X-106934Y13189D02*
G03*
X-106934Y13189I-1200J0D01*
G01*
X-106247Y38302D02*
G03*
X-106247Y38302I-1200J0D01*
G01*
X-108544Y90847D02*
G03*
X-108544Y90847I-1200J0D01*
G01*
X-61697Y12304D02*
G03*
X-61697Y12304I-1200J0D01*
G01*
X-13564Y6413D02*
G03*
X-13564Y6413I-1200J0D01*
G01*
X149724Y70276D02*
G03*
X149724Y70276I-1200J0D01*
G01*
X-12678Y-94063D02*
G03*
X-12678Y-94063I-1200J0D01*
G01*
X37519Y-94232D02*
G03*
X37519Y-94232I-1200J0D01*
G01*
X87027Y-94346D02*
G03*
X87027Y-94346I-1200J0D01*
G01*
X136747Y-94413D02*
G03*
X136747Y-94413I-1200J0D01*
G01*
X187027Y-94740D02*
G03*
X187027Y-94740I-1200J0D01*
G01*
X228661Y-54528D02*
G03*
X228661Y-54528I-1200J0D01*
G01*
X220590Y-55020D02*
G03*
X220590Y-55020I-1200J0D01*
G01*
X220787Y-50295D02*
G03*
X220787Y-50295I-1200J0D01*
G01*
X226298D02*
G03*
X226298Y-50295I-1200J0D01*
G01*
X237125Y5740D02*
G03*
X237125Y5740I-1200J0D01*
G01*
X187058Y5413D02*
G03*
X187058Y5413I-1200J0D01*
G01*
X136716Y6020D02*
G03*
X136716Y6020I-1200J0D01*
G01*
X86814D02*
G03*
X86814Y6020I-1200J0D01*
G01*
X36814Y6398D02*
G03*
X36814Y6398I-1200J0D01*
G01*
X-63269Y-94161D02*
G03*
X-63269Y-94161I-1200J0D01*
G01*
X79842Y63287D02*
G03*
X79842Y63287I-1200J0D01*
G01*
X81515Y77559D02*
G03*
X81515Y77559I-1200J0D01*
G01*
X74920Y75394D02*
G03*
X74920Y75394I-1200J0D01*
G01*
X186338Y106134D02*
G03*
X186338Y106134I-1200J0D01*
G01*
X136027D02*
G03*
X136027Y106134I-1200J0D01*
G01*
X86519Y105512D02*
G03*
X86519Y105512I-1200J0D01*
G01*
X36027Y105709D02*
G03*
X36027Y105709I-1200J0D01*
G01*
X-14383Y105823D02*
G03*
X-14383Y105823I-1200J0D01*
G01*
X-63678Y106480D02*
G03*
X-63678Y106480I-1200J0D01*
G01*
X-146635Y117913D02*
G03*
X-146635Y117913I-1200J0D01*
G01*
X-153328Y117815D02*
G03*
X-153328Y117815I-1200J0D01*
G01*
X-150080Y114272D02*
G03*
X-150080Y114272I-1200J0D01*
G01*
X59468Y61516D02*
G03*
X59468Y61516I-1200J0D01*
G01*
X69605Y60236D02*
G03*
X69605Y60236I-1200J0D01*
G01*
X64487Y60039D02*
G03*
X64487Y60039I-1200J0D01*
G01*
X-40237Y93602D02*
G03*
X-40237Y93602I-1200J0D01*
G01*
X-77147Y94980D02*
G03*
X-77147Y94980I-1200J0D01*
G01*
X76790Y87795D02*
G03*
X76790Y87795I-1200J0D01*
G01*
X84763D02*
G03*
X84763Y87795I-1200J0D01*
G01*
X82007D02*
G03*
X82007Y87795I-1200J0D01*
G01*
X79546D02*
G03*
X79546Y87795I-1200J0D01*
G01*
X46279Y75984D02*
G03*
X46279Y75984I-1200J0D01*
G01*
X56613Y76083D02*
G03*
X56613Y76083I-1200J0D01*
G01*
X53464D02*
G03*
X53464Y76083I-1200J0D01*
G01*
X50314Y76279D02*
G03*
X50314Y76279I-1200J0D01*
G01*
X-50276Y-25000D02*
G03*
X-50276Y-25000I-1200J0D01*
G01*
X-54706Y-22146D02*
G03*
X-54706Y-22146I-1200J0D01*
G01*
X31810Y-94390D02*
G03*
X31810Y-94390I-1200J0D01*
G01*
X125708Y96260D02*
G03*
X125708Y96260I-1200J0D01*
G01*
X-61645Y-24459D02*
G03*
X-61645Y-24459I-1200J0D01*
G01*
X-55985Y-394D02*
G03*
X-55985Y-394I-1200J0D01*
G01*
X71968Y93996D02*
G03*
X71968Y93996I-1200J0D01*
G01*
X-69174Y10335D02*
G03*
X-69174Y10335I-1200J0D01*
G01*
X-23997Y-24213D02*
G03*
X-23997Y-24213I-1200J0D01*
G01*
X-29115Y-21530D02*
G03*
X-29115Y-21530I-1200J0D01*
G01*
X-43091Y48130D02*
G03*
X-43091Y48130I-1200J0D01*
G01*
X-56674Y18407D02*
G03*
X-56674Y18407I-1200J0D01*
G01*
X-61595Y-3937D02*
G03*
X-61595Y-3937I-1200J0D01*
G01*
X-108746Y11418D02*
G03*
X-108746Y11418I-1200J0D01*
G01*
X-104115Y-15453D02*
G03*
X-104115Y-15453I-1200J0D01*
G01*
X-103524Y-22736D02*
G03*
X-103524Y-22736I-1200J0D01*
G01*
X-111103Y-16240D02*
G03*
X-111103Y-16240I-1200J0D01*
G01*
X38897Y-11516D02*
G03*
X38897Y-11516I-1200J0D01*
G01*
X31810Y-9252D02*
G03*
X31810Y-9252I-1200J0D01*
G01*
X-56379Y-6299D02*
G03*
X-56379Y-6299I-1200J0D01*
G01*
X-28032Y-25591D02*
G03*
X-28032Y-25591I-1200J0D01*
G01*
X-52540Y-2953D02*
G03*
X-52540Y-2953I-1200J0D01*
G01*
X-58643Y13878D02*
G03*
X-58643Y13878I-1200J0D01*
G01*
X-65828Y16353D02*
G03*
X-65828Y16353I-1200J0D01*
G01*
X-52934Y21949D02*
G03*
X-52934Y21949I-1200J0D01*
G01*
X-54706Y15059D02*
G03*
X-54706Y15059I-1200J0D01*
G01*
X80924Y-92815D02*
G03*
X80924Y-92815I-1200J0D01*
G01*
X-91910Y61417D02*
G03*
X-91910Y61417I-1200J0D01*
G01*
X-69666Y-37598D02*
G03*
X-69666Y-37598I-1200J0D01*
G01*
X-91418Y951D02*
G03*
X-91418Y951I-1200J0D01*
G01*
X-87186Y1575D02*
G03*
X-87186Y1575I-1200J0D01*
G01*
M02*
