G04 Layer_Color=32768*
%FSLAX25Y25*%
%MOIN*%
G70*
G01*
G75*
%ADD67C,0.00787*%
%ADD78C,0.00500*%
%ADD120C,0.01000*%
%ADD121C,0.01500*%
%ADD122C,0.00100*%
D67*
X147407Y-113608D02*
X146619Y-112820D01*
X145045D01*
X144258Y-113608D01*
Y-114395D01*
X145045Y-115182D01*
X146619D01*
X147407Y-115969D01*
Y-116756D01*
X146619Y-117543D01*
X145045D01*
X144258Y-116756D01*
X148981Y-114395D02*
Y-116756D01*
X149768Y-117543D01*
X152129D01*
Y-114395D01*
X153704D02*
Y-117543D01*
Y-115969D01*
X154491Y-115182D01*
X155278Y-114395D01*
X156065D01*
X159214Y-117543D02*
Y-113608D01*
Y-115182D01*
X158427D01*
X160001D01*
X159214D01*
Y-113608D01*
X160001Y-112820D01*
X163149Y-114395D02*
X164724D01*
X165511Y-115182D01*
Y-117543D01*
X163149D01*
X162362Y-116756D01*
X163149Y-115969D01*
X165511D01*
X170234Y-114395D02*
X167872D01*
X167085Y-115182D01*
Y-116756D01*
X167872Y-117543D01*
X170234D01*
X174170D02*
X172595D01*
X171808Y-116756D01*
Y-115182D01*
X172595Y-114395D01*
X174170D01*
X174957Y-115182D01*
Y-115969D01*
X171808D01*
X182041Y-117543D02*
Y-113608D01*
Y-115182D01*
X181254D01*
X182828D01*
X182041D01*
Y-113608D01*
X182828Y-112820D01*
X185190Y-117543D02*
X186764D01*
X185977D01*
Y-114395D01*
X185190D01*
X189125Y-117543D02*
Y-114395D01*
X191487D01*
X192274Y-115182D01*
Y-117543D01*
X193848D02*
X195422D01*
X194635D01*
Y-114395D01*
X193848D01*
X197784Y-117543D02*
X200145D01*
X200933Y-116756D01*
X200145Y-115969D01*
X198571D01*
X197784Y-115182D01*
X198571Y-114395D01*
X200933D01*
X202507Y-112820D02*
Y-117543D01*
Y-115182D01*
X203294Y-114395D01*
X204868D01*
X205656Y-115182D01*
Y-117543D01*
X207230Y-114395D02*
X208017D01*
Y-115182D01*
X207230D01*
Y-114395D01*
Y-116756D02*
X208017D01*
Y-117543D01*
X207230D01*
Y-116756D01*
X215888Y-117543D02*
X217463D01*
X216675D01*
Y-114395D01*
X215888D01*
X219824Y-117543D02*
Y-114395D01*
X220611D01*
X221398Y-115182D01*
Y-117543D01*
Y-115182D01*
X222185Y-114395D01*
X222973Y-115182D01*
Y-117543D01*
X224547D02*
Y-114395D01*
X225334D01*
X226121Y-115182D01*
Y-117543D01*
Y-115182D01*
X226908Y-114395D01*
X227696Y-115182D01*
Y-117543D01*
X231631D02*
X230057D01*
X229270Y-116756D01*
Y-115182D01*
X230057Y-114395D01*
X231631D01*
X232418Y-115182D01*
Y-115969D01*
X229270D01*
X233993Y-114395D02*
Y-117543D01*
Y-115969D01*
X234780Y-115182D01*
X235567Y-114395D01*
X236354D01*
X238716Y-117543D02*
X241077D01*
X241864Y-116756D01*
X241077Y-115969D01*
X239503D01*
X238716Y-115182D01*
X239503Y-114395D01*
X241864D01*
X243439Y-117543D02*
X245013D01*
X244226D01*
Y-114395D01*
X243439D01*
X248161Y-117543D02*
X249736D01*
X250523Y-116756D01*
Y-115182D01*
X249736Y-114395D01*
X248161D01*
X247374Y-115182D01*
Y-116756D01*
X248161Y-117543D01*
X252097D02*
Y-114395D01*
X254459D01*
X255246Y-115182D01*
Y-117543D01*
X263117Y-119118D02*
X263904D01*
X264691Y-118331D01*
Y-114395D01*
X262330D01*
X261543Y-115182D01*
Y-116756D01*
X262330Y-117543D01*
X264691D01*
X267053D02*
X268627D01*
X269414Y-116756D01*
Y-115182D01*
X268627Y-114395D01*
X267053D01*
X266266Y-115182D01*
Y-116756D01*
X267053Y-117543D01*
X270989D02*
X272563D01*
X271776D01*
Y-112820D01*
X270989D01*
X278073D02*
Y-117543D01*
X275711D01*
X274924Y-116756D01*
Y-115182D01*
X275711Y-114395D01*
X278073D01*
X147407Y-56226D02*
X146619Y-55439D01*
X145045D01*
X144258Y-56226D01*
Y-57013D01*
X145045Y-57800D01*
X146619D01*
X147407Y-58587D01*
Y-59374D01*
X146619Y-60161D01*
X145045D01*
X144258Y-59374D01*
X148981Y-57013D02*
Y-59374D01*
X149768Y-60161D01*
X152129D01*
Y-57013D01*
X153704D02*
Y-60161D01*
Y-58587D01*
X154491Y-57800D01*
X155278Y-57013D01*
X156065D01*
X159214Y-60161D02*
Y-56226D01*
Y-57800D01*
X158427D01*
X160001D01*
X159214D01*
Y-56226D01*
X160001Y-55439D01*
X163149Y-57013D02*
X164724D01*
X165511Y-57800D01*
Y-60161D01*
X163149D01*
X162362Y-59374D01*
X163149Y-58587D01*
X165511D01*
X170234Y-57013D02*
X167872D01*
X167085Y-57800D01*
Y-59374D01*
X167872Y-60161D01*
X170234D01*
X174170D02*
X172595D01*
X171808Y-59374D01*
Y-57800D01*
X172595Y-57013D01*
X174170D01*
X174957Y-57800D01*
Y-58587D01*
X171808D01*
X182041Y-60161D02*
Y-56226D01*
Y-57800D01*
X181254D01*
X182828D01*
X182041D01*
Y-56226D01*
X182828Y-55439D01*
X185190Y-60161D02*
X186764D01*
X185977D01*
Y-57013D01*
X185190D01*
X189125Y-60161D02*
Y-57013D01*
X191487D01*
X192274Y-57800D01*
Y-60161D01*
X193848D02*
X195422D01*
X194635D01*
Y-57013D01*
X193848D01*
X197784Y-60161D02*
X200145D01*
X200933Y-59374D01*
X200145Y-58587D01*
X198571D01*
X197784Y-57800D01*
X198571Y-57013D01*
X200933D01*
X202507Y-55439D02*
Y-60161D01*
Y-57800D01*
X203294Y-57013D01*
X204868D01*
X205656Y-57800D01*
Y-60161D01*
X207230Y-57013D02*
X208017D01*
Y-57800D01*
X207230D01*
Y-57013D01*
Y-59374D02*
X208017D01*
Y-60161D01*
X207230D01*
Y-59374D01*
X215888Y-60161D02*
X217463D01*
X216675D01*
Y-57013D01*
X215888D01*
X219824Y-60161D02*
Y-57013D01*
X220611D01*
X221398Y-57800D01*
Y-60161D01*
Y-57800D01*
X222185Y-57013D01*
X222973Y-57800D01*
Y-60161D01*
X224547D02*
Y-57013D01*
X225334D01*
X226121Y-57800D01*
Y-60161D01*
Y-57800D01*
X226908Y-57013D01*
X227696Y-57800D01*
Y-60161D01*
X231631D02*
X230057D01*
X229270Y-59374D01*
Y-57800D01*
X230057Y-57013D01*
X231631D01*
X232418Y-57800D01*
Y-58587D01*
X229270D01*
X233993Y-57013D02*
Y-60161D01*
Y-58587D01*
X234780Y-57800D01*
X235567Y-57013D01*
X236354D01*
X238716Y-60161D02*
X241077D01*
X241864Y-59374D01*
X241077Y-58587D01*
X239503D01*
X238716Y-57800D01*
X239503Y-57013D01*
X241864D01*
X243439Y-60161D02*
X245013D01*
X244226D01*
Y-57013D01*
X243439D01*
X248161Y-60161D02*
X249736D01*
X250523Y-59374D01*
Y-57800D01*
X249736Y-57013D01*
X248161D01*
X247374Y-57800D01*
Y-59374D01*
X248161Y-60161D01*
X252097D02*
Y-57013D01*
X254459D01*
X255246Y-57800D01*
Y-60161D01*
X263117Y-61736D02*
X263904D01*
X264691Y-60949D01*
Y-57013D01*
X262330D01*
X261543Y-57800D01*
Y-59374D01*
X262330Y-60161D01*
X264691D01*
X267053D02*
X268627D01*
X269414Y-59374D01*
Y-57800D01*
X268627Y-57013D01*
X267053D01*
X266266Y-57800D01*
Y-59374D01*
X267053Y-60161D01*
X270989D02*
X272563D01*
X271776D01*
Y-55439D01*
X270989D01*
X278073D02*
Y-60161D01*
X275711D01*
X274924Y-59374D01*
Y-57800D01*
X275711Y-57013D01*
X278073D01*
X458233Y-10951D02*
X456265D01*
X455282Y-11935D01*
Y-15870D01*
X456265Y-16854D01*
X458233D01*
X459217Y-15870D01*
Y-11935D01*
X458233Y-10951D01*
X461185Y-12919D02*
X463153Y-16854D01*
X465121Y-12919D01*
X470041Y-16854D02*
X468073D01*
X467089Y-15870D01*
Y-13903D01*
X468073Y-12919D01*
X470041D01*
X471025Y-13903D01*
Y-14886D01*
X467089D01*
X472992Y-12919D02*
Y-16854D01*
Y-14886D01*
X473976Y-13903D01*
X474960Y-12919D01*
X475944D01*
X479880D02*
X481848D01*
X482832Y-13903D01*
Y-16854D01*
X479880D01*
X478896Y-15870D01*
X479880Y-14886D01*
X482832D01*
X484800Y-16854D02*
X486767D01*
X485783D01*
Y-10951D01*
X484800D01*
X489719Y-16854D02*
X491687D01*
X490703D01*
Y-10951D01*
X489719D01*
X500542D02*
Y-16854D01*
Y-13903D01*
X501526Y-12919D01*
X503494D01*
X504478Y-13903D01*
Y-16854D01*
X509398D02*
X507430D01*
X506446Y-15870D01*
Y-13903D01*
X507430Y-12919D01*
X509398D01*
X510382Y-13903D01*
Y-14886D01*
X506446D01*
X512350Y-16854D02*
X514318D01*
X513334D01*
Y-12919D01*
X512350D01*
X519237Y-18822D02*
X520221D01*
X521205Y-17838D01*
Y-12919D01*
X518253D01*
X517269Y-13903D01*
Y-15870D01*
X518253Y-16854D01*
X521205D01*
X523173Y-10951D02*
Y-16854D01*
Y-13903D01*
X524157Y-12919D01*
X526125D01*
X527109Y-13903D01*
Y-16854D01*
X530060Y-11935D02*
Y-12919D01*
X529077D01*
X531044D01*
X530060D01*
Y-15870D01*
X531044Y-16854D01*
X533996Y-12919D02*
X534980D01*
Y-13903D01*
X533996D01*
Y-12919D01*
Y-15870D02*
X534980D01*
Y-16854D01*
X533996D01*
Y-15870D01*
X544819Y-16854D02*
X546787D01*
X545803D01*
Y-10951D01*
X544819Y-11935D01*
X549739Y-16854D02*
Y-15870D01*
X550723D01*
Y-16854D01*
X549739D01*
X558595Y-10951D02*
X556627Y-11935D01*
X554659Y-13903D01*
Y-15870D01*
X555643Y-16854D01*
X557611D01*
X558595Y-15870D01*
Y-14886D01*
X557611Y-13903D01*
X554659D01*
X560563Y-16854D02*
Y-12919D01*
X561546D01*
X562530Y-13903D01*
Y-16854D01*
Y-13903D01*
X563514Y-12919D01*
X564498Y-13903D01*
Y-16854D01*
X566466D02*
Y-12919D01*
X567450D01*
X568434Y-13903D01*
Y-16854D01*
Y-13903D01*
X569418Y-12919D01*
X570402Y-13903D01*
Y-16854D01*
X578273Y-13903D02*
X582209D01*
X580241Y-11935D02*
Y-15870D01*
X584177Y-16854D02*
X588113Y-12919D01*
X590080Y-13903D02*
X594016D01*
X595984Y-16854D02*
X597952D01*
X596968D01*
Y-10951D01*
X595984Y-11935D01*
X600904D02*
X601888Y-10951D01*
X603856D01*
X604840Y-11935D01*
Y-15870D01*
X603856Y-16854D01*
X601888D01*
X600904Y-15870D01*
Y-11935D01*
X606807Y-15870D02*
X611727Y-10951D01*
X606807D02*
Y-9967D01*
X607791D01*
Y-10951D01*
X606807D01*
X610743Y-16854D02*
Y-15870D01*
X611727D01*
Y-16854D01*
X610743D01*
D78*
X661876Y-26817D02*
X663542D01*
X662709D01*
Y-31815D01*
X661876D01*
X663542D01*
X666041D02*
Y-28483D01*
X666875D01*
X667707Y-29316D01*
Y-31815D01*
Y-29316D01*
X668541Y-28483D01*
X669374Y-29316D01*
Y-31815D01*
X671040Y-33481D02*
Y-28483D01*
X673539D01*
X674372Y-29316D01*
Y-30982D01*
X673539Y-31815D01*
X671040D01*
X678537D02*
X676871D01*
X676038Y-30982D01*
Y-29316D01*
X676871Y-28483D01*
X678537D01*
X679370Y-29316D01*
Y-30149D01*
X676038D01*
X684369Y-26817D02*
Y-31815D01*
X681870D01*
X681037Y-30982D01*
Y-29316D01*
X681870Y-28483D01*
X684369D01*
X686868D02*
X688534D01*
X689367Y-29316D01*
Y-31815D01*
X686868D01*
X686035Y-30982D01*
X686868Y-30149D01*
X689367D01*
X691033Y-31815D02*
Y-28483D01*
X693533D01*
X694366Y-29316D01*
Y-31815D01*
X699364Y-28483D02*
X696865D01*
X696032Y-29316D01*
Y-30982D01*
X696865Y-31815D01*
X699364D01*
X703529D02*
X701863D01*
X701030Y-30982D01*
Y-29316D01*
X701863Y-28483D01*
X703529D01*
X704362Y-29316D01*
Y-30149D01*
X701030D01*
X714359Y-28483D02*
X711860D01*
X711027Y-29316D01*
Y-30982D01*
X711860Y-31815D01*
X714359D01*
X716858D02*
X718524D01*
X719357Y-30982D01*
Y-29316D01*
X718524Y-28483D01*
X716858D01*
X716025Y-29316D01*
Y-30982D01*
X716858Y-31815D01*
X721024D02*
Y-28483D01*
X723523D01*
X724356Y-29316D01*
Y-31815D01*
X726855Y-27650D02*
Y-28483D01*
X726022D01*
X727688D01*
X726855D01*
Y-30982D01*
X727688Y-31815D01*
X730187Y-28483D02*
Y-31815D01*
Y-30149D01*
X731020Y-29316D01*
X731853Y-28483D01*
X732687D01*
X736019Y-31815D02*
X737685D01*
X738518Y-30982D01*
Y-29316D01*
X737685Y-28483D01*
X736019D01*
X735186Y-29316D01*
Y-30982D01*
X736019Y-31815D01*
X740184D02*
X741850D01*
X741017D01*
Y-26817D01*
X740184D01*
X664534Y-113765D02*
X665033Y-113265D01*
X666033D01*
X666533Y-113765D01*
Y-115764D01*
X666033Y-116264D01*
X665033D01*
X664534Y-115764D01*
Y-113765D01*
X667533Y-116264D02*
Y-115764D01*
X668032D01*
Y-116264D01*
X667533D01*
X670032D02*
X671032D01*
X670532D01*
Y-113265D01*
X670032Y-113765D01*
X674030Y-116264D02*
Y-113265D01*
X672531Y-114764D01*
X674530D01*
X677529Y-113265D02*
X675530D01*
Y-114764D01*
X676530Y-114264D01*
X677030D01*
X677529Y-114764D01*
Y-115764D01*
X677030Y-116264D01*
X676030D01*
X675530Y-115764D01*
X678529Y-116264D02*
Y-114264D01*
X679029D01*
X679529Y-114764D01*
Y-116264D01*
Y-114764D01*
X680029Y-114264D01*
X680528Y-114764D01*
Y-116264D01*
X681528D02*
Y-114264D01*
X682028D01*
X682528Y-114764D01*
Y-116264D01*
Y-114764D01*
X683028Y-114264D01*
X683527Y-114764D01*
Y-116264D01*
X687526Y-115264D02*
X689526D01*
X687526Y-114264D02*
X689526D01*
X695524Y-113265D02*
X693524D01*
Y-114764D01*
X694524Y-114264D01*
X695024D01*
X695524Y-114764D01*
Y-115764D01*
X695024Y-116264D01*
X694024D01*
X693524Y-115764D01*
X696523Y-113765D02*
X697023Y-113265D01*
X698023D01*
X698523Y-113765D01*
Y-115764D01*
X698023Y-116264D01*
X697023D01*
X696523Y-115764D01*
Y-113765D01*
X703021Y-116264D02*
X704021D01*
X704521Y-115764D01*
Y-114764D01*
X704021Y-114264D01*
X703021D01*
X702521Y-114764D01*
Y-115764D01*
X703021Y-116264D01*
X705520Y-113265D02*
Y-116264D01*
Y-114764D01*
X706020Y-114264D01*
X707020D01*
X707520Y-114764D01*
Y-116264D01*
X708519D02*
Y-114264D01*
X709019D01*
X709519Y-114764D01*
Y-116264D01*
Y-114764D01*
X710019Y-114264D01*
X710519Y-114764D01*
Y-116264D01*
X714517Y-114764D02*
X716517D01*
X715517Y-113765D02*
Y-115764D01*
X717516Y-116264D02*
X719516Y-114264D01*
X720515Y-114764D02*
X722515D01*
X726513Y-116264D02*
X727513D01*
X727013D01*
Y-113265D01*
X726513Y-113765D01*
X729013D02*
X729513Y-113265D01*
X730512D01*
X731012Y-113765D01*
Y-115764D01*
X730512Y-116264D01*
X729513D01*
X729013Y-115764D01*
Y-113765D01*
X732012Y-115764D02*
X734511Y-113265D01*
X732012D02*
Y-112765D01*
X732512D01*
Y-113265D01*
X732012D01*
X734011Y-116264D02*
Y-115764D01*
X734511D01*
Y-116264D01*
X734011D01*
X667191Y-56776D02*
X667691Y-56277D01*
X668691D01*
X669190Y-56776D01*
Y-58776D01*
X668691Y-59276D01*
X667691D01*
X667191Y-58776D01*
Y-56776D01*
X670190Y-59276D02*
Y-58776D01*
X670690D01*
Y-59276D01*
X670190D01*
X672689D02*
X673689D01*
X673189D01*
Y-56277D01*
X672689Y-56776D01*
X676688Y-59276D02*
Y-56277D01*
X675188Y-57776D01*
X677188D01*
X680187Y-56277D02*
X678188D01*
Y-57776D01*
X679187Y-57276D01*
X679687D01*
X680187Y-57776D01*
Y-58776D01*
X679687Y-59276D01*
X678687D01*
X678188Y-58776D01*
X681186Y-59276D02*
Y-57276D01*
X681686D01*
X682186Y-57776D01*
Y-59276D01*
Y-57776D01*
X682686Y-57276D01*
X683186Y-57776D01*
Y-59276D01*
X684186D02*
Y-57276D01*
X684685D01*
X685185Y-57776D01*
Y-59276D01*
Y-57776D01*
X685685Y-57276D01*
X686185Y-57776D01*
Y-59276D01*
X690184Y-58276D02*
X692183D01*
X690184Y-57276D02*
X692183D01*
X698181Y-56277D02*
X696182D01*
Y-57776D01*
X697181Y-57276D01*
X697681D01*
X698181Y-57776D01*
Y-58776D01*
X697681Y-59276D01*
X696681D01*
X696182Y-58776D01*
X699181Y-56776D02*
X699681Y-56277D01*
X700680D01*
X701180Y-56776D01*
Y-58776D01*
X700680Y-59276D01*
X699681D01*
X699181Y-58776D01*
Y-56776D01*
X705679Y-59276D02*
X706678D01*
X707178Y-58776D01*
Y-57776D01*
X706678Y-57276D01*
X705679D01*
X705179Y-57776D01*
Y-58776D01*
X705679Y-59276D01*
X708178Y-56277D02*
Y-59276D01*
Y-57776D01*
X708678Y-57276D01*
X709677D01*
X710177Y-57776D01*
Y-59276D01*
X711177D02*
Y-57276D01*
X711677D01*
X712177Y-57776D01*
Y-59276D01*
Y-57776D01*
X712676Y-57276D01*
X713176Y-57776D01*
Y-59276D01*
X717175Y-57776D02*
X719174D01*
X718175Y-56776D02*
Y-58776D01*
X720174Y-59276D02*
X722173Y-57276D01*
X723173Y-57776D02*
X725172D01*
X729171Y-59276D02*
X730171D01*
X729671D01*
Y-56277D01*
X729171Y-56776D01*
X731670D02*
X732170Y-56277D01*
X733170D01*
X733670Y-56776D01*
Y-58776D01*
X733170Y-59276D01*
X732170D01*
X731670Y-58776D01*
Y-56776D01*
X734669Y-58776D02*
X737168Y-56277D01*
X734669D02*
Y-55777D01*
X735169D01*
Y-56277D01*
X734669D01*
X736669Y-59276D02*
Y-58776D01*
X737168D01*
Y-59276D01*
X736669D01*
X324449Y15438D02*
X323793Y16094D01*
X322481D01*
X321825Y15438D01*
Y12814D01*
X322481Y12158D01*
X323793D01*
X324449Y12814D01*
X326417Y12158D02*
X327729D01*
X328385Y12814D01*
Y14126D01*
X327729Y14782D01*
X326417D01*
X325761Y14126D01*
Y12814D01*
X326417Y12158D01*
X329697D02*
Y14782D01*
X331664D01*
X332320Y14126D01*
Y12158D01*
X334288Y15438D02*
Y14782D01*
X333632D01*
X334944D01*
X334288D01*
Y12814D01*
X334944Y12158D01*
X337568Y14782D02*
X338880D01*
X339536Y14126D01*
Y12158D01*
X337568D01*
X336912Y12814D01*
X337568Y13470D01*
X339536D01*
X343472Y14782D02*
X341504D01*
X340848Y14126D01*
Y12814D01*
X341504Y12158D01*
X343472D01*
X345440Y15438D02*
Y14782D01*
X344784D01*
X346095D01*
X345440D01*
Y12814D01*
X346095Y12158D01*
X348063Y14782D02*
X348719D01*
Y14126D01*
X348063D01*
Y14782D01*
Y12814D02*
X348719D01*
Y12158D01*
X348063D01*
Y12814D01*
X355279Y14782D02*
X357903Y12158D01*
X356591Y13470D01*
X357903Y14782D01*
X355279Y12158D01*
X359871D02*
X361182D01*
X361839Y12814D01*
Y14126D01*
X361182Y14782D01*
X359871D01*
X359215Y14126D01*
Y12814D01*
X359871Y12158D01*
X363150Y16094D02*
Y12158D01*
X365118D01*
X365774Y12814D01*
Y13470D01*
Y14126D01*
X365118Y14782D01*
X363150D01*
X367086Y12158D02*
X369054D01*
X369710Y12814D01*
X369054Y13470D01*
X367742D01*
X367086Y14126D01*
X367742Y14782D01*
X369710D01*
X372990Y13470D02*
Y14126D01*
X372334D01*
Y13470D01*
X372990D01*
X373646Y14126D01*
Y15438D01*
X372990Y16094D01*
X371678D01*
X371022Y15438D01*
Y12814D01*
X371678Y12158D01*
X373646D01*
X374958D02*
Y16094D01*
Y13470D02*
X376925Y14782D01*
X374958Y13470D02*
X376925Y12158D01*
X379549D02*
X380861D01*
X381517Y12814D01*
Y14126D01*
X380861Y14782D01*
X379549D01*
X378893Y14126D01*
Y12814D01*
X379549Y12158D01*
X382829D02*
X384797D01*
X385453Y12814D01*
X384797Y13470D01*
X383485D01*
X382829Y14126D01*
X383485Y14782D01*
X385453D01*
X387421D02*
X388733D01*
X389389Y14126D01*
Y12158D01*
X387421D01*
X386765Y12814D01*
X387421Y13470D01*
X389389D01*
X392013Y10847D02*
X392668D01*
X393324Y11503D01*
Y14782D01*
X391356D01*
X390701Y14126D01*
Y12814D01*
X391356Y12158D01*
X393324D01*
X394636D02*
X395948D01*
X395292D01*
Y14782D01*
X394636D01*
X397916Y12158D02*
Y12814D01*
X398572D01*
Y12158D01*
X397916D01*
X403820Y14782D02*
X401852D01*
X401196Y14126D01*
Y12814D01*
X401852Y12158D01*
X403820D01*
X405788D02*
X407099D01*
X407755Y12814D01*
Y14126D01*
X407099Y14782D01*
X405788D01*
X405132Y14126D01*
Y12814D01*
X405788Y12158D01*
X409067D02*
Y14782D01*
X409723D01*
X410379Y14126D01*
Y12158D01*
Y14126D01*
X411035Y14782D01*
X411691Y14126D01*
Y12158D01*
X321825Y26094D02*
Y22159D01*
X323793D01*
X324449Y22815D01*
Y23470D01*
X323793Y24126D01*
X321825D01*
X323793D01*
X324449Y24782D01*
Y25438D01*
X323793Y26094D01*
X321825D01*
X326417Y22159D02*
X327729D01*
X328385Y22815D01*
Y24126D01*
X327729Y24782D01*
X326417D01*
X325761Y24126D01*
Y22815D01*
X326417Y22159D01*
X330353Y24782D02*
X331664D01*
X332320Y24126D01*
Y22159D01*
X330353D01*
X329697Y22815D01*
X330353Y23470D01*
X332320D01*
X333632Y24782D02*
Y22159D01*
Y23470D01*
X334288Y24126D01*
X334944Y24782D01*
X335600D01*
X340192Y26094D02*
Y22159D01*
X338224D01*
X337568Y22815D01*
Y24126D01*
X338224Y24782D01*
X340192D01*
X345440Y22159D02*
Y24782D01*
X347407D01*
X348063Y24126D01*
Y22159D01*
X350031Y24782D02*
X351343D01*
X351999Y24126D01*
Y22159D01*
X350031D01*
X349375Y22815D01*
X350031Y23470D01*
X351999D01*
X353311Y22159D02*
Y24782D01*
X353967D01*
X354623Y24126D01*
Y22159D01*
Y24126D01*
X355279Y24782D01*
X355935Y24126D01*
Y22159D01*
X359215D02*
X357903D01*
X357247Y22815D01*
Y24126D01*
X357903Y24782D01*
X359215D01*
X359871Y24126D01*
Y23470D01*
X357247D01*
X361182Y24782D02*
X361839D01*
Y24126D01*
X361182D01*
Y24782D01*
Y22815D02*
X361839D01*
Y22159D01*
X361182D01*
Y22815D01*
X370366Y26094D02*
X369054D01*
X368398Y25438D01*
Y22815D01*
X369054Y22159D01*
X370366D01*
X371022Y22815D01*
Y25438D01*
X370366Y26094D01*
X372334Y24782D02*
Y22159D01*
Y23470D01*
X372990Y24126D01*
X373646Y24782D01*
X374302D01*
X378893D02*
X376925D01*
X376270Y24126D01*
Y22815D01*
X376925Y22159D01*
X378893D01*
X380205Y26094D02*
Y22159D01*
Y24126D01*
X380861Y24782D01*
X382173D01*
X382829Y24126D01*
Y22159D01*
X384797Y24782D02*
X386109D01*
X386765Y24126D01*
Y22159D01*
X384797D01*
X384141Y22815D01*
X384797Y23470D01*
X386765D01*
X388077Y24782D02*
Y22159D01*
Y23470D01*
X388733Y24126D01*
X389389Y24782D01*
X390045D01*
X394636Y26094D02*
Y22159D01*
X392668D01*
X392013Y22815D01*
Y24126D01*
X392668Y24782D01*
X394636D01*
X399884Y22159D02*
Y26094D01*
X401852D01*
X402508Y25438D01*
Y24126D01*
X401852Y23470D01*
X399884D01*
X404476Y24782D02*
X405788D01*
X406444Y24126D01*
Y22159D01*
X404476D01*
X403820Y22815D01*
X404476Y23470D01*
X406444D01*
X407755Y22159D02*
X409067D01*
X408411D01*
Y26094D01*
X407755D01*
X411691Y24782D02*
X413003D01*
X413659Y24126D01*
Y22159D01*
X411691D01*
X411035Y22815D01*
X411691Y23470D01*
X413659D01*
X414971Y24782D02*
Y22815D01*
X415627Y22159D01*
X416283Y22815D01*
X416939Y22159D01*
X417595Y22815D01*
Y24782D01*
X419563D02*
X420875D01*
X421530Y24126D01*
Y22159D01*
X419563D01*
X418907Y22815D01*
X419563Y23470D01*
X421530D01*
X422842Y22159D02*
Y24782D01*
X424810D01*
X425466Y24126D01*
Y22159D01*
X426778Y24126D02*
X429402D01*
X430714Y22159D02*
Y26094D01*
X432682D01*
X433338Y25438D01*
Y24126D01*
X432682Y23470D01*
X430714D01*
X432026D02*
X433338Y22159D01*
X434650Y26094D02*
X437274Y22159D01*
Y26094D02*
X434650Y22159D01*
X445145Y26094D02*
X442521D01*
Y22159D01*
X445145D01*
X442521Y24126D02*
X443833D01*
X446457Y26094D02*
Y23470D01*
X447769Y22159D01*
X449081Y23470D01*
Y26094D01*
X450393D02*
X453016D01*
X451705D01*
Y22159D01*
X454328D02*
X455640D01*
X454984D01*
Y26094D01*
X454328Y25438D01*
D120*
X571411Y-26970D02*
Y-31693D01*
X573772D01*
X574559Y-30906D01*
Y-30119D01*
X573772Y-29331D01*
X571411D01*
X573772D01*
X574559Y-28544D01*
Y-27757D01*
X573772Y-26970D01*
X571411D01*
X576921Y-31693D02*
X578495D01*
X579282Y-30906D01*
Y-29331D01*
X578495Y-28544D01*
X576921D01*
X576133Y-29331D01*
Y-30906D01*
X576921Y-31693D01*
X581643Y-28544D02*
X583218D01*
X584005Y-29331D01*
Y-31693D01*
X581643D01*
X580856Y-30906D01*
X581643Y-30119D01*
X584005D01*
X585579Y-28544D02*
Y-31693D01*
Y-30119D01*
X586366Y-29331D01*
X587153Y-28544D01*
X587941D01*
X593451Y-26970D02*
Y-31693D01*
X591089D01*
X590302Y-30906D01*
Y-29331D01*
X591089Y-28544D01*
X593451D01*
X599748Y-26970D02*
Y-31693D01*
X602896D01*
X605258Y-28544D02*
X606832D01*
X607619Y-29331D01*
Y-31693D01*
X605258D01*
X604471Y-30906D01*
X605258Y-30119D01*
X607619D01*
X609194Y-28544D02*
Y-30906D01*
X609981Y-31693D01*
X612342D01*
Y-32480D01*
X611555Y-33267D01*
X610768D01*
X612342Y-31693D02*
Y-28544D01*
X616278Y-31693D02*
X614704D01*
X613916Y-30906D01*
Y-29331D01*
X614704Y-28544D01*
X616278D01*
X617065Y-29331D01*
Y-30119D01*
X613916D01*
X618639Y-28544D02*
Y-31693D01*
Y-30119D01*
X619426Y-29331D01*
X620214Y-28544D01*
X621001D01*
X631234Y-27757D02*
X630446Y-26970D01*
X628872D01*
X628085Y-27757D01*
Y-28544D01*
X628872Y-29331D01*
X630446D01*
X631234Y-30119D01*
Y-30906D01*
X630446Y-31693D01*
X628872D01*
X628085Y-30906D01*
X633595Y-27757D02*
Y-28544D01*
X632808D01*
X634382D01*
X633595D01*
Y-30906D01*
X634382Y-31693D01*
X637531Y-28544D02*
X639105D01*
X639892Y-29331D01*
Y-31693D01*
X637531D01*
X636744Y-30906D01*
X637531Y-30119D01*
X639892D01*
X644615Y-28544D02*
X642254D01*
X641467Y-29331D01*
Y-30906D01*
X642254Y-31693D01*
X644615D01*
X646189D02*
Y-26970D01*
Y-30119D02*
X648551Y-28544D01*
X646189Y-30119D02*
X648551Y-31693D01*
X526114Y-46655D02*
X526901Y-45868D01*
X528476D01*
X529263Y-46655D01*
Y-47442D01*
X528476Y-48229D01*
X527689D01*
X528476D01*
X529263Y-49016D01*
Y-49804D01*
X528476Y-50591D01*
X526901D01*
X526114Y-49804D01*
X530837Y-50591D02*
Y-49804D01*
X531624D01*
Y-50591D01*
X530837D01*
X537922Y-45868D02*
X534773D01*
Y-48229D01*
X536347Y-47442D01*
X537134D01*
X537922Y-48229D01*
Y-49804D01*
X537134Y-50591D01*
X535560D01*
X534773Y-49804D01*
X528476Y-69488D02*
Y-64765D01*
X526114Y-67127D01*
X529263D01*
X530837Y-69488D02*
Y-68701D01*
X531624D01*
Y-69488D01*
X530837D01*
X537922D02*
X534773D01*
X537922Y-66340D01*
Y-65553D01*
X537134Y-64765D01*
X535560D01*
X534773Y-65553D01*
X528476Y-88386D02*
Y-83663D01*
X526114Y-86024D01*
X529263D01*
X530837Y-88386D02*
Y-87599D01*
X531624D01*
Y-88386D01*
X530837D01*
X537922D02*
X534773D01*
X537922Y-85237D01*
Y-84450D01*
X537134Y-83663D01*
X535560D01*
X534773Y-84450D01*
X528476Y-107283D02*
Y-102561D01*
X526114Y-104922D01*
X529263D01*
X530837Y-107283D02*
Y-106496D01*
X531624D01*
Y-107283D01*
X530837D01*
X537922D02*
X534773D01*
X537922Y-104135D01*
Y-103348D01*
X537134Y-102561D01*
X535560D01*
X534773Y-103348D01*
X526114Y-122245D02*
X526901Y-121458D01*
X528476D01*
X529263Y-122245D01*
Y-123032D01*
X528476Y-123820D01*
X527689D01*
X528476D01*
X529263Y-124607D01*
Y-125394D01*
X528476Y-126181D01*
X526901D01*
X526114Y-125394D01*
X530837Y-126181D02*
Y-125394D01*
X531624D01*
Y-126181D01*
X530837D01*
X537922Y-121458D02*
X534773D01*
Y-123820D01*
X536347Y-123032D01*
X537134D01*
X537922Y-123820D01*
Y-125394D01*
X537134Y-126181D01*
X535560D01*
X534773Y-125394D01*
X529263Y-27757D02*
X528476Y-26970D01*
X526901D01*
X526114Y-27757D01*
Y-30906D01*
X526901Y-31693D01*
X528476D01*
X529263Y-30906D01*
X531624Y-31693D02*
X533199D01*
X533986Y-30906D01*
Y-29331D01*
X533199Y-28544D01*
X531624D01*
X530837Y-29331D01*
Y-30906D01*
X531624Y-31693D01*
X535560D02*
Y-28544D01*
X537921D01*
X538709Y-29331D01*
Y-31693D01*
X540283D02*
X542644D01*
X543432Y-30906D01*
X542644Y-30119D01*
X541070D01*
X540283Y-29331D01*
X541070Y-28544D01*
X543432D01*
X545793Y-27757D02*
Y-28544D01*
X545006D01*
X546580D01*
X545793D01*
Y-30906D01*
X546580Y-31693D01*
X549729Y-28544D02*
X551303D01*
X552090Y-29331D01*
Y-31693D01*
X549729D01*
X548942Y-30906D01*
X549729Y-30119D01*
X552090D01*
X553664Y-31693D02*
Y-28544D01*
X556026D01*
X556813Y-29331D01*
Y-31693D01*
X559174Y-27757D02*
Y-28544D01*
X558387D01*
X559962D01*
X559174D01*
Y-30906D01*
X559962Y-31693D01*
X474521Y-46655D02*
X475308Y-45868D01*
X476883D01*
X477670Y-46655D01*
Y-49804D01*
X476883Y-50591D01*
X475308D01*
X474521Y-49804D01*
Y-46655D01*
X479244Y-50591D02*
Y-49804D01*
X480031D01*
Y-50591D01*
X479244D01*
X483180Y-46655D02*
X483967Y-45868D01*
X485541D01*
X486328Y-46655D01*
Y-49804D01*
X485541Y-50591D01*
X483967D01*
X483180Y-49804D01*
Y-46655D01*
X487902Y-50591D02*
X489477D01*
X488690D01*
Y-45868D01*
X487902Y-46655D01*
X491838D02*
X492625Y-45868D01*
X494200D01*
X494987Y-46655D01*
Y-49804D01*
X494200Y-50591D01*
X492625D01*
X491838Y-49804D01*
Y-46655D01*
X496561Y-50591D02*
Y-47442D01*
X497348D01*
X498135Y-48229D01*
Y-50591D01*
Y-48229D01*
X498923Y-47442D01*
X499710Y-48229D01*
Y-50591D01*
X501284D02*
Y-47442D01*
X502071D01*
X502858Y-48229D01*
Y-50591D01*
Y-48229D01*
X503646Y-47442D01*
X504433Y-48229D01*
Y-50591D01*
X474521Y-56104D02*
X475308Y-55317D01*
X476883D01*
X477670Y-56104D01*
Y-59252D01*
X476883Y-60039D01*
X475308D01*
X474521Y-59252D01*
Y-56104D01*
X479244Y-60039D02*
Y-59252D01*
X480031D01*
Y-60039D01*
X479244D01*
X483180Y-56104D02*
X483967Y-55317D01*
X485541D01*
X486328Y-56104D01*
Y-59252D01*
X485541Y-60039D01*
X483967D01*
X483180Y-59252D01*
Y-56104D01*
X487902D02*
X488690Y-55317D01*
X490264D01*
X491051Y-56104D01*
Y-56891D01*
X490264Y-57678D01*
X489477D01*
X490264D01*
X491051Y-58465D01*
Y-59252D01*
X490264Y-60039D01*
X488690D01*
X487902Y-59252D01*
X495774Y-55317D02*
X494200Y-56104D01*
X492625Y-57678D01*
Y-59252D01*
X493413Y-60039D01*
X494987D01*
X495774Y-59252D01*
Y-58465D01*
X494987Y-57678D01*
X492625D01*
X497348Y-60039D02*
Y-56891D01*
X498135D01*
X498923Y-57678D01*
Y-60039D01*
Y-57678D01*
X499710Y-56891D01*
X500497Y-57678D01*
Y-60039D01*
X502071D02*
Y-56891D01*
X502858D01*
X503646Y-57678D01*
Y-60039D01*
Y-57678D01*
X504433Y-56891D01*
X505220Y-57678D01*
Y-60039D01*
X474521Y-65553D02*
X475308Y-64765D01*
X476883D01*
X477670Y-65553D01*
Y-68701D01*
X476883Y-69488D01*
X475308D01*
X474521Y-68701D01*
Y-65553D01*
X479244Y-69488D02*
Y-68701D01*
X480031D01*
Y-69488D01*
X479244D01*
X483180Y-65553D02*
X483967Y-64765D01*
X485541D01*
X486328Y-65553D01*
Y-68701D01*
X485541Y-69488D01*
X483967D01*
X483180Y-68701D01*
Y-65553D01*
X487902Y-68701D02*
X488690Y-69488D01*
X490264D01*
X491051Y-68701D01*
Y-65553D01*
X490264Y-64765D01*
X488690D01*
X487902Y-65553D01*
Y-66340D01*
X488690Y-67127D01*
X491051D01*
X492625Y-65553D02*
X493413Y-64765D01*
X494987D01*
X495774Y-65553D01*
Y-68701D01*
X494987Y-69488D01*
X493413D01*
X492625Y-68701D01*
Y-65553D01*
X497348Y-69488D02*
Y-66340D01*
X498135D01*
X498923Y-67127D01*
Y-69488D01*
Y-67127D01*
X499710Y-66340D01*
X500497Y-67127D01*
Y-69488D01*
X502071D02*
Y-66340D01*
X502858D01*
X503646Y-67127D01*
Y-69488D01*
Y-67127D01*
X504433Y-66340D01*
X505220Y-67127D01*
Y-69488D01*
X474521Y-75001D02*
X475308Y-74214D01*
X476883D01*
X477670Y-75001D01*
Y-78150D01*
X476883Y-78937D01*
X475308D01*
X474521Y-78150D01*
Y-75001D01*
X479244Y-78937D02*
Y-78150D01*
X480031D01*
Y-78937D01*
X479244D01*
X483180Y-75001D02*
X483967Y-74214D01*
X485541D01*
X486328Y-75001D01*
Y-78150D01*
X485541Y-78937D01*
X483967D01*
X483180Y-78150D01*
Y-75001D01*
X487902D02*
X488690Y-74214D01*
X490264D01*
X491051Y-75001D01*
Y-75788D01*
X490264Y-76576D01*
X489477D01*
X490264D01*
X491051Y-77363D01*
Y-78150D01*
X490264Y-78937D01*
X488690D01*
X487902Y-78150D01*
X495774Y-74214D02*
X494200Y-75001D01*
X492625Y-76576D01*
Y-78150D01*
X493413Y-78937D01*
X494987D01*
X495774Y-78150D01*
Y-77363D01*
X494987Y-76576D01*
X492625D01*
X497348Y-78937D02*
Y-75788D01*
X498135D01*
X498923Y-76576D01*
Y-78937D01*
Y-76576D01*
X499710Y-75788D01*
X500497Y-76576D01*
Y-78937D01*
X502071D02*
Y-75788D01*
X502858D01*
X503646Y-76576D01*
Y-78937D01*
Y-76576D01*
X504433Y-75788D01*
X505220Y-76576D01*
Y-78937D01*
X474521Y-88386D02*
X476095D01*
X475308D01*
Y-83663D01*
X474521Y-84450D01*
X478457Y-88386D02*
Y-87599D01*
X479244D01*
Y-88386D01*
X478457D01*
X485541D02*
X482393D01*
X485541Y-85237D01*
Y-84450D01*
X484754Y-83663D01*
X483180D01*
X482393Y-84450D01*
X490264Y-83663D02*
X487115D01*
Y-86024D01*
X488690Y-85237D01*
X489477D01*
X490264Y-86024D01*
Y-87599D01*
X489477Y-88386D01*
X487902D01*
X487115Y-87599D01*
X491838Y-84450D02*
X492625Y-83663D01*
X494200D01*
X494987Y-84450D01*
Y-87599D01*
X494200Y-88386D01*
X492625D01*
X491838Y-87599D01*
Y-84450D01*
X496561Y-88386D02*
Y-85237D01*
X497348D01*
X498135Y-86024D01*
Y-88386D01*
Y-86024D01*
X498923Y-85237D01*
X499710Y-86024D01*
Y-88386D01*
X501284D02*
Y-85237D01*
X502071D01*
X502858Y-86024D01*
Y-88386D01*
Y-86024D01*
X503646Y-85237D01*
X504433Y-86024D01*
Y-88386D01*
X474521Y-93899D02*
X475308Y-93112D01*
X476883D01*
X477670Y-93899D01*
Y-97048D01*
X476883Y-97835D01*
X475308D01*
X474521Y-97048D01*
Y-93899D01*
X479244Y-97835D02*
Y-97048D01*
X480031D01*
Y-97835D01*
X479244D01*
X483180Y-93899D02*
X483967Y-93112D01*
X485541D01*
X486328Y-93899D01*
Y-97048D01*
X485541Y-97835D01*
X483967D01*
X483180Y-97048D01*
Y-93899D01*
X487902D02*
X488690Y-93112D01*
X490264D01*
X491051Y-93899D01*
Y-94686D01*
X490264Y-95473D01*
X489477D01*
X490264D01*
X491051Y-96260D01*
Y-97048D01*
X490264Y-97835D01*
X488690D01*
X487902Y-97048D01*
X495774Y-93112D02*
X494200Y-93899D01*
X492625Y-95473D01*
Y-97048D01*
X493413Y-97835D01*
X494987D01*
X495774Y-97048D01*
Y-96260D01*
X494987Y-95473D01*
X492625D01*
X497348Y-97835D02*
Y-94686D01*
X498135D01*
X498923Y-95473D01*
Y-97835D01*
Y-95473D01*
X499710Y-94686D01*
X500497Y-95473D01*
Y-97835D01*
X502071D02*
Y-94686D01*
X502858D01*
X503646Y-95473D01*
Y-97835D01*
Y-95473D01*
X504433Y-94686D01*
X505220Y-95473D01*
Y-97835D01*
X474521Y-103348D02*
X475308Y-102561D01*
X476883D01*
X477670Y-103348D01*
Y-106496D01*
X476883Y-107283D01*
X475308D01*
X474521Y-106496D01*
Y-103348D01*
X479244Y-107283D02*
Y-106496D01*
X480031D01*
Y-107283D01*
X479244D01*
X483180Y-103348D02*
X483967Y-102561D01*
X485541D01*
X486328Y-103348D01*
Y-106496D01*
X485541Y-107283D01*
X483967D01*
X483180Y-106496D01*
Y-103348D01*
X487902Y-106496D02*
X488690Y-107283D01*
X490264D01*
X491051Y-106496D01*
Y-103348D01*
X490264Y-102561D01*
X488690D01*
X487902Y-103348D01*
Y-104135D01*
X488690Y-104922D01*
X491051D01*
X492625Y-103348D02*
X493413Y-102561D01*
X494987D01*
X495774Y-103348D01*
Y-106496D01*
X494987Y-107283D01*
X493413D01*
X492625Y-106496D01*
Y-103348D01*
X497348Y-107283D02*
Y-104135D01*
X498135D01*
X498923Y-104922D01*
Y-107283D01*
Y-104922D01*
X499710Y-104135D01*
X500497Y-104922D01*
Y-107283D01*
X502071D02*
Y-104135D01*
X502858D01*
X503646Y-104922D01*
Y-107283D01*
Y-104922D01*
X504433Y-104135D01*
X505220Y-104922D01*
Y-107283D01*
X474521Y-112796D02*
X475308Y-112009D01*
X476883D01*
X477670Y-112796D01*
Y-115945D01*
X476883Y-116732D01*
X475308D01*
X474521Y-115945D01*
Y-112796D01*
X479244Y-116732D02*
Y-115945D01*
X480031D01*
Y-116732D01*
X479244D01*
X483180Y-112796D02*
X483967Y-112009D01*
X485541D01*
X486328Y-112796D01*
Y-115945D01*
X485541Y-116732D01*
X483967D01*
X483180Y-115945D01*
Y-112796D01*
X487902D02*
X488690Y-112009D01*
X490264D01*
X491051Y-112796D01*
Y-113584D01*
X490264Y-114371D01*
X489477D01*
X490264D01*
X491051Y-115158D01*
Y-115945D01*
X490264Y-116732D01*
X488690D01*
X487902Y-115945D01*
X495774Y-112009D02*
X494200Y-112796D01*
X492625Y-114371D01*
Y-115945D01*
X493413Y-116732D01*
X494987D01*
X495774Y-115945D01*
Y-115158D01*
X494987Y-114371D01*
X492625D01*
X497348Y-116732D02*
Y-113584D01*
X498135D01*
X498923Y-114371D01*
Y-116732D01*
Y-114371D01*
X499710Y-113584D01*
X500497Y-114371D01*
Y-116732D01*
X502071D02*
Y-113584D01*
X502858D01*
X503646Y-114371D01*
Y-116732D01*
Y-114371D01*
X504433Y-113584D01*
X505220Y-114371D01*
Y-116732D01*
X474521Y-122245D02*
X475308Y-121458D01*
X476883D01*
X477670Y-122245D01*
Y-125394D01*
X476883Y-126181D01*
X475308D01*
X474521Y-125394D01*
Y-122245D01*
X479244Y-126181D02*
Y-125394D01*
X480031D01*
Y-126181D01*
X479244D01*
X483180Y-122245D02*
X483967Y-121458D01*
X485541D01*
X486328Y-122245D01*
Y-125394D01*
X485541Y-126181D01*
X483967D01*
X483180Y-125394D01*
Y-122245D01*
X487902Y-126181D02*
X489477D01*
X488690D01*
Y-121458D01*
X487902Y-122245D01*
X491838D02*
X492625Y-121458D01*
X494200D01*
X494987Y-122245D01*
Y-125394D01*
X494200Y-126181D01*
X492625D01*
X491838Y-125394D01*
Y-122245D01*
X496561Y-126181D02*
Y-123032D01*
X497348D01*
X498135Y-123820D01*
Y-126181D01*
Y-123820D01*
X498923Y-123032D01*
X499710Y-123820D01*
Y-126181D01*
X501284D02*
Y-123032D01*
X502071D01*
X502858Y-123820D01*
Y-126181D01*
Y-123820D01*
X503646Y-123032D01*
X504433Y-123820D01*
Y-126181D01*
X474521Y-26970D02*
X477670D01*
X476095D01*
Y-31693D01*
X479244Y-26970D02*
Y-31693D01*
Y-29331D01*
X480031Y-28544D01*
X481605D01*
X482393Y-29331D01*
Y-31693D01*
X483967D02*
X485541D01*
X484754D01*
Y-28544D01*
X483967D01*
X491051D02*
X488690D01*
X487902Y-29331D01*
Y-30906D01*
X488690Y-31693D01*
X491051D01*
X492625D02*
Y-26970D01*
Y-30119D02*
X494987Y-28544D01*
X492625Y-30119D02*
X494987Y-31693D01*
X497348D02*
Y-28544D01*
X499710D01*
X500497Y-29331D01*
Y-31693D01*
X504433D02*
X502858D01*
X502071Y-30906D01*
Y-29331D01*
X502858Y-28544D01*
X504433D01*
X505220Y-29331D01*
Y-30119D01*
X502071D01*
X506794Y-31693D02*
X509156D01*
X509943Y-30906D01*
X509156Y-30119D01*
X507581D01*
X506794Y-29331D01*
X507581Y-28544D01*
X509943D01*
X511517Y-31693D02*
X513878D01*
X514666Y-30906D01*
X513878Y-30119D01*
X512304D01*
X511517Y-29331D01*
X512304Y-28544D01*
X514666D01*
X409546Y-46655D02*
X408759Y-45868D01*
X407185D01*
X406398Y-46655D01*
Y-47442D01*
X407185Y-48229D01*
X408759D01*
X409546Y-49016D01*
Y-49804D01*
X408759Y-50591D01*
X407185D01*
X406398Y-49804D01*
X411908Y-50591D02*
X413482D01*
X414269Y-49804D01*
Y-48229D01*
X413482Y-47442D01*
X411908D01*
X411121Y-48229D01*
Y-49804D01*
X411908Y-50591D01*
X415843D02*
X417418D01*
X416631D01*
Y-45868D01*
X415843D01*
X422928D02*
Y-50591D01*
X420566D01*
X419779Y-49804D01*
Y-48229D01*
X420566Y-47442D01*
X422928D01*
X426863Y-50591D02*
X425289D01*
X424502Y-49804D01*
Y-48229D01*
X425289Y-47442D01*
X426863D01*
X427651Y-48229D01*
Y-49016D01*
X424502D01*
X429225Y-47442D02*
Y-50591D01*
Y-49016D01*
X430012Y-48229D01*
X430799Y-47442D01*
X431586D01*
X438671Y-50591D02*
Y-45868D01*
X441032D01*
X441819Y-46655D01*
Y-48229D01*
X441032Y-49016D01*
X438671D01*
X440245D02*
X441819Y-50591D01*
X445755D02*
X444181D01*
X443394Y-49804D01*
Y-48229D01*
X444181Y-47442D01*
X445755D01*
X446542Y-48229D01*
Y-49016D01*
X443394D01*
X448116Y-50591D02*
X450478D01*
X451265Y-49804D01*
X450478Y-49016D01*
X448904D01*
X448116Y-48229D01*
X448904Y-47442D01*
X451265D01*
X452839Y-50591D02*
X454414D01*
X453626D01*
Y-47442D01*
X452839D01*
X456775Y-50591D02*
X459136D01*
X459924Y-49804D01*
X459136Y-49016D01*
X457562D01*
X456775Y-48229D01*
X457562Y-47442D01*
X459924D01*
X462285Y-46655D02*
Y-47442D01*
X461498D01*
X463072D01*
X462285D01*
Y-49804D01*
X463072Y-50591D01*
X409546Y-56104D02*
X408759Y-55317D01*
X407185D01*
X406398Y-56104D01*
Y-59252D01*
X407185Y-60039D01*
X408759D01*
X409546Y-59252D01*
X411908Y-60039D02*
X413482D01*
X414269Y-59252D01*
Y-57678D01*
X413482Y-56891D01*
X411908D01*
X411121Y-57678D01*
Y-59252D01*
X411908Y-60039D01*
X415843Y-61614D02*
Y-56891D01*
X418205D01*
X418992Y-57678D01*
Y-59252D01*
X418205Y-60039D01*
X415843D01*
X420566Y-61614D02*
Y-56891D01*
X422928D01*
X423715Y-57678D01*
Y-59252D01*
X422928Y-60039D01*
X420566D01*
X427651D02*
X426076D01*
X425289Y-59252D01*
Y-57678D01*
X426076Y-56891D01*
X427651D01*
X428438Y-57678D01*
Y-58465D01*
X425289D01*
X430012Y-56891D02*
Y-60039D01*
Y-58465D01*
X430799Y-57678D01*
X431586Y-56891D01*
X432374D01*
X409546Y-64765D02*
X406398D01*
Y-67127D01*
X407972D01*
X406398D01*
Y-69488D01*
X411121D02*
Y-64765D01*
X413482D01*
X414269Y-65553D01*
Y-67127D01*
X413482Y-67914D01*
X411121D01*
X412695D02*
X414269Y-69488D01*
X415843Y-67127D02*
X418992D01*
X422928Y-69488D02*
Y-64765D01*
X420566Y-67127D01*
X423715D01*
X409546Y-75001D02*
X408759Y-74214D01*
X407185D01*
X406398Y-75001D01*
Y-78150D01*
X407185Y-78937D01*
X408759D01*
X409546Y-78150D01*
X411908Y-78937D02*
X413482D01*
X414269Y-78150D01*
Y-76576D01*
X413482Y-75788D01*
X411908D01*
X411121Y-76576D01*
Y-78150D01*
X411908Y-78937D01*
X415843Y-80511D02*
Y-75788D01*
X418205D01*
X418992Y-76576D01*
Y-78150D01*
X418205Y-78937D01*
X415843D01*
X420566Y-80511D02*
Y-75788D01*
X422928D01*
X423715Y-76576D01*
Y-78150D01*
X422928Y-78937D01*
X420566D01*
X427651D02*
X426076D01*
X425289Y-78150D01*
Y-76576D01*
X426076Y-75788D01*
X427651D01*
X428438Y-76576D01*
Y-77363D01*
X425289D01*
X430012Y-75788D02*
Y-78937D01*
Y-77363D01*
X430799Y-76576D01*
X431586Y-75788D01*
X432374D01*
X409546Y-93899D02*
X408759Y-93112D01*
X407185D01*
X406398Y-93899D01*
Y-97048D01*
X407185Y-97835D01*
X408759D01*
X409546Y-97048D01*
X411908Y-97835D02*
X413482D01*
X414269Y-97048D01*
Y-95473D01*
X413482Y-94686D01*
X411908D01*
X411121Y-95473D01*
Y-97048D01*
X411908Y-97835D01*
X415843Y-99409D02*
Y-94686D01*
X418205D01*
X418992Y-95473D01*
Y-97048D01*
X418205Y-97835D01*
X415843D01*
X420566Y-99409D02*
Y-94686D01*
X422928D01*
X423715Y-95473D01*
Y-97048D01*
X422928Y-97835D01*
X420566D01*
X427651D02*
X426076D01*
X425289Y-97048D01*
Y-95473D01*
X426076Y-94686D01*
X427651D01*
X428438Y-95473D01*
Y-96260D01*
X425289D01*
X430012Y-94686D02*
Y-97835D01*
Y-96260D01*
X430799Y-95473D01*
X431586Y-94686D01*
X432374D01*
X409546Y-112796D02*
X408759Y-112009D01*
X407185D01*
X406398Y-112796D01*
Y-115945D01*
X407185Y-116732D01*
X408759D01*
X409546Y-115945D01*
X411908Y-116732D02*
X413482D01*
X414269Y-115945D01*
Y-114371D01*
X413482Y-113584D01*
X411908D01*
X411121Y-114371D01*
Y-115945D01*
X411908Y-116732D01*
X415843Y-118307D02*
Y-113584D01*
X418205D01*
X418992Y-114371D01*
Y-115945D01*
X418205Y-116732D01*
X415843D01*
X420566Y-118307D02*
Y-113584D01*
X422928D01*
X423715Y-114371D01*
Y-115945D01*
X422928Y-116732D01*
X420566D01*
X427651D02*
X426076D01*
X425289Y-115945D01*
Y-114371D01*
X426076Y-113584D01*
X427651D01*
X428438Y-114371D01*
Y-115158D01*
X425289D01*
X430012Y-113584D02*
Y-116732D01*
Y-115158D01*
X430799Y-114371D01*
X431586Y-113584D01*
X432374D01*
X409546Y-122245D02*
X408759Y-121458D01*
X407185D01*
X406398Y-122245D01*
Y-123032D01*
X407185Y-123820D01*
X408759D01*
X409546Y-124607D01*
Y-125394D01*
X408759Y-126181D01*
X407185D01*
X406398Y-125394D01*
X411908Y-126181D02*
X413482D01*
X414269Y-125394D01*
Y-123820D01*
X413482Y-123032D01*
X411908D01*
X411121Y-123820D01*
Y-125394D01*
X411908Y-126181D01*
X415843D02*
X417418D01*
X416631D01*
Y-121458D01*
X415843D01*
X422928D02*
Y-126181D01*
X420566D01*
X419779Y-125394D01*
Y-123820D01*
X420566Y-123032D01*
X422928D01*
X426863Y-126181D02*
X425289D01*
X424502Y-125394D01*
Y-123820D01*
X425289Y-123032D01*
X426863D01*
X427651Y-123820D01*
Y-124607D01*
X424502D01*
X429225Y-123032D02*
Y-126181D01*
Y-124607D01*
X430012Y-123820D01*
X430799Y-123032D01*
X431586D01*
X438671Y-126181D02*
Y-121458D01*
X441032D01*
X441819Y-122245D01*
Y-123820D01*
X441032Y-124607D01*
X438671D01*
X440245D02*
X441819Y-126181D01*
X445755D02*
X444181D01*
X443394Y-125394D01*
Y-123820D01*
X444181Y-123032D01*
X445755D01*
X446542Y-123820D01*
Y-124607D01*
X443394D01*
X448116Y-126181D02*
X450478D01*
X451265Y-125394D01*
X450478Y-124607D01*
X448904D01*
X448116Y-123820D01*
X448904Y-123032D01*
X451265D01*
X452839Y-126181D02*
X454414D01*
X453626D01*
Y-123032D01*
X452839D01*
X456775Y-126181D02*
X459136D01*
X459924Y-125394D01*
X459136Y-124607D01*
X457562D01*
X456775Y-123820D01*
X457562Y-123032D01*
X459924D01*
X462285Y-122245D02*
Y-123032D01*
X461498D01*
X463072D01*
X462285D01*
Y-125394D01*
X463072Y-126181D01*
X406398Y-31693D02*
Y-26970D01*
X407972Y-28544D01*
X409546Y-26970D01*
Y-31693D01*
X411908Y-28544D02*
X413482D01*
X414269Y-29331D01*
Y-31693D01*
X411908D01*
X411121Y-30906D01*
X411908Y-30119D01*
X414269D01*
X416631Y-27757D02*
Y-28544D01*
X415843D01*
X417418D01*
X416631D01*
Y-30906D01*
X417418Y-31693D01*
X422141D02*
X420566D01*
X419779Y-30906D01*
Y-29331D01*
X420566Y-28544D01*
X422141D01*
X422928Y-29331D01*
Y-30119D01*
X419779D01*
X424502Y-28544D02*
Y-31693D01*
Y-30119D01*
X425289Y-29331D01*
X426076Y-28544D01*
X426863D01*
X429225Y-31693D02*
X430799D01*
X430012D01*
Y-28544D01*
X429225D01*
X433948D02*
X435522D01*
X436309Y-29331D01*
Y-31693D01*
X433948D01*
X433161Y-30906D01*
X433948Y-30119D01*
X436309D01*
X437884Y-31693D02*
X439458D01*
X438671D01*
Y-26970D01*
X437884D01*
X324106Y-36419D02*
X327254D01*
X325680D01*
Y-41142D01*
X329616D02*
X331190D01*
X331977Y-40355D01*
Y-38780D01*
X331190Y-37993D01*
X329616D01*
X328829Y-38780D01*
Y-40355D01*
X329616Y-41142D01*
X333551Y-42716D02*
Y-37993D01*
X335913D01*
X336700Y-38780D01*
Y-40355D01*
X335913Y-41142D01*
X333551D01*
X345359Y-36419D02*
X343784D01*
X342997Y-37206D01*
Y-40355D01*
X343784Y-41142D01*
X345359D01*
X346146Y-40355D01*
Y-37206D01*
X345359Y-36419D01*
X347720Y-37993D02*
X349294Y-41142D01*
X350869Y-37993D01*
X354804Y-41142D02*
X353230D01*
X352443Y-40355D01*
Y-38780D01*
X353230Y-37993D01*
X354804D01*
X355592Y-38780D01*
Y-39568D01*
X352443D01*
X357166Y-37993D02*
Y-41142D01*
Y-39568D01*
X357953Y-38780D01*
X358740Y-37993D01*
X359527D01*
X361889Y-41142D02*
X363463D01*
X362676D01*
Y-36419D01*
X361889D01*
X366612Y-37993D02*
X368186D01*
X368973Y-38780D01*
Y-41142D01*
X366612D01*
X365824Y-40355D01*
X366612Y-39568D01*
X368973D01*
X370547Y-37993D02*
Y-40355D01*
X371334Y-41142D01*
X373696D01*
Y-41929D01*
X372909Y-42716D01*
X372122D01*
X373696Y-41142D02*
Y-37993D01*
X324106Y-45868D02*
X327254D01*
X325680D01*
Y-50591D01*
X329616D02*
X331190D01*
X331977Y-49804D01*
Y-48229D01*
X331190Y-47442D01*
X329616D01*
X328829Y-48229D01*
Y-49804D01*
X329616Y-50591D01*
X333551Y-52165D02*
Y-47442D01*
X335913D01*
X336700Y-48229D01*
Y-49804D01*
X335913Y-50591D01*
X333551D01*
X346146Y-46655D02*
X345359Y-45868D01*
X343784D01*
X342997Y-46655D01*
Y-47442D01*
X343784Y-48229D01*
X345359D01*
X346146Y-49016D01*
Y-49804D01*
X345359Y-50591D01*
X343784D01*
X342997Y-49804D01*
X348507Y-50591D02*
X350081D01*
X350869Y-49804D01*
Y-48229D01*
X350081Y-47442D01*
X348507D01*
X347720Y-48229D01*
Y-49804D01*
X348507Y-50591D01*
X352443D02*
X354017D01*
X353230D01*
Y-45868D01*
X352443D01*
X359527D02*
Y-50591D01*
X357166D01*
X356379Y-49804D01*
Y-48229D01*
X357166Y-47442D01*
X359527D01*
X363463Y-50591D02*
X361889D01*
X361102Y-49804D01*
Y-48229D01*
X361889Y-47442D01*
X363463D01*
X364250Y-48229D01*
Y-49016D01*
X361102D01*
X365824Y-47442D02*
Y-50591D01*
Y-49016D01*
X366612Y-48229D01*
X367399Y-47442D01*
X368186D01*
X324106Y-55317D02*
X327254D01*
X325680D01*
Y-60039D01*
X329616D02*
X331190D01*
X331977Y-59252D01*
Y-57678D01*
X331190Y-56891D01*
X329616D01*
X328829Y-57678D01*
Y-59252D01*
X329616Y-60039D01*
X333551Y-61614D02*
Y-56891D01*
X335913D01*
X336700Y-57678D01*
Y-59252D01*
X335913Y-60039D01*
X333551D01*
X342997Y-55317D02*
Y-60039D01*
X346146D01*
X348507Y-56891D02*
X350081D01*
X350869Y-57678D01*
Y-60039D01*
X348507D01*
X347720Y-59252D01*
X348507Y-58465D01*
X350869D01*
X352443Y-56891D02*
Y-59252D01*
X353230Y-60039D01*
X355592D01*
Y-60827D01*
X354804Y-61614D01*
X354017D01*
X355592Y-60039D02*
Y-56891D01*
X359527Y-60039D02*
X357953D01*
X357166Y-59252D01*
Y-57678D01*
X357953Y-56891D01*
X359527D01*
X360314Y-57678D01*
Y-58465D01*
X357166D01*
X361889Y-56891D02*
Y-60039D01*
Y-58465D01*
X362676Y-57678D01*
X363463Y-56891D01*
X364250D01*
X324106Y-64765D02*
Y-69488D01*
X326467D01*
X327254Y-68701D01*
Y-65553D01*
X326467Y-64765D01*
X324106D01*
X328829Y-69488D02*
X330403D01*
X329616D01*
Y-66340D01*
X328829D01*
X335126Y-69488D02*
X333551D01*
X332764Y-68701D01*
Y-67127D01*
X333551Y-66340D01*
X335126D01*
X335913Y-67127D01*
Y-67914D01*
X332764D01*
X337487Y-69488D02*
X339061D01*
X338274D01*
Y-64765D01*
X337487D01*
X343784Y-69488D02*
X342210D01*
X341423Y-68701D01*
Y-67127D01*
X342210Y-66340D01*
X343784D01*
X344571Y-67127D01*
Y-67914D01*
X341423D01*
X349294Y-66340D02*
X346933D01*
X346146Y-67127D01*
Y-68701D01*
X346933Y-69488D01*
X349294D01*
X351656Y-65553D02*
Y-66340D01*
X350869D01*
X352443D01*
X351656D01*
Y-68701D01*
X352443Y-69488D01*
X354804Y-66340D02*
Y-69488D01*
Y-67914D01*
X355592Y-67127D01*
X356379Y-66340D01*
X357166D01*
X359527Y-69488D02*
X361102D01*
X360314D01*
Y-66340D01*
X359527D01*
X366612D02*
X364250D01*
X363463Y-67127D01*
Y-68701D01*
X364250Y-69488D01*
X366612D01*
X372909D02*
X374483D01*
X373696D01*
Y-64765D01*
X372909Y-65553D01*
X324106Y-74214D02*
X325680D01*
X324893D01*
Y-78937D01*
X324106D01*
X325680D01*
X328041D02*
Y-75788D01*
X330403D01*
X331190Y-76576D01*
Y-78937D01*
X333551Y-75001D02*
Y-75788D01*
X332764D01*
X334338D01*
X333551D01*
Y-78150D01*
X334338Y-78937D01*
X339061D02*
X337487D01*
X336700Y-78150D01*
Y-76576D01*
X337487Y-75788D01*
X339061D01*
X339848Y-76576D01*
Y-77363D01*
X336700D01*
X341423Y-75788D02*
Y-78937D01*
Y-77363D01*
X342210Y-76576D01*
X342997Y-75788D01*
X343784D01*
X346146Y-78937D02*
Y-75788D01*
X348507D01*
X349294Y-76576D01*
Y-78937D01*
X351656Y-75788D02*
X353230D01*
X354017Y-76576D01*
Y-78937D01*
X351656D01*
X350869Y-78150D01*
X351656Y-77363D01*
X354017D01*
X355592Y-78937D02*
X357166D01*
X356379D01*
Y-74214D01*
X355592D01*
X364250Y-78937D02*
Y-74214D01*
X366612D01*
X367399Y-75001D01*
Y-76576D01*
X366612Y-77363D01*
X364250D01*
X368973Y-78937D02*
X370547D01*
X369760D01*
Y-74214D01*
X368973D01*
X373696Y-75788D02*
X375270D01*
X376057Y-76576D01*
Y-78937D01*
X373696D01*
X372909Y-78150D01*
X373696Y-77363D01*
X376057D01*
X377632Y-78937D02*
Y-75788D01*
X379993D01*
X380780Y-76576D01*
Y-78937D01*
X384716D02*
X383142D01*
X382354Y-78150D01*
Y-76576D01*
X383142Y-75788D01*
X384716D01*
X385503Y-76576D01*
Y-77363D01*
X382354D01*
X391800Y-78937D02*
X393374D01*
X392587D01*
Y-74214D01*
X391800Y-75001D01*
X324106Y-83663D02*
Y-88386D01*
X326467D01*
X327254Y-87599D01*
Y-84450D01*
X326467Y-83663D01*
X324106D01*
X328829Y-88386D02*
X330403D01*
X329616D01*
Y-85237D01*
X328829D01*
X335126Y-88386D02*
X333551D01*
X332764Y-87599D01*
Y-86024D01*
X333551Y-85237D01*
X335126D01*
X335913Y-86024D01*
Y-86812D01*
X332764D01*
X337487Y-88386D02*
X339061D01*
X338274D01*
Y-83663D01*
X337487D01*
X343784Y-88386D02*
X342210D01*
X341423Y-87599D01*
Y-86024D01*
X342210Y-85237D01*
X343784D01*
X344571Y-86024D01*
Y-86812D01*
X341423D01*
X349294Y-85237D02*
X346933D01*
X346146Y-86024D01*
Y-87599D01*
X346933Y-88386D01*
X349294D01*
X351656Y-84450D02*
Y-85237D01*
X350869D01*
X352443D01*
X351656D01*
Y-87599D01*
X352443Y-88386D01*
X354804Y-85237D02*
Y-88386D01*
Y-86812D01*
X355592Y-86024D01*
X356379Y-85237D01*
X357166D01*
X359527Y-88386D02*
X361102D01*
X360314D01*
Y-85237D01*
X359527D01*
X366612D02*
X364250D01*
X363463Y-86024D01*
Y-87599D01*
X364250Y-88386D01*
X366612D01*
X372909Y-84450D02*
X373696Y-83663D01*
X375270D01*
X376057Y-84450D01*
Y-85237D01*
X375270Y-86024D01*
X374483D01*
X375270D01*
X376057Y-86812D01*
Y-87599D01*
X375270Y-88386D01*
X373696D01*
X372909Y-87599D01*
X324106Y-93112D02*
X325680D01*
X324893D01*
Y-97835D01*
X324106D01*
X325680D01*
X328041D02*
Y-94686D01*
X330403D01*
X331190Y-95473D01*
Y-97835D01*
X333551Y-93899D02*
Y-94686D01*
X332764D01*
X334338D01*
X333551D01*
Y-97048D01*
X334338Y-97835D01*
X339061D02*
X337487D01*
X336700Y-97048D01*
Y-95473D01*
X337487Y-94686D01*
X339061D01*
X339848Y-95473D01*
Y-96260D01*
X336700D01*
X341423Y-94686D02*
Y-97835D01*
Y-96260D01*
X342210Y-95473D01*
X342997Y-94686D01*
X343784D01*
X346146Y-97835D02*
Y-94686D01*
X348507D01*
X349294Y-95473D01*
Y-97835D01*
X351656Y-94686D02*
X353230D01*
X354017Y-95473D01*
Y-97835D01*
X351656D01*
X350869Y-97048D01*
X351656Y-96260D01*
X354017D01*
X355592Y-97835D02*
X357166D01*
X356379D01*
Y-93112D01*
X355592D01*
X364250Y-97835D02*
Y-93112D01*
X366612D01*
X367399Y-93899D01*
Y-95473D01*
X366612Y-96260D01*
X364250D01*
X368973Y-97835D02*
X370547D01*
X369760D01*
Y-93112D01*
X368973D01*
X373696Y-94686D02*
X375270D01*
X376057Y-95473D01*
Y-97835D01*
X373696D01*
X372909Y-97048D01*
X373696Y-96260D01*
X376057D01*
X377632Y-97835D02*
Y-94686D01*
X379993D01*
X380780Y-95473D01*
Y-97835D01*
X384716D02*
X383142D01*
X382354Y-97048D01*
Y-95473D01*
X383142Y-94686D01*
X384716D01*
X385503Y-95473D01*
Y-96260D01*
X382354D01*
X394949Y-97835D02*
X391800D01*
X394949Y-94686D01*
Y-93899D01*
X394162Y-93112D01*
X392587D01*
X391800Y-93899D01*
X324106Y-102561D02*
Y-107283D01*
X326467D01*
X327254Y-106496D01*
Y-103348D01*
X326467Y-102561D01*
X324106D01*
X328829Y-107283D02*
X330403D01*
X329616D01*
Y-104135D01*
X328829D01*
X335126Y-107283D02*
X333551D01*
X332764Y-106496D01*
Y-104922D01*
X333551Y-104135D01*
X335126D01*
X335913Y-104922D01*
Y-105709D01*
X332764D01*
X337487Y-107283D02*
X339061D01*
X338274D01*
Y-102561D01*
X337487D01*
X343784Y-107283D02*
X342210D01*
X341423Y-106496D01*
Y-104922D01*
X342210Y-104135D01*
X343784D01*
X344571Y-104922D01*
Y-105709D01*
X341423D01*
X349294Y-104135D02*
X346933D01*
X346146Y-104922D01*
Y-106496D01*
X346933Y-107283D01*
X349294D01*
X351656Y-103348D02*
Y-104135D01*
X350869D01*
X352443D01*
X351656D01*
Y-106496D01*
X352443Y-107283D01*
X354804Y-104135D02*
Y-107283D01*
Y-105709D01*
X355592Y-104922D01*
X356379Y-104135D01*
X357166D01*
X359527Y-107283D02*
X361102D01*
X360314D01*
Y-104135D01*
X359527D01*
X366612D02*
X364250D01*
X363463Y-104922D01*
Y-106496D01*
X364250Y-107283D01*
X366612D01*
X376057D02*
X372909D01*
X376057Y-104135D01*
Y-103348D01*
X375270Y-102561D01*
X373696D01*
X372909Y-103348D01*
X324106Y-112009D02*
Y-116732D01*
X326467D01*
X327254Y-115945D01*
Y-115158D01*
X326467Y-114371D01*
X324106D01*
X326467D01*
X327254Y-113584D01*
Y-112796D01*
X326467Y-112009D01*
X324106D01*
X329616Y-116732D02*
X331190D01*
X331977Y-115945D01*
Y-114371D01*
X331190Y-113584D01*
X329616D01*
X328829Y-114371D01*
Y-115945D01*
X329616Y-116732D01*
X334338Y-112796D02*
Y-113584D01*
X333551D01*
X335126D01*
X334338D01*
Y-115945D01*
X335126Y-116732D01*
X338274Y-112796D02*
Y-113584D01*
X337487D01*
X339061D01*
X338274D01*
Y-115945D01*
X339061Y-116732D01*
X342210D02*
X343784D01*
X344571Y-115945D01*
Y-114371D01*
X343784Y-113584D01*
X342210D01*
X341423Y-114371D01*
Y-115945D01*
X342210Y-116732D01*
X346146D02*
Y-113584D01*
X346933D01*
X347720Y-114371D01*
Y-116732D01*
Y-114371D01*
X348507Y-113584D01*
X349294Y-114371D01*
Y-116732D01*
X355592Y-112009D02*
Y-116732D01*
X358740D01*
X361102Y-113584D02*
X362676D01*
X363463Y-114371D01*
Y-116732D01*
X361102D01*
X360314Y-115945D01*
X361102Y-115158D01*
X363463D01*
X365037Y-113584D02*
Y-115945D01*
X365824Y-116732D01*
X368186D01*
Y-117519D01*
X367399Y-118307D01*
X366612D01*
X368186Y-116732D02*
Y-113584D01*
X372122Y-116732D02*
X370547D01*
X369760Y-115945D01*
Y-114371D01*
X370547Y-113584D01*
X372122D01*
X372909Y-114371D01*
Y-115158D01*
X369760D01*
X374483Y-113584D02*
Y-116732D01*
Y-115158D01*
X375270Y-114371D01*
X376057Y-113584D01*
X376844D01*
X324106Y-121458D02*
Y-126181D01*
X326467D01*
X327254Y-125394D01*
Y-124607D01*
X326467Y-123820D01*
X324106D01*
X326467D01*
X327254Y-123032D01*
Y-122245D01*
X326467Y-121458D01*
X324106D01*
X329616Y-126181D02*
X331190D01*
X331977Y-125394D01*
Y-123820D01*
X331190Y-123032D01*
X329616D01*
X328829Y-123820D01*
Y-125394D01*
X329616Y-126181D01*
X334338Y-122245D02*
Y-123032D01*
X333551D01*
X335126D01*
X334338D01*
Y-125394D01*
X335126Y-126181D01*
X338274Y-122245D02*
Y-123032D01*
X337487D01*
X339061D01*
X338274D01*
Y-125394D01*
X339061Y-126181D01*
X342210D02*
X343784D01*
X344571Y-125394D01*
Y-123820D01*
X343784Y-123032D01*
X342210D01*
X341423Y-123820D01*
Y-125394D01*
X342210Y-126181D01*
X346146D02*
Y-123032D01*
X346933D01*
X347720Y-123820D01*
Y-126181D01*
Y-123820D01*
X348507Y-123032D01*
X349294Y-123820D01*
Y-126181D01*
X358740Y-122245D02*
X357953Y-121458D01*
X356379D01*
X355592Y-122245D01*
Y-123032D01*
X356379Y-123820D01*
X357953D01*
X358740Y-124607D01*
Y-125394D01*
X357953Y-126181D01*
X356379D01*
X355592Y-125394D01*
X361102Y-126181D02*
X362676D01*
X363463Y-125394D01*
Y-123820D01*
X362676Y-123032D01*
X361102D01*
X360314Y-123820D01*
Y-125394D01*
X361102Y-126181D01*
X365037D02*
X366612D01*
X365824D01*
Y-121458D01*
X365037D01*
X372122D02*
Y-126181D01*
X369760D01*
X368973Y-125394D01*
Y-123820D01*
X369760Y-123032D01*
X372122D01*
X376057Y-126181D02*
X374483D01*
X373696Y-125394D01*
Y-123820D01*
X374483Y-123032D01*
X376057D01*
X376844Y-123820D01*
Y-124607D01*
X373696D01*
X378419Y-123032D02*
Y-126181D01*
Y-124607D01*
X379206Y-123820D01*
X379993Y-123032D01*
X380780D01*
X324106Y-130907D02*
Y-135630D01*
X326467D01*
X327254Y-134843D01*
Y-134056D01*
X326467Y-133268D01*
X324106D01*
X326467D01*
X327254Y-132481D01*
Y-131694D01*
X326467Y-130907D01*
X324106D01*
X329616Y-135630D02*
X331190D01*
X331977Y-134843D01*
Y-133268D01*
X331190Y-132481D01*
X329616D01*
X328829Y-133268D01*
Y-134843D01*
X329616Y-135630D01*
X334338Y-131694D02*
Y-132481D01*
X333551D01*
X335126D01*
X334338D01*
Y-134843D01*
X335126Y-135630D01*
X338274Y-131694D02*
Y-132481D01*
X337487D01*
X339061D01*
X338274D01*
Y-134843D01*
X339061Y-135630D01*
X342210D02*
X343784D01*
X344571Y-134843D01*
Y-133268D01*
X343784Y-132481D01*
X342210D01*
X341423Y-133268D01*
Y-134843D01*
X342210Y-135630D01*
X346146D02*
Y-132481D01*
X346933D01*
X347720Y-133268D01*
Y-135630D01*
Y-133268D01*
X348507Y-132481D01*
X349294Y-133268D01*
Y-135630D01*
X357953Y-130907D02*
X356379D01*
X355592Y-131694D01*
Y-134843D01*
X356379Y-135630D01*
X357953D01*
X358740Y-134843D01*
Y-131694D01*
X357953Y-130907D01*
X360314Y-132481D02*
X361889Y-135630D01*
X363463Y-132481D01*
X367399Y-135630D02*
X365824D01*
X365037Y-134843D01*
Y-133268D01*
X365824Y-132481D01*
X367399D01*
X368186Y-133268D01*
Y-134056D01*
X365037D01*
X369760Y-132481D02*
Y-135630D01*
Y-134056D01*
X370547Y-133268D01*
X371334Y-132481D01*
X372122D01*
X374483Y-135630D02*
X376057D01*
X375270D01*
Y-130907D01*
X374483D01*
X379206Y-132481D02*
X380780D01*
X381567Y-133268D01*
Y-135630D01*
X379206D01*
X378419Y-134843D01*
X379206Y-134056D01*
X381567D01*
X383142Y-132481D02*
Y-134843D01*
X383929Y-135630D01*
X386290D01*
Y-136417D01*
X385503Y-137204D01*
X384716D01*
X386290Y-135630D02*
Y-132481D01*
X324106Y-31693D02*
Y-26970D01*
X327254Y-31693D01*
Y-26970D01*
X329616Y-28544D02*
X331190D01*
X331977Y-29331D01*
Y-31693D01*
X329616D01*
X328829Y-30906D01*
X329616Y-30119D01*
X331977D01*
X333551Y-31693D02*
Y-28544D01*
X334338D01*
X335126Y-29331D01*
Y-31693D01*
Y-29331D01*
X335913Y-28544D01*
X336700Y-29331D01*
Y-31693D01*
X340636D02*
X339061D01*
X338274Y-30906D01*
Y-29331D01*
X339061Y-28544D01*
X340636D01*
X341423Y-29331D01*
Y-30119D01*
X338274D01*
X291404Y-41142D02*
X292978D01*
X292191D01*
Y-36419D01*
X291404Y-37206D01*
X294552Y-50591D02*
X291404D01*
X294552Y-47442D01*
Y-46655D01*
X293765Y-45868D01*
X292191D01*
X291404Y-46655D01*
Y-56104D02*
X292191Y-55317D01*
X293765D01*
X294552Y-56104D01*
Y-56891D01*
X293765Y-57678D01*
X292978D01*
X293765D01*
X294552Y-58465D01*
Y-59252D01*
X293765Y-60039D01*
X292191D01*
X291404Y-59252D01*
X293765Y-69488D02*
Y-64765D01*
X291404Y-67127D01*
X294552D01*
Y-74214D02*
X291404D01*
Y-76576D01*
X292978Y-75788D01*
X293765D01*
X294552Y-76576D01*
Y-78150D01*
X293765Y-78937D01*
X292191D01*
X291404Y-78150D01*
X294552Y-83663D02*
X292978Y-84450D01*
X291404Y-86024D01*
Y-87599D01*
X292191Y-88386D01*
X293765D01*
X294552Y-87599D01*
Y-86812D01*
X293765Y-86024D01*
X291404D01*
Y-93112D02*
X294552D01*
Y-93899D01*
X291404Y-97048D01*
Y-97835D01*
Y-103348D02*
X292191Y-102561D01*
X293765D01*
X294552Y-103348D01*
Y-104135D01*
X293765Y-104922D01*
X294552Y-105709D01*
Y-106496D01*
X293765Y-107283D01*
X292191D01*
X291404Y-106496D01*
Y-105709D01*
X292191Y-104922D01*
X291404Y-104135D01*
Y-103348D01*
X292191Y-104922D02*
X293765D01*
X291404Y-115945D02*
X292191Y-116732D01*
X293765D01*
X294552Y-115945D01*
Y-112796D01*
X293765Y-112009D01*
X292191D01*
X291404Y-112796D01*
Y-113584D01*
X292191Y-114371D01*
X294552D01*
X291404Y-126181D02*
X292978D01*
X292191D01*
Y-121458D01*
X291404Y-122245D01*
X295340D02*
X296127Y-121458D01*
X297701D01*
X298488Y-122245D01*
Y-125394D01*
X297701Y-126181D01*
X296127D01*
X295340Y-125394D01*
Y-122245D01*
X291404Y-135630D02*
X292978D01*
X292191D01*
Y-130907D01*
X291404Y-131694D01*
X295340Y-135630D02*
X296914D01*
X296127D01*
Y-130907D01*
X295340Y-131694D01*
X291404Y-26970D02*
Y-31693D01*
X294552D01*
X296914Y-28544D02*
X298488D01*
X299275Y-29331D01*
Y-31693D01*
X296914D01*
X296127Y-30906D01*
X296914Y-30119D01*
X299275D01*
X300850Y-28544D02*
Y-30906D01*
X301637Y-31693D01*
X303998D01*
Y-32480D01*
X303211Y-33267D01*
X302424D01*
X303998Y-31693D02*
Y-28544D01*
X307934Y-31693D02*
X306360D01*
X305572Y-30906D01*
Y-29331D01*
X306360Y-28544D01*
X307934D01*
X308721Y-29331D01*
Y-30119D01*
X305572D01*
X310295Y-28544D02*
Y-31693D01*
Y-30119D01*
X311083Y-29331D01*
X311870Y-28544D01*
X312657D01*
D121*
X655275Y-137992D02*
Y-24606D01*
X566686Y-43504D02*
X655275D01*
X566686Y-52953D02*
X655275D01*
X566686Y-62402D02*
X655275D01*
X566686Y-71850D02*
X655275D01*
X566686Y-81299D02*
X655275D01*
X566686Y-90748D02*
X655275D01*
X566686Y-100197D02*
X655275D01*
X566686Y-109646D02*
X655275D01*
X566686Y-119095D02*
X655275D01*
X566686Y-128543D02*
X655275D01*
X566686Y-137992D02*
X655275D01*
X566686D02*
Y-24606D01*
X521390Y-43504D02*
X566686D01*
X521390Y-52953D02*
X566686D01*
X521390Y-62402D02*
X566686D01*
X521390Y-71850D02*
X566686D01*
X521390Y-81299D02*
X566686D01*
X521390Y-90748D02*
X566686D01*
X521390Y-100197D02*
X566686D01*
X521390Y-109646D02*
X566686D01*
X521390Y-119095D02*
X566686D01*
X521390Y-128543D02*
X566686D01*
X521390Y-137992D02*
X566686D01*
X521390D02*
Y-24606D01*
X469797Y-43504D02*
X521390D01*
X469797Y-52953D02*
X521390D01*
X469797Y-62402D02*
X521390D01*
X469797Y-71850D02*
X521390D01*
X469797Y-81299D02*
X521390D01*
X469797Y-90748D02*
X521390D01*
X469797Y-100197D02*
X521390D01*
X469797Y-109646D02*
X521390D01*
X469797Y-119095D02*
X521390D01*
X469797Y-128543D02*
X521390D01*
X469797Y-137992D02*
X521390D01*
X469797D02*
Y-24606D01*
X401673Y-43504D02*
X469797D01*
X401673Y-52953D02*
X469797D01*
X401673Y-62402D02*
X469797D01*
X401673Y-71850D02*
X469797D01*
X401673Y-81299D02*
X469797D01*
X401673Y-90748D02*
X469797D01*
X401673Y-100197D02*
X469797D01*
X401673Y-109646D02*
X469797D01*
X401673Y-119095D02*
X469797D01*
X401673Y-128543D02*
X469797D01*
X401673Y-137992D02*
X469797D01*
X401673D02*
Y-24606D01*
X319381Y-43504D02*
X401673D01*
X319381Y-52953D02*
X401673D01*
X319381Y-62402D02*
X401673D01*
X319381Y-71850D02*
X401673D01*
X319381Y-81299D02*
X401673D01*
X319381Y-90748D02*
X401673D01*
X319381Y-100197D02*
X401673D01*
X319381Y-109646D02*
X401673D01*
X319381Y-119095D02*
X401673D01*
X319381Y-128543D02*
X401673D01*
X319381Y-137992D02*
X401673D01*
X319381D02*
Y-24606D01*
X286679Y-43504D02*
X319381D01*
X286679Y-52953D02*
X319381D01*
X286679Y-62402D02*
X319381D01*
X286679Y-71850D02*
X319381D01*
X286679Y-81299D02*
X319381D01*
X286679Y-90748D02*
X319381D01*
X286679Y-100197D02*
X319381D01*
X286679Y-109646D02*
X319381D01*
X286679Y-119095D02*
X319381D01*
X286679Y-128543D02*
X319381D01*
X286679Y-137992D02*
X319381D01*
X286679D02*
Y-24606D01*
X655275D01*
X286679Y-34055D02*
X655275D01*
D122*
X566686Y-37605D02*
X570236Y-34055D01*
X566686Y-42329D02*
X574960Y-34055D01*
X570236Y-43504D02*
X579685Y-34055D01*
X574960Y-43504D02*
X584409Y-34055D01*
X579685Y-43504D02*
X589134Y-34055D01*
X584409Y-43504D02*
X593858Y-34055D01*
X589134Y-43504D02*
X598582Y-34055D01*
X593858Y-43504D02*
X603307Y-34055D01*
X598582Y-43504D02*
X608031Y-34055D01*
X603307Y-43504D02*
X612756Y-34055D01*
X608031Y-43504D02*
X617480Y-34055D01*
X612756Y-43504D02*
X622204Y-34055D01*
X617480Y-43504D02*
X626929Y-34055D01*
X622204Y-43504D02*
X631653Y-34055D01*
X626929Y-43504D02*
X636378Y-34055D01*
X631653Y-43504D02*
X641102Y-34055D01*
X636378Y-43504D02*
X645826Y-34055D01*
X641102Y-43504D02*
X650551Y-34055D01*
X645826Y-43504D02*
X655275Y-34055D01*
X650551Y-43504D02*
X655275Y-38780D01*
X566686Y-47054D02*
X570236Y-43504D01*
X566686Y-51778D02*
X574960Y-43504D01*
X570236Y-52953D02*
X579685Y-43504D01*
X574960Y-52953D02*
X584409Y-43504D01*
X579685Y-52953D02*
X589134Y-43504D01*
X584409Y-52953D02*
X593858Y-43504D01*
X589134Y-52953D02*
X598582Y-43504D01*
X593858Y-52953D02*
X603307Y-43504D01*
X598582Y-52953D02*
X608031Y-43504D01*
X603307Y-52953D02*
X612756Y-43504D01*
X608031Y-52953D02*
X617480Y-43504D01*
X612756Y-52953D02*
X622204Y-43504D01*
X617480Y-52953D02*
X626929Y-43504D01*
X622204Y-52953D02*
X631653Y-43504D01*
X626929Y-52953D02*
X636378Y-43504D01*
X631653Y-52953D02*
X641102Y-43504D01*
X636378Y-52953D02*
X645826Y-43504D01*
X641102Y-52953D02*
X650551Y-43504D01*
X645826Y-52953D02*
X655275Y-43504D01*
X650551Y-52953D02*
X655275Y-48228D01*
X566686Y-56503D02*
X570236Y-52953D01*
X566686Y-61227D02*
X574960Y-52953D01*
X570236Y-62402D02*
X579685Y-52953D01*
X574960Y-62402D02*
X584409Y-52953D01*
X579685Y-62402D02*
X589134Y-52953D01*
X584409Y-62402D02*
X593858Y-52953D01*
X589134Y-62402D02*
X598582Y-52953D01*
X593858Y-62402D02*
X603307Y-52953D01*
X598582Y-62402D02*
X608031Y-52953D01*
X603307Y-62402D02*
X612756Y-52953D01*
X608031Y-62402D02*
X617480Y-52953D01*
X612756Y-62402D02*
X622204Y-52953D01*
X617480Y-62402D02*
X626929Y-52953D01*
X622204Y-62402D02*
X631653Y-52953D01*
X626929Y-62402D02*
X636378Y-52953D01*
X631653Y-62402D02*
X641102Y-52953D01*
X636378Y-62402D02*
X645826Y-52953D01*
X641102Y-62402D02*
X650551Y-52953D01*
X645826Y-62402D02*
X655275Y-52953D01*
X650551Y-62402D02*
X655275Y-57677D01*
X566686Y-65951D02*
X570236Y-62402D01*
X566686Y-70676D02*
X574960Y-62402D01*
X570236Y-71850D02*
X579685Y-62402D01*
X574960Y-71850D02*
X584409Y-62402D01*
X579685Y-71850D02*
X589134Y-62402D01*
X584409Y-71850D02*
X593858Y-62402D01*
X589134Y-71850D02*
X598582Y-62402D01*
X593858Y-71850D02*
X603307Y-62402D01*
X598582Y-71850D02*
X608031Y-62402D01*
X603307Y-71850D02*
X612756Y-62402D01*
X608031Y-71850D02*
X617480Y-62402D01*
X612756Y-71850D02*
X622204Y-62402D01*
X617480Y-71850D02*
X626929Y-62402D01*
X622204Y-71850D02*
X631653Y-62402D01*
X626929Y-71850D02*
X636378Y-62402D01*
X631653Y-71850D02*
X641102Y-62402D01*
X636378Y-71850D02*
X645826Y-62402D01*
X641102Y-71850D02*
X650551Y-62402D01*
X645826Y-71850D02*
X655275Y-62402D01*
X650551Y-71850D02*
X655275Y-67126D01*
X566686Y-75400D02*
X570236Y-71850D01*
X566686Y-80125D02*
X574960Y-71850D01*
X570236Y-81299D02*
X579685Y-71850D01*
X574960Y-81299D02*
X584409Y-71850D01*
X579685Y-81299D02*
X589134Y-71850D01*
X584409Y-81299D02*
X593858Y-71850D01*
X589134Y-81299D02*
X598582Y-71850D01*
X593858Y-81299D02*
X603307Y-71850D01*
X598582Y-81299D02*
X608031Y-71850D01*
X603307Y-81299D02*
X612756Y-71850D01*
X608031Y-81299D02*
X617480Y-71850D01*
X612756Y-81299D02*
X622204Y-71850D01*
X617480Y-81299D02*
X626929Y-71850D01*
X622204Y-81299D02*
X631653Y-71850D01*
X626929Y-81299D02*
X636378Y-71850D01*
X631653Y-81299D02*
X641102Y-71850D01*
X636378Y-81299D02*
X645826Y-71850D01*
X641102Y-81299D02*
X650551Y-71850D01*
X645826Y-81299D02*
X655275Y-71850D01*
X650551Y-81299D02*
X655275Y-76575D01*
X566686Y-84849D02*
X570236Y-81299D01*
X566686Y-89574D02*
X574960Y-81299D01*
X570236Y-90748D02*
X579685Y-81299D01*
X574960Y-90748D02*
X584409Y-81299D01*
X579685Y-90748D02*
X589134Y-81299D01*
X584409Y-90748D02*
X593858Y-81299D01*
X589134Y-90748D02*
X598582Y-81299D01*
X593858Y-90748D02*
X603307Y-81299D01*
X598582Y-90748D02*
X608031Y-81299D01*
X603307Y-90748D02*
X612756Y-81299D01*
X608031Y-90748D02*
X617480Y-81299D01*
X612756Y-90748D02*
X622204Y-81299D01*
X617480Y-90748D02*
X626929Y-81299D01*
X622204Y-90748D02*
X631653Y-81299D01*
X626929Y-90748D02*
X636378Y-81299D01*
X631653Y-90748D02*
X641102Y-81299D01*
X636378Y-90748D02*
X645826Y-81299D01*
X641102Y-90748D02*
X650551Y-81299D01*
X645826Y-90748D02*
X655275Y-81299D01*
X650551Y-90748D02*
X655275Y-86024D01*
X566686Y-94298D02*
X570236Y-90748D01*
X566686Y-99022D02*
X574960Y-90748D01*
X570236Y-100197D02*
X579685Y-90748D01*
X574960Y-100197D02*
X584409Y-90748D01*
X579685Y-100197D02*
X589134Y-90748D01*
X584409Y-100197D02*
X593858Y-90748D01*
X589134Y-100197D02*
X598582Y-90748D01*
X593858Y-100197D02*
X603307Y-90748D01*
X598582Y-100197D02*
X608031Y-90748D01*
X603307Y-100197D02*
X612756Y-90748D01*
X608031Y-100197D02*
X617480Y-90748D01*
X612756Y-100197D02*
X622204Y-90748D01*
X617480Y-100197D02*
X626929Y-90748D01*
X622204Y-100197D02*
X631653Y-90748D01*
X626929Y-100197D02*
X636378Y-90748D01*
X631653Y-100197D02*
X641102Y-90748D01*
X636378Y-100197D02*
X645826Y-90748D01*
X641102Y-100197D02*
X650551Y-90748D01*
X645826Y-100197D02*
X655275Y-90748D01*
X650551Y-100197D02*
X655275Y-95473D01*
X566686Y-103747D02*
X570236Y-100197D01*
X566686Y-108471D02*
X574960Y-100197D01*
X570236Y-109646D02*
X579685Y-100197D01*
X574960Y-109646D02*
X584409Y-100197D01*
X579685Y-109646D02*
X589134Y-100197D01*
X584409Y-109646D02*
X593858Y-100197D01*
X589134Y-109646D02*
X598582Y-100197D01*
X593858Y-109646D02*
X603307Y-100197D01*
X598582Y-109646D02*
X608031Y-100197D01*
X603307Y-109646D02*
X612756Y-100197D01*
X608031Y-109646D02*
X617480Y-100197D01*
X612756Y-109646D02*
X622204Y-100197D01*
X617480Y-109646D02*
X626929Y-100197D01*
X622204Y-109646D02*
X631653Y-100197D01*
X626929Y-109646D02*
X636378Y-100197D01*
X631653Y-109646D02*
X641102Y-100197D01*
X636378Y-109646D02*
X645826Y-100197D01*
X641102Y-109646D02*
X650551Y-100197D01*
X645826Y-109646D02*
X655275Y-100197D01*
X650551Y-109646D02*
X655275Y-104921D01*
X566686Y-113196D02*
X570236Y-109646D01*
X566686Y-117920D02*
X574960Y-109646D01*
X570236Y-119095D02*
X579685Y-109646D01*
X574960Y-119095D02*
X584409Y-109646D01*
X579685Y-119095D02*
X589134Y-109646D01*
X584409Y-119095D02*
X593858Y-109646D01*
X589134Y-119095D02*
X598582Y-109646D01*
X593858Y-119095D02*
X603307Y-109646D01*
X598582Y-119095D02*
X608031Y-109646D01*
X603307Y-119095D02*
X612756Y-109646D01*
X608031Y-119095D02*
X617480Y-109646D01*
X612756Y-119095D02*
X622204Y-109646D01*
X617480Y-119095D02*
X626929Y-109646D01*
X622204Y-119095D02*
X631653Y-109646D01*
X626929Y-119095D02*
X636378Y-109646D01*
X631653Y-119095D02*
X641102Y-109646D01*
X636378Y-119095D02*
X645826Y-109646D01*
X641102Y-119095D02*
X650551Y-109646D01*
X645826Y-119095D02*
X655275Y-109646D01*
X650551Y-119095D02*
X655275Y-114370D01*
X566686Y-122644D02*
X570236Y-119095D01*
X566686Y-127369D02*
X574960Y-119095D01*
X570236Y-128543D02*
X579685Y-119095D01*
X574960Y-128543D02*
X584409Y-119095D01*
X579685Y-128543D02*
X589134Y-119095D01*
X584409Y-128543D02*
X593858Y-119095D01*
X589134Y-128543D02*
X598582Y-119095D01*
X593858Y-128543D02*
X603307Y-119095D01*
X598582Y-128543D02*
X608031Y-119095D01*
X603307Y-128543D02*
X612756Y-119095D01*
X608031Y-128543D02*
X617480Y-119095D01*
X612756Y-128543D02*
X622204Y-119095D01*
X617480Y-128543D02*
X626929Y-119095D01*
X622204Y-128543D02*
X631653Y-119095D01*
X626929Y-128543D02*
X636378Y-119095D01*
X631653Y-128543D02*
X641102Y-119095D01*
X636378Y-128543D02*
X645826Y-119095D01*
X641102Y-128543D02*
X650551Y-119095D01*
X645826Y-128543D02*
X655275Y-119095D01*
X650551Y-128543D02*
X655275Y-123819D01*
X566686Y-132093D02*
X570236Y-128543D01*
X566686Y-136818D02*
X574960Y-128543D01*
X570236Y-137992D02*
X579685Y-128543D01*
X574960Y-137992D02*
X584409Y-128543D01*
X579685Y-137992D02*
X589134Y-128543D01*
X584409Y-137992D02*
X593858Y-128543D01*
X589134Y-137992D02*
X598582Y-128543D01*
X593858Y-137992D02*
X603307Y-128543D01*
X598582Y-137992D02*
X608031Y-128543D01*
X603307Y-137992D02*
X612756Y-128543D01*
X608031Y-137992D02*
X617480Y-128543D01*
X612756Y-137992D02*
X622204Y-128543D01*
X617480Y-137992D02*
X626929Y-128543D01*
X622204Y-137992D02*
X631653Y-128543D01*
X626929Y-137992D02*
X636378Y-128543D01*
X631653Y-137992D02*
X641102Y-128543D01*
X636378Y-137992D02*
X645826Y-128543D01*
X641102Y-137992D02*
X650551Y-128543D01*
X645826Y-137992D02*
X655275Y-128543D01*
X650551Y-137992D02*
X655275Y-133268D01*
M02*
