G04 Layer_Color=16711935*
%FSLAX25Y25*%
%MOIN*%
G70*
G01*
G75*
%ADD80R,0.20079X0.06693*%
%ADD83R,0.06457X0.06457*%
%ADD84C,0.04095*%
%ADD85R,0.04095X0.04095*%
%ADD86C,0.06457*%
%ADD87O,0.20236X0.08425*%
%ADD88C,0.00945*%
%ADD89O,0.08425X0.05669*%
%ADD90O,0.06850X0.05669*%
%ADD91C,0.02520*%
%ADD92R,0.03701X0.02913*%
%ADD93R,0.03701X0.03307*%
%ADD94R,0.03307X0.03701*%
%ADD95R,0.05669X0.06457*%
%ADD96R,0.02913X0.03701*%
%ADD97R,0.06457X0.06457*%
%ADD98R,0.04488X0.04488*%
%ADD99R,0.04488X0.04488*%
%ADD100R,0.06063X0.05276*%
%ADD101R,0.11457X0.11969*%
%ADD102O,0.03386X0.01535*%
%ADD103O,0.01535X0.03386*%
%ADD104R,0.10866X0.10866*%
%ADD105R,0.01929X0.01929*%
%ADD106R,0.04488X0.04882*%
%ADD107R,0.04882X0.04488*%
%ADD108R,0.01384X0.02369*%
%ADD109R,0.06306X0.05124*%
%ADD110R,0.05472X0.04685*%
%ADD111R,0.04685X0.09213*%
%ADD112R,0.04488X0.04685*%
D80*
X173619Y81537D02*
D03*
D83*
X142224Y-5965D02*
D03*
X132224D02*
D03*
X162224D02*
D03*
X152224D02*
D03*
X122224D02*
D03*
X112224D02*
D03*
X102224D02*
D03*
X92224D02*
D03*
X162402Y20669D02*
D03*
X182224Y-5965D02*
D03*
X172224D02*
D03*
X149114Y46161D02*
D03*
X148129Y79212D02*
D03*
D84*
X168898Y14370D02*
D03*
X163898D02*
D03*
X158898D02*
D03*
X153898D02*
D03*
X148898Y9370D02*
D03*
X153898D02*
D03*
X158898D02*
D03*
X163898D02*
D03*
X168898D02*
D03*
D85*
X148898Y14370D02*
D03*
D86*
X158129Y79212D02*
D03*
D87*
X185728Y62106D02*
D03*
Y17224D02*
D03*
D88*
Y48524D02*
D03*
Y30807D02*
D03*
D89*
X177461Y25886D02*
D03*
Y53445D02*
D03*
D90*
Y35728D02*
D03*
Y43602D02*
D03*
D91*
X119620Y34759D02*
D03*
X115289D02*
D03*
X110958D02*
D03*
X119620Y30428D02*
D03*
X115289D02*
D03*
X110958Y30428D02*
D03*
X119620Y26097D02*
D03*
X115289D02*
D03*
X110958D02*
D03*
X131037Y22948D02*
D03*
X126706D02*
D03*
X122376D02*
D03*
X131037Y18617D02*
D03*
X126706D02*
D03*
X122376D02*
D03*
X131037Y14286D02*
D03*
X126706D02*
D03*
X122376D02*
D03*
X151378Y63090D02*
D03*
X147441D02*
D03*
D92*
X86494Y4133D02*
D03*
X81770D02*
D03*
X83071Y71161D02*
D03*
X87795D02*
D03*
X180315Y4331D02*
D03*
X175591D02*
D03*
X127657Y4134D02*
D03*
X122933D02*
D03*
X107809Y45782D02*
D03*
X103084D02*
D03*
X86811Y11417D02*
D03*
X91535D02*
D03*
X74311Y32972D02*
D03*
X79035D02*
D03*
X79069Y38696D02*
D03*
X74344D02*
D03*
X66321Y8954D02*
D03*
X71045D02*
D03*
X107809Y54444D02*
D03*
X103084D02*
D03*
X107809Y50113D02*
D03*
X103084D02*
D03*
X120638Y61992D02*
D03*
X125362D02*
D03*
X136155Y50900D02*
D03*
X140880D02*
D03*
X133793Y46570D02*
D03*
X138517D02*
D03*
X143110Y71752D02*
D03*
X147835D02*
D03*
D93*
X99777Y81672D02*
D03*
X104501D02*
D03*
X190256Y4331D02*
D03*
X185531D02*
D03*
X162894Y41535D02*
D03*
X158169D02*
D03*
X162894Y36811D02*
D03*
X158169D02*
D03*
X164075Y59547D02*
D03*
X168799D02*
D03*
D94*
X140220Y76751D02*
D03*
Y81476D02*
D03*
X105682Y67601D02*
D03*
Y62877D02*
D03*
X162697Y46457D02*
D03*
Y51181D02*
D03*
X157972Y51181D02*
D03*
Y46457D02*
D03*
X100958Y67601D02*
D03*
Y62877D02*
D03*
X139961Y67027D02*
D03*
Y62303D02*
D03*
X162992Y27165D02*
D03*
Y31890D02*
D03*
X158268Y31890D02*
D03*
Y27165D02*
D03*
D95*
X103223Y73997D02*
D03*
X95742D02*
D03*
D96*
X170177Y67421D02*
D03*
Y72146D02*
D03*
X87303Y20965D02*
D03*
Y25689D02*
D03*
X83760Y38287D02*
D03*
Y33563D02*
D03*
X75787Y16043D02*
D03*
Y11319D02*
D03*
X77067Y26575D02*
D03*
Y21850D02*
D03*
X94029Y43420D02*
D03*
Y38696D02*
D03*
X98360Y43420D02*
D03*
Y38696D02*
D03*
X99147Y20585D02*
D03*
Y25310D02*
D03*
X131431Y51294D02*
D03*
Y56018D02*
D03*
X143242Y38302D02*
D03*
Y33577D02*
D03*
D97*
X133529Y67207D02*
D03*
Y81774D02*
D03*
X111875Y67207D02*
D03*
X111875Y81774D02*
D03*
X95153Y49692D02*
D03*
Y64259D02*
D03*
X73499Y49692D02*
D03*
X73499Y64259D02*
D03*
D98*
X158563Y60138D02*
D03*
Y66437D02*
D03*
X148360Y33184D02*
D03*
Y39483D02*
D03*
D99*
X152756Y53347D02*
D03*
X146457D02*
D03*
D100*
X116506Y49690D02*
D03*
X125167Y55990D02*
D03*
X125167Y49690D02*
D03*
X116506Y55990D02*
D03*
D101*
X126706Y18617D02*
D03*
D102*
X136470Y37318D02*
D03*
Y35349D02*
D03*
Y33381D02*
D03*
Y31412D02*
D03*
Y29444D02*
D03*
Y27475D02*
D03*
Y25507D02*
D03*
Y23538D02*
D03*
Y21570D02*
D03*
Y19601D02*
D03*
Y17633D02*
D03*
Y15664D02*
D03*
Y13696D02*
D03*
Y11727D02*
D03*
X105919D02*
D03*
Y13696D02*
D03*
Y15664D02*
D03*
Y17633D02*
D03*
Y19601D02*
D03*
Y21570D02*
D03*
Y23538D02*
D03*
Y25507D02*
D03*
Y27475D02*
D03*
Y29444D02*
D03*
Y31412D02*
D03*
Y33381D02*
D03*
Y35349D02*
D03*
Y37318D02*
D03*
D103*
X133990Y9247D02*
D03*
X132021D02*
D03*
X130053D02*
D03*
X128084D02*
D03*
X126116D02*
D03*
X124147D02*
D03*
X122179D02*
D03*
X120210D02*
D03*
X118242D02*
D03*
X116273D02*
D03*
X114305D02*
D03*
X112336D02*
D03*
X110368D02*
D03*
X108399D02*
D03*
Y39798D02*
D03*
X110368D02*
D03*
X112336D02*
D03*
X114305D02*
D03*
X116273D02*
D03*
X118242D02*
D03*
X120210D02*
D03*
X122179D02*
D03*
X124147D02*
D03*
X126116D02*
D03*
X128084D02*
D03*
X130053D02*
D03*
X132021D02*
D03*
X133990D02*
D03*
D104*
X115289Y30428D02*
D03*
D105*
X114305Y17633D02*
D03*
X110368D02*
D03*
X114305Y13696D02*
D03*
X110368D02*
D03*
D106*
X81168Y15340D02*
D03*
Y9434D02*
D03*
X82185Y27657D02*
D03*
Y21752D02*
D03*
X88911Y43223D02*
D03*
Y37318D02*
D03*
D107*
X98163Y31215D02*
D03*
X92258D02*
D03*
D108*
X152362Y58563D02*
D03*
X150394D02*
D03*
X148425D02*
D03*
X146457D02*
D03*
Y67618D02*
D03*
X148425Y67618D02*
D03*
X150394D02*
D03*
X152362D02*
D03*
D109*
X149409Y63090D02*
D03*
D110*
X187894Y71260D02*
D03*
X176673D02*
D03*
D111*
X41240Y4823D02*
D03*
X52854D02*
D03*
D112*
X47047Y10827D02*
D03*
M02*
