G04 Layer_Color=32768*
%FSLAX25Y25*%
%MOIN*%
G70*
G01*
G75*
%ADD123C,0.00394*%
%ADD124C,0.00197*%
D123*
X84132Y2952D02*
Y5314D01*
X82951Y4133D02*
X85313D01*
X79211Y6298D02*
X89053D01*
X79211Y1967D02*
X89053D01*
X89053Y6298D01*
X79211D02*
X79211Y1967D01*
X85433Y69980D02*
Y72342D01*
X84252Y71161D02*
X86614D01*
X80512Y68996D02*
X90354D01*
X80512Y73327D02*
X90354D01*
X80512Y68996D02*
X80512Y73327D01*
X90354D02*
X90354Y68996D01*
X102139Y82853D02*
X102139Y80491D01*
X100958Y81672D02*
X103320D01*
X97218Y79310D02*
X107061D01*
X97218Y84034D02*
X107061D01*
X97218Y79310D02*
Y84034D01*
X107061D02*
X107061Y79310D01*
X139039Y79114D02*
X141401Y79114D01*
X140220Y77933D02*
Y80295D01*
X142582Y74192D02*
Y84035D01*
X137858Y74192D02*
Y84035D01*
Y74192D02*
X142582D01*
X137858Y84035D02*
X142582Y84035D01*
X104500Y65239D02*
X106863Y65239D01*
X105682Y64058D02*
Y66420D01*
X103319Y60318D02*
Y70161D01*
X108044Y60318D02*
Y70161D01*
X103319D02*
X108044D01*
X103319Y60318D02*
X108044Y60318D01*
X168012Y64862D02*
X172343Y64862D01*
X168012Y74705D02*
X172343Y74705D01*
Y64862D02*
Y74705D01*
X168012Y64862D02*
Y74705D01*
X170177Y68602D02*
Y70965D01*
X168996Y69784D02*
X171358D01*
X182874Y6496D02*
X182874Y2165D01*
X173031D02*
X173031Y6496D01*
X182874D01*
X173031Y2165D02*
X182874D01*
X176772Y4331D02*
X179134D01*
X177953Y3150D02*
Y5512D01*
X192815Y6693D02*
X192815Y1969D01*
X182972D02*
Y6693D01*
X192815D01*
X182972Y1969D02*
X192815D01*
X186713Y4331D02*
X189075D01*
X187894Y5512D02*
X187894Y3150D01*
X155610Y57185D02*
X161516D01*
X155610Y69390D02*
X161516D01*
Y57185D02*
Y69390D01*
X155610Y57185D02*
X155610Y69390D01*
X158563Y61417D02*
Y65158D01*
X156693Y63287D02*
X160433D01*
X160335Y43898D02*
X165059Y43898D01*
X160335Y53740D02*
X165059D01*
Y43898D02*
Y53740D01*
X160335Y43898D02*
Y53740D01*
X162697Y47638D02*
Y50000D01*
X161516Y48819D02*
X163878Y48819D01*
X155610Y53740D02*
X160335Y53740D01*
X155610Y43898D02*
X160335D01*
X155610D02*
Y53740D01*
X160335Y43898D02*
Y53740D01*
X157972Y47638D02*
Y50000D01*
X156791Y48819D02*
X159153Y48819D01*
X155709Y50394D02*
Y56299D01*
X143504Y50394D02*
Y56299D01*
X155709D01*
X143504Y50394D02*
X155709Y50394D01*
X147736Y53347D02*
X151476D01*
X149606Y51476D02*
Y55216D01*
X165453Y43898D02*
X165453Y39173D01*
X155610D02*
Y43898D01*
X165453D01*
X155610Y39173D02*
X165453D01*
X159350Y41535D02*
X161713D01*
X160531Y42717D02*
X160531Y40354D01*
X165453Y39173D02*
X165453Y34449D01*
X155610D02*
Y39173D01*
X165453D01*
X155610Y34449D02*
X165453D01*
X159350Y36811D02*
X161713D01*
X160531Y37992D02*
X160531Y35630D01*
X99777Y65239D02*
X102139D01*
X100958Y64058D02*
Y66420D01*
X98596Y60318D02*
Y70161D01*
X103321Y60318D02*
Y70161D01*
X98596Y70161D02*
X103321Y70161D01*
X98596Y60318D02*
X103321Y60318D01*
X119226Y24522D02*
X123163D01*
X121195Y22554D02*
Y26491D01*
X78215Y18489D02*
X84120D01*
X78215Y6285D02*
X84120D01*
X78215D02*
Y18489D01*
X84120Y6285D02*
Y18489D01*
X81168Y10419D02*
Y14356D01*
X79199Y12387D02*
X83136D01*
X79232Y30807D02*
X85138D01*
X79232Y18602D02*
X85138D01*
X79232D02*
Y30807D01*
X85138Y18602D02*
Y30807D01*
X82185Y22736D02*
Y26673D01*
X80216Y24705D02*
X84153D01*
X101313Y28262D02*
Y34168D01*
X89108Y28262D02*
Y34168D01*
X101313D01*
X89108Y28262D02*
X101313D01*
X93242Y31215D02*
X97179D01*
X95210Y29247D02*
Y33184D01*
X85958Y46373D02*
X91864D01*
X85958Y34168D02*
X91864D01*
X85958D02*
Y46373D01*
X91864Y34168D02*
Y46373D01*
X88911Y38302D02*
Y42239D01*
X86943Y40270D02*
X90880D01*
X130217Y6299D02*
X130217Y1969D01*
X120374D02*
X120374Y6299D01*
X130217D01*
X120374Y1969D02*
X130217D01*
X124114Y4134D02*
X126476D01*
X125295Y2953D02*
Y5315D01*
X110368Y43617D02*
Y47947D01*
X100525Y43617D02*
Y47948D01*
X110368Y47947D01*
X100525Y43617D02*
X110368D01*
X104265Y45782D02*
X106628D01*
X105447Y44601D02*
Y46963D01*
X84252Y13583D02*
X84252Y9252D01*
X94095D02*
X94095Y13583D01*
X84252Y9252D02*
X94095D01*
X84252Y13583D02*
X94095D01*
X87992Y11417D02*
X90354D01*
X89173Y10236D02*
Y12598D01*
X85138Y18406D02*
X89468D01*
X85138Y28248D02*
X89468D01*
Y18406D02*
Y28248D01*
X85138Y18406D02*
Y28248D01*
X87303Y22146D02*
Y24508D01*
X86122Y23327D02*
X88484D01*
X71752Y35138D02*
X71752Y30807D01*
X81595D02*
X81595Y35138D01*
X71752Y30807D02*
X81595D01*
X71752Y35138D02*
X81595D01*
X75492Y32972D02*
X77854D01*
X76673Y31791D02*
Y34154D01*
X81628Y36530D02*
Y40861D01*
X71785Y36530D02*
Y40861D01*
X81628D01*
X71785Y36530D02*
X81628D01*
X75525Y38696D02*
X77887D01*
X76706Y37514D02*
Y39877D01*
X63762Y6789D02*
Y11120D01*
X73605Y6789D02*
Y11120D01*
X63762Y6789D02*
X73605D01*
X63762Y11120D02*
X73605D01*
X67502Y8954D02*
X69864D01*
X68683Y7773D02*
Y10136D01*
X81595Y40846D02*
X85925Y40846D01*
X81595Y31004D02*
X85925Y31004D01*
X81595Y31004D02*
Y40846D01*
X85925Y31004D02*
Y40846D01*
X83760Y34744D02*
Y37106D01*
X82579Y35925D02*
X84941D01*
X73622Y18602D02*
X77953Y18602D01*
X73622Y8760D02*
X77953Y8760D01*
X73622Y8760D02*
Y18602D01*
X77953Y8760D02*
Y18602D01*
X75787Y12500D02*
Y14862D01*
X74606Y13681D02*
X76968D01*
X74902Y29134D02*
X79232Y29134D01*
X74902Y19291D02*
X79232Y19291D01*
X74902Y19291D02*
Y29134D01*
X79232Y19291D02*
Y29134D01*
X77067Y23031D02*
Y25394D01*
X75886Y24213D02*
X78248D01*
X91864Y45979D02*
X96195Y45979D01*
X91864Y36136D02*
X96195Y36136D01*
X91864Y36136D02*
Y45979D01*
X96195Y36136D02*
Y45979D01*
X94029Y39877D02*
Y42239D01*
X92848Y41058D02*
X95210D01*
X96195Y45979D02*
X100525Y45979D01*
X96195Y36136D02*
X100525Y36136D01*
X96195Y36136D02*
Y45979D01*
X100525Y36136D02*
Y45979D01*
X98360Y39877D02*
Y42239D01*
X97179Y41058D02*
X99541D01*
X110368Y52278D02*
Y56609D01*
X100525D02*
X100525Y52278D01*
X100525Y56609D02*
X110368D01*
X100525Y52278D02*
X110368D01*
X104265Y54444D02*
X106628Y54444D01*
X105447Y53263D02*
Y55625D01*
X110368Y52278D02*
X110368Y47948D01*
X100525Y47947D02*
Y52278D01*
X110368D01*
X100525Y47947D02*
X110368Y47948D01*
X104265Y50113D02*
X106628Y50113D01*
X105447Y51294D02*
X105447Y48932D01*
X96982Y18026D02*
X101313Y18026D01*
X96982Y27869D02*
X101313D01*
Y18026D02*
Y27869D01*
X96982D02*
X96982Y18026D01*
X99147Y21767D02*
Y24129D01*
X97966Y22948D02*
X100329D01*
X118079Y64157D02*
X118079Y59827D01*
X127921D02*
X127921Y64157D01*
X118079Y59827D02*
X127921D01*
X118079Y64157D02*
X127921D01*
X121819Y61992D02*
X124181D01*
X123000Y60811D02*
Y63173D01*
X129265Y48735D02*
X133596Y48735D01*
X129265Y58578D02*
X133596Y58578D01*
Y48735D02*
Y58578D01*
X129265Y48735D02*
Y58578D01*
X131431Y52475D02*
Y54837D01*
X130250Y53656D02*
X132612D01*
X133596Y48735D02*
Y53066D01*
X143439Y48735D02*
Y53066D01*
X133596Y48735D02*
X143439Y48735D01*
X133596Y53066D02*
X143439D01*
X137336Y50900D02*
X139699D01*
X138517Y49719D02*
Y52081D01*
X141077Y40861D02*
X145407D01*
X141077Y31018D02*
X145407Y31018D01*
X141077Y40861D02*
X141077Y31018D01*
X145407Y31018D02*
Y40861D01*
X143242Y37121D02*
X143242Y34759D01*
X142061Y35940D02*
X144423D01*
X146490Y36333D02*
X150230Y36333D01*
X148360Y34463D02*
Y38203D01*
X151313Y30231D02*
Y42436D01*
X145407Y30231D02*
Y42436D01*
Y30231D02*
X151313Y30231D01*
X145407Y42436D02*
X151313D01*
X131234Y48735D02*
X131234Y44404D01*
X141077D02*
X141077Y48735D01*
X131234Y44404D02*
X141077D01*
X131234Y48735D02*
X141077D01*
X134974Y46570D02*
X137336D01*
X136155Y45388D02*
Y47751D01*
X140551Y73917D02*
X140551Y69587D01*
X150394D02*
X150394Y73917D01*
X140551Y69587D02*
X150394D01*
X140551Y73917D02*
X150394D01*
X144291Y71752D02*
X146653D01*
X145472Y70571D02*
Y72933D01*
X137598Y69587D02*
X142323Y69587D01*
X137598Y59744D02*
X142323D01*
X137598D02*
Y69587D01*
X142323Y59744D02*
Y69587D01*
X139961Y63484D02*
Y65847D01*
X138779Y64665D02*
X141142Y64665D01*
X154921Y56595D02*
Y69587D01*
X143898Y56595D02*
X143898Y69587D01*
X154921D01*
X143898Y56595D02*
X154921Y56595D01*
X149409Y61122D02*
X149409Y65059D01*
X147441Y63090D02*
X151378D01*
X160630Y24606D02*
X165354Y24606D01*
X160630Y34449D02*
X165354D01*
Y24606D02*
Y34449D01*
X160630Y24606D02*
Y34449D01*
X162992Y28346D02*
Y30709D01*
X161811Y29528D02*
X164173Y29528D01*
X155905Y34449D02*
X160630Y34449D01*
X155905Y24606D02*
X160630D01*
X155905D02*
Y34449D01*
X160630Y24606D02*
Y34449D01*
X158268Y28346D02*
Y30709D01*
X157087Y29528D02*
X159449Y29528D01*
X161516Y61909D02*
X161516Y57185D01*
X171358D02*
Y61909D01*
X161516Y57185D02*
X171358D01*
X161516Y61909D02*
X171358D01*
X165256Y59547D02*
X167618D01*
X166437Y60728D02*
X166437Y58366D01*
X180315Y71260D02*
X184252D01*
X182283Y69291D02*
Y73228D01*
D124*
X139305Y6412D02*
Y42633D01*
X103084Y6412D02*
Y42633D01*
X139305D01*
X103084Y6412D02*
X139305D01*
X190945Y67323D02*
Y75197D01*
X173622Y67323D02*
Y75197D01*
X190945D01*
X173622Y67323D02*
X190945D01*
M02*
