G04 Layer_Color=32896*
%FSLAX25Y25*%
%MOIN*%
G70*
G01*
G75*
%ADD13C,0.01181*%
%ADD15C,0.00591*%
%ADD64C,0.01969*%
%ADD67C,0.00787*%
%ADD117C,0.00984*%
%ADD118C,0.00800*%
%ADD119C,0.00551*%
D13*
X113651Y60320D02*
X116309D01*
D15*
X97573Y3674D02*
X98032Y4133D01*
X98950D01*
X99410Y3674D01*
Y1837D01*
X98950Y1378D01*
X98032D01*
X97573Y1837D01*
X94818Y1378D02*
X96654D01*
X94818Y3215D01*
Y3674D01*
X95277Y4133D01*
X96195D01*
X96654Y3674D01*
X92522Y1378D02*
Y4133D01*
X93899Y2756D01*
X92063D01*
X91144Y1378D02*
Y4133D01*
X90226Y3215D01*
X89308Y4133D01*
Y1378D01*
X86451Y75623D02*
X86910Y76082D01*
X87828D01*
X88287Y75623D01*
Y73786D01*
X87828Y73327D01*
X86910D01*
X86451Y73786D01*
X85532Y75623D02*
X85073Y76082D01*
X84155D01*
X83696Y75623D01*
Y75164D01*
X84155Y74704D01*
X84614D01*
X84155D01*
X83696Y74245D01*
Y73786D01*
X84155Y73327D01*
X85073D01*
X85532Y73786D01*
X82777Y73327D02*
X81859D01*
X82318D01*
Y76082D01*
X82777Y75623D01*
X80481Y73327D02*
Y76082D01*
X79563Y75164D01*
X78645Y76082D01*
Y73327D01*
X152067Y83366D02*
Y86121D01*
X150689D01*
X150230Y85662D01*
Y84744D01*
X150689Y84285D01*
X152067D01*
X151149D02*
X150230Y83366D01*
X149312D02*
X148394D01*
X148853D01*
Y86121D01*
X149312Y85662D01*
X147016D02*
X146557Y86121D01*
X145639D01*
X145179Y85662D01*
Y85203D01*
X145639Y84744D01*
X146098D01*
X145639D01*
X145179Y84285D01*
Y83825D01*
X145639Y83366D01*
X146557D01*
X147016Y83825D01*
X144261Y86121D02*
Y83825D01*
X143802Y83366D01*
X142884D01*
X142424Y83825D01*
Y86121D01*
X95743Y81574D02*
Y84329D01*
X94366D01*
X93906Y83869D01*
Y82951D01*
X94366Y82492D01*
X95743D01*
X94825D02*
X93906Y81574D01*
X92988D02*
X92070D01*
X92529D01*
Y84329D01*
X92988Y83869D01*
X88856Y81574D02*
X90692D01*
X88856Y83410D01*
Y83869D01*
X89315Y84329D01*
X90233D01*
X90692Y83869D01*
X87937Y84329D02*
Y82033D01*
X87478Y81574D01*
X86560D01*
X86101Y82033D01*
Y84329D01*
X94784Y80511D02*
Y77756D01*
X93406D01*
X92947Y78215D01*
Y80052D01*
X93406Y80511D01*
X94784D01*
X92028Y77756D02*
X91110D01*
X91569D01*
Y80511D01*
X92028Y80052D01*
X89733D02*
X89273Y80511D01*
X88355D01*
X87896Y80052D01*
Y78215D01*
X88355Y77756D01*
X89273D01*
X89733Y78215D01*
Y80052D01*
X86978Y80511D02*
Y78215D01*
X86518Y77756D01*
X85600D01*
X85141Y78215D01*
Y80511D01*
X170211Y5347D02*
X170670Y5806D01*
X171588D01*
X172047Y5347D01*
Y3510D01*
X171588Y3051D01*
X170670D01*
X170211Y3510D01*
X169292Y3051D02*
X168374D01*
X168833D01*
Y5806D01*
X169292Y5347D01*
X165619Y3051D02*
Y5806D01*
X166996Y4429D01*
X165160D01*
X164241Y5806D02*
Y3510D01*
X163782Y3051D01*
X162864D01*
X162405Y3510D01*
Y5806D01*
X169718Y76902D02*
X170178Y77361D01*
X171096D01*
X171555Y76902D01*
Y75065D01*
X171096Y74606D01*
X170178D01*
X169718Y75065D01*
X168800Y74606D02*
X167882D01*
X168341D01*
Y77361D01*
X168800Y76902D01*
X166504D02*
X166045Y77361D01*
X165127D01*
X164668Y76902D01*
Y76443D01*
X165127Y75984D01*
X165586D01*
X165127D01*
X164668Y75525D01*
Y75065D01*
X165127Y74606D01*
X166045D01*
X166504Y75065D01*
X163749Y77361D02*
Y75065D01*
X163290Y74606D01*
X162372D01*
X161913Y75065D01*
Y77361D01*
X138911Y73949D02*
X139371Y74409D01*
X140289D01*
X140748Y73949D01*
Y72113D01*
X140289Y71653D01*
X139371D01*
X138911Y72113D01*
X137993Y71653D02*
X137075D01*
X137534D01*
Y74409D01*
X137993Y73949D01*
X133861Y71653D02*
X135697D01*
X133861Y73490D01*
Y73949D01*
X134320Y74409D01*
X135238D01*
X135697Y73949D01*
X132942Y74409D02*
Y72113D01*
X132483Y71653D01*
X131565D01*
X131105Y72113D01*
Y74409D01*
X163616Y71686D02*
X164075Y72145D01*
X164994D01*
X165453Y71686D01*
Y69849D01*
X164994Y69390D01*
X164075D01*
X163616Y69849D01*
X162698Y69390D02*
X161779D01*
X162239D01*
Y72145D01*
X162698Y71686D01*
X160402Y69390D02*
X159484D01*
X159943D01*
Y72145D01*
X160402Y71686D01*
X158106Y72145D02*
Y69849D01*
X157647Y69390D01*
X156728D01*
X156269Y69849D01*
Y72145D01*
X153440Y61355D02*
X153900Y61814D01*
X154818D01*
X155277Y61355D01*
Y59518D01*
X154818Y59059D01*
X153900D01*
X153440Y59518D01*
X152522Y59059D02*
X151604D01*
X152063D01*
Y61814D01*
X152522Y61355D01*
X150226D02*
X149767Y61814D01*
X148849D01*
X148389Y61355D01*
Y59518D01*
X148849Y59059D01*
X149767D01*
X150226Y59518D01*
Y61355D01*
X147471Y61814D02*
Y59518D01*
X147012Y59059D01*
X146094D01*
X145634Y59518D01*
Y61814D01*
X156201Y28543D02*
X153446D01*
Y27166D01*
X153905Y26707D01*
X154823D01*
X155282Y27166D01*
Y28543D01*
Y27625D02*
X156201Y26707D01*
Y23952D02*
Y25788D01*
X154364Y23952D01*
X153905D01*
X153446Y24411D01*
Y25329D01*
X153905Y25788D01*
Y23033D02*
X153446Y22574D01*
Y21656D01*
X153905Y21197D01*
X155742D01*
X156201Y21656D01*
Y22574D01*
X155742Y23033D01*
X153905D01*
X153446Y20278D02*
X155742D01*
X156201Y19819D01*
Y18901D01*
X155742Y18442D01*
X153446D01*
X174758Y46543D02*
Y49298D01*
X173381D01*
X172922Y48839D01*
Y47921D01*
X173381Y47462D01*
X174758D01*
X173840D02*
X172922Y46543D01*
X172003D02*
X171085D01*
X171544D01*
Y49298D01*
X172003Y48839D01*
X169708Y47002D02*
X169248Y46543D01*
X168330D01*
X167871Y47002D01*
Y48839D01*
X168330Y49298D01*
X169248D01*
X169708Y48839D01*
Y48380D01*
X169248Y47921D01*
X167871D01*
X166953Y49298D02*
Y47002D01*
X166493Y46543D01*
X165575D01*
X165116Y47002D01*
Y49298D01*
X155315Y40551D02*
X152560D01*
Y39174D01*
X153019Y38715D01*
X153937D01*
X154397Y39174D01*
Y40551D01*
Y39633D02*
X155315Y38715D01*
Y37796D02*
Y36878D01*
Y37337D01*
X152560D01*
X153019Y37796D01*
Y35500D02*
X152560Y35041D01*
Y34123D01*
X153019Y33664D01*
X153478D01*
X153937Y34123D01*
X154397Y33664D01*
X154856D01*
X155315Y34123D01*
Y35041D01*
X154856Y35500D01*
X154397D01*
X153937Y35041D01*
X153478Y35500D01*
X153019D01*
X153937Y35041D02*
Y34123D01*
X152560Y32745D02*
X154856D01*
X155315Y32286D01*
Y31368D01*
X154856Y30909D01*
X152560D01*
X165551Y36122D02*
X168306D01*
Y37500D01*
X167847Y37959D01*
X166929D01*
X166470Y37500D01*
Y36122D01*
Y37040D02*
X165551Y37959D01*
Y38877D02*
Y39795D01*
Y39336D01*
X168306D01*
X167847Y38877D01*
X168306Y41173D02*
Y43010D01*
X167847D01*
X166010Y41173D01*
X165551D01*
X168306Y43928D02*
X166010D01*
X165551Y44387D01*
Y45305D01*
X166010Y45765D01*
X168306D01*
X168996Y32087D02*
X166241D01*
Y30709D01*
X166700Y30250D01*
X167619D01*
X168078Y30709D01*
Y32087D01*
Y31168D02*
X168996Y30250D01*
Y29332D02*
Y28413D01*
Y28872D01*
X166241D01*
X166700Y29332D01*
X166241Y25199D02*
X166700Y26117D01*
X167619Y27036D01*
X168537D01*
X168996Y26577D01*
Y25658D01*
X168537Y25199D01*
X168078D01*
X167619Y25658D01*
Y27036D01*
X166241Y24281D02*
X168537D01*
X168996Y23821D01*
Y22903D01*
X168537Y22444D01*
X166241D01*
X166093Y54282D02*
Y57037D01*
X164715D01*
X164256Y56577D01*
Y55659D01*
X164715Y55200D01*
X166093D01*
X165174D02*
X164256Y54282D01*
X163338D02*
X162419D01*
X162878D01*
Y57037D01*
X163338Y56577D01*
X159205Y57037D02*
X161042D01*
Y55659D01*
X160123Y56118D01*
X159664D01*
X159205Y55659D01*
Y54741D01*
X159664Y54282D01*
X160582D01*
X161042Y54741D01*
X158287Y57037D02*
Y54741D01*
X157827Y54282D01*
X156909D01*
X156450Y54741D01*
Y57037D01*
X192717Y7382D02*
Y10137D01*
X191339D01*
X190880Y9678D01*
Y8759D01*
X191339Y8300D01*
X192717D01*
X191798D02*
X190880Y7382D01*
X189962D02*
X189043D01*
X189502D01*
Y10137D01*
X189962Y9678D01*
X186288Y7382D02*
Y10137D01*
X187666Y8759D01*
X185829D01*
X184911Y10137D02*
Y7841D01*
X184451Y7382D01*
X183533D01*
X183074Y7841D01*
Y10137D01*
X137795Y59646D02*
Y62401D01*
X136418D01*
X135959Y61941D01*
Y61023D01*
X136418Y60564D01*
X137795D01*
X136877D02*
X135959Y59646D01*
X135040D02*
X134122D01*
X134581D01*
Y62401D01*
X135040Y61941D01*
X132744Y59646D02*
X131826D01*
X132285D01*
Y62401D01*
X132744Y61941D01*
X130449Y62401D02*
Y60105D01*
X129989Y59646D01*
X129071D01*
X128612Y60105D01*
Y62401D01*
X172146Y62008D02*
Y64763D01*
X170768D01*
X170309Y64304D01*
Y63385D01*
X170768Y62926D01*
X172146D01*
X171227D02*
X170309Y62008D01*
X169391D02*
X168472D01*
X168931D01*
Y64763D01*
X169391Y64304D01*
X167095D02*
X166636Y64763D01*
X165717D01*
X165258Y64304D01*
Y62467D01*
X165717Y62008D01*
X166636D01*
X167095Y62467D01*
Y64304D01*
X164340Y64763D02*
Y62467D01*
X163881Y62008D01*
X162962D01*
X162503Y62467D01*
Y64763D01*
X160138Y75688D02*
Y73392D01*
X159679Y72933D01*
X158760D01*
X158301Y73392D01*
Y75688D01*
X157383Y72933D02*
X156464D01*
X156924D01*
Y75688D01*
X157383Y75229D01*
X155087D02*
X154628Y75688D01*
X153709D01*
X153250Y75229D01*
Y73392D01*
X153709Y72933D01*
X154628D01*
X155087Y73392D01*
Y75229D01*
X152332Y75688D02*
Y73392D01*
X151873Y72933D01*
X150954D01*
X150495Y73392D01*
Y75688D01*
X178248Y11614D02*
Y8859D01*
X179625D01*
X180085Y9318D01*
Y10237D01*
X179625Y10696D01*
X178248D01*
X181003Y11614D02*
X181921D01*
X181462D01*
Y8859D01*
X181003Y9318D01*
X183299Y11614D02*
X184217D01*
X183758D01*
Y8859D01*
X183299Y9318D01*
X185595Y8859D02*
Y11155D01*
X186054Y11614D01*
X186972D01*
X187431Y11155D01*
Y8859D01*
X188189Y78149D02*
Y75394D01*
X186811D01*
X186352Y75853D01*
Y77689D01*
X186811Y78149D01*
X188189D01*
X185434Y75394D02*
X184516D01*
X184975D01*
Y78149D01*
X185434Y77689D01*
X183138Y75394D02*
X182220D01*
X182679D01*
Y78149D01*
X183138Y77689D01*
X180842Y78149D02*
Y75853D01*
X180383Y75394D01*
X179465D01*
X179006Y75853D01*
Y78149D01*
X133037Y42389D02*
X132578Y41930D01*
X131660D01*
X131201Y42389D01*
Y44226D01*
X131660Y44685D01*
X132578D01*
X133037Y44226D01*
X133956Y44685D02*
X134874D01*
X134415D01*
Y41930D01*
X133956Y42389D01*
X136252D02*
X136711Y41930D01*
X137629D01*
X138088Y42389D01*
Y44226D01*
X137629Y44685D01*
X136711D01*
X136252Y44226D01*
Y42389D01*
X139007Y44685D02*
Y41930D01*
X139925Y42848D01*
X140843Y41930D01*
Y44685D01*
X146622Y27986D02*
X146162Y28445D01*
Y29364D01*
X146622Y29823D01*
X148458D01*
X148917Y29364D01*
Y28445D01*
X148458Y27986D01*
X148917Y27068D02*
Y26149D01*
Y26609D01*
X146162D01*
X146622Y27068D01*
X148917Y24772D02*
Y23854D01*
Y24313D01*
X146162D01*
X146622Y24772D01*
X148917Y22476D02*
X146162D01*
X147081Y21558D01*
X146162Y20639D01*
X148917D01*
X141003Y29061D02*
X140544Y29520D01*
Y30438D01*
X141003Y30898D01*
X142840D01*
X143299Y30438D01*
Y29520D01*
X142840Y29061D01*
X143299Y28143D02*
Y27224D01*
Y27683D01*
X140544D01*
X141003Y28143D01*
X143299Y24010D02*
Y25847D01*
X141463Y24010D01*
X141003D01*
X140544Y24469D01*
Y25388D01*
X141003Y25847D01*
X143299Y23092D02*
X140544D01*
X141463Y22173D01*
X140544Y21255D01*
X143299D01*
X141569Y55347D02*
X142028Y55806D01*
X142946D01*
X143405Y55347D01*
Y53510D01*
X142946Y53051D01*
X142028D01*
X141569Y53510D01*
X140650Y53051D02*
X139732D01*
X140191D01*
Y55806D01*
X140650Y55347D01*
X138355D02*
X137896Y55806D01*
X136977D01*
X136518Y55347D01*
Y54888D01*
X136977Y54429D01*
X137436D01*
X136977D01*
X136518Y53970D01*
Y53510D01*
X136977Y53051D01*
X137896D01*
X138355Y53510D01*
X135600Y53051D02*
Y55806D01*
X134681Y54888D01*
X133763Y55806D01*
Y53051D01*
X116175Y62926D02*
X116634Y63385D01*
X117553D01*
X118012Y62926D01*
Y61089D01*
X117553Y60630D01*
X116634D01*
X116175Y61089D01*
X115257Y60630D02*
X114338D01*
X114798D01*
Y63385D01*
X115257Y62926D01*
X111124Y63385D02*
X112961D01*
Y62007D01*
X112043Y62467D01*
X111583D01*
X111124Y62007D01*
Y61089D01*
X111583Y60630D01*
X112502D01*
X112961Y61089D01*
X110206Y60630D02*
Y63385D01*
X109288Y62467D01*
X108369Y63385D01*
Y60630D01*
X99377Y15781D02*
X98918Y16241D01*
Y17159D01*
X99377Y17618D01*
X101214D01*
X101673Y17159D01*
Y16241D01*
X101214Y15781D01*
X101673Y14863D02*
Y13945D01*
Y14404D01*
X98918D01*
X99377Y14863D01*
X98918Y10731D02*
X99377Y11649D01*
X100296Y12567D01*
X101214D01*
X101673Y12108D01*
Y11190D01*
X101214Y10731D01*
X100755D01*
X100296Y11190D01*
Y12567D01*
X101673Y9812D02*
X98918D01*
X99836Y8894D01*
X98918Y7976D01*
X101673D01*
X110565Y58890D02*
X111024Y59350D01*
X111942D01*
X112402Y58890D01*
Y57054D01*
X111942Y56595D01*
X111024D01*
X110565Y57054D01*
X109647Y56595D02*
X108728D01*
X109187D01*
Y59350D01*
X109647Y58890D01*
X107351D02*
X106892Y59350D01*
X105973D01*
X105514Y58890D01*
Y58431D01*
X105973Y57972D01*
X105514Y57513D01*
Y57054D01*
X105973Y56595D01*
X106892D01*
X107351Y57054D01*
Y57513D01*
X106892Y57972D01*
X107351Y58431D01*
Y58890D01*
X106892Y57972D02*
X105973D01*
X104596Y56595D02*
Y59350D01*
X103677Y58431D01*
X102759Y59350D01*
Y56595D01*
X103182Y35596D02*
X103641Y35137D01*
Y34219D01*
X103182Y33760D01*
X101345D01*
X100886Y34219D01*
Y35137D01*
X101345Y35596D01*
X100886Y36515D02*
Y37433D01*
Y36974D01*
X103641D01*
X103182Y36515D01*
X101345Y38811D02*
X100886Y39270D01*
Y40188D01*
X101345Y40647D01*
X103182D01*
X103641Y40188D01*
Y39270D01*
X103182Y38811D01*
X102723D01*
X102263Y39270D01*
Y40647D01*
X100886Y41566D02*
X103641D01*
X102723Y42484D01*
X103641Y43402D01*
X100886D01*
X72770Y24934D02*
X73229Y25393D01*
X74147D01*
X74606Y24934D01*
Y23097D01*
X74147Y22638D01*
X73229D01*
X72770Y23097D01*
X70015Y22638D02*
X71851D01*
X70015Y24475D01*
Y24934D01*
X70474Y25393D01*
X71392D01*
X71851Y24934D01*
X69096Y22638D02*
X68178D01*
X68637D01*
Y25393D01*
X69096Y24934D01*
X66800Y22638D02*
Y25393D01*
X65882Y24475D01*
X64964Y25393D01*
Y22638D01*
X71687Y14894D02*
X72146Y15353D01*
X73064D01*
X73524Y14894D01*
Y13058D01*
X73064Y12598D01*
X72146D01*
X71687Y13058D01*
X68932Y12598D02*
X70769D01*
X68932Y14435D01*
Y14894D01*
X69391Y15353D01*
X70309D01*
X70769Y14894D01*
X66177Y12598D02*
X68014D01*
X66177Y14435D01*
Y14894D01*
X66636Y15353D01*
X67554D01*
X68014Y14894D01*
X65259Y12598D02*
Y15353D01*
X64340Y14435D01*
X63422Y15353D01*
Y12598D01*
X83695Y43438D02*
X84154Y43897D01*
X85072D01*
X85532Y43438D01*
Y41601D01*
X85072Y41142D01*
X84154D01*
X83695Y41601D01*
X80940Y41142D02*
X82776D01*
X80940Y42978D01*
Y43438D01*
X81399Y43897D01*
X82317D01*
X82776Y43438D01*
X80022D02*
X79562Y43897D01*
X78644D01*
X78185Y43438D01*
Y42978D01*
X78644Y42519D01*
X79103D01*
X78644D01*
X78185Y42060D01*
Y41601D01*
X78644Y41142D01*
X79562D01*
X80022Y41601D01*
X77266Y41142D02*
Y43897D01*
X76348Y42978D01*
X75430Y43897D01*
Y41142D01*
X69620Y6036D02*
X70079Y6495D01*
X70998D01*
X71457Y6036D01*
Y4199D01*
X70998Y3740D01*
X70079D01*
X69620Y4199D01*
X68702Y6036D02*
X68243Y6495D01*
X67324D01*
X66865Y6036D01*
Y5577D01*
X67324Y5118D01*
X67783D01*
X67324D01*
X66865Y4659D01*
Y4199D01*
X67324Y3740D01*
X68243D01*
X68702Y4199D01*
X64110Y3740D02*
X65947D01*
X64110Y5577D01*
Y6036D01*
X64569Y6495D01*
X65487D01*
X65947Y6036D01*
X63192Y3740D02*
Y6495D01*
X62273Y5577D01*
X61355Y6495D01*
Y3740D01*
X69718Y39796D02*
X70178Y40255D01*
X71096D01*
X71555Y39796D01*
Y37959D01*
X71096Y37500D01*
X70178D01*
X69718Y37959D01*
X66963Y37500D02*
X68800D01*
X66963Y39337D01*
Y39796D01*
X67423Y40255D01*
X68341D01*
X68800Y39796D01*
X64208Y40255D02*
X66045D01*
Y38877D01*
X65127Y39337D01*
X64668D01*
X64208Y38877D01*
Y37959D01*
X64668Y37500D01*
X65586D01*
X66045Y37959D01*
X63290Y37500D02*
Y40255D01*
X62372Y39337D01*
X61453Y40255D01*
Y37500D01*
X69817Y33890D02*
X70276Y34350D01*
X71194D01*
X71653Y33890D01*
Y32054D01*
X71194Y31594D01*
X70276D01*
X69817Y32054D01*
X67062Y31594D02*
X68898D01*
X67062Y33431D01*
Y33890D01*
X67521Y34350D01*
X68439D01*
X68898Y33890D01*
X64307Y34350D02*
X65225Y33890D01*
X66144Y32972D01*
Y32054D01*
X65684Y31594D01*
X64766D01*
X64307Y32054D01*
Y32513D01*
X64766Y32972D01*
X66144D01*
X63389Y31594D02*
Y34350D01*
X62470Y33431D01*
X61552Y34350D01*
Y31594D01*
X91545Y19647D02*
X92004Y19188D01*
Y18270D01*
X91545Y17810D01*
X89708D01*
X89249Y18270D01*
Y19188D01*
X89708Y19647D01*
X89249Y22402D02*
Y20565D01*
X91085Y22402D01*
X91545D01*
X92004Y21943D01*
Y21025D01*
X91545Y20565D01*
X92004Y23320D02*
Y25157D01*
X91545D01*
X89708Y23320D01*
X89249D01*
Y26076D02*
X92004D01*
X91085Y26994D01*
X92004Y27912D01*
X89249D01*
X96392Y8497D02*
X96851Y8956D01*
X97769D01*
X98228Y8497D01*
Y6660D01*
X97769Y6201D01*
X96851D01*
X96392Y6660D01*
X93637Y6201D02*
X95473D01*
X93637Y8038D01*
Y8497D01*
X94096Y8956D01*
X95014D01*
X95473Y8497D01*
X92718D02*
X92259Y8956D01*
X91341D01*
X90882Y8497D01*
Y8038D01*
X91341Y7578D01*
X90882Y7119D01*
Y6660D01*
X91341Y6201D01*
X92259D01*
X92718Y6660D01*
Y7119D01*
X92259Y7578D01*
X92718Y8038D01*
Y8497D01*
X92259Y7578D02*
X91341D01*
X89963Y6201D02*
Y8956D01*
X89045Y8038D01*
X88127Y8956D01*
Y6201D01*
X112434Y44159D02*
X112893Y43700D01*
Y42782D01*
X112434Y42323D01*
X110597D01*
X110138Y42782D01*
Y43700D01*
X110597Y44159D01*
X110138Y46914D02*
Y45078D01*
X111975Y46914D01*
X112434D01*
X112893Y46455D01*
Y45537D01*
X112434Y45078D01*
X110597Y47833D02*
X110138Y48292D01*
Y49210D01*
X110597Y49670D01*
X112434D01*
X112893Y49210D01*
Y48292D01*
X112434Y47833D01*
X111975D01*
X111515Y48292D01*
Y49670D01*
X110138Y50588D02*
X112893D01*
X111975Y51506D01*
X112893Y52425D01*
X110138D01*
X118341Y5741D02*
X118800Y6200D01*
X119718D01*
X120177Y5741D01*
Y3904D01*
X119718Y3445D01*
X118800D01*
X118341Y3904D01*
X117422Y5741D02*
X116963Y6200D01*
X116045D01*
X115585Y5741D01*
Y5282D01*
X116045Y4822D01*
X116504D01*
X116045D01*
X115585Y4363D01*
Y3904D01*
X116045Y3445D01*
X116963D01*
X117422Y3904D01*
X114667Y5741D02*
X114208Y6200D01*
X113290D01*
X112830Y5741D01*
Y3904D01*
X113290Y3445D01*
X114208D01*
X114667Y3904D01*
Y5741D01*
X111912Y3445D02*
Y6200D01*
X110994Y5282D01*
X110075Y6200D01*
Y3445D01*
X91535Y49113D02*
Y46358D01*
X89699D01*
X88780D02*
X87862D01*
X88321D01*
Y49113D01*
X88780Y48654D01*
X86485D02*
X86025Y49113D01*
X85107D01*
X84648Y48654D01*
Y46817D01*
X85107Y46358D01*
X86025D01*
X86485Y46817D01*
Y48654D01*
X83729Y46358D02*
Y49113D01*
X82811Y48195D01*
X81893Y49113D01*
Y46358D01*
X93406Y28051D02*
X96161D01*
Y26215D01*
Y25296D02*
Y24378D01*
Y24837D01*
X93406D01*
X93866Y25296D01*
X96161Y23000D02*
Y22082D01*
Y22541D01*
X93406D01*
X93866Y23000D01*
X96161Y20705D02*
X93406D01*
X94325Y19786D01*
X93406Y18868D01*
X96161D01*
X79134Y31298D02*
Y28543D01*
X77297D01*
X76379D02*
X75460D01*
X75920D01*
Y31298D01*
X76379Y30839D01*
X72246Y28543D02*
X74083D01*
X72246Y30380D01*
Y30839D01*
X72706Y31298D01*
X73624D01*
X74083Y30839D01*
X71328Y28543D02*
Y31298D01*
X70410Y30380D01*
X69491Y31298D01*
Y28543D01*
X94390Y16633D02*
Y13878D01*
X92553D01*
X91635D02*
X90716D01*
X91176D01*
Y16633D01*
X91635Y16174D01*
X89339D02*
X88880Y16633D01*
X87961D01*
X87502Y16174D01*
Y15715D01*
X87961Y15256D01*
X88421D01*
X87961D01*
X87502Y14796D01*
Y14337D01*
X87961Y13878D01*
X88880D01*
X89339Y14337D01*
X86584Y13878D02*
Y16633D01*
X85666Y15715D01*
X84747Y16633D01*
Y13878D01*
X63110Y-9352D02*
X65865D01*
Y-7974D01*
X65406Y-7515D01*
X64488D01*
X64029Y-7974D01*
Y-9352D01*
X63110Y-6596D02*
Y-5678D01*
Y-6137D01*
X65865D01*
X65406Y-6596D01*
Y-4301D02*
X65865Y-3841D01*
Y-2923D01*
X65406Y-2464D01*
X63569D01*
X63110Y-2923D01*
Y-3841D01*
X63569Y-4301D01*
X65406D01*
X63110Y-1546D02*
X65865D01*
X64947Y-627D01*
X65865Y291D01*
X63110D01*
X68241Y53215D02*
X68700Y52755D01*
Y51837D01*
X68241Y51378D01*
X67782D01*
X67322Y51837D01*
Y52755D01*
X66863Y53215D01*
X66404D01*
X65945Y52755D01*
Y51837D01*
X66404Y51378D01*
X68700Y54133D02*
X65945D01*
X66863Y55051D01*
X65945Y55970D01*
X68700D01*
X65945Y56888D02*
Y57806D01*
Y57347D01*
X68700D01*
X68241Y56888D01*
Y59184D02*
X68700Y59643D01*
Y60561D01*
X68241Y61020D01*
X66404D01*
X65945Y60561D01*
Y59643D01*
X66404Y59184D01*
X68241D01*
X65945Y61939D02*
X68700D01*
X67782Y62857D01*
X68700Y63775D01*
X65945D01*
X142420Y6496D02*
X140124D01*
X139665Y6955D01*
Y7874D01*
X140124Y8333D01*
X142420D01*
X139665Y9251D02*
Y10169D01*
Y9710D01*
X142420D01*
X141961Y9251D01*
Y11547D02*
X142420Y12006D01*
Y12924D01*
X141961Y13384D01*
X140124D01*
X139665Y12924D01*
Y12006D01*
X140124Y11547D01*
X141961D01*
X139665Y14302D02*
X142420D01*
X141502Y15220D01*
X142420Y16139D01*
X139665D01*
X115685Y42689D02*
Y43148D01*
X116603Y44066D01*
X117522Y43148D01*
Y42689D01*
X116603Y44066D02*
Y45444D01*
X118440D02*
X119358D01*
X118899D01*
Y42689D01*
X118440Y43148D01*
X120736D02*
X121195Y42689D01*
X122113D01*
X122573Y43148D01*
Y44984D01*
X122113Y45444D01*
X121195D01*
X120736Y44984D01*
Y43148D01*
X123491Y45444D02*
Y42689D01*
X124409Y43607D01*
X125328Y42689D01*
Y45444D01*
X107382Y83858D02*
Y86810D01*
X105906D01*
X105414Y86318D01*
Y85334D01*
X105906Y84842D01*
X107382D01*
X104430Y83858D02*
Y85826D01*
X103446Y86810D01*
X102462Y85826D01*
Y83858D01*
Y85334D01*
X104430D01*
X101478Y86810D02*
X100494D01*
X100986D01*
Y83858D01*
X101478D01*
X100494D01*
X99018D02*
Y86810D01*
X97543D01*
X97051Y86318D01*
Y85334D01*
X97543Y84842D01*
X99018D01*
X98035D02*
X97051Y83858D01*
X75492Y68405D02*
Y71357D01*
X74016D01*
X73524Y70865D01*
Y69881D01*
X74016Y69389D01*
X75492D01*
X74508D02*
X73524Y68405D01*
X70573Y71357D02*
X72540D01*
Y68405D01*
X70573D01*
X72540Y69881D02*
X71556D01*
X67621Y70865D02*
X68113Y71357D01*
X69096D01*
X69589Y70865D01*
Y70373D01*
X69096Y69881D01*
X68113D01*
X67621Y69389D01*
Y68897D01*
X68113Y68405D01*
X69096D01*
X69589Y68897D01*
X64669Y71357D02*
X66637D01*
Y68405D01*
X64669D01*
X66637Y69881D02*
X65653D01*
X63685Y71357D02*
X61717D01*
X62701D01*
Y68405D01*
D64*
X190157Y74508D02*
G03*
X190157Y74508I-197J0D01*
G01*
D67*
X92002Y71438D02*
Y76556D01*
X137533Y39385D02*
Y40861D01*
X136057D02*
X137533D01*
X104856D02*
X106332D01*
X104856Y39385D02*
Y40861D01*
Y8184D02*
Y9660D01*
Y8184D02*
X106332D01*
X137533D02*
Y9660D01*
X136057Y8184D02*
X137533D01*
X153445Y56398D02*
X155118D01*
Y58071D01*
X153445Y69784D02*
X155118Y69784D01*
X155118Y68110D01*
X143701Y69784D02*
X145374Y69784D01*
X143701Y68110D02*
X143701Y69784D01*
Y56398D02*
X145374Y56398D01*
X143701Y56398D02*
X143701Y58071D01*
X196555Y17224D02*
Y62106D01*
D117*
X140584Y40270D02*
G03*
X140584Y40270I-492J0D01*
G01*
X154823Y54232D02*
G03*
X154823Y54232I-492J0D01*
G01*
D118*
X132741Y71144D02*
Y77837D01*
X112663Y71144D02*
X112663Y77837D01*
X116600Y64451D02*
X128804Y64451D01*
X116600Y84530D02*
X128804D01*
X94365Y53629D02*
Y60322D01*
X74287Y53629D02*
X74287Y60322D01*
X78224Y46936D02*
X90428Y46936D01*
X78224Y67015D02*
X90428D01*
D119*
X93110Y34351D02*
X92716Y33957D01*
X91929D01*
X91535Y34351D01*
Y35925D01*
X91929Y36319D01*
X92716D01*
X93110Y35925D01*
X95471Y36319D02*
X93897D01*
X95471Y34745D01*
Y34351D01*
X95078Y33957D01*
X94290D01*
X93897Y34351D01*
X96258D02*
X96652Y33957D01*
X97439D01*
X97833Y34351D01*
Y35925D01*
X97439Y36319D01*
X96652D01*
X96258Y35925D01*
Y34351D01*
X98620Y36319D02*
Y33957D01*
X99407Y34745D01*
X100194Y33957D01*
Y36319D01*
M02*
