G04 Layer_Physical_Order=2*
G04 Layer_Color=32768*
%FSLAX25Y25*%
%MOIN*%
G70*
G01*
G75*
%ADD15C,0.00591*%
%ADD20C,0.05906*%
%ADD27C,0.04000*%
%ADD28R,1.18686X0.98006*%
%ADD29R,0.15000X0.05000*%
%ADD30R,0.03150X0.05512*%
%ADD31R,0.13386X0.05512*%
%ADD32C,0.05118*%
G04:AMPARAMS|DCode=33|XSize=87.559mil|YSize=87.559mil|CornerRadius=0mil|HoleSize=0mil|Usage=FLASHONLY|Rotation=0.000|XOffset=0mil|YOffset=0mil|HoleType=Round|Shape=Relief|Width=10mil|Gap=10mil|Entries=4|*
%AMTHD33*
7,0,0,0.08756,0.06756,0.01000,45*
%
%ADD33THD33*%
%ADD34O,0.12205X0.06299*%
%ADD35C,0.06693*%
%ADD36C,0.05984*%
%ADD37C,0.03347*%
%ADD38C,0.03150*%
%ADD39C,0.03937*%
D15*
X177884Y82127D02*
X179721D01*
X177884Y80290D01*
Y79831D01*
X178343Y79372D01*
X179262D01*
X179721Y79831D01*
D20*
X142224Y-5965D02*
D03*
X132224D02*
D03*
X162224D02*
D03*
X152224D02*
D03*
X122224D02*
D03*
X112224D02*
D03*
X102224D02*
D03*
X92224D02*
D03*
X162402Y20669D02*
D03*
X182224Y-5965D02*
D03*
X172224D02*
D03*
X149114Y46161D02*
D03*
X158129Y79212D02*
D03*
X148129D02*
D03*
D27*
X-56777Y-11021D02*
X185830D01*
X196749Y-101D01*
Y78841D01*
X188605Y86986D02*
X196749Y78841D01*
X-56777Y86986D02*
X188605D01*
X-56777Y-11021D02*
Y86986D01*
D28*
X2566Y37982D02*
D03*
D29*
X161398Y11870D02*
D03*
D30*
X182083Y80946D02*
D03*
D31*
X170272Y80946D02*
D03*
D32*
X168898Y14370D02*
D03*
X163898D02*
D03*
X158898D02*
D03*
X153898D02*
D03*
X148898Y9370D02*
D03*
X153898D02*
D03*
X158898D02*
D03*
X163898D02*
D03*
X168898D02*
D03*
D33*
X148898Y14370D02*
D03*
D34*
X185728Y62106D02*
D03*
Y17224D02*
D03*
D35*
Y48524D02*
D03*
Y30807D02*
D03*
D36*
X177461Y25886D02*
D03*
Y35728D02*
D03*
Y43602D02*
D03*
Y53445D02*
D03*
D37*
X102466Y25789D02*
D03*
X133858Y4035D02*
D03*
X122146Y6791D02*
D03*
X103084Y43518D02*
D03*
X102397Y18406D02*
D03*
X100689Y16634D02*
D03*
X102559Y20866D02*
D03*
X85018Y80491D02*
D03*
X141794Y46740D02*
D03*
X142188Y65731D02*
D03*
X142680Y81180D02*
D03*
X144451Y29422D02*
D03*
X142090Y27552D02*
D03*
X94070Y20959D02*
D03*
X73013Y45264D02*
D03*
X119851Y81869D02*
D03*
X90528Y26174D02*
D03*
X86198Y-1181D02*
D03*
Y-3641D02*
D03*
Y-6790D02*
D03*
X91217Y7774D02*
D03*
X95350Y11414D02*
D03*
X91414Y14957D02*
D03*
X103222Y58351D02*
D03*
X98105Y55694D02*
D03*
X131561Y60713D02*
D03*
X111586Y53791D02*
D03*
X99443Y50113D02*
D03*
X94029Y35546D02*
D03*
X83345Y74587D02*
D03*
X137957Y7774D02*
D03*
X142133Y23623D02*
D03*
X143602Y21555D02*
D03*
X140157Y21752D02*
D03*
X146365Y21556D02*
D03*
X148622Y25492D02*
D03*
X148360Y28262D02*
D03*
X157382Y19094D02*
D03*
X157677Y24016D02*
D03*
X143110Y68602D02*
D03*
X69488Y32874D02*
D03*
X175591Y8366D02*
D03*
X190650Y7972D02*
D03*
X172933Y74705D02*
D03*
X192028Y68209D02*
D03*
X119291Y43406D02*
D03*
X121850Y42815D02*
D03*
X163189Y66535D02*
D03*
X169685Y17323D02*
D03*
X128937Y44291D02*
D03*
X101903Y35251D02*
D03*
X102592Y28853D02*
D03*
X141077Y54050D02*
D03*
X152789Y33184D02*
D03*
X138976Y71752D02*
D03*
X117913Y6168D02*
D03*
X68799Y38780D02*
D03*
X165453Y50098D02*
D03*
X168898Y54331D02*
D03*
X170669Y52854D02*
D03*
X171155Y55616D02*
D03*
X74344Y41648D02*
D03*
X100886Y1870D02*
D03*
D38*
X119620Y34759D02*
D03*
X115289D02*
D03*
X110958D02*
D03*
X119620Y30428D02*
D03*
X115289D02*
D03*
X110958Y30428D02*
D03*
X119620Y26097D02*
D03*
X115289D02*
D03*
X110958D02*
D03*
X131037Y22948D02*
D03*
X126706D02*
D03*
X122376D02*
D03*
X131037Y18617D02*
D03*
X126706D02*
D03*
X122376D02*
D03*
X131037Y14286D02*
D03*
X126706D02*
D03*
X122376D02*
D03*
X151378Y63090D02*
D03*
X147441D02*
D03*
D39*
X65339Y-477D02*
D03*
X58253D02*
D03*
Y-7563D02*
D03*
X65339D02*
D03*
Y18067D02*
D03*
X58253D02*
D03*
Y25153D02*
D03*
Y32240D02*
D03*
Y39327D02*
D03*
Y46413D02*
D03*
Y53500D02*
D03*
Y60586D02*
D03*
Y67673D02*
D03*
Y74760D02*
D03*
X65339Y25153D02*
D03*
Y32240D02*
D03*
Y39327D02*
D03*
Y46413D02*
D03*
Y53500D02*
D03*
Y60586D02*
D03*
Y67673D02*
D03*
Y74760D02*
D03*
M02*
