M48
;Layer_Color=9474304
;FILE_FORMAT=2:5
INCH,LZ
;TYPE=PLATED
T1F00S00C0.00787
T2F00S00C0.00984
T3F00S00C0.01575
T4F00S00C0.02756
T5F00S00C0.03543
T6F00S00C0.03622
;TYPE=NON_PLATED
T8F00S00C0.04331
%
T01
X0122376Y0014286
X0126706
X0131037
Y0018617
Y0022948
X0126706
Y0018617
X0122376
X0122376Y0022948
X011962Y0026097
X0115289
Y0030428
X011962
X011962Y0034759
X0115289
X0110958
Y0030428
Y0026097
X0147441Y006309
X0151378
T02
X0175591Y0008366
X0169685Y0017323
X019065Y0007972
X0137957Y0007774
X0133858Y0004035
X0131069Y0003739
X0122146Y0006791
X0117913Y0006168
X0100886Y000187
X0100689Y0016634
X009535Y0011414
X0091414Y0014957
X0091217Y0007774
X0086198Y-0001181
Y-0003641
Y-000679
X009407Y0020959
X0096727Y0020762
X0102559Y0020866
X0102397Y0018406
X0102466Y0025789
X0102592Y0028853
X0101903Y0035251
X0094029Y0035546
X0090528Y0026174
X0069488Y0032874
X0068799Y003878
X0074344Y0041648
X0073013Y0045264
X0099443Y0050113
X0098105Y0055694
X010027Y0059532
X0103222Y0058351
X0111586Y0053791
X0108006Y0043125
X0103084Y0043518
X0119291Y0043406
X012185Y0042815
X0128937Y0044291
X0136155Y0054494
X0141077Y005405
X0131561Y0060713
X0138976Y0071752
X0119851Y0081869
X0095743Y0081574
X0085018Y0080491
X0083345Y0074587
X0140157Y0021752
X0143602Y0021555
X0146365Y0021556
X0148622Y0025492
X014836Y0028262
X0144451Y0029422
X014209Y0027552
X0142133Y0023623
X0157677Y0024016
X0157382Y0019094
X0152789Y0033184
X0152717Y0038868
X0141794Y004674
X0143898Y0061024
X0142188Y0065731
X014311Y0068602
X014268Y008118
X0155512Y0062795
X0163583Y0063287
X0163189Y0066535
X0172933Y0074705
X0171155Y0055616
X0170669Y0052854
X0168898Y0054331
X0165453Y0050098
X0192028Y0068209
T03
X0058253Y-0007563
Y-0000477
X0065339
Y-0007563
Y0018067
X0058253
Y0025153
Y003224
X0065339
Y0025153
Y0039327
X0058253
Y0046413
X0065339
Y00535
X0058253
Y0060586
Y0067673
X0065339
Y0060586
Y007476
X0058253
T04
X0148898Y000937
Y001437
X0153898
X0158898
X0163898
X0168898
Y000937
X0163898
X0158898
X0153898
T05
X0142224Y-0005965
X0152224
X0162224
X0172224
X0182224
X0132224
X0122224
X0112224
X0102224
X0092224
X0162402Y0020669
X0149114Y0046161
X0148129Y0079212
X0158129
T06
X0177461Y0025886
Y0035728
Y0043602
Y0053445
T08
X0185728Y0030807
Y0048524
M30
