G04 Layer_Color=128*
%FSLAX25Y25*%
%MOIN*%
G70*
G01*
G75*
%ADD43R,0.03150X0.02362*%
%ADD44R,0.03150X0.02756*%
%ADD45R,0.02756X0.03150*%
%ADD46R,0.05118X0.05906*%
%ADD47R,0.02362X0.03150*%
%ADD48R,0.05906X0.05906*%
%ADD49R,0.03937X0.03937*%
%ADD50R,0.03937X0.03937*%
%ADD51R,0.05512X0.04724*%
%ADD52R,0.10906X0.11417*%
%ADD53O,0.02835X0.00984*%
%ADD54O,0.00984X0.02835*%
%ADD55R,0.10315X0.10315*%
%ADD56R,0.01378X0.01378*%
%ADD57R,0.03937X0.04331*%
%ADD58R,0.04331X0.03937*%
%ADD61R,0.04921X0.04134*%
%ADD62R,0.04134X0.08661*%
%ADD63R,0.03937X0.04134*%
%ADD113R,0.00984X0.01969*%
%ADD114R,0.00984X0.01969*%
%ADD115R,0.05610X0.04488*%
%ADD116R,0.01181X0.00000*%
D43*
X86494Y4133D02*
D03*
X81770D02*
D03*
X83071Y71161D02*
D03*
X87795D02*
D03*
X180315Y4331D02*
D03*
X175591D02*
D03*
X127657Y4134D02*
D03*
X122933D02*
D03*
X107809Y45782D02*
D03*
X103084D02*
D03*
X86811Y11417D02*
D03*
X91535D02*
D03*
X74311Y32972D02*
D03*
X79035D02*
D03*
X79069Y38696D02*
D03*
X74344D02*
D03*
X66321Y8954D02*
D03*
X71045D02*
D03*
X107809Y54444D02*
D03*
X103084D02*
D03*
X107809Y50113D02*
D03*
X103084D02*
D03*
X120638Y61992D02*
D03*
X125362D02*
D03*
X136155Y50900D02*
D03*
X140880D02*
D03*
X133793Y46570D02*
D03*
X138517D02*
D03*
X143110Y71752D02*
D03*
X147835D02*
D03*
D44*
X99777Y81672D02*
D03*
X104501D02*
D03*
X190256Y4331D02*
D03*
X185531D02*
D03*
X162894Y41535D02*
D03*
X158169D02*
D03*
X162894Y36811D02*
D03*
X158169D02*
D03*
X164075Y59547D02*
D03*
X168799D02*
D03*
D45*
X140220Y76751D02*
D03*
Y81476D02*
D03*
X105682Y67601D02*
D03*
Y62877D02*
D03*
X162697Y46457D02*
D03*
Y51181D02*
D03*
X157972Y51181D02*
D03*
Y46457D02*
D03*
X100958Y67601D02*
D03*
Y62877D02*
D03*
X139961Y67027D02*
D03*
Y62303D02*
D03*
X162992Y27165D02*
D03*
Y31890D02*
D03*
X158268Y31890D02*
D03*
Y27165D02*
D03*
D46*
X103223Y73997D02*
D03*
X95742D02*
D03*
D47*
X170177Y67421D02*
D03*
Y72146D02*
D03*
X87303Y20965D02*
D03*
Y25689D02*
D03*
X83760Y38287D02*
D03*
Y33563D02*
D03*
X75787Y16043D02*
D03*
Y11319D02*
D03*
X77067Y26575D02*
D03*
Y21850D02*
D03*
X94029Y43420D02*
D03*
Y38696D02*
D03*
X98360Y43420D02*
D03*
Y38696D02*
D03*
X99147Y20585D02*
D03*
Y25310D02*
D03*
X131431Y51294D02*
D03*
Y56018D02*
D03*
X143242Y38302D02*
D03*
Y33577D02*
D03*
D48*
X133529Y67207D02*
D03*
Y81774D02*
D03*
X111875Y67207D02*
D03*
X111875Y81774D02*
D03*
X95153Y49692D02*
D03*
Y64259D02*
D03*
X73499Y49692D02*
D03*
X73499Y64259D02*
D03*
D49*
X158563Y60138D02*
D03*
Y66437D02*
D03*
X148360Y33184D02*
D03*
Y39483D02*
D03*
X56292Y8437D02*
D03*
X61792Y21937D02*
D03*
Y-3563D02*
D03*
D50*
X152756Y53347D02*
D03*
X146457D02*
D03*
D51*
X116506Y49690D02*
D03*
X125167Y55990D02*
D03*
X125167Y49690D02*
D03*
X116506Y55990D02*
D03*
D52*
X126706Y18617D02*
D03*
D53*
X136470Y37318D02*
D03*
Y35349D02*
D03*
Y33381D02*
D03*
Y31412D02*
D03*
Y29444D02*
D03*
Y27475D02*
D03*
Y25507D02*
D03*
Y23538D02*
D03*
Y21570D02*
D03*
Y19601D02*
D03*
Y17633D02*
D03*
Y15664D02*
D03*
Y13696D02*
D03*
Y11727D02*
D03*
X105919D02*
D03*
Y13696D02*
D03*
Y15664D02*
D03*
Y17633D02*
D03*
Y19601D02*
D03*
Y21570D02*
D03*
Y23538D02*
D03*
Y25507D02*
D03*
Y27475D02*
D03*
Y29444D02*
D03*
Y31412D02*
D03*
Y33381D02*
D03*
Y35349D02*
D03*
Y37318D02*
D03*
D54*
X133990Y9247D02*
D03*
X132021D02*
D03*
X130053D02*
D03*
X128084D02*
D03*
X126116D02*
D03*
X124147D02*
D03*
X122179D02*
D03*
X120210D02*
D03*
X118242D02*
D03*
X116273D02*
D03*
X114305D02*
D03*
X112336D02*
D03*
X110368D02*
D03*
X108399D02*
D03*
Y39798D02*
D03*
X110368D02*
D03*
X112336D02*
D03*
X114305D02*
D03*
X116273D02*
D03*
X118242D02*
D03*
X120210D02*
D03*
X122179D02*
D03*
X124147D02*
D03*
X126116D02*
D03*
X128084D02*
D03*
X130053D02*
D03*
X132021D02*
D03*
X133990D02*
D03*
D55*
X115289Y30428D02*
D03*
D56*
X114305Y17633D02*
D03*
X110368D02*
D03*
X114305Y13696D02*
D03*
X110368D02*
D03*
D57*
X81168Y15340D02*
D03*
Y9434D02*
D03*
X82185Y27657D02*
D03*
Y21752D02*
D03*
X88911Y43223D02*
D03*
Y37318D02*
D03*
D58*
X98163Y31215D02*
D03*
X92258D02*
D03*
D61*
X187894Y71260D02*
D03*
X176673D02*
D03*
D62*
X70276Y-5413D02*
D03*
X81890D02*
D03*
D63*
X76083Y591D02*
D03*
D113*
X152362Y68012D02*
D03*
X152362Y58170D02*
D03*
D114*
X150395Y68010D02*
D03*
X148424Y68012D02*
D03*
X146456Y68010D02*
D03*
X150397Y58170D02*
D03*
X148425Y58169D02*
D03*
X146459Y58169D02*
D03*
D115*
X149415Y63091D02*
D03*
D116*
X149409Y63090D02*
D03*
M02*
