G04 Layer_Physical_Order=4*
G04 Layer_Color=16711680*
%FSLAX25Y25*%
%MOIN*%
G70*
G01*
G75*
%ADD12C,0.00492*%
%ADD13C,0.01181*%
%ADD14C,0.03937*%
%ADD15C,0.00591*%
%ADD17R,0.05906X0.05906*%
%ADD18C,0.03543*%
%ADD19R,0.03543X0.03543*%
%ADD20C,0.05906*%
%ADD21O,0.19685X0.07874*%
%ADD22C,0.00394*%
%ADD23O,0.07874X0.05118*%
%ADD24O,0.06299X0.05118*%
%ADD25C,0.01969*%
%ADD26C,0.03150*%
%ADD43R,0.03150X0.02362*%
%ADD44R,0.03150X0.02756*%
%ADD45R,0.02756X0.03150*%
%ADD46R,0.05118X0.05906*%
%ADD47R,0.02362X0.03150*%
%ADD48R,0.05906X0.05906*%
%ADD49R,0.03937X0.03937*%
%ADD50R,0.03937X0.03937*%
%ADD51R,0.05512X0.04724*%
%ADD52R,0.10906X0.11417*%
%ADD53O,0.02835X0.00984*%
%ADD54O,0.00984X0.02835*%
%ADD55R,0.10315X0.10315*%
%ADD56R,0.01378X0.01378*%
%ADD57R,0.03937X0.04331*%
%ADD58R,0.04331X0.03937*%
%ADD59R,0.00984X0.01969*%
%ADD60R,0.05906X0.04724*%
%ADD61R,0.04921X0.04134*%
%ADD62R,0.04134X0.08661*%
%ADD63R,0.03937X0.04134*%
%ADD64C,0.01969*%
%ADD65C,0.01575*%
%ADD66C,0.00610*%
%ADD67C,0.00787*%
%ADD68R,0.91339X0.05906*%
%ADD69R,0.91339X0.17323*%
%ADD70R,0.14055X0.06299*%
%ADD71R,0.07441X0.06000*%
%ADD72R,0.07441X0.05500*%
%ADD73R,0.10630X0.05000*%
%ADD74R,0.07441X0.07000*%
%ADD75R,0.07441X0.06500*%
%ADD76R,0.15605X0.65818*%
%ADD77R,0.15605X0.12586*%
G36*
X152025Y37199D02*
X152717Y37062D01*
X152785Y37075D01*
X153572Y36434D01*
Y27616D01*
X151177Y25221D01*
X150695Y25396D01*
X150413Y25570D01*
X150291Y26183D01*
X149899Y26769D01*
X149313Y27161D01*
X148622Y27299D01*
X147931Y27161D01*
X147345Y26769D01*
X147205Y26560D01*
X144857D01*
X144406Y27331D01*
X144598Y27644D01*
X145142Y27753D01*
X145729Y28144D01*
X146120Y28730D01*
X146258Y29422D01*
X146214Y29640D01*
X146784Y30428D01*
X147868D01*
Y33184D01*
Y35940D01*
X146494D01*
X146266Y36333D01*
X146494Y36727D01*
X151116D01*
Y36924D01*
X151903Y37281D01*
X152025Y37199D01*
D02*
G37*
G36*
X92848Y26097D02*
X97179D01*
Y25802D01*
X99147D01*
Y24818D01*
X97179D01*
Y22955D01*
X97121D01*
X96583Y22848D01*
X96127Y22543D01*
X96105Y22521D01*
X95348Y22237D01*
X94762Y22628D01*
X94070Y22766D01*
X93379Y22628D01*
X92793Y22237D01*
X92421Y21680D01*
X92362Y21668D01*
X91634Y21845D01*
Y25689D01*
X89272D01*
Y27686D01*
X89288Y28062D01*
X89890Y28459D01*
X92848D01*
Y26097D01*
D02*
G37*
G36*
X156102Y24803D02*
Y24803D01*
X156102Y24803D01*
X158037D01*
X158661Y24409D01*
Y16929D01*
X158661Y16929D01*
X158230Y16863D01*
X157956Y16750D01*
X157607Y16605D01*
X157072Y16195D01*
X156872Y15934D01*
X156718Y15877D01*
X156078D01*
X155923Y15934D01*
X155723Y16195D01*
X155188Y16605D01*
X154566Y16863D01*
X154390Y16886D01*
Y14370D01*
X153405D01*
Y16886D01*
X153230Y16863D01*
X152607Y16605D01*
X152244Y16327D01*
X151665Y16515D01*
X151457Y16680D01*
Y16929D01*
X148287D01*
X147985Y17657D01*
X155416Y25087D01*
X156102Y24803D01*
D02*
G37*
G36*
X195437Y78298D02*
Y66136D01*
X194649Y65748D01*
X194017Y66233D01*
X192867Y66709D01*
X191634Y66872D01*
X179823D01*
X178589Y66709D01*
X177440Y66233D01*
X176453Y65476D01*
X175696Y64489D01*
X175220Y63340D01*
X175058Y62106D01*
X175220Y60873D01*
X175696Y59724D01*
X176453Y58737D01*
X177440Y57980D01*
X178338Y57608D01*
X178182Y56820D01*
X177953D01*
Y53937D01*
X182149D01*
X182099Y54318D01*
X181762Y55133D01*
X181225Y55832D01*
X180526Y56368D01*
X180078Y56554D01*
X180235Y57341D01*
X186341D01*
X189343Y54339D01*
Y49471D01*
X188605Y49294D01*
X188308Y50013D01*
X187834Y50630D01*
X187217Y51103D01*
X186499Y51400D01*
X185728Y51502D01*
X184958Y51400D01*
X184239Y51103D01*
X183622Y50630D01*
X183149Y50013D01*
X182852Y49294D01*
X182750Y48524D01*
X182852Y47753D01*
X182886Y47671D01*
X182218Y47225D01*
X180666Y48777D01*
X180324Y49005D01*
X179921Y49085D01*
X179921Y49085D01*
X174902D01*
X174902Y49085D01*
X174498Y49005D01*
X174156Y48777D01*
X174156Y48777D01*
X167969Y42589D01*
X165813D01*
X165256Y43146D01*
X165256Y43701D01*
X164862Y44325D01*
X164862Y44488D01*
Y48819D01*
X164862D01*
Y48819D01*
X164862Y48819D01*
Y50689D01*
X162697D01*
Y51673D01*
X164862D01*
Y53320D01*
X166629D01*
X166786Y52941D01*
X167227Y52365D01*
X168704Y50889D01*
X169279Y50447D01*
X169950Y50169D01*
X170669Y50075D01*
X171389Y50169D01*
X172059Y50447D01*
X172635Y50889D01*
X172734Y51018D01*
X173688Y51058D01*
X173717Y51042D01*
X174395Y50522D01*
X175209Y50185D01*
X176083Y50069D01*
X176969D01*
Y53445D01*
Y56820D01*
X176083D01*
X175209Y56705D01*
X174610Y56457D01*
X174543Y56447D01*
X173958Y56617D01*
X173652Y56790D01*
X173563Y57006D01*
X173157Y57535D01*
Y64173D01*
X173050Y64711D01*
X172745Y65167D01*
X172146Y65766D01*
Y66419D01*
X174133Y68405D01*
X179921D01*
Y74114D01*
X173425D01*
Y71672D01*
X172873Y71120D01*
X172146Y71421D01*
Y71653D01*
X168209D01*
Y70817D01*
X167421Y70491D01*
X165216Y72696D01*
X164760Y73001D01*
X164222Y73108D01*
X153387D01*
X152849Y73001D01*
X152393Y72696D01*
X150924Y71227D01*
X150197Y71529D01*
Y73721D01*
X143602D01*
Y71752D01*
X142618D01*
Y73846D01*
X142385Y74389D01*
X142385Y74508D01*
Y78326D01*
X142385Y79114D01*
X142385Y79901D01*
Y80984D01*
X140220D01*
Y81476D01*
X139728D01*
Y83838D01*
X138056D01*
X137269Y83842D01*
X137269Y85514D01*
X137991Y85673D01*
X188061D01*
X195437Y78298D01*
D02*
G37*
G36*
X129789Y63467D02*
X137008D01*
X137269Y63467D01*
X137795Y62898D01*
Y59941D01*
X138501D01*
X138828Y59153D01*
X135930Y56256D01*
X135464Y56163D01*
X134878Y55772D01*
X134486Y55186D01*
X134349Y54494D01*
X134430Y54087D01*
X134028Y53395D01*
X134012Y53382D01*
X133399Y53986D01*
Y55526D01*
X131431D01*
Y56018D01*
X130939D01*
Y58381D01*
X129498D01*
X129462Y58381D01*
X128710Y58466D01*
Y59139D01*
X125659D01*
Y55990D01*
X124675D01*
Y59139D01*
X122585D01*
X122120Y59927D01*
X122173Y60023D01*
X124870D01*
Y61992D01*
Y63960D01*
X118276D01*
Y60023D01*
X118276Y60023D01*
X118090Y59409D01*
X118037Y59139D01*
X112962D01*
Y52022D01*
X112235Y51721D01*
X110171Y53785D01*
Y56412D01*
X104926D01*
X104725Y56723D01*
X104583Y57200D01*
X104891Y57660D01*
X105028Y58351D01*
X104975Y58615D01*
X106722Y60361D01*
X106722Y60361D01*
X106825Y60515D01*
X107847D01*
Y62799D01*
X108135Y63467D01*
X108634Y63467D01*
X115615D01*
Y65802D01*
X129789D01*
Y63467D01*
D02*
G37*
G36*
X145374Y49902D02*
X145374Y49803D01*
Y42931D01*
X145374Y42421D01*
X145604Y41729D01*
Y41288D01*
X145210Y40664D01*
X141273D01*
Y38522D01*
X137896D01*
X137895Y38523D01*
X137395Y38622D01*
X136047D01*
X135483Y38810D01*
X135294Y39375D01*
Y40723D01*
X135195Y41222D01*
X135194Y41224D01*
Y44601D01*
X138025D01*
Y46570D01*
X138517D01*
Y47062D01*
X140880D01*
Y48538D01*
X141504Y48932D01*
X143242D01*
Y49993D01*
X143701Y50591D01*
X144029Y50591D01*
X145136D01*
X145374Y49902D01*
D02*
G37*
G36*
X133491Y37668D02*
X133990Y37568D01*
X134240Y37318D01*
X134340Y36818D01*
X134623Y36395D01*
Y36272D01*
X134340Y35848D01*
X134338Y35841D01*
X136470D01*
Y34857D01*
X134338D01*
X134340Y34850D01*
X134623Y34427D01*
Y34303D01*
X134340Y33880D01*
X134338Y33873D01*
X136470D01*
Y32888D01*
X134338D01*
X134340Y32881D01*
X134623Y32458D01*
Y32335D01*
X134340Y31911D01*
X134338Y31904D01*
X136470D01*
Y30920D01*
X134338D01*
X134340Y30913D01*
X134623Y30490D01*
Y30366D01*
X134340Y29943D01*
X134240Y29444D01*
X134340Y28944D01*
X134623Y28521D01*
Y28398D01*
X134340Y27974D01*
X134240Y27475D01*
X134340Y26976D01*
X134623Y26553D01*
Y26429D01*
X134340Y26006D01*
X134240Y25507D01*
X134340Y25007D01*
X134623Y24584D01*
Y24461D01*
X134340Y24037D01*
X134240Y23538D01*
X134340Y23039D01*
X134623Y22616D01*
Y22492D01*
X134340Y22069D01*
X134240Y21570D01*
X134340Y21070D01*
X134623Y20647D01*
Y20524D01*
X134340Y20100D01*
X134240Y19601D01*
X134340Y19102D01*
X134623Y18679D01*
Y18555D01*
X134340Y18132D01*
X134240Y17633D01*
X134340Y17133D01*
X134623Y16710D01*
Y16587D01*
X134340Y16163D01*
X134240Y15664D01*
X134340Y15165D01*
X134623Y14742D01*
Y14618D01*
X134340Y14195D01*
X134240Y13696D01*
X134340Y13196D01*
X134623Y12773D01*
Y12650D01*
X134340Y12226D01*
X134240Y11727D01*
X133507Y11380D01*
X133491Y11377D01*
X133437Y11342D01*
X133257Y11424D01*
X132947Y12121D01*
X132947Y12121D01*
Y18125D01*
X120466D01*
Y12229D01*
X120342Y11863D01*
X120150Y11464D01*
X119711Y11377D01*
X119288Y11095D01*
X119164D01*
X118741Y11377D01*
X118242Y11477D01*
X117743Y11377D01*
X117319Y11095D01*
X117196D01*
X116773Y11377D01*
X116273Y11477D01*
X115774Y11377D01*
X115351Y11095D01*
X115227D01*
X114820Y11366D01*
X114804Y11377D01*
X114804Y11377D01*
X114531Y11441D01*
X114607Y12219D01*
X115781D01*
Y15172D01*
X112829D01*
Y12219D01*
X114002D01*
X114079Y11441D01*
X113806Y11377D01*
X113806Y11377D01*
X113789Y11366D01*
X113382Y11095D01*
X113259D01*
X112836Y11377D01*
X112336Y11477D01*
X111837Y11377D01*
X111414Y11095D01*
X111290D01*
X110867Y11377D01*
X110593Y11432D01*
X110670Y12219D01*
X111844D01*
Y15172D01*
X108891D01*
Y13998D01*
X108104Y13920D01*
X108049Y14195D01*
X107767Y14618D01*
Y14742D01*
X108049Y15165D01*
X108149Y15664D01*
X108049Y16163D01*
X107767Y16587D01*
Y16710D01*
X108039Y17117D01*
X108049Y17133D01*
X108049Y17133D01*
X108113Y17407D01*
X108891Y17330D01*
Y16156D01*
X111844D01*
Y19109D01*
X108891D01*
Y17935D01*
X108113Y17858D01*
X108049Y18132D01*
X108049Y18132D01*
X108039Y18148D01*
X107767Y18555D01*
Y18679D01*
X108049Y19102D01*
X108149Y19601D01*
X108049Y20100D01*
X107767Y20524D01*
Y20647D01*
X108049Y21070D01*
X108149Y21570D01*
X108049Y22069D01*
X107767Y22492D01*
Y22616D01*
X108049Y23039D01*
X108149Y23538D01*
X108049Y24037D01*
X107767Y24461D01*
Y24584D01*
X108049Y25007D01*
X108051Y25014D01*
X105919D01*
Y25999D01*
X108051D01*
X108049Y26006D01*
X107767Y26429D01*
Y26553D01*
X108049Y26976D01*
X108149Y27475D01*
X108127Y27582D01*
X108564Y27884D01*
X109344Y27520D01*
Y24483D01*
X114797D01*
Y30428D01*
Y36373D01*
X109344D01*
Y35304D01*
X108564Y34940D01*
X108127Y35242D01*
X108149Y35349D01*
X108049Y35848D01*
X107767Y36272D01*
Y36395D01*
X108049Y36818D01*
X108053Y36834D01*
X108319Y37398D01*
X108883Y37664D01*
X108899Y37668D01*
X109322Y37950D01*
X109445D01*
X109869Y37668D01*
X110368Y37568D01*
X110867Y37668D01*
X111290Y37950D01*
X111414D01*
X111837Y37668D01*
X112336Y37568D01*
X112836Y37668D01*
X113259Y37950D01*
X113382D01*
X113806Y37668D01*
X114305Y37568D01*
X114804Y37668D01*
X115227Y37950D01*
X115351D01*
X115774Y37668D01*
X116273Y37568D01*
X116773Y37668D01*
X117196Y37950D01*
X117319D01*
X117743Y37668D01*
X118242Y37568D01*
X118741Y37668D01*
X119164Y37950D01*
X119288D01*
X119711Y37668D01*
X120210Y37568D01*
X120710Y37668D01*
X121133Y37950D01*
X121256D01*
X121680Y37668D01*
X122179Y37568D01*
X122678Y37668D01*
X123101Y37950D01*
X123225D01*
X123648Y37668D01*
X124147Y37568D01*
X124647Y37668D01*
X125070Y37950D01*
X125193D01*
X125617Y37668D01*
X126116Y37568D01*
X126615Y37668D01*
X127038Y37950D01*
X127162D01*
X127585Y37668D01*
X128084Y37568D01*
X128584Y37668D01*
X129007Y37950D01*
X129130D01*
X129554Y37668D01*
X130053Y37568D01*
X130552Y37668D01*
X130975Y37950D01*
X131099D01*
X131522Y37668D01*
X132021Y37568D01*
X132521Y37668D01*
X132944Y37950D01*
X133067D01*
X133491Y37668D01*
D02*
G37*
G36*
X108135Y85514D02*
X108135Y84886D01*
Y82726D01*
X106864D01*
Y83837D01*
X102927D01*
X102139Y83837D01*
X101352Y83837D01*
X97415D01*
Y83412D01*
X96627Y83113D01*
X96434Y83242D01*
X95743Y83380D01*
X95052Y83242D01*
X94466Y82851D01*
X94074Y82265D01*
X93937Y81574D01*
X94074Y80882D01*
X94466Y80296D01*
X95052Y79905D01*
X95743Y79767D01*
X96434Y79905D01*
X96627Y80034D01*
X97415Y79735D01*
Y79507D01*
X101352D01*
X102139Y79507D01*
X102927Y79507D01*
X106864D01*
Y80618D01*
X108135D01*
Y78034D01*
X115615D01*
Y80720D01*
X118488D01*
X118574Y80591D01*
X119160Y80200D01*
X119851Y80062D01*
X120543Y80200D01*
X121128Y80591D01*
X121215Y80720D01*
X129789D01*
Y78034D01*
X137267D01*
X138055Y78030D01*
Y76573D01*
X132535Y71054D01*
X132464Y70947D01*
X129789D01*
Y68612D01*
X115615D01*
Y70947D01*
X108135D01*
Y70632D01*
X107969Y70246D01*
X107273Y70056D01*
X106569Y70507D01*
Y77737D01*
X99876D01*
Y71172D01*
X99482Y70948D01*
X99089Y71172D01*
Y73505D01*
X96234D01*
Y70257D01*
X98127D01*
X98793Y69964D01*
X98793Y69526D01*
Y68556D01*
X98236Y67999D01*
X92408D01*
X90158Y70249D01*
Y73130D01*
X89614D01*
Y76948D01*
X89614Y76948D01*
X89534Y77351D01*
X89306Y77693D01*
X89306Y77693D01*
X86772Y80228D01*
X86824Y80491D01*
X86686Y81182D01*
X86295Y81769D01*
X85709Y82160D01*
X85018Y82298D01*
X84326Y82160D01*
X83740Y81769D01*
X83349Y81182D01*
X83211Y80491D01*
X83349Y79800D01*
X83740Y79214D01*
X84326Y78822D01*
X85018Y78685D01*
X85281Y78737D01*
X87507Y76512D01*
Y73130D01*
X83563D01*
Y71161D01*
Y69193D01*
X88234D01*
X91326Y66100D01*
X91204Y65313D01*
X77239D01*
Y67999D01*
X69759D01*
Y60519D01*
X77239D01*
Y63205D01*
X91413D01*
Y60519D01*
X93312D01*
Y59434D01*
X93312Y59434D01*
X93392Y59030D01*
X93621Y58688D01*
X96351Y55958D01*
X96298Y55694D01*
X96436Y55003D01*
X96828Y54417D01*
X97123Y54220D01*
X96884Y53432D01*
X95645D01*
Y50184D01*
X98893D01*
Y53242D01*
X98893Y53432D01*
X99012Y54170D01*
X99382Y54417D01*
X99774Y55003D01*
X99911Y55694D01*
X99774Y56386D01*
X99382Y56972D01*
X98796Y57363D01*
X98105Y57501D01*
X97841Y57448D01*
X95558Y59731D01*
X95754Y60519D01*
X97918D01*
X97926Y60515D01*
X98503Y59731D01*
X98463Y59532D01*
X98601Y58841D01*
X98992Y58255D01*
X99578Y57863D01*
X100270Y57726D01*
X100719Y57815D01*
X101331Y57701D01*
X101690Y57128D01*
X101316Y56412D01*
X100722D01*
Y54936D01*
X103084D01*
Y53952D01*
X100722D01*
Y52869D01*
X100722Y52475D01*
X100722D01*
X100722Y52081D01*
X100722Y52081D01*
Y50605D01*
X103084D01*
Y49621D01*
X100722D01*
Y48538D01*
X100722Y48144D01*
X100722D01*
X100722Y47751D01*
X100722Y47751D01*
Y46406D01*
X100329Y45782D01*
X99610D01*
X98893Y45952D01*
Y49200D01*
X91413D01*
Y46634D01*
X91413Y46176D01*
X90972Y46176D01*
X86155D01*
Y41260D01*
X85728Y40650D01*
X85525Y40650D01*
X81791D01*
X81791Y40650D01*
X81431Y40664D01*
Y40664D01*
X81010Y40664D01*
X76706D01*
Y40664D01*
X76706D01*
X76706Y40664D01*
X74836D01*
Y38696D01*
X74344D01*
Y38203D01*
X71982D01*
Y36727D01*
X74311D01*
Y34941D01*
X71949D01*
Y31004D01*
X72736D01*
Y27589D01*
X72684Y27462D01*
X72565Y26560D01*
X72684Y25658D01*
X72736Y25532D01*
Y20768D01*
X71457D01*
Y13285D01*
X68799D01*
Y85673D01*
X107413D01*
X108135Y85514D01*
D02*
G37*
G36*
X172822Y25012D02*
X173160Y24198D01*
X173696Y23499D01*
X174395Y22963D01*
X175209Y22625D01*
X176083Y22511D01*
X178182D01*
X178338Y21723D01*
X177440Y21351D01*
X176453Y20594D01*
X175696Y19607D01*
X175220Y18458D01*
X175058Y17224D01*
X175220Y15991D01*
X175696Y14842D01*
X176453Y13855D01*
X177440Y13098D01*
X178589Y12622D01*
X179823Y12459D01*
X181863D01*
Y6783D01*
X181379Y6299D01*
X176083D01*
Y4331D01*
Y2362D01*
X182463D01*
X183169Y2165D01*
X183169Y2165D01*
X183169Y2165D01*
X187106D01*
X187894Y2165D01*
X188681Y2165D01*
X189764D01*
Y4331D01*
Y6496D01*
X188681D01*
X187894Y6496D01*
X187106Y6496D01*
X184959D01*
X184673Y6783D01*
Y12459D01*
X191634D01*
X192867Y12622D01*
X194017Y13098D01*
X194649Y13583D01*
X195437Y13195D01*
Y442D01*
X186692Y-8302D01*
X185965Y-8001D01*
Y-2224D01*
X178518D01*
X174659Y1635D01*
X174960Y2362D01*
X175098D01*
Y3839D01*
X172850D01*
X172724Y3745D01*
X172516Y3646D01*
X172441Y3645D01*
X172155Y3701D01*
X172155Y3701D01*
X136199D01*
X135732Y4346D01*
X136221Y4997D01*
X138670D01*
X138670Y4997D01*
X139074Y5078D01*
X139415Y5306D01*
X145659Y11550D01*
X146030Y11692D01*
X146364Y11531D01*
X146662Y10661D01*
X146405Y10038D01*
X146317Y9370D01*
X146405Y8702D01*
X146662Y8079D01*
X147073Y7545D01*
X147607Y7135D01*
X148230Y6877D01*
X148898Y6789D01*
X149566Y6877D01*
X150188Y7135D01*
X150723Y7545D01*
X150923Y7806D01*
X151078Y7863D01*
X151717D01*
X151872Y7806D01*
X152073Y7545D01*
X152607Y7135D01*
X153230Y6877D01*
X153898Y6789D01*
X154566Y6877D01*
X155188Y7135D01*
X155723Y7545D01*
X155923Y7806D01*
X156078Y7863D01*
X156718D01*
X156872Y7806D01*
X157072Y7545D01*
X157607Y7135D01*
X158230Y6877D01*
X158898Y6789D01*
X159566Y6877D01*
X160188Y7135D01*
X160723Y7545D01*
X160923Y7806D01*
X161078Y7863D01*
X161717D01*
X161872Y7806D01*
X162073Y7545D01*
X162607Y7135D01*
X163230Y6877D01*
X163898Y6789D01*
X164566Y6877D01*
X165188Y7135D01*
X165723Y7545D01*
X165923Y7806D01*
X166078Y7863D01*
X166718D01*
X166872Y7806D01*
X167072Y7545D01*
X167607Y7135D01*
X168230Y6877D01*
X168898Y6789D01*
X169566Y6877D01*
X170188Y7135D01*
X170723Y7545D01*
X171133Y8079D01*
X171391Y8702D01*
X171479Y9370D01*
X171391Y10038D01*
X171133Y10661D01*
X170723Y11195D01*
X170461Y11396D01*
X170404Y11550D01*
Y12190D01*
X170461Y12344D01*
X170723Y12545D01*
X171133Y13080D01*
X171391Y13702D01*
X171414Y13878D01*
X168898D01*
Y14370D01*
X168405D01*
Y16886D01*
X168230Y16863D01*
X167607Y16605D01*
X167072Y16195D01*
X166538Y16104D01*
X166175Y16144D01*
X166170Y16153D01*
X166142Y16929D01*
X166142D01*
Y24409D01*
X166142D01*
X165679Y25154D01*
X165740Y25367D01*
X172776D01*
X172822Y25012D01*
D02*
G37*
G36*
X92421Y20238D02*
X92793Y19682D01*
X93379Y19290D01*
X94070Y19153D01*
X94215Y19182D01*
X99280Y14117D01*
X99280Y14117D01*
X99621Y13889D01*
X100025Y13808D01*
X103597D01*
X103689Y13696D01*
X103789Y13196D01*
X104071Y12773D01*
Y12650D01*
X103789Y12226D01*
X103689Y11727D01*
X103789Y11228D01*
X104071Y10805D01*
X104495Y10522D01*
X104865Y10448D01*
Y833D01*
X104865Y833D01*
X104946Y430D01*
X105174Y88D01*
X108484Y-3223D01*
Y-9705D01*
X107698Y-9708D01*
X106751D01*
X105965Y-9705D01*
X105965Y-8921D01*
Y-2224D01*
X98484D01*
Y-8921D01*
X98484Y-9705D01*
X97698Y-9708D01*
X96750D01*
X95965Y-9705D01*
X95965Y-8921D01*
Y-2224D01*
X88484D01*
Y-8921D01*
X88484Y-9705D01*
X87698Y-9708D01*
X85301D01*
X84744Y-9151D01*
Y-5906D01*
X79035D01*
Y-9708D01*
X73130D01*
Y-5906D01*
X70276D01*
Y-4921D01*
X73130D01*
Y-2970D01*
X73327Y-2264D01*
X78839D01*
X79035Y-2970D01*
Y-4921D01*
X84744D01*
Y-295D01*
X85491Y-198D01*
X91219D01*
Y7087D01*
X91535D01*
Y9449D01*
X93898D01*
Y13386D01*
X91535D01*
Y15748D01*
X91536Y15748D01*
X91634Y16240D01*
X91634Y16240D01*
X91634Y16495D01*
Y20074D01*
X92362Y20251D01*
X92421Y20238D01*
D02*
G37*
%LPC*%
G36*
X77239Y49200D02*
X73991D01*
Y45952D01*
X77239D01*
Y49200D01*
D02*
G37*
G36*
X192618Y3839D02*
X190748D01*
Y2165D01*
X192618D01*
Y3839D01*
D02*
G37*
G36*
X175098Y6299D02*
X173228D01*
Y4823D01*
X175098D01*
Y6299D01*
D02*
G37*
G36*
X140880Y46077D02*
X139010D01*
Y44601D01*
X140880D01*
Y46077D01*
D02*
G37*
G36*
X73007Y49200D02*
X69759D01*
Y45952D01*
X73007D01*
Y49200D01*
D02*
G37*
G36*
X73852Y40664D02*
X71982D01*
Y39188D01*
X73852D01*
Y40664D01*
D02*
G37*
G36*
X121234Y29936D02*
X115781D01*
Y24483D01*
X120466D01*
Y19109D01*
X126214D01*
Y25113D01*
X121234D01*
Y29936D01*
D02*
G37*
G36*
X132947Y25113D02*
X127199D01*
Y19109D01*
X132947D01*
Y25113D01*
D02*
G37*
G36*
X169390Y16886D02*
Y14862D01*
X171414D01*
X171391Y15038D01*
X171133Y15661D01*
X170723Y16195D01*
X170188Y16605D01*
X169566Y16863D01*
X169390Y16886D01*
D02*
G37*
G36*
X115781Y19109D02*
X112829D01*
Y16156D01*
X115781D01*
Y19109D01*
D02*
G37*
G36*
X121234Y36373D02*
X115781D01*
Y30920D01*
X121234D01*
Y36373D01*
D02*
G37*
G36*
X151116Y35940D02*
X148852D01*
Y33676D01*
X151116D01*
Y35940D01*
D02*
G37*
G36*
X190748Y6496D02*
Y4823D01*
X192618D01*
Y6496D01*
X190748D01*
D02*
G37*
G36*
X151116Y32692D02*
X148852D01*
Y30428D01*
X151116D01*
Y32692D01*
D02*
G37*
G36*
X182149Y52953D02*
X177953D01*
Y50069D01*
X178839D01*
X179712Y50185D01*
X180526Y50522D01*
X181225Y51058D01*
X181762Y51757D01*
X182099Y52571D01*
X182149Y52953D01*
D02*
G37*
G36*
X172146Y74508D02*
X170669D01*
Y72638D01*
X172146D01*
Y74508D01*
D02*
G37*
G36*
X95250Y77737D02*
X92396D01*
Y74489D01*
X95250D01*
Y77737D01*
D02*
G37*
G36*
X169685Y74508D02*
X168209D01*
Y72638D01*
X169685D01*
Y74508D01*
D02*
G37*
G36*
X187402Y74114D02*
X184646D01*
Y71752D01*
X187402D01*
Y74114D01*
D02*
G37*
G36*
X191142D02*
X188386D01*
Y71752D01*
X191142D01*
Y74114D01*
D02*
G37*
G36*
X163579Y84883D02*
Y78645D01*
X163579Y78190D01*
X163908Y77994D01*
X163908Y77994D01*
X164286Y77994D01*
X168500D01*
Y78190D01*
X183658Y78190D01*
Y84883D01*
X163579Y84883D01*
D02*
G37*
G36*
X140712Y83838D02*
Y81968D01*
X142385D01*
Y83838D01*
X140712D01*
D02*
G37*
G36*
X151869Y82952D02*
X144389D01*
Y75472D01*
X151869D01*
Y82952D01*
D02*
G37*
G36*
X99089Y77737D02*
X96234D01*
Y74489D01*
X99089D01*
Y77737D01*
D02*
G37*
G36*
X158129Y82984D02*
X157152Y82856D01*
X156243Y82479D01*
X155461Y81880D01*
X154862Y81098D01*
X154485Y80188D01*
X154356Y79212D01*
X154485Y78236D01*
X154862Y77326D01*
X155461Y76544D01*
X156243Y75945D01*
X157152Y75568D01*
X158129Y75440D01*
X159105Y75568D01*
X160015Y75945D01*
X160796Y76544D01*
X161396Y77326D01*
X161773Y78236D01*
X161901Y79212D01*
X161773Y80188D01*
X161396Y81098D01*
X160796Y81880D01*
X160015Y82479D01*
X159105Y82856D01*
X158129Y82984D01*
D02*
G37*
G36*
X82579Y73130D02*
X80709D01*
Y71653D01*
X82579D01*
Y73130D01*
D02*
G37*
G36*
X131923Y58381D02*
Y56511D01*
X133399D01*
Y58381D01*
X131923D01*
D02*
G37*
G36*
X127724Y61500D02*
X125854D01*
Y60023D01*
X127724D01*
Y61500D01*
D02*
G37*
G36*
X94661Y53432D02*
X91413D01*
Y50184D01*
X94661D01*
Y53432D01*
D02*
G37*
G36*
X73007Y53432D02*
X69759D01*
Y50184D01*
X73007D01*
Y53432D01*
D02*
G37*
G36*
X77239D02*
X73991D01*
Y50184D01*
X77239D01*
Y53432D01*
D02*
G37*
G36*
X82579Y70669D02*
X80709D01*
Y69193D01*
X82579D01*
Y70669D01*
D02*
G37*
G36*
X95250Y73505D02*
X92396D01*
Y70257D01*
X95250D01*
Y73505D01*
D02*
G37*
G36*
X191142Y70768D02*
X188386D01*
Y68405D01*
X191142D01*
Y70768D01*
D02*
G37*
G36*
X127724Y63960D02*
X125854D01*
Y62484D01*
X127724D01*
Y63960D01*
D02*
G37*
G36*
X187402Y70768D02*
X184646D01*
Y68405D01*
X187402D01*
Y70768D01*
D02*
G37*
%LPD*%
D12*
X154626Y27179D02*
Y38878D01*
X144291Y16845D02*
X154626Y27179D01*
X144291Y16746D02*
Y16845D01*
X143209Y15664D02*
X144291Y16746D01*
X155709Y26870D02*
Y29429D01*
X145276Y16437D02*
X155709Y26870D01*
X145276Y12656D02*
Y16437D01*
X138670Y6051D02*
X145276Y12656D01*
X133858Y4035D02*
X134252D01*
X135640Y2648D01*
X131547Y6051D02*
X138670D01*
X179705Y-3445D02*
X182224Y-5965D01*
X178248Y-3445D02*
X179705D01*
X172155Y2648D02*
X178248Y-3445D01*
X135640Y2648D02*
X172155D01*
X122179Y6825D02*
Y9247D01*
X120210Y2067D02*
Y9247D01*
Y2067D02*
X120614Y1663D01*
X164596D02*
X172224Y-5965D01*
X128533Y-2274D02*
X132224Y-5965D01*
X116875Y-2274D02*
X128533D01*
X137903Y-1289D02*
X139764Y-3150D01*
X117305Y-1289D02*
X137903D01*
X146565Y-305D02*
X152224Y-5965D01*
X117712Y-305D02*
X146565D01*
X156407Y679D02*
X162323Y-5236D01*
X118120Y679D02*
X156407D01*
X120614Y1663D02*
X164596D01*
X116507Y-3297D02*
X120750D01*
X114305Y3102D02*
X117712Y-305D01*
X112336Y3679D02*
X117305Y-1289D01*
X110368Y4233D02*
X116875Y-2274D01*
X116191Y2608D02*
X118120Y679D01*
X112336Y3679D02*
Y9247D01*
X114305Y3102D02*
Y9247D01*
X116191Y2608D02*
Y9164D01*
X108399Y4810D02*
X116507Y-3297D01*
X108399Y4810D02*
Y9247D01*
X110368Y4233D02*
Y9247D01*
X119505Y-5965D02*
X122224D01*
X116191Y9164D02*
X116273Y9247D01*
X105919Y833D02*
X112323Y-5571D01*
X105919Y833D02*
Y11727D01*
X100689Y16634D02*
X104224D01*
X105222Y17633D01*
X105919D01*
X94070Y20817D02*
X100025Y14862D01*
X94070Y20817D02*
Y20959D01*
X104420Y14862D02*
X105222Y15664D01*
X100025Y14862D02*
X104420D01*
X105222Y15664D02*
X105919D01*
X102397Y18348D02*
Y18406D01*
Y18348D02*
X102437Y18308D01*
X103730Y19601D02*
X105919D01*
X102437Y18308D02*
X103730Y19601D01*
X102559Y20866D02*
X103262Y21570D01*
X105919D01*
X88561Y70356D02*
Y76948D01*
X85018Y80491D02*
X88561Y76948D01*
X142006Y27475D02*
X142090Y27559D01*
X136470Y27475D02*
X142006D01*
X136470Y29444D02*
X144429D01*
X144451Y29422D01*
X95153Y64357D02*
X96927D01*
X94366Y59434D02*
Y64259D01*
X94658D02*
X95153D01*
X94366D02*
X94658D01*
X73499D02*
X94366D01*
X73499Y64259D02*
X73499Y64259D01*
X88561Y70356D02*
X94658Y64259D01*
X133529Y81774D02*
X133529Y81774D01*
X111875Y81774D02*
X133529D01*
X111773Y81672D02*
X111875Y81774D01*
X104501Y81672D02*
X111773D01*
X105288Y67109D02*
Y71931D01*
X103223Y73997D02*
X105288Y71931D01*
X94366Y59434D02*
X98105Y55694D01*
X96927Y64357D02*
X100171Y67601D01*
X103222Y58351D02*
X105977Y61106D01*
X120604Y47198D02*
Y52278D01*
X119851Y46445D02*
X120604Y47198D01*
X117723Y46445D02*
X119851D01*
X124023Y45461D02*
X125132Y46570D01*
X118492Y45461D02*
X124023D01*
X116273Y43242D02*
X118492Y45461D01*
X114305Y43026D02*
X117723Y46445D01*
X119064Y53818D02*
Y59006D01*
X121541Y61483D01*
X119064Y53818D02*
X120604Y52278D01*
X105977Y61106D02*
Y62385D01*
X130053Y7546D02*
X131547Y6051D01*
X136484Y9247D02*
X137957Y7774D01*
X136470Y15664D02*
X143209D01*
X133990Y9247D02*
X136484D01*
X136584Y23623D02*
X142133D01*
X136485Y23524D02*
X136584Y23623D01*
X141437Y19685D02*
X143799Y22047D01*
X146365Y21064D02*
Y21556D01*
X142920Y17618D02*
X146365Y21064D01*
X136485Y17618D02*
X142920D01*
X137569Y19685D02*
X141437D01*
X136470Y21570D02*
X140157D01*
X136470Y17633D02*
X136485Y17618D01*
X136470Y25507D02*
X148608D01*
X148622Y25492D01*
X136470Y23538D02*
X136485Y23524D01*
X137568Y19686D02*
X137569Y19685D01*
X154626Y38878D02*
X157480Y41732D01*
X118242Y39798D02*
Y42356D01*
X119291Y43406D01*
X162500Y70374D02*
X168602Y64272D01*
Y60138D02*
Y64272D01*
Y60138D02*
X169193Y59547D01*
X153937Y70374D02*
X162500D01*
X152362Y68799D02*
X153937Y70374D01*
X152362Y67618D02*
Y68799D01*
X158169Y31890D02*
X162795D01*
X158169Y36811D02*
X158169Y36811D01*
Y31890D02*
Y36811D01*
X118242Y5708D02*
Y9247D01*
X130053Y7546D02*
Y9247D01*
X136470Y27475D02*
X136485Y27461D01*
X116273Y39798D02*
Y43242D01*
X120210Y39798D02*
Y41175D01*
X121850Y42815D01*
X128937Y44291D02*
X130053Y43176D01*
Y39798D02*
Y43176D01*
X114305Y39798D02*
Y43026D01*
X125132Y46570D02*
Y50113D01*
X126313Y51294D02*
X131431D01*
X125132Y50113D02*
X126313Y51294D01*
X136485Y27461D02*
X136486Y27462D01*
X158071Y41634D02*
Y46457D01*
X162795D01*
X155709Y29429D02*
X158169Y31890D01*
X117913Y6036D02*
Y6168D01*
Y6036D02*
X118242Y5708D01*
X162894Y36811D02*
X166240D01*
X173031Y43602D01*
X177461D01*
Y35728D02*
X182087Y40354D01*
X179921Y48031D02*
X182087Y45866D01*
Y40354D02*
Y45866D01*
X162894Y41535D02*
X168405D01*
X174902Y48031D01*
X179921D01*
D13*
X99344Y25507D02*
X99626Y25789D01*
X102466D01*
X157382Y16831D02*
X158898Y15315D01*
Y14370D02*
Y15315D01*
X96727Y20762D02*
Y21156D01*
X97121Y21550D01*
X102002Y23440D02*
X105821D01*
X141203Y82459D02*
X142680Y80983D01*
Y81180D01*
X95153Y49692D02*
X95574Y50113D01*
X99443D01*
X73013Y45264D02*
X73499Y45750D01*
Y49692D01*
X140220Y81476D02*
X141203Y82459D01*
X99679Y81574D02*
X99777Y81672D01*
X95743Y81574D02*
X99679D01*
X111875Y67207D02*
X133529D01*
Y70060D01*
X140220Y76751D01*
X87789Y26174D02*
X90528D01*
X82461Y-4330D02*
X84921Y-6790D01*
X86198D01*
X83149Y-3641D02*
X86198D01*
X83149D02*
X85610Y-1181D01*
X86198D01*
X95347Y11417D02*
X95350Y11414D01*
X91535Y11417D02*
X95347D01*
X91414Y14957D02*
X91535Y14835D01*
Y11417D02*
Y14835D01*
X91217Y11099D02*
X91535Y11417D01*
X91217Y7774D02*
Y11099D01*
X100171Y59630D02*
X100270Y59532D01*
X100171Y59630D02*
Y62877D01*
X131561Y56186D02*
Y60713D01*
X129956Y62318D02*
X131561Y60713D01*
X125952Y62318D02*
X129956D01*
X131431Y56018D02*
X132074Y56860D01*
X111549Y53755D02*
X111586Y53791D01*
X99443Y50113D02*
X103084D01*
Y43518D02*
Y50113D01*
X97121Y21550D02*
X99021D01*
X99541Y21176D02*
X102002Y23440D01*
X127657Y4134D02*
X130674D01*
X131069Y3739D01*
X126116Y5675D02*
X127657Y4134D01*
X126116Y5675D02*
Y9247D01*
X180315Y4331D02*
X181398D01*
X183268Y6201D01*
X184547Y4921D01*
X183268Y6201D02*
Y17126D01*
X183563Y17224D02*
X190748Y24409D01*
X162992Y27165D02*
X163681D01*
X170472Y66732D02*
X175000Y71260D01*
X176673D01*
X190748Y24409D02*
Y54921D01*
X183563Y62106D02*
X190748Y54921D01*
X150394Y68710D02*
X153387Y71703D01*
X164222D01*
X150394Y67618D02*
Y68710D01*
X161811Y61516D02*
X163583Y63287D01*
X159744Y59449D02*
X161811Y61516D01*
X163779Y59547D01*
X164469D01*
X159055Y59449D02*
X159744D01*
X140224Y58563D02*
X144587D01*
X136155Y54494D02*
X140224Y58563D01*
X144587D02*
X146457D01*
X153937Y60138D02*
X158169D01*
X158957D01*
X155512Y62795D02*
X158169Y60138D01*
X147835Y71752D02*
X148425Y71161D01*
Y67618D02*
Y71161D01*
X150394Y56890D02*
X152559Y54724D01*
X150394Y56890D02*
Y58563D01*
X152362D02*
X153937Y60138D01*
X99344Y25507D02*
X103281Y29444D01*
X136155Y50900D02*
Y54494D01*
X105447Y37318D02*
X105919D01*
X99541Y43223D02*
X105447Y37318D01*
X103773Y33381D02*
X105919D01*
X103281Y29444D02*
X105919D01*
X99147Y25310D02*
X99344Y25507D01*
X112336Y33381D02*
X115289Y30428D01*
X114305Y29444D02*
X115289Y30428D01*
X105821Y23440D02*
X105919Y23538D01*
X107809Y45782D02*
X108399Y45192D01*
X103084Y50113D02*
X103084D01*
X103084D02*
Y54444D01*
X107809Y50113D02*
X110466Y47455D01*
X110368Y39798D02*
X110466Y39896D01*
Y47455D01*
X124344Y57200D02*
X125132Y56412D01*
X131037D01*
X131431Y56018D01*
X115191Y50113D02*
X116470D01*
X111549Y53755D02*
X115191Y50113D01*
X108399Y39798D02*
Y45192D01*
X102466Y25507D02*
X105919D01*
X101017Y36136D02*
X103773Y33381D01*
X105919Y29444D02*
X114305D01*
X105919Y33381D02*
X112336D01*
X143898Y59252D02*
X144587Y58563D01*
X143898Y59252D02*
Y61024D01*
X141240D02*
X143898D01*
X139961Y62303D02*
X141240Y61024D01*
X157972Y51181D02*
Y51378D01*
X157972Y51378D01*
Y54724D01*
X88911Y43223D02*
X99541D01*
X148975Y38868D02*
X152717D01*
X148360Y39483D02*
X148975Y38868D01*
X164222Y71703D02*
X171752Y64173D01*
X152559Y54724D02*
X157972D01*
X171752Y56988D02*
Y64173D01*
X157382Y16831D02*
Y19094D01*
X163386Y26772D02*
X176891D01*
X177657Y26005D01*
X170768Y56004D02*
X171752Y56988D01*
X157972Y54724D02*
X168898D01*
D14*
X169193Y54331D02*
X169870D01*
X169193D02*
X170669Y52854D01*
X169870Y54331D02*
X171155Y55616D01*
D15*
X165745Y82127D02*
Y79372D01*
X167123Y80749D01*
X165286D01*
D17*
X142224Y-5965D02*
D03*
X132224D02*
D03*
X162224D02*
D03*
X152224D02*
D03*
X122224D02*
D03*
X112224D02*
D03*
X102224D02*
D03*
X92224D02*
D03*
X162402Y20669D02*
D03*
X182224Y-5965D02*
D03*
X172224D02*
D03*
X149114Y46161D02*
D03*
X148129Y79212D02*
D03*
D18*
X168898Y14370D02*
D03*
X163898D02*
D03*
X158898D02*
D03*
X153898D02*
D03*
X148898Y9370D02*
D03*
X153898D02*
D03*
X158898D02*
D03*
X163898D02*
D03*
X168898D02*
D03*
D19*
X148898Y14370D02*
D03*
D20*
X158129Y79212D02*
D03*
D21*
X185728Y62106D02*
D03*
Y17224D02*
D03*
D22*
Y48524D02*
D03*
Y30807D02*
D03*
D23*
X177461Y25886D02*
D03*
Y53445D02*
D03*
D24*
Y35728D02*
D03*
Y43602D02*
D03*
D25*
X102466Y25789D02*
D03*
X133858Y4035D02*
D03*
X122146Y6791D02*
D03*
X103084Y43518D02*
D03*
X102397Y18406D02*
D03*
X100689Y16634D02*
D03*
X102559Y20866D02*
D03*
X96727Y20762D02*
D03*
X85018Y80491D02*
D03*
X141794Y46740D02*
D03*
X142188Y65731D02*
D03*
X142680Y81180D02*
D03*
X144451Y29422D02*
D03*
X142090Y27552D02*
D03*
X94070Y20959D02*
D03*
X73013Y45264D02*
D03*
X119851Y81869D02*
D03*
X95743Y81574D02*
D03*
X90528Y26174D02*
D03*
X86198Y-1181D02*
D03*
Y-3641D02*
D03*
Y-6790D02*
D03*
X91217Y7774D02*
D03*
X95350Y11414D02*
D03*
X91414Y14957D02*
D03*
X103222Y58351D02*
D03*
X100270Y59532D02*
D03*
X98105Y55694D02*
D03*
X131561Y60713D02*
D03*
X111586Y53791D02*
D03*
X99443Y50113D02*
D03*
X94029Y35546D02*
D03*
X83345Y74587D02*
D03*
X131069Y3739D02*
D03*
X137957Y7774D02*
D03*
X142133Y23623D02*
D03*
X143602Y21555D02*
D03*
X140157Y21752D02*
D03*
X146365Y21556D02*
D03*
X148622Y25492D02*
D03*
X148360Y28262D02*
D03*
X157382Y19094D02*
D03*
X157677Y24016D02*
D03*
X143110Y68602D02*
D03*
X69488Y32874D02*
D03*
X175591Y8366D02*
D03*
X190650Y7972D02*
D03*
X172933Y74705D02*
D03*
X192028Y68209D02*
D03*
X119291Y43406D02*
D03*
X121850Y42815D02*
D03*
X163189Y66535D02*
D03*
X155512Y62795D02*
D03*
X163583Y63287D02*
D03*
X169685Y17323D02*
D03*
X119620Y34759D02*
D03*
X115289D02*
D03*
X110958D02*
D03*
X119620Y30428D02*
D03*
X115289D02*
D03*
X110958Y30428D02*
D03*
X119620Y26097D02*
D03*
X115289D02*
D03*
X110958D02*
D03*
X131037Y22948D02*
D03*
X126706D02*
D03*
X122376D02*
D03*
X131037Y18617D02*
D03*
X126706D02*
D03*
X122376D02*
D03*
X131037Y14286D02*
D03*
X126706D02*
D03*
X122376D02*
D03*
X128937Y44291D02*
D03*
X136155Y54494D02*
D03*
X101903Y35251D02*
D03*
X102592Y28853D02*
D03*
X141077Y54050D02*
D03*
X152789Y33184D02*
D03*
X108006Y43125D02*
D03*
X143898Y61024D02*
D03*
X138976Y71752D02*
D03*
X151378Y63090D02*
D03*
X147441D02*
D03*
X117913Y6168D02*
D03*
X68799Y38780D02*
D03*
X152717Y38868D02*
D03*
X165453Y50098D02*
D03*
X168898Y54331D02*
D03*
X170669Y52854D02*
D03*
X171155Y55616D02*
D03*
X74344Y41648D02*
D03*
X100886Y1870D02*
D03*
D26*
X65339Y-477D02*
D03*
X58253D02*
D03*
Y-7563D02*
D03*
X65339D02*
D03*
Y18067D02*
D03*
X58253D02*
D03*
Y25153D02*
D03*
Y32240D02*
D03*
Y39327D02*
D03*
Y46413D02*
D03*
Y53500D02*
D03*
Y60586D02*
D03*
Y67673D02*
D03*
Y74760D02*
D03*
X65339Y25153D02*
D03*
Y32240D02*
D03*
Y39327D02*
D03*
Y46413D02*
D03*
Y53500D02*
D03*
Y60586D02*
D03*
Y67673D02*
D03*
Y74760D02*
D03*
D43*
X86494Y4133D02*
D03*
X81770D02*
D03*
X83071Y71161D02*
D03*
X87795D02*
D03*
X180315Y4331D02*
D03*
X175591D02*
D03*
X127657Y4134D02*
D03*
X122933D02*
D03*
X107809Y45782D02*
D03*
X103084D02*
D03*
X86811Y11417D02*
D03*
X91535D02*
D03*
X74311Y32972D02*
D03*
X79035D02*
D03*
X79069Y38696D02*
D03*
X74344D02*
D03*
X66321Y8954D02*
D03*
X71045D02*
D03*
X107809Y54444D02*
D03*
X103084D02*
D03*
X107809Y50113D02*
D03*
X103084D02*
D03*
X120638Y61992D02*
D03*
X125362D02*
D03*
X136155Y50900D02*
D03*
X140880D02*
D03*
X133793Y46570D02*
D03*
X138517D02*
D03*
X143110Y71752D02*
D03*
X147835D02*
D03*
D44*
X99777Y81672D02*
D03*
X104501D02*
D03*
X190256Y4331D02*
D03*
X185531D02*
D03*
X162894Y41535D02*
D03*
X158169D02*
D03*
X162894Y36811D02*
D03*
X158169D02*
D03*
X164075Y59547D02*
D03*
X168799D02*
D03*
D45*
X140220Y76751D02*
D03*
Y81476D02*
D03*
X105682Y67601D02*
D03*
Y62877D02*
D03*
X162697Y46457D02*
D03*
Y51181D02*
D03*
X157972Y51181D02*
D03*
Y46457D02*
D03*
X100958Y67601D02*
D03*
Y62877D02*
D03*
X139961Y67027D02*
D03*
Y62303D02*
D03*
X162992Y27165D02*
D03*
Y31890D02*
D03*
X158268Y31890D02*
D03*
Y27165D02*
D03*
D46*
X103223Y73997D02*
D03*
X95742D02*
D03*
D47*
X170177Y67421D02*
D03*
Y72146D02*
D03*
X87303Y20965D02*
D03*
Y25689D02*
D03*
X83760Y38287D02*
D03*
Y33563D02*
D03*
X75787Y16043D02*
D03*
Y11319D02*
D03*
X77067Y26575D02*
D03*
Y21850D02*
D03*
X94029Y43420D02*
D03*
Y38696D02*
D03*
X98360Y43420D02*
D03*
Y38696D02*
D03*
X99147Y20585D02*
D03*
Y25310D02*
D03*
X131431Y51294D02*
D03*
Y56018D02*
D03*
X143242Y38302D02*
D03*
Y33577D02*
D03*
D48*
X133529Y67207D02*
D03*
Y81774D02*
D03*
X111875Y67207D02*
D03*
X111875Y81774D02*
D03*
X95153Y49692D02*
D03*
Y64259D02*
D03*
X73499Y49692D02*
D03*
X73499Y64259D02*
D03*
D49*
X158563Y60138D02*
D03*
Y66437D02*
D03*
X148360Y33184D02*
D03*
Y39483D02*
D03*
X56292Y8437D02*
D03*
X61792Y21937D02*
D03*
Y-3563D02*
D03*
D50*
X152756Y53347D02*
D03*
X146457D02*
D03*
D51*
X116506Y49690D02*
D03*
X125167Y55990D02*
D03*
X125167Y49690D02*
D03*
X116506Y55990D02*
D03*
D52*
X126706Y18617D02*
D03*
D53*
X136470Y37318D02*
D03*
Y35349D02*
D03*
Y33381D02*
D03*
Y31412D02*
D03*
Y29444D02*
D03*
Y27475D02*
D03*
Y25507D02*
D03*
Y23538D02*
D03*
Y21570D02*
D03*
Y19601D02*
D03*
Y17633D02*
D03*
Y15664D02*
D03*
Y13696D02*
D03*
Y11727D02*
D03*
X105919D02*
D03*
Y13696D02*
D03*
Y15664D02*
D03*
Y17633D02*
D03*
Y19601D02*
D03*
Y21570D02*
D03*
Y23538D02*
D03*
Y25507D02*
D03*
Y27475D02*
D03*
Y29444D02*
D03*
Y31412D02*
D03*
Y33381D02*
D03*
Y35349D02*
D03*
Y37318D02*
D03*
D54*
X133990Y9247D02*
D03*
X132021D02*
D03*
X130053D02*
D03*
X128084D02*
D03*
X126116D02*
D03*
X124147D02*
D03*
X122179D02*
D03*
X120210D02*
D03*
X118242D02*
D03*
X116273D02*
D03*
X114305D02*
D03*
X112336D02*
D03*
X110368D02*
D03*
X108399D02*
D03*
Y39798D02*
D03*
X110368D02*
D03*
X112336D02*
D03*
X114305D02*
D03*
X116273D02*
D03*
X118242D02*
D03*
X120210D02*
D03*
X122179D02*
D03*
X124147D02*
D03*
X126116D02*
D03*
X128084D02*
D03*
X130053D02*
D03*
X132021D02*
D03*
X133990D02*
D03*
D55*
X115289Y30428D02*
D03*
D56*
X114305Y17633D02*
D03*
X110368D02*
D03*
X114305Y13696D02*
D03*
X110368D02*
D03*
D57*
X81168Y15340D02*
D03*
Y9434D02*
D03*
X82185Y27657D02*
D03*
Y21752D02*
D03*
X88911Y43223D02*
D03*
Y37318D02*
D03*
D58*
X98163Y31215D02*
D03*
X92258D02*
D03*
D59*
X152362Y58563D02*
D03*
X150394D02*
D03*
X148425D02*
D03*
X146457D02*
D03*
Y67618D02*
D03*
X148425Y67618D02*
D03*
X150394D02*
D03*
X152362D02*
D03*
D60*
X149409Y63090D02*
D03*
D61*
X187894Y71260D02*
D03*
X176673D02*
D03*
D62*
X70276Y-5413D02*
D03*
X81890D02*
D03*
D63*
X76083Y591D02*
D03*
D64*
X68814Y38696D02*
X73538D01*
X94029Y35546D02*
X94128Y35448D01*
X69587Y32972D02*
X74311D01*
X98458Y38696D02*
X101017Y36136D01*
X98360Y38696D02*
X98458D01*
X94029D02*
X98360D01*
X94029Y35546D02*
Y38696D01*
D65*
X83071Y71161D02*
Y74313D01*
X138517Y46570D02*
X138688Y46740D01*
X141794D01*
X148360Y28262D02*
Y33184D01*
X140880Y50900D02*
X141077Y51097D01*
Y54050D01*
X143242Y33577D02*
X147966D01*
X148360Y33184D01*
X152789D01*
D66*
X87303Y25689D02*
X87789Y26174D01*
X56292Y8437D02*
X56810Y8954D01*
X66321D01*
X76654Y1674D02*
X79311D01*
X81770Y4133D01*
X76542Y10714D02*
X86108D01*
X86494Y4133D02*
X86811Y4450D01*
Y11417D01*
X71635Y9742D02*
X74210D01*
X75787Y11319D01*
X75349Y11611D02*
X76050Y10911D01*
X69488Y32874D02*
X69587Y32972D01*
X81941Y20669D02*
X87008D01*
X83268Y33071D02*
X83760Y33563D01*
X83268Y29645D02*
Y33071D01*
X80183Y26560D02*
X83268Y29645D01*
X88911Y37318D02*
X90453Y35776D01*
Y33020D02*
Y35776D01*
Y33020D02*
X92258Y31215D01*
X79035Y32972D02*
X79626Y33563D01*
X83760D01*
X81168Y21639D02*
X81988Y20818D01*
X80858Y15650D02*
X81168Y15340D01*
X73538Y38696D02*
X74344D01*
X76246Y21639D02*
X81168D01*
Y15340D02*
Y21639D01*
X76050Y26560D02*
X80183D01*
X87139Y39089D02*
X88911Y37318D01*
X79462Y39089D02*
X87139D01*
X79069Y38696D02*
X79462Y39089D01*
X98360Y31412D02*
X105919D01*
X98163Y31215D02*
X98360Y31412D01*
X76050Y14749D02*
X76950Y15650D01*
X80858D01*
X86108Y10714D02*
X86811Y11417D01*
D67*
X141077Y31412D02*
X143045Y33381D01*
X136470Y31412D02*
X141077D01*
X157677Y26575D02*
X158268Y27165D01*
X157677Y24016D02*
Y26575D01*
X143110Y69291D02*
X143799Y68602D01*
X143110D02*
X143799D01*
X143110Y69291D02*
Y71752D01*
X175591Y4331D02*
X175591Y4331D01*
X175591Y4331D02*
Y8366D01*
X190256Y4331D02*
X190650Y4724D01*
Y7972D01*
X170177Y72146D02*
X172736Y74705D01*
X172933D01*
X188976Y71260D02*
X192028Y68209D01*
X187894Y71260D02*
X188976D01*
X158957Y66437D02*
X163091D01*
X163189Y66535D01*
X148425Y58563D02*
Y62106D01*
X149409Y63090D01*
X146457Y53347D02*
X148425Y55315D01*
Y58563D01*
X138976Y71752D02*
X143110D01*
X124147Y5250D02*
Y9247D01*
X147179Y38302D02*
X148360Y39483D01*
X136155Y48932D02*
Y50900D01*
X133793Y46570D02*
X136155Y48932D01*
X112336Y39798D02*
Y49916D01*
X107809Y54444D02*
X112336Y49916D01*
X132021Y39798D02*
Y44798D01*
X133793Y46570D01*
X133990Y39798D02*
Y46373D01*
X133793Y46570D02*
X133990Y46373D01*
X136470Y37318D02*
X142258D01*
X143242Y38302D01*
X147179D01*
X136470Y35349D02*
X141470D01*
X143242Y33577D01*
X136470Y33381D02*
X143045D01*
X143242Y33577D01*
X124147Y9247D02*
Y16058D01*
X126706Y18617D01*
X163246Y50282D02*
X163430Y50098D01*
X165453D01*
D68*
X3008Y54012D02*
D03*
Y24487D02*
D03*
Y34369D02*
D03*
Y44130D02*
D03*
Y73655D02*
D03*
Y63773D02*
D03*
D69*
Y10904D02*
D03*
D70*
X52320Y8540D02*
D03*
D71*
X44957Y58937D02*
D03*
D72*
X-38941Y68687D02*
D03*
X44957Y39187D02*
D03*
D73*
X43363Y20937D02*
D03*
D74*
X-38941Y29937D02*
D03*
D75*
X-38940Y48687D02*
D03*
D76*
X61489Y45846D02*
D03*
D77*
Y-2470D02*
D03*
M02*
